<svg width="24" height="24" viewBox="0 0 24 24" fill="none" xmlns="http://www.w3.org/2000/svg">
<g clip-path="url(#clip0_260_7956)">
<path d="M11.9996 13.714C14.3665 13.714 16.2853 11.7952 16.2853 9.42829C16.2853 7.06136 14.3665 5.14258 11.9996 5.14258C9.63265 5.14258 7.71387 7.06136 7.71387 9.42829C7.71387 11.7952 9.63265 13.714 11.9996 13.714Z" stroke="black" stroke-width="2" stroke-linecap="round" stroke-linejoin="round"/>
<path d="M4.67969 20.3996C5.44467 19.1439 6.51982 18.106 7.80176 17.386C9.0837 16.6658 10.5293 16.2876 11.9997 16.2876C13.47 16.2876 14.9157 16.6658 16.1976 17.386C17.4796 18.106 18.5546 19.1439 19.3197 20.3996" stroke="black" stroke-width="2" stroke-linecap="round" stroke-linejoin="round"/>
<path d="M11.9998 23.1426C18.1539 23.1426 23.1426 18.1539 23.1426 11.9998C23.1426 5.84576 18.1539 0.856934 11.9998 0.856934C5.84576 0.856934 0.856934 5.84576 0.856934 11.9998C0.856934 18.1539 5.84576 23.1426 11.9998 23.1426Z" stroke="black" stroke-width="2" stroke-linecap="round" stroke-linejoin="round"/>
</g>
<defs>
<clipPath id="clip0_260_7956">
<rect width="24" height="24" fill="white"/>
</clipPath>
</defs>
</svg>
