<svg width="22" height="22" viewBox="0 0 22 22" fill="none" xmlns="http://www.w3.org/2000/svg">
<path d="M3 6.83333C3 6.3471 3.19315 5.88079 3.53697 5.53697C3.88079 5.19315 4.3471 5 4.83333 5H17.6667C18.1529 5 18.6192 5.19315 18.963 5.53697C19.3068 5.88079 19.5 6.3471 19.5 6.83333M3 6.83333V16C3 16.4862 3.19315 16.9525 3.53697 17.2964C3.88079 17.6402 4.3471 17.8333 4.83333 17.8333H17.6667C18.1529 17.8333 18.6192 17.6402 18.963 17.2964C19.3068 16.9525 19.5 16.4862 19.5 16V6.83333M3 6.83333L11.25 12.3333L19.5 6.83333" stroke="#585858" stroke-linecap="round" stroke-linejoin="round"/>
</svg>
