<svg width="24" height="24" viewBox="0 0 24 24" fill="none" xmlns="http://www.w3.org/2000/svg">
<mask id="mask0_212_6970" style="mask-type:alpha" maskUnits="userSpaceOnUse" x="0" y="0" width="24" height="24">
<rect width="24" height="24" fill="#D9D9D9"/>
</mask>
<g mask="url(#mask0_212_6970)">
<path d="M16.0006 8.30762V5.30762H8.00056V8.30762H6.50056V3.80762H17.5006V8.30762H16.0006ZM17.8083 12.3076C18.0916 12.3076 18.3291 12.2118 18.5208 12.0201C18.7125 11.8285 18.8083 11.591 18.8083 11.3076C18.8083 11.0243 18.7125 10.7868 18.5208 10.5951C18.3291 10.4035 18.0916 10.3076 17.8083 10.3076C17.525 10.3076 17.2875 10.4035 17.0958 10.5951C16.9041 10.7868 16.8083 11.0243 16.8083 11.3076C16.8083 11.591 16.9041 11.8285 17.0958 12.0201C17.2875 12.2118 17.525 12.3076 17.8083 12.3076ZM16.0006 18.9999V14.7306H8.00056V18.9999H16.0006ZM17.5006 20.4999H6.50056V16.4999H2.78906V10.8076C2.78906 10.0993 3.03106 9.50553 3.51506 9.02637C3.99906 8.5472 4.5904 8.30762 5.28906 8.30762H18.7121C19.4204 8.30762 20.0141 8.5472 20.4933 9.02637C20.9725 9.50553 21.2121 10.0993 21.2121 10.8076V16.4999H17.5006V20.4999ZM19.7121 14.9999V10.8076C19.7121 10.5243 19.6162 10.2868 19.4246 10.0951C19.2329 9.90345 18.9954 9.80762 18.7121 9.80762H5.28906C5.00573 9.80762 4.76823 9.90345 4.57656 10.0951C4.3849 10.2868 4.28906 10.5243 4.28906 10.8076V14.9999H6.50056V13.2306H17.5006V14.9999H19.7121Z" fill="white"/>
</g>
</svg>
