<svg width="12" height="8" viewBox="0 0 12 8" fill="none" xmlns="http://www.w3.org/2000/svg">
<path d="M5.99251 3.01213L2.11335 6.89129C1.9189 7.08574 1.67828 7.18539 1.39147 7.19025C1.10467 7.19511 0.864041 7.10032 0.669596 6.90588C0.475152 6.71143 0.37793 6.46838 0.37793 6.17671C0.37793 5.88504 0.475152 5.64199 0.669596 5.44754L4.7821 1.30588C4.9571 1.13088 5.14668 1.00449 5.35085 0.92671C5.55501 0.848932 5.7689 0.810044 5.99251 0.810044C6.21613 0.810044 6.43001 0.848932 6.63418 0.92671C6.83835 1.00449 7.02793 1.13088 7.20293 1.30588L11.33 5.43296C11.5245 5.62741 11.6217 5.87046 11.6217 6.16213C11.6217 6.45379 11.5245 6.69685 11.33 6.89129C11.1356 7.08574 10.8925 7.18296 10.6008 7.18296C10.3092 7.18296 10.0661 7.08574 9.87168 6.89129L5.99251 3.01213Z" fill="#929BAA"/>
</svg>
