<svg width="12" height="7" viewBox="0 0 12 7" fill="none" xmlns="http://www.w3.org/2000/svg">
<path d="M5.99967 4.35018L9.87884 0.471011C10.0733 0.276567 10.3139 0.176914 10.6007 0.172053C10.8875 0.167192 11.1281 0.261983 11.3226 0.456428C11.517 0.650872 11.6143 0.893928 11.6143 1.18559C11.6143 1.47726 11.517 1.72032 11.3226 1.91476L7.21009 6.05643C7.03509 6.23143 6.84551 6.35782 6.64134 6.43559C6.43717 6.51337 6.22328 6.55226 5.99967 6.55226C5.77606 6.55226 5.56217 6.51337 5.35801 6.43559C5.15384 6.35782 4.96426 6.23143 4.78926 6.05643L0.662173 1.92934C0.467729 1.7349 0.370507 1.49184 0.370507 1.20018C0.370507 0.908511 0.467729 0.665455 0.662173 0.471011C0.856618 0.276566 1.09967 0.179344 1.39134 0.179344C1.68301 0.179344 1.92606 0.276566 2.12051 0.471011L5.99967 4.35018Z" fill="#929BAA"/>
</svg>
