<svg width="45" height="32" viewBox="0 0 45 32" fill="none" xmlns="http://www.w3.org/2000/svg">
<path d="M42.2931 5.30171L42.2935 5.30309C42.7152 6.88828 42.945 9.44973 43.062 11.7219C43.1193 12.8357 43.1481 13.8431 43.1624 14.5723C43.1696 14.9365 43.1732 15.2304 43.1749 15.4324C43.1758 15.5334 43.1763 15.6114 43.1765 15.6636L43.1767 15.7223L43.1767 15.7365L43.1767 15.7398V15.7402V15.7403V15.7403V15.7404V15.7404V15.7409L43.1767 15.7441L43.1767 15.7584L43.1765 15.817C43.1763 15.8693 43.1758 15.9472 43.1749 16.0482C43.1732 16.2502 43.1696 16.5442 43.1624 16.9084C43.1481 17.6375 43.1193 18.645 43.062 19.7588C42.9451 22.0297 42.7155 24.5895 42.2942 26.1749C41.9091 27.6042 40.7972 28.7176 39.4032 29.09L39.3993 29.0911C38.6848 29.2841 37.294 29.4543 35.4829 29.5875C33.7143 29.7177 31.6659 29.8051 29.7123 29.8637C27.7611 29.9221 25.9165 29.9514 24.5589 29.966C23.8804 29.9734 23.3243 29.977 22.9382 29.9788C22.7452 29.9798 22.5947 29.9802 22.4927 29.9804L22.3769 29.9806L22.3477 29.9807L22.3405 29.9807H22.3388H22.3384L22.3384 31.4807L22.3383 29.9807H22.3379H22.3362L22.329 29.9807L22.2998 29.9806L22.184 29.9804C22.082 29.9802 21.9316 29.9798 21.7385 29.9788C21.3524 29.977 20.7963 29.9734 20.1178 29.966C18.7602 29.9514 16.9156 29.9221 14.9644 29.8637C13.0108 29.8051 10.9624 29.7177 9.19377 29.5875C7.38352 29.4544 5.99319 29.2842 5.27838 29.0914C3.87214 28.7097 2.75939 27.5966 2.38361 26.179L2.38325 26.1776C1.96147 24.5924 1.7317 22.0309 1.61473 19.7588C1.55739 18.645 1.52866 17.6375 1.5143 16.9084C1.50712 16.5442 1.50355 16.2502 1.50177 16.0482C1.50087 15.9472 1.50043 15.8693 1.50021 15.817L1.50003 15.7584L1.5 15.7441L1.5 15.7409L1.5 15.7404V15.7404V15.7403V15.7402L1.5 15.7398L1.5 15.7365L1.50003 15.7223L1.50021 15.6636C1.50043 15.6114 1.50087 15.5334 1.50177 15.4324C1.50355 15.2304 1.50712 14.9365 1.5143 14.5723C1.52866 13.8431 1.55739 12.8357 1.61473 11.7219C1.73165 9.45074 1.96126 6.89056 2.38269 5.30521C2.76794 3.87616 3.87967 2.76306 5.2735 2.39062L5.2735 2.39063L5.27739 2.38957C5.99191 2.19659 7.3827 2.02638 9.19377 1.89314C10.9624 1.76301 13.0108 1.67555 14.9644 1.61701C16.9156 1.55854 18.7602 1.52927 20.1178 1.51462C20.7963 1.5073 21.3524 1.50365 21.7385 1.50182C21.9316 1.50091 22.082 1.50045 22.184 1.50023L22.2998 1.50003L22.329 1.5L22.3362 1.5L22.3379 1.5H22.3383L22.3384 0L22.3384 1.5H22.3388L22.3405 1.5L22.3477 1.5L22.3769 1.50003L22.4927 1.50023C22.5947 1.50045 22.7452 1.50091 22.9382 1.50182C23.3243 1.50365 23.8804 1.5073 24.5589 1.51462C25.9165 1.52927 27.7611 1.55854 29.7123 1.61701C31.6659 1.67555 33.7143 1.76301 35.4829 1.89314C37.2935 2.02634 38.6839 2.19648 39.3986 2.38939C40.8047 2.77115 41.9174 3.88413 42.2931 5.30171Z" stroke="white" stroke-width="3"/>
<path d="M17.7712 22.3773V9.0957L29.45 15.7326L17.7712 22.3773Z" fill="white"/>
</svg>
