<svg width="22" height="22" viewBox="0 0 22 22" fill="none" xmlns="http://www.w3.org/2000/svg">
<path d="M4.52622 19C4.09115 19 3.72817 18.8556 3.43728 18.5669C3.14639 18.2781 3.00063 17.9175 3 17.485V8.3275C3 7.89563 3.14576 7.53531 3.43728 7.24656C3.7288 6.95781 4.09146 6.81313 4.52528 6.8125H8.66667V5.51406C8.66667 5.08281 8.81243 4.7225 9.10394 4.43313C9.39546 4.14375 9.75844 3.99938 10.1929 4H12.8081C13.2425 4 13.6055 4.14438 13.897 4.43313C14.1885 4.72188 14.334 5.08219 14.3333 5.51406V6.8125H18.4747C18.9092 6.8125 19.2718 6.95719 19.5627 7.24656C19.8536 7.53594 19.9994 7.89625 20 8.3275V17.4859C20 17.9172 19.8542 18.2775 19.5627 18.5669C19.2712 18.8562 18.9085 19.0006 18.4747 19H4.52622ZM9.61111 6.8125H13.3889V5.51406C13.3889 5.37031 13.3284 5.23813 13.2076 5.1175C13.0867 4.99688 12.9535 4.93688 12.8081 4.9375H10.1919C10.0471 4.9375 9.91396 4.9975 9.79244 5.1175C9.67093 5.2375 9.61048 5.36969 9.61111 5.51406V6.8125ZM19.0556 13.8437H13.3889V15.25H9.61111V13.8437H3.94444V17.4859C3.94444 17.6297 4.00489 17.7619 4.12578 17.8825C4.24667 18.0031 4.37983 18.0631 4.52528 18.0625H18.4747C18.6195 18.0625 18.7527 18.0025 18.8742 17.8825C18.9957 17.7625 19.0562 17.63 19.0556 17.485V13.8437ZM10.5556 14.3125H12.4444V12.4375H10.5556V14.3125ZM3.94444 12.9062H9.61111V11.5H13.3889V12.9062H19.0556V8.3275C19.0556 8.18313 18.9951 8.05063 18.8742 7.93C18.7533 7.80938 18.6202 7.74938 18.4747 7.75H4.52528C4.38046 7.75 4.2473 7.81 4.12578 7.93C4.00426 8.05 3.94381 8.1825 3.94444 8.3275V12.9062Z" fill="#585858"/>
</svg>
