<svg width="81" height="57" viewBox="0 0 81 57" fill="none" xmlns="http://www.w3.org/2000/svg">
<g clip-path="url(#clip0_212_7011)">
<path d="M79.2111 8.89042C78.7465 7.17204 77.8402 5.60546 76.5825 4.34666C75.3248 3.08785 73.7595 2.18076 72.0426 1.7157C65.7569 0 40.4589 0 40.4589 0C40.4589 0 15.1597 0.0519332 8.87399 1.76763C7.15701 2.23272 5.59173 3.13986 4.33402 4.39872C3.0763 5.65758 2.17004 7.22423 1.70549 8.94267C-0.195795 20.1204 -0.933338 37.1526 1.7577 47.8832C2.2223 49.6015 3.12858 51.1681 4.38629 52.4269C5.644 53.6857 7.20926 54.5928 8.9262 55.0579C15.2119 56.7736 40.5105 56.7736 40.5105 56.7736C40.5105 56.7736 65.8088 56.7736 72.0942 55.0579C73.8112 54.5929 75.3765 53.6858 76.6343 52.427C77.892 51.1682 78.7984 49.6016 79.263 47.8832C81.2684 36.6896 81.8863 19.6679 79.2111 8.89042Z" fill="#FF0000"/>
<path d="M32.4062 40.5521L53.3928 28.3864L32.4062 16.2207V40.5521Z" fill="white"/>
</g>
<defs>
<clipPath id="clip0_212_7011">
<rect width="81" height="57" fill="white"/>
</clipPath>
</defs>
</svg>
