<svg width="12" height="15" viewBox="0 0 12 15" fill="none" xmlns="http://www.w3.org/2000/svg">
<path d="M6.80769 4.18558C6.80769 4.18558 5.17133 4.18558 3.68182 5.56742V0H0V14.6395H3.72378V13.488C3.72378 13.488 4.6049 15 6.81818 15C6.81818 15 12 14.8198 12 9.53271C12 9.53271 11.8112 4.17557 6.81818 4.17557L6.80769 4.18558ZM5.98951 11.9059C4.68881 11.9059 3.61888 10.8945 3.61888 9.64286C3.61888 8.39119 4.67832 7.38985 5.98951 7.38985C7.3007 7.38985 8.34965 8.4012 8.34965 9.64286C8.34965 10.8845 7.29021 11.9059 5.98951 11.9059Z" fill="black"/>
</svg>
