<svg width="16" height="20" viewBox="0 0 16 20" fill="none" xmlns="http://www.w3.org/2000/svg">
<path d="M9.07692 5.58077C9.07692 5.58077 6.8951 5.58078 4.90909 7.42323V0H0V19.5194H4.96504V17.984C4.96504 17.984 6.13986 20 9.09091 20C9.09091 20 16 19.7597 16 12.7103C16 12.7103 15.7483 5.56742 9.09091 5.56742L9.07692 5.58077ZM7.98601 15.8745C6.25175 15.8745 4.82517 14.526 4.82517 12.8571C4.82517 11.1883 6.23776 9.85314 7.98601 9.85314C9.73427 9.85314 11.1329 11.2016 11.1329 12.8571C11.1329 14.5127 9.72028 15.8745 7.98601 15.8745Z" fill="#0066CC"/>
</svg>
