<svg width="22" height="22" viewBox="0 0 22 22" fill="none" xmlns="http://www.w3.org/2000/svg">
<path d="M17.9575 5.2525C17.9575 5.4175 17.93 5.5825 17.8612 5.73375C17.7925 5.885 17.71 6.0225 17.5862 6.14625C17.4625 6.27 17.325 6.3525 17.1737 6.42125C17.0225 6.49 16.8575 6.5175 16.6925 6.5175C16.5275 6.5175 16.3625 6.49 16.2112 6.42125C16.06 6.3525 15.9225 6.27 15.7987 6.14625C15.675 6.0225 15.5925 5.885 15.5237 5.73375C15.455 5.5825 15.4275 5.4175 15.4275 5.2525C15.4275 4.90875 15.565 4.5925 15.7987 4.35875C16.0325 4.125 16.3625 3.9875 16.6925 3.9875C17.0225 3.9875 17.3525 4.125 17.5862 4.35875C17.82 4.5925 17.9575 4.9225 17.9575 5.2525ZM22 11L21.9312 15.6337C21.9175 17.2975 21.2438 18.8925 20.0613 20.0613C18.8788 21.2438 17.2975 21.9037 15.6337 21.9312L11 22H10.9862L6.36625 21.9312C4.7025 21.9175 3.1075 21.2438 1.93875 20.0613C0.75625 18.8925 0.09625 17.2975 0.06875 15.6337L0 11L0.06875 6.36625C0.0825 4.7025 0.75625 3.1075 1.93875 1.93875C3.1075 0.75625 4.7025 0.09625 6.36625 0.06875L11 0H11.0138L15.6337 0.06875C17.2975 0.0825 18.8925 0.75625 20.0613 1.93875C21.2438 3.12125 21.9037 4.7025 21.9312 6.36625L22 11ZM19.9513 11L19.8825 6.4075C19.8825 5.28 19.415 4.19375 18.6175 3.39625C17.82 2.59875 16.7338 2.145 15.6063 2.13125L11 2.0625L6.39375 2.13125C5.26625 2.13125 4.18 2.59875 3.3825 3.39625C2.585 4.19375 2.13125 5.28 2.1175 6.4075L2.04875 11L2.1175 15.6063C2.1175 16.7338 2.585 17.82 3.3825 18.6175C4.18 19.415 5.26625 19.8688 6.39375 19.8825L11 19.9513L15.6063 19.8825C16.7338 19.8825 17.82 19.415 18.6175 18.6175C19.415 17.82 19.8688 16.7338 19.8825 15.6063L19.9513 11ZM16.6512 11C16.6512 12.4988 16.06 13.9287 15.0012 14.9875C13.9425 16.0462 12.4988 16.6375 11.0138 16.6375C9.52875 16.6375 8.085 16.0462 7.02625 14.9875C5.9675 13.9287 5.37625 12.485 5.37625 11C5.37625 9.515 5.9675 8.07125 7.02625 7.0125C8.085 5.95375 9.52875 5.3625 11.0138 5.3625C12.4988 5.3625 13.9425 5.95375 15.0012 7.0125C16.06 8.07125 16.6512 9.515 16.6512 11ZM14.6025 11C14.6025 10.0513 14.2175 9.13 13.5438 8.45625C12.87 7.7825 11.9487 7.3975 11 7.3975C10.0513 7.3975 9.13 7.7825 8.45625 8.45625C7.7825 9.13 7.3975 10.0513 7.3975 11C7.3975 11.9487 7.7825 12.87 8.45625 13.5438C9.13 14.2175 10.0513 14.6025 11 14.6025C11.9487 14.6025 12.87 14.2175 13.5438 13.5438C14.2175 12.87 14.6025 11.9487 14.6025 11Z" fill="#0066CC"/>
</svg>
