<svg width="16" height="16" viewBox="0 0 16 16" fill="none" xmlns="http://www.w3.org/2000/svg">
<g clip-path="url(#clip0_6_13)">
<path d="M13.06 3.82C13.06 3.94 13.04 4.06 12.99 4.17C12.94 4.28 12.88 4.38 12.79 4.47C12.7 4.56 12.6 4.62 12.49 4.67C12.38 4.72 12.26 4.74 12.14 4.74C12.02 4.74 11.9 4.72 11.79 4.67C11.68 4.62 11.58 4.56 11.49 4.47C11.4 4.38 11.34 4.28 11.29 4.17C11.24 4.06 11.22 3.94 11.22 3.82C11.22 3.57 11.32 3.34 11.49 3.17C11.66 3 11.9 2.9 12.14 2.9C12.38 2.9 12.62 3 12.79 3.17C12.96 3.34 13.06 3.58 13.06 3.82ZM16 8L15.95 11.37C15.94 12.58 15.45 13.74 14.59 14.59C13.73 15.45 12.58 15.93 11.37 15.95L8 16H7.99L4.63 15.95C3.42 15.94 2.26 15.45 1.41 14.59C0.55 13.74 0.07 12.58 0.05 11.37L0 8L0.05 4.63C0.06 3.42 0.55 2.26 1.41 1.41C2.26 0.55 3.42 0.07 4.63 0.05L8 0H8.01L11.37 0.05C12.58 0.06 13.74 0.55 14.59 1.41C15.45 2.27 15.93 3.42 15.95 4.63L16 8ZM14.51 8L14.46 4.66C14.46 3.84 14.12 3.05 13.54 2.47C12.96 1.89 12.17 1.56 11.35 1.55L8 1.5L4.65 1.55C3.83 1.55 3.04 1.89 2.46 2.47C1.88 3.05 1.55 3.84 1.54 4.66L1.49 8L1.54 11.35C1.54 12.17 1.88 12.96 2.46 13.54C3.04 14.12 3.83 14.45 4.65 14.46L8 14.51L11.35 14.46C12.17 14.46 12.96 14.12 13.54 13.54C14.12 12.96 14.45 12.17 14.46 11.35L14.51 8ZM12.11 8C12.11 9.09 11.68 10.13 10.91 10.9C10.14 11.67 9.09 12.1 8.01 12.1C6.93 12.1 5.88 11.67 5.11 10.9C4.34 10.13 3.91 9.08 3.91 8C3.91 6.92 4.34 5.87 5.11 5.1C5.88 4.33 6.93 3.9 8.01 3.9C9.09 3.9 10.14 4.33 10.91 5.1C11.68 5.87 12.11 6.92 12.11 8ZM10.62 8C10.62 7.31 10.34 6.64 9.85 6.15C9.36 5.66 8.69 5.38 8 5.38C7.31 5.38 6.64 5.66 6.15 6.15C5.66 6.64 5.38 7.31 5.38 8C5.38 8.69 5.66 9.36 6.15 9.85C6.64 10.34 7.31 10.62 8 10.62C8.69 10.62 9.36 10.34 9.85 9.85C10.34 9.36 10.62 8.69 10.62 8Z" fill="black"/>
</g>
<defs>
<clipPath id="clip0_6_13">
<rect width="16" height="16" fill="white"/>
</clipPath>
</defs>
</svg>
