<svg width="31" height="22" viewBox="0 0 31 22" fill="none" xmlns="http://www.w3.org/2000/svg">
<g clip-path="url(#clip0_76_882)">
<path d="M30.0861 3.56459L30.0863 3.56504C30.3975 4.73474 30.5594 6.57753 30.641 8.16356C30.6815 8.94914 30.7017 9.6592 30.7118 10.1729C30.7169 10.4296 30.7194 10.6371 30.7207 10.78C30.7209 10.8065 30.7211 10.8308 30.7213 10.8527C30.7215 10.89 30.7217 10.9206 30.7218 10.9441L30.7219 10.9863L30.7219 10.9968L30.7219 10.9993V10.9999V11V11.0001V11.0007L30.7219 11.0032L30.7219 11.0137L30.7218 11.0559C30.7216 11.0932 30.7213 11.1485 30.7207 11.22C30.7194 11.3629 30.7169 11.5704 30.7118 11.8271C30.7017 12.3408 30.6815 13.0509 30.641 13.8364C30.5594 15.422 30.3976 17.2641 30.0866 18.4339C29.7677 19.6185 28.8453 20.5471 27.6781 20.859L27.6768 20.8594C27.1202 21.0097 26.0986 21.131 24.8372 21.2238C23.5899 21.3155 22.1496 21.377 20.7806 21.418C19.4125 21.459 18.1197 21.4795 17.1687 21.4897C16.6933 21.4949 16.3035 21.4974 16.0328 21.4987C15.8974 21.4994 15.7918 21.4997 15.7201 21.4998L15.6385 21.5L15.6178 21.5L15.6126 21.5H15.6114H15.6111L15.611 22L15.6109 21.5H15.6106H15.6093L15.6042 21.5L15.5834 21.5L15.5019 21.4998C15.4302 21.4997 15.3246 21.4994 15.1892 21.4987C14.9184 21.4974 14.5287 21.4949 14.0533 21.4897C13.1023 21.4795 11.8095 21.459 10.4413 21.418C9.07238 21.377 7.63206 21.3155 6.38476 21.2238C5.12372 21.131 4.10244 21.0098 3.54563 20.8595C2.37434 20.5418 1.44878 19.6162 1.13581 18.4354L1.13568 18.435C0.824457 17.2653 0.66255 15.4225 0.580901 13.8364C0.540459 13.0509 0.520219 12.3408 0.510098 11.8271C0.50504 11.5704 0.502515 11.3629 0.501255 11.22C0.500625 11.1485 0.500311 11.0932 0.500155 11.0559L0.500019 11.0137L0.500002 11.0032L0.5 11.0007L0.5 11.0001V11V11V10.9999L0.5 10.9993L0.500002 10.9968L0.500019 10.9863L0.500155 10.9441C0.500311 10.9068 0.500625 10.8515 0.501255 10.78C0.502515 10.6371 0.50504 10.4296 0.510098 10.1729C0.520219 9.6592 0.540459 8.94914 0.580901 8.16356C0.662533 6.57785 0.824392 4.73548 1.1355 3.56575C1.45446 2.38127 2.37675 1.45283 3.54381 1.14099L3.54381 1.14099L3.5451 1.14064C4.10179 0.990282 5.12333 0.869023 6.38476 0.776218C7.63206 0.684453 9.07238 0.623038 10.4413 0.582017C11.8095 0.541021 13.1023 0.520509 14.0533 0.510251C14.5287 0.505123 14.9184 0.50256 15.1892 0.501279C15.3246 0.500639 15.4302 0.500319 15.5019 0.500159L15.5834 0.50002L15.6042 0.500002L15.6093 0.5L15.6106 0.5L15.6109 0.5L15.611 0L15.6111 0.5L15.6114 0.5L15.6126 0.5L15.6178 0.500002L15.6385 0.50002L15.7201 0.500159C15.7918 0.500319 15.8974 0.500639 16.0328 0.501279C16.3035 0.50256 16.6933 0.505123 17.1687 0.510251C18.1197 0.520509 19.4125 0.541021 20.7806 0.582017C22.1496 0.623038 23.5899 0.684453 24.8372 0.776218C26.0984 0.869004 27.1197 0.990231 27.6765 1.14054C28.8477 1.45831 29.7732 2.38389 30.0861 3.56459Z" fill="white" stroke="#0066CC"/>
<path d="M12.4192 15.6382V6.35645L20.5808 10.9946L12.4192 15.6382Z" fill="#0066CC"/>
</g>
<defs>
<clipPath id="clip0_76_882">
<rect width="31" height="22" fill="white"/>
</clipPath>
</defs>
</svg>
