<svg width="20" height="20" viewBox="0 0 20 20" fill="none" xmlns="http://www.w3.org/2000/svg">
<g clip-path="url(#clip0_941_8575)">
<path d="M19.1644 11.6665V19.1665H11.7027C7.54831 19.1665 4.17969 15.8082 4.17969 11.6665C4.17969 7.52484 7.54831 4.1665 11.7027 4.1665C15.857 4.1665 19.1644 7.52484 19.1644 11.6665Z" stroke="#283C82" stroke-width="1.8" stroke-linecap="round" stroke-linejoin="round"/>
<path d="M0.835938 8.3335V15.8335H8.29763C12.452 15.8335 15.8206 12.4752 15.8206 8.3335C15.8206 4.19183 12.4548 0.833496 8.29763 0.833496C4.14048 0.833496 0.835938 4.19183 0.835938 8.3335Z" fill="white" stroke="#283C82" stroke-width="1.8" stroke-linecap="round" stroke-linejoin="round"/>
<path d="M11.9505 9.66949C12.566 9.66949 13.065 9.17203 13.065 8.55838C13.065 7.94473 12.566 7.44727 11.9505 7.44727C11.3349 7.44727 10.8359 7.94473 10.8359 8.55838C10.8359 9.17203 11.3349 9.66949 11.9505 9.66949Z" fill="#283C82"/>
<path d="M8.32936 9.66949C8.94489 9.66949 9.44388 9.17203 9.44388 8.55838C9.44388 7.94473 8.94489 7.44727 8.32936 7.44727C7.71383 7.44727 7.21484 7.94473 7.21484 8.55838C7.21484 9.17203 7.71383 9.66949 8.32936 9.66949Z" fill="#283C82"/>
<path d="M4.70631 9.66949C5.32184 9.66949 5.82083 9.17203 5.82083 8.55838C5.82083 7.94473 5.32184 7.44727 4.70631 7.44727C4.09078 7.44727 3.5918 7.94473 3.5918 8.55838C3.5918 9.17203 4.09078 9.66949 4.70631 9.66949Z" fill="#283C82"/>
</g>
<defs>
<clipPath id="clip0_941_8575">
<rect width="20" height="20" fill="white"/>
</clipPath>
</defs>
</svg>
