<svg width="57" height="57" viewBox="0 0 57 57" fill="none" xmlns="http://www.w3.org/2000/svg">
<g clip-path="url(#clip0_1_595)">
<path d="M28.5 46.3736C28.6056 46.4387 28.5974 46.4143 28.5 46.3084C28.4026 46.4143 28.3944 46.4468 28.5 46.3736Z" stroke="black" stroke-width="2" stroke-linecap="round" stroke-linejoin="round"/>
<path d="M28.5 1.62857C19.2517 1.62857 11.7573 9.29914 11.7573 18.753C11.7573 21.9287 12.2607 23.655 13.097 26.3584C15.5816 34.3954 28.5 46.3084 28.5 46.3084C28.5 46.3084 41.4103 34.4036 43.8949 26.3991C44.7393 23.6794 45.2509 21.945 45.2509 18.753C45.2509 9.29914 37.7564 1.62857 28.5 1.62857ZM28.5 26.2607C23.8718 26.2607 20.1286 22.4987 20.1286 17.8654C20.1286 13.2321 23.8799 9.47014 28.5 9.47014C33.1201 9.47014 36.8714 13.2321 36.8714 17.8654C36.8714 22.4987 33.1201 26.2607 28.5 26.2607Z" stroke="black" stroke-width="2" stroke-linecap="round" stroke-linejoin="round"/>
<path d="M34.8009 40.2583H49.538L55.3761 55.3714H1.62393L7.46197 40.2583H22.5726" stroke="black" stroke-width="2" stroke-linecap="round" stroke-linejoin="round"/>
</g>
<defs>
<clipPath id="clip0_1_595">
<rect width="57" height="57" fill="white"/>
</clipPath>
</defs>
</svg>
