<svg width="57" height="53" viewBox="0 0 57 53" fill="none" xmlns="http://www.w3.org/2000/svg">
<path d="M47.6973 20.7392C47.9312 20.7173 48.165 20.6808 48.4062 20.6808C51.9431 20.6808 54.8077 23.0704 54.8077 26.0154V30.875C54.8077 33.82 51.9431 36.2096 48.4062 36.2096C48.165 36.2096 47.6973 36.1512 47.6973 36.1512" stroke="black" stroke-width="2" stroke-linecap="round" stroke-linejoin="round"/>
<path d="M9.30271 20.7392C9.06886 20.7173 8.83501 20.6808 8.59386 20.6808C5.05694 20.6808 2.19232 23.0704 2.19232 26.0154V30.875C2.19232 33.82 5.05694 36.2096 8.59386 36.2096C8.83501 36.2096 9.06886 36.1731 9.30271 36.1512L10.3989 35.9977" stroke="black" stroke-width="2" stroke-linecap="round" stroke-linejoin="round"/>
<path d="M37.7442 46.8642C37.7442 48.83 36.1511 50.4231 34.1927 50.4231H24.2396C22.2738 50.4231 20.688 48.83 20.688 46.8642C20.688 44.8984 22.2811 43.3127 24.2396 43.3127H34.1927C36.1584 43.3127 37.7442 44.9058 37.7442 46.8642Z" stroke="black" stroke-width="2" stroke-linecap="round" stroke-linejoin="round"/>
<path d="M21.5065 44.5915C14.6081 43.6123 9.30267 37.6785 9.30267 30.5096V16.4058C9.30267 8.55 15.6677 2.185 23.5234 2.185H33.4765C41.3323 2.185 47.6973 8.55 47.6973 16.4058V36.195" stroke="black" stroke-width="2" stroke-linecap="round" stroke-linejoin="round"/>
</svg>
