<svg width="1372" height="212" viewBox="0 0 1372 212" fill="none" xmlns="http://www.w3.org/2000/svg">
<path opacity="0.02" d="M36.92 37.56V100.84H63.8C90.4 100.84 104.96 89.64 104.96 67.52C104.96 45.12 90.4 37.56 63.8 37.56H36.92ZM154.52 212H108.32L65.76 133.6H36.92V212H-4.52V4.8H67.72C111.12 4.8 145.56 19.92 145.56 67.52C145.56 98.6 129.88 117.92 106.08 127.16L154.52 212ZM179.339 212V4.8H306.459V39.24H220.779V87.12H293.579V121.84H220.779V177.28H309.539V212H179.339ZM406.485 215.92C378.765 215.92 351.045 205 330.885 185.68L354.685 157.12C369.525 170.84 389.125 180.08 407.325 180.08C428.885 180.08 440.365 170.84 440.365 156.28C440.365 140.88 427.765 136.12 409.285 128.28L381.565 116.52C360.565 107.84 339.565 91.04 339.565 60.8C339.565 26.92 369.245 0.879998 411.245 0.879998C435.325 0.879998 459.405 10.4 476.205 27.48L455.205 53.52C442.045 42.6 428.325 36.44 411.245 36.44C393.045 36.44 381.285 44.56 381.285 58.28C381.285 73.12 396.125 78.44 413.765 85.44L440.925 96.92C466.125 107.28 482.645 123.24 482.645 153.2C482.645 187.08 454.365 215.92 406.485 215.92ZM512.332 212V4.8H639.452V39.24H553.772V87.12H626.572V121.84H553.772V177.28H642.532V212H512.332ZM716.517 126.6H765.797L759.637 103.92C753.197 82.36 747.597 58.56 741.437 36.16H740.317C734.997 58.84 728.837 82.36 722.677 103.92L716.517 126.6ZM789.317 212L774.757 158.8H707.557L692.997 212H650.997L717.357 4.8H766.077L832.717 212H789.317ZM891.412 37.56V100.84H918.292C944.892 100.84 959.452 89.64 959.452 67.52C959.452 45.12 944.892 37.56 918.292 37.56H891.412ZM1009.01 212H962.812L920.252 133.6H891.412V212H849.972V4.8H922.212C965.612 4.8 1000.05 19.92 1000.05 67.52C1000.05 98.6 984.372 117.92 960.572 127.16L1009.01 212ZM1118.39 215.92C1066.03 215.92 1023.47 178.4 1023.47 109.24C1023.47 40.92 1067.43 0.879998 1119.79 0.879998C1146.11 0.879998 1167.11 13.48 1180.55 27.48L1158.71 53.8C1148.35 43.72 1136.31 36.44 1120.63 36.44C1089.27 36.44 1065.75 63.32 1065.75 107.84C1065.75 152.92 1087.03 180.08 1119.79 180.08C1137.43 180.08 1151.43 171.68 1162.63 159.64L1184.47 185.4C1167.39 205.28 1145.27 215.92 1118.39 215.92ZM1210.86 212V4.8H1252.3V86.28H1330.7V4.8H1371.86V212H1330.7V122.4H1252.3V212H1210.86Z" fill="white"/>
</svg>
