<svg width="90" height="90" viewBox="0 0 90 90" fill="none" xmlns="http://www.w3.org/2000/svg">
<path d="M24.0668 26.5583C23.4896 26.5583 23.0237 26.0924 23.0237 25.5152V23.4289C23.0237 22.8517 23.4896 22.3857 24.0668 22.3857C24.644 22.3857 25.11 22.8517 25.11 23.4289V25.5152C25.11 26.0924 24.644 26.5583 24.0668 26.5583Z" fill="#FFC559"/>
<path d="M24.0668 43.2486C23.4896 43.2486 23.0237 42.7827 23.0237 42.2055V40.1192C23.0237 39.542 23.4896 39.076 24.0668 39.076C24.644 39.076 25.11 39.542 25.11 40.1192V42.2055C25.11 42.7827 24.644 43.2486 24.0668 43.2486Z" fill="#FFC559"/>
<path d="M24.2547 37.3583C26.7512 37.3583 28.775 35.3345 28.775 32.838C28.775 30.3416 26.7512 28.3177 24.2547 28.3177C21.7582 28.3177 19.7344 30.3416 19.7344 32.838C19.7344 35.3345 21.7582 37.3583 24.2547 37.3583Z" fill="#FFC559"/>
<path d="M18.3921 28.6307C18.1279 28.6307 17.8567 28.5264 17.655 28.3247L16.4449 27.1147C16.0346 26.7044 16.0346 26.0437 16.4449 25.6404C16.8552 25.2301 17.5159 25.2301 17.9192 25.6404L19.1293 26.8504C19.5396 27.2607 19.5396 27.9214 19.1293 28.3247C18.9276 28.5264 18.6564 28.6307 18.3921 28.6307Z" fill="#FFC559"/>
<path d="M31.2505 40.0984C30.9863 40.0984 30.7151 39.9941 30.5134 39.7924L29.3033 38.5823C28.893 38.172 28.893 37.5114 29.3033 37.108C29.7136 36.6977 30.3743 36.6977 30.7776 37.108L31.9877 38.3181C32.398 38.7284 32.398 39.389 31.9877 39.7924C31.786 39.9941 31.5148 40.0984 31.2505 40.0984Z" fill="#FFC559"/>
<path d="M15.7216 34.208H14.3307C13.7535 34.208 13.2876 33.7421 13.2876 33.1648C13.2876 32.5876 13.7535 32.1217 14.3307 32.1217H15.7216C16.2988 32.1217 16.7647 32.5876 16.7647 33.1648C16.7647 33.7421 16.2988 34.208 15.7216 34.208Z" fill="#FFC559"/>
<path d="M33.8029 34.208H32.412C31.8348 34.208 31.3689 33.7421 31.3689 33.1648C31.3689 32.5876 31.8348 32.1217 32.412 32.1217H33.8029C34.3801 32.1217 34.846 32.5876 34.846 33.1648C34.846 33.7421 34.3801 34.208 33.8029 34.208Z" fill="#FFC559"/>
<path d="M17.1821 40.0984C16.9178 40.0984 16.6466 39.9941 16.4449 39.7924C16.0346 39.3821 16.0346 38.7214 16.4449 38.3181L17.655 37.108C18.0653 36.6977 18.7259 36.6977 19.1293 37.108C19.5396 37.5183 19.5396 38.179 19.1293 38.5823L17.9192 39.7924C17.7176 39.9941 17.4464 40.0984 17.1821 40.0984Z" fill="#FFC559"/>
<path d="M30.0405 28.6307C29.7762 28.6307 29.505 28.5264 29.3033 28.3247C28.893 27.9144 28.893 27.2538 29.3033 26.8504L30.5134 25.6404C30.9237 25.2301 31.5843 25.2301 31.9877 25.6404C32.391 26.0507 32.398 26.7113 31.9877 27.1147L30.7776 28.3247C30.576 28.5264 30.3048 28.6307 30.0405 28.6307Z" fill="#FFC559"/>
<path d="M84.5691 84.2789C83.9919 84.2789 83.5259 83.813 83.5259 83.2358V51.5937H24.7621C24.1849 51.5937 23.719 51.1278 23.719 50.5506C23.719 49.9734 24.1849 49.5074 24.7621 49.5074H84.5691C85.1463 49.5074 85.6122 49.9734 85.6122 50.5506V83.2358C85.6122 83.813 85.1463 84.2789 84.5691 84.2789Z" fill="#4DDC97"/>
<path d="M85.9599 85.6698H4.59466C4.01745 85.6698 3.55151 85.2038 3.55151 84.6266C3.55151 84.0494 4.01745 83.5835 4.59466 83.5835H85.9599C86.5371 83.5835 87.0031 84.0494 87.0031 84.6266C87.0031 85.2038 86.5371 85.6698 85.9599 85.6698Z" fill="#4DDC97"/>
<path d="M74.8331 51.5938H61.62C61.3279 51.5938 61.0497 51.4686 60.848 51.253C60.6533 51.0374 60.556 50.7453 60.5838 50.4533L63.3655 20.5498C63.4142 20.0143 63.8662 19.604 64.4017 19.604H72.0514C72.5869 19.604 73.0389 20.0143 73.0876 20.5498L75.8693 50.4533C75.8971 50.7453 75.7998 51.0374 75.6051 51.253C75.4103 51.4686 75.1252 51.5938 74.8331 51.5938ZM62.7605 49.5075H73.6857L71.0987 21.6903H65.3475L62.7605 49.5075Z" fill="#4DDC97"/>
<path d="M60.2292 60.6344H57.4475C56.8703 60.6344 56.4043 60.1684 56.4043 59.5912C56.4043 59.014 56.8703 58.5481 57.4475 58.5481H60.2292C60.8064 58.5481 61.2724 59.014 61.2724 59.5912C61.2724 60.1684 60.8064 60.6344 60.2292 60.6344ZM53.2749 60.6344H50.4932C49.916 60.6344 49.45 60.1684 49.45 59.5912C49.45 59.014 49.916 58.5481 50.4932 58.5481H53.2749C53.8521 58.5481 54.3181 59.014 54.3181 59.5912C54.3181 60.1684 53.8521 60.6344 53.2749 60.6344ZM46.3206 60.6344H43.5389C42.9617 60.6344 42.4958 60.1684 42.4958 59.5912C42.4958 59.014 42.9617 58.5481 43.5389 58.5481H46.3206C46.8978 58.5481 47.3638 59.014 47.3638 59.5912C47.3638 60.1684 46.8978 60.6344 46.3206 60.6344ZM39.3663 60.6344H36.5846C36.0074 60.6344 35.5415 60.1684 35.5415 59.5912C35.5415 59.014 36.0074 58.5481 36.5846 58.5481H39.3663C39.9435 58.5481 40.4095 59.014 40.4095 59.5912C40.4095 60.1684 39.9435 60.6344 39.3663 60.6344ZM32.412 60.6344H29.6303C29.0531 60.6344 28.5872 60.1684 28.5872 59.5912C28.5872 59.014 29.0531 58.5481 29.6303 58.5481H32.412C32.9892 58.5481 33.4552 59.014 33.4552 59.5912C33.4552 60.1684 32.9892 60.6344 32.412 60.6344Z" fill="#FFC559"/>
<path d="M76.224 68.284H73.4423C72.8651 68.284 72.3992 67.8181 72.3992 67.2409C72.3992 66.6637 72.8651 66.1978 73.4423 66.1978H76.224C76.8012 66.1978 77.2672 66.6637 77.2672 67.2409C77.2672 67.8181 76.8012 68.284 76.224 68.284ZM69.2697 68.284H66.488C65.9108 68.284 65.4449 67.8181 65.4449 67.2409C65.4449 66.6637 65.9108 66.1978 66.488 66.1978H69.2697C69.8469 66.1978 70.3129 66.6637 70.3129 67.2409C70.3129 67.8181 69.8469 68.284 69.2697 68.284ZM62.3154 68.284H59.5337C58.9565 68.284 58.4906 67.8181 58.4906 67.2409C58.4906 66.6637 58.9565 66.1978 59.5337 66.1978H62.3154C62.8926 66.1978 63.3586 66.6637 63.3586 67.2409C63.3586 67.8181 62.8926 68.284 62.3154 68.284ZM55.3611 68.284H52.5794C52.0022 68.284 51.5363 67.8181 51.5363 67.2409C51.5363 66.6637 52.0022 66.1978 52.5794 66.1978H55.3611C55.9383 66.1978 56.4043 66.6637 56.4043 67.2409C56.4043 67.8181 55.9383 68.284 55.3611 68.284ZM48.4068 68.284H45.6251C45.0479 68.284 44.582 67.8181 44.582 67.2409C44.582 66.6637 45.0479 66.1978 45.6251 66.1978H48.4068C48.9841 66.1978 49.45 66.6637 49.45 67.2409C49.45 67.8181 48.9841 68.284 48.4068 68.284ZM41.4525 68.284H38.6708C38.0936 68.284 37.6277 67.8181 37.6277 67.2409C37.6277 66.6637 38.0936 66.1978 38.6708 66.1978H41.4525C42.0298 66.1978 42.4957 66.6637 42.4957 67.2409C42.4957 67.8181 42.0298 68.284 41.4525 68.284Z" fill="#FFC559"/>
<path d="M76.224 75.9338H73.4423C72.8651 75.9338 72.3992 75.4679 72.3992 74.8907C72.3992 74.3135 72.8651 73.8475 73.4423 73.8475H76.224C76.8012 73.8475 77.2672 74.3135 77.2672 74.8907C77.2672 75.4679 76.8012 75.9338 76.224 75.9338ZM69.2697 75.9338H66.488C65.9108 75.9338 65.4449 75.4679 65.4449 74.8907C65.4449 74.3135 65.9108 73.8475 66.488 73.8475H69.2697C69.8469 73.8475 70.3129 74.3135 70.3129 74.8907C70.3129 75.4679 69.8469 75.9338 69.2697 75.9338ZM62.3154 75.9338H59.5337C58.9565 75.9338 58.4906 75.4679 58.4906 74.8907C58.4906 74.3135 58.9565 73.8475 59.5337 73.8475H62.3154C62.8926 73.8475 63.3586 74.3135 63.3586 74.8907C63.3586 75.4679 62.8926 75.9338 62.3154 75.9338ZM55.3611 75.9338H52.5794C52.0022 75.9338 51.5363 75.4679 51.5363 74.8907C51.5363 74.3135 52.0022 73.8475 52.5794 73.8475H55.3611C55.9383 73.8475 56.4043 74.3135 56.4043 74.8907C56.4043 75.4679 55.9383 75.9338 55.3611 75.9338ZM48.4068 75.9338H45.6251C45.0479 75.9338 44.582 75.4679 44.582 74.8907C44.582 74.3135 45.0479 73.8475 45.6251 73.8475H48.4068C48.9841 73.8475 49.45 74.3135 49.45 74.8907C49.45 75.4679 48.9841 75.9338 48.4068 75.9338ZM41.4525 75.9338H38.6708C38.0936 75.9338 37.6277 75.4679 37.6277 74.8907C37.6277 74.3135 38.0936 73.8475 38.6708 73.8475H41.4525C42.0298 73.8475 42.4957 74.3135 42.4957 74.8907C42.4957 75.4679 42.0298 75.9338 41.4525 75.9338Z" fill="#FFC559"/>
<path d="M65.0971 15.4315C64.5199 15.4315 64.054 14.9655 64.054 14.3883V10.2158C64.054 9.63855 64.5199 9.17261 65.0971 9.17261C65.6743 9.17261 66.1402 9.63855 66.1402 10.2158V14.3883C66.1402 14.9655 65.6743 15.4315 65.0971 15.4315Z" fill="#FFC559"/>
<path d="M70.6606 17.5177C70.0834 17.5177 69.6174 17.0518 69.6174 16.4746V6.04314C69.6174 5.46594 70.0834 5 70.6606 5C71.2378 5 71.7037 5.46594 71.7037 6.04314V16.4746C71.7037 17.0518 71.2378 17.5177 70.6606 17.5177Z" fill="#FFC559"/>
<path d="M41.369 50.7662C41.369 50.7662 41.3065 50.7662 41.2717 50.7662C40.6945 50.7105 40.2772 50.2029 40.3329 49.6326L41.8072 33.7699C41.8558 33.2344 42.3079 32.8241 42.8434 32.8241H50.4931C51.0286 32.8241 51.4806 33.2344 51.5293 33.7699L52.9897 49.4657C53.0453 50.036 52.6211 50.5506 52.0508 50.5993C51.4806 50.6619 50.966 50.2307 50.9173 49.6605L49.5473 34.9104H43.7961L42.4052 49.8274C42.3566 50.3698 41.8976 50.7731 41.369 50.7731V50.7662Z" fill="#4DDC97"/>
<path d="M43.5387 28.6446C42.9615 28.6446 42.4956 28.1787 42.4956 27.6015V23.4289C42.4956 22.8517 42.9615 22.3857 43.5387 22.3857C44.116 22.3857 44.5819 22.8517 44.5819 23.4289V27.6015C44.5819 28.1787 44.116 28.6446 43.5387 28.6446Z" fill="#FFC559"/>
<path d="M49.1022 30.7309C48.525 30.7309 48.0591 30.2649 48.0591 29.6877V19.2563C48.0591 18.6791 48.525 18.2131 49.1022 18.2131C49.6794 18.2131 50.1454 18.6791 50.1454 19.2563V29.6877C50.1454 30.2649 49.6794 30.7309 49.1022 30.7309Z" fill="#FFC559"/>
<path d="M4.30963 61.8583C8.06495 72.7418 19.6647 78.493 19.6647 78.493C19.6647 78.493 25.1795 66.6081 21.4242 55.7246C17.6688 44.8412 6.06907 39.09 6.06907 39.09C6.06907 39.09 0.554309 50.9749 4.30963 61.8583Z" stroke="#4DDC97" stroke-width="2" stroke-linecap="round" stroke-linejoin="round"/>
<path d="M25.5619 71.1979C22.4881 75.3218 23.8303 81.3651 23.8303 81.3651C23.8303 81.3651 30.1517 80.7253 33.2255 76.6014C36.2993 72.4775 34.9571 66.4342 34.9571 66.4342C34.9571 66.4342 28.6357 67.074 25.5619 71.1979Z" stroke="#4DDC97" stroke-width="2" stroke-linecap="round" stroke-linejoin="round"/>
<path d="M23.3714 84.9744C23.2532 84.9744 23.128 84.9535 23.0028 84.9048C22.4604 84.7032 22.1892 84.0981 22.3908 83.5627C22.4812 83.3262 24.6023 77.7558 29.5398 72.1159C29.9223 71.6847 30.576 71.6361 31.0142 72.0185C31.4453 72.401 31.494 73.0547 31.1115 73.4928C26.4243 78.8546 24.3658 84.2442 24.3519 84.2998C24.192 84.7171 23.7956 84.9744 23.3783 84.9744H23.3714Z" fill="#4DDC97"/>
<path d="M19.7621 84.4807C19.1988 84.4807 18.7328 84.0287 18.7189 83.4654C18.7189 83.3541 18.3643 72.3385 12.4114 58.5829C12.1819 58.0544 12.4253 57.4424 12.9538 57.2129C13.4823 56.9834 14.0943 57.2268 14.3238 57.7553C20.4575 71.9004 20.7983 82.9507 20.8052 83.4167C20.8191 83.9939 20.3671 84.4737 19.7899 84.4876C19.7829 84.4876 19.769 84.4876 19.7621 84.4876V84.4807Z" fill="#4DDC97"/>
</svg>
