<svg width="90" height="90" viewBox="0 0 90 90" fill="none" xmlns="http://www.w3.org/2000/svg">
<path d="M51.3335 45.5121C50.7732 45.5121 50.3208 45.0561 50.3208 44.4913V30.5411H46.27V44.4913C46.27 45.0561 45.8177 45.5121 45.2573 45.5121C44.697 45.5121 44.2446 45.0561 44.2446 44.4913V29.5204C44.2446 28.9556 44.697 28.4996 45.2573 28.4996H51.3335C51.8939 28.4996 52.3462 28.9556 52.3462 29.5204V44.4913C52.3462 45.0561 51.8939 45.5121 51.3335 45.5121Z" fill="#FFC559"/>
<path d="M54.2906 30.5412H51.3335C50.7731 30.5412 50.3208 30.0852 50.3208 29.5204V26.5262C50.3208 24.4439 51.7926 22.627 53.7505 22.3072C55.0062 22.0962 56.2687 22.4705 57.2004 23.3279C58.1321 24.1853 58.6249 25.4034 58.5372 26.676C58.3954 28.8399 56.5253 30.5412 54.2906 30.5412ZM52.3462 28.4997H54.2906C55.4451 28.4997 56.4443 27.6218 56.5185 26.5399C56.559 25.8934 56.316 25.2673 55.8366 24.8386C55.364 24.4031 54.7227 24.2125 54.0745 24.3214C53.0888 24.4847 52.3462 25.4306 52.3462 26.5262V28.4997Z" fill="#FFC559"/>
<path d="M45.2573 30.5412H42.3002C40.0655 30.5412 38.1954 28.8467 38.0536 26.676C37.9726 25.4034 38.4587 24.1785 39.3904 23.3279C40.3221 22.4705 41.5846 22.0962 42.8403 22.3072C44.7915 22.627 46.27 24.4439 46.27 26.5262V29.5204C46.27 30.0852 45.8177 30.5412 45.2573 30.5412ZM42.1652 24.2942C41.6454 24.2942 41.1458 24.4847 40.7542 24.8386C40.2816 25.2741 40.0318 25.8934 40.0723 26.5399C40.1466 27.6218 41.139 28.4997 42.3002 28.4997H44.2446V26.5262C44.2446 25.4306 43.502 24.4847 42.5163 24.3214C42.4015 24.301 42.28 24.2942 42.1652 24.2942Z" fill="#FFC559"/>
<path d="M52.731 76.9919C52.6365 76.9919 52.5352 76.9783 52.4407 76.9511C51.9074 76.7878 51.6036 76.223 51.7588 75.6786C54.3446 66.9886 65.1197 57.9856 69.6363 54.5219C70.0819 54.1816 70.7166 54.2633 71.0541 54.7124C71.3917 55.1616 71.3107 55.8012 70.8651 56.1415C67.4692 58.7478 56.1877 67.9141 53.7032 76.257C53.5749 76.6993 53.1699 76.9851 52.731 76.9851V76.9919Z" fill="#4DDC97"/>
<path d="M84.3742 86.0017C84.2594 86.0017 84.1379 85.9812 84.0231 85.9404C83.8206 85.8656 63.6679 78.4822 49.7534 77.7472C33.5705 76.8966 13.1072 85.0966 12.9046 85.1783C12.3848 85.3892 11.7974 85.1374 11.5881 84.6134C11.3788 84.0895 11.6286 83.4974 12.1485 83.2865C12.9992 82.9394 33.2194 74.8279 49.8614 75.7125C64.0864 76.4611 83.8881 83.722 84.7253 84.0282C85.2519 84.2188 85.5219 84.8108 85.3261 85.3348C85.1776 85.7499 84.786 86.0017 84.3742 86.0017Z" fill="#FFC559"/>
<path d="M59.7591 71.1668C57.3894 71.1668 55.8231 70.949 55.7218 70.9354C55.2087 70.8606 54.8306 70.4046 54.8509 69.8875C54.8711 69.3227 55.4922 56.0189 64.0529 48.7376C72.6204 41.4495 85.5829 43.2188 86.1298 43.2936C86.6429 43.3685 87.0209 43.8244 87.0007 44.3484C86.9804 44.9132 86.3593 58.2169 77.7986 65.4983C75.3884 67.5534 72.3841 69.0709 68.8666 70.0304C68.3265 70.1801 67.7729 69.8534 67.6244 69.309C67.4759 68.7647 67.7999 68.2066 68.34 68.0569C71.5672 67.1791 74.3082 65.7977 76.4889 63.9399C83.1187 58.2986 84.5905 48.3361 84.8943 45.2262C81.8292 44.9744 71.9587 44.6886 65.3559 50.3027C58.7261 55.9441 57.2543 65.9134 56.9505 69.0232C58.3751 69.1389 61.2511 69.2682 64.566 68.8191C65.1196 68.7442 65.6327 69.1321 65.707 69.6969C65.7813 70.2549 65.3964 70.7721 64.8361 70.847C62.9457 71.1056 61.1971 71.1872 59.7523 71.1872L59.7591 71.1668Z" fill="#4DDC97"/>
<path d="M43.8259 76.9715C43.3668 76.9715 42.955 76.6584 42.8402 76.1957C40.241 65.4438 26.5763 53.1064 22.4512 49.5814C22.0259 49.214 21.9719 48.5743 22.3364 48.1456C22.701 47.7169 23.3356 47.6624 23.761 48.0299C29.1958 52.6777 42.1313 64.6749 44.8049 75.7194C44.9399 76.2638 44.6023 76.8218 44.0622 76.9511C43.9812 76.9715 43.9002 76.9783 43.8192 76.9783L43.8259 76.9715Z" fill="#4DDC97"/>
<path d="M37.6416 69.2411C32.4431 69.2411 20.9861 68.3224 13.1276 60.8914C2.89932 51.2351 2.99383 34.5493 3.00059 33.8484C3.00059 33.3244 3.40566 32.8889 3.92552 32.8413C4.06729 32.8276 7.43621 32.535 12.0811 33.0794C12.6347 33.1475 13.0331 33.6511 12.9723 34.2091C12.9048 34.7671 12.4052 35.1754 11.8516 35.1073C8.82023 34.7535 6.33574 34.7671 5.05299 34.8215C5.19477 38.4554 6.28848 51.6298 14.5116 59.4011C22.7212 67.1588 35.6635 67.2881 39.2417 67.1588C39.0999 63.5249 38.0062 50.3505 29.7831 42.5792C26.2521 39.2447 21.4857 36.9311 15.6121 35.713C15.0652 35.5973 14.7141 35.0597 14.8222 34.5085C14.9369 33.9573 15.4703 33.5966 16.0171 33.7123C22.2621 35.0052 27.3594 37.4891 31.1671 41.0889C41.3886 50.752 41.2941 67.431 41.2874 68.1387C41.2874 68.6627 40.8823 69.0982 40.3624 69.1458C40.2004 69.1594 39.2012 69.2411 37.6349 69.2411H37.6416Z" fill="#4DDC97"/>
<path d="M47.9575 76.815C47.3972 76.815 46.9448 76.3591 46.9448 75.7943V58.1013C46.9448 57.5365 47.3972 57.0806 47.9575 57.0806C48.5179 57.0806 48.9702 57.5365 48.9702 58.1013V75.7943C48.9702 76.3591 48.5179 76.815 47.9575 76.815Z" fill="#4DDC97"/>
<path d="M54.1891 46.8731H42.408C40.4434 46.8731 38.85 45.2603 38.85 43.2869V41.1705C38.85 39.3876 38.0331 37.6728 36.6086 36.4683C32.2202 32.7596 29.8438 27.3292 30.0936 21.5586C30.4851 12.3038 37.9724 4.6142 47.1339 4.03577C52.2379 3.72274 57.0719 5.47162 60.7783 8.98299C64.4308 12.4467 66.5237 17.3259 66.5237 22.3752C66.5237 26.1383 65.403 29.7586 63.2763 32.8413C62.959 33.304 62.3244 33.4197 61.8653 33.0998C61.4062 32.78 61.2914 32.1403 61.6088 31.6776C63.4924 28.942 64.4916 25.7232 64.4916 22.3752C64.4916 17.8227 62.6755 13.59 59.3808 10.4733C56.0862 7.3566 51.7991 5.79146 47.2487 6.07727C39.1133 6.58764 32.4565 13.4266 32.0987 21.6403C31.8759 26.7712 33.9891 31.6027 37.8914 34.8964C39.775 36.4887 40.8619 38.7752 40.8619 41.1637V43.2801C40.8619 44.1307 41.5506 44.8248 42.3945 44.8248H54.1756C55.0195 44.8248 55.7081 44.1307 55.7081 43.2801V41.1569C55.7081 38.748 56.7613 36.4887 58.5909 34.9644C59.023 34.6037 59.6576 34.665 60.0154 35.1005C60.3733 35.536 60.3125 36.1757 59.8804 36.5364C58.5167 37.6728 57.7335 39.3536 57.7335 41.1501V43.2733C57.7335 45.2535 56.1334 46.8595 54.1756 46.8595L54.1891 46.8731Z" fill="#4DDC97"/>
<path d="M44.7643 53.399C43.9812 53.399 43.2183 53.1064 42.6242 52.5756C41.9355 51.9632 41.5439 51.0785 41.5439 50.153V45.8523C41.5439 45.2875 41.9963 44.8315 42.5566 44.8315C43.117 44.8315 43.5693 45.2875 43.5693 45.8523V50.153C43.5693 50.5001 43.7111 50.8199 43.9677 51.0513C44.2242 51.2827 44.5483 51.3847 44.8994 51.3507L51.9612 50.5137C52.5621 50.4388 53.0145 49.9285 53.0145 49.316V45.8523C53.0145 45.2875 53.4668 44.8315 54.0271 44.8315C54.5875 44.8315 55.0398 45.2875 55.0398 45.8523V49.316C55.0398 50.9628 53.8179 52.3442 52.1975 52.5416L45.1357 53.3786C45.0141 53.3922 44.8859 53.399 44.7576 53.399H44.7643Z" fill="#4DDC97"/>
<path d="M50.0236 58.4415H46.5669C44.9128 58.4415 43.5693 57.0873 43.5693 55.4201V53.3378C43.5693 52.773 44.0217 52.3171 44.582 52.3171C45.1424 52.3171 45.5947 52.773 45.5947 53.3378V55.4201C45.5947 55.9577 46.0336 56.4 46.5669 56.4H50.0236C50.557 56.4 50.9958 55.9577 50.9958 55.4201V51.9768C50.9958 51.412 51.4481 50.9561 52.0085 50.9561C52.5689 50.9561 53.0212 51.412 53.0212 51.9768V55.4201C53.0212 57.0873 51.6777 58.4415 50.0236 58.4415Z" fill="#4DDC97"/>
</svg>
