<svg width="90" height="90" viewBox="0 0 90 90" fill="none" xmlns="http://www.w3.org/2000/svg">
<path d="M58.628 45.7178C55.1403 45.7178 46.028 45.1197 40.1278 39.2801C32.8635 32.0897 33.4952 19.9466 33.5288 19.4359C33.5557 18.9319 33.9589 18.522 34.4629 18.4884C34.9736 18.4481 47.1099 17.7021 54.3742 24.8925C61.6386 32.0829 61.0069 44.226 60.9733 44.7367C60.9464 45.2407 60.5432 45.6506 60.0392 45.6842C59.9451 45.6842 59.4344 45.7246 58.6347 45.7246L58.628 45.7178ZM41.5458 37.842C47.0763 43.3188 56.0946 43.7354 58.9774 43.6951C58.9707 40.8055 58.4734 31.7873 52.9563 26.3239C47.4392 20.8605 38.4277 20.4708 35.5246 20.4775C35.5314 23.3671 36.0286 32.3853 41.5458 37.8487V37.842Z" fill="#4DDC97"/>
<path d="M63.8966 51.2214C63.5606 51.2214 63.2313 51.0534 63.0431 50.7443C56.975 40.9869 50.6111 33.9712 42.3993 27.9971C41.949 27.6678 41.8482 27.0429 42.1775 26.5926C42.5068 26.1424 43.1385 26.0416 43.582 26.3709C52.0156 32.4995 58.5407 39.6899 64.7567 49.6826C65.0524 50.153 64.9046 50.7779 64.4342 51.0736C64.2662 51.1744 64.0847 51.2282 63.9033 51.2282L63.8966 51.2214Z" fill="#4DDC97"/>
<path d="M53.7361 38.272C53.7361 38.272 53.6958 38.272 53.6756 38.272L46.4247 37.8554C45.867 37.8218 45.4436 37.3446 45.4772 36.7936C45.5108 36.2358 45.9745 35.8192 46.539 35.8461L53.7899 36.2627C54.3476 36.2963 54.771 36.7734 54.7374 37.3245C54.7105 37.8621 54.2603 38.272 53.7294 38.272H53.7361Z" fill="#4DDC97"/>
<path d="M48.36 32.896H43.6559C43.0982 32.896 42.6479 32.4458 42.6479 31.888C42.6479 31.3302 43.0982 30.88 43.6559 30.88H48.36C48.9177 30.88 49.368 31.3302 49.368 31.888C49.368 32.4458 48.9177 32.896 48.36 32.896Z" fill="#4DDC97"/>
<path d="M63.9439 51.1811C63.8632 51.1811 63.7759 51.1743 63.6952 51.1475C63.1576 51.0063 62.8283 50.462 62.9695 49.9244C65.7583 39.0111 71.2754 29.8719 71.5106 29.4822C71.7995 29.0051 72.4245 28.8572 72.8949 29.1462C73.372 29.4351 73.5199 30.0534 73.2309 30.5305C73.1772 30.6246 67.6331 39.8108 64.9183 50.4217C64.804 50.8787 64.3941 51.1811 63.9439 51.1811Z" fill="#4DDC97"/>
<path d="M66.4704 43.937C66.0941 43.937 65.7446 43.7286 65.5699 43.3792C65.4154 43.0634 61.7664 35.6243 64.5014 29.4083C67.2432 23.199 75.1997 20.8739 75.5357 20.7731C75.9994 20.6387 76.4967 20.8605 76.7117 21.2905C76.8663 21.6064 80.5152 29.0454 77.7802 35.2614C75.0384 41.4707 67.0819 43.8026 66.7459 43.8966C66.6518 43.9235 66.5645 43.937 66.4704 43.937ZM75.2602 22.9974C73.2643 23.7366 68.2243 25.9609 66.3427 30.2281C64.4611 34.5021 66.215 39.7168 67.0147 41.6858C69.0106 40.9466 74.0506 38.7222 75.9322 34.455C77.8138 30.1811 76.0598 24.9664 75.2602 22.9974Z" fill="#4DDC97"/>
<path d="M80.616 79.264H4.008C3.45024 79.264 3 78.8138 3 78.256C3 77.6983 3.45024 77.248 4.008 77.248H80.616C81.1738 77.248 81.624 77.6983 81.624 78.256C81.624 78.8138 81.1738 79.264 80.616 79.264Z" fill="#4DDC97"/>
<path d="M80.616 85.984H77.928C77.3703 85.984 76.92 85.5338 76.92 84.976C76.92 84.4183 77.3703 83.968 77.928 83.968H80.616C81.1738 83.968 81.624 84.4183 81.624 84.976C81.624 85.5338 81.1738 85.984 80.616 85.984ZM73.896 85.984H71.208C70.6503 85.984 70.2 85.5338 70.2 84.976C70.2 84.4183 70.6503 83.968 71.208 83.968H73.896C74.4538 83.968 74.904 84.4183 74.904 84.976C74.904 85.5338 74.4538 85.984 73.896 85.984ZM67.176 85.984H64.488C63.9303 85.984 63.48 85.5338 63.48 84.976C63.48 84.4183 63.9303 83.968 64.488 83.968H67.176C67.7338 83.968 68.184 84.4183 68.184 84.976C68.184 85.5338 67.7338 85.984 67.176 85.984ZM60.456 85.984H57.768C57.2103 85.984 56.76 85.5338 56.76 84.976C56.76 84.4183 57.2103 83.968 57.768 83.968H60.456C61.0138 83.968 61.464 84.4183 61.464 84.976C61.464 85.5338 61.0138 85.984 60.456 85.984ZM53.736 85.984H51.048C50.4903 85.984 50.04 85.5338 50.04 84.976C50.04 84.4183 50.4903 83.968 51.048 83.968H53.736C54.2938 83.968 54.744 84.4183 54.744 84.976C54.744 85.5338 54.2938 85.984 53.736 85.984ZM47.016 85.984H44.328C43.7703 85.984 43.32 85.5338 43.32 84.976C43.32 84.4183 43.7703 83.968 44.328 83.968H47.016C47.5738 83.968 48.024 84.4183 48.024 84.976C48.024 85.5338 47.5738 85.984 47.016 85.984ZM40.296 85.984H37.608C37.0503 85.984 36.6 85.5338 36.6 84.976C36.6 84.4183 37.0503 83.968 37.608 83.968H40.296C40.8538 83.968 41.304 84.4183 41.304 84.976C41.304 85.5338 40.8538 85.984 40.296 85.984ZM33.576 85.984H30.888C30.3303 85.984 29.88 85.5338 29.88 84.976C29.88 84.4183 30.3303 83.968 30.888 83.968H33.576C34.1338 83.968 34.584 84.4183 34.584 84.976C34.584 85.5338 34.1338 85.984 33.576 85.984ZM26.856 85.984H24.168C23.6102 85.984 23.16 85.5338 23.16 84.976C23.16 84.4183 23.6102 83.968 24.168 83.968H26.856C27.4138 83.968 27.864 84.4183 27.864 84.976C27.864 85.5338 27.4138 85.984 26.856 85.984ZM20.136 85.984H17.448C16.8902 85.984 16.44 85.5338 16.44 84.976C16.44 84.4183 16.8902 83.968 17.448 83.968H20.136C20.6938 83.968 21.144 84.4183 21.144 84.976C21.144 85.5338 20.6938 85.984 20.136 85.984ZM13.416 85.984H10.728C10.1702 85.984 9.72 85.5338 9.72 84.976C9.72 84.4183 10.1702 83.968 10.728 83.968H13.416C13.9738 83.968 14.424 84.4183 14.424 84.976C14.424 85.5338 13.9738 85.984 13.416 85.984ZM6.696 85.984H4.008C3.45024 85.984 3 85.5338 3 84.976C3 84.4183 3.45024 83.968 4.008 83.968H6.696C7.25376 83.968 7.704 84.4183 7.704 84.976C7.704 85.5338 7.25376 85.984 6.696 85.984Z" fill="#FFC559"/>
<path d="M72.5519 73.2161C72.0277 73.2161 71.5842 72.8129 71.5506 72.282C71.5103 71.7243 71.9269 71.2404 72.4847 71.2001L77.2761 70.8439C78.0959 70.7902 78.8351 70.4206 79.3727 69.8091C79.9103 69.1841 80.1724 68.3844 80.1052 67.5579C79.9909 66.2004 79.8431 65.8913 79.5071 65.2193C79.3525 64.9035 79.1577 64.5137 78.9292 63.9492C78.1564 62.0139 68.5266 58.459 59.6629 56.1473C59.5689 56.1204 59.4815 56.0868 59.4009 56.0398C59.2866 55.9726 47.7081 49.1047 43.9583 47.6062C42.2111 46.9073 33.213 46.9745 28.8853 47.0081H28.005C23.4152 47.0484 18.2072 47.082 17.2328 47.5726C13.9602 49.2055 8.96723 56.6177 7.31411 59.3326C7.26035 59.4267 7.18643 59.5073 7.10579 59.5745L5.89619 60.6094C5.33843 61.0798 5.02259 61.7719 5.02259 62.4977V67.578C5.02259 68.6801 5.76179 69.6612 6.82355 69.9636L9.28979 70.6692C9.82739 70.8238 10.1365 71.3815 9.98196 71.9124C9.82739 72.45 9.26963 72.7524 8.73875 72.6046L6.27251 71.899C4.35059 71.3479 3.00659 69.5739 3.00659 67.5713V62.491C3.00659 61.1739 3.58451 59.9239 4.58579 59.0638L5.67443 58.1364C6.46739 56.8529 12.1055 47.875 16.3256 45.7582C17.6629 45.0929 21.4328 45.0324 27.9848 44.9854H28.8652C37.5608 44.9115 42.9369 45.019 44.7042 45.7246C48.4271 47.2164 58.9775 53.4391 60.3013 54.2254C63.7756 55.1326 79.2786 59.3931 80.7973 63.1899C80.9922 63.6804 81.1602 64.0164 81.3081 64.3121C81.7247 65.1588 81.9733 65.7233 82.1077 67.3831C82.222 68.754 81.7919 70.0779 80.8981 71.1127C80.0111 72.1409 78.7746 72.7591 77.4172 72.8465L72.6325 73.2027C72.6325 73.2027 72.5788 73.2027 72.5586 73.2027L72.5519 73.2161Z" fill="#4DDC97"/>
<path d="M57.7682 73.216H28.2001C27.6424 73.216 27.1921 72.7657 27.1921 72.208C27.1921 71.6502 27.6424 71.2 28.2001 71.2H57.7682C58.3259 71.2 58.7762 71.6502 58.7762 72.208C58.7762 72.7657 58.3259 73.216 57.7682 73.216Z" fill="#4DDC97"/>
<path d="M18.792 79.264C15.2707 79.264 12.408 76.4013 12.408 72.88C12.408 69.3587 15.2707 66.496 18.792 66.496C22.3132 66.496 25.176 69.3587 25.176 72.88C25.176 76.4013 22.3132 79.264 18.792 79.264ZM18.792 68.512C16.3862 68.512 14.424 70.4742 14.424 72.88C14.424 75.2857 16.3862 77.248 18.792 77.248C21.1977 77.248 23.16 75.2857 23.16 72.88C23.16 70.4742 21.1977 68.512 18.792 68.512Z" fill="#4DDC97"/>
<path d="M63.8161 79.264C60.2949 79.264 57.4321 76.4013 57.4321 72.88C57.4321 69.3587 60.2949 66.496 63.8161 66.496C67.3374 66.496 70.2001 69.3587 70.2001 72.88C70.2001 76.4013 67.3374 79.264 63.8161 79.264ZM63.8161 68.512C61.4104 68.512 59.4481 70.4742 59.4481 72.88C59.4481 75.2857 61.4104 77.248 63.8161 77.248C66.2219 77.248 68.1841 75.2857 68.1841 72.88C68.1841 70.4742 66.2219 68.512 63.8161 68.512Z" fill="#4DDC97"/>
<path d="M53.0641 57.7601H13.4161C13.0532 57.7601 12.7172 57.5652 12.5358 57.2493C12.3544 56.9335 12.3611 56.5437 12.5492 56.2346L14.5652 52.8746C14.5652 52.8746 14.5787 52.8477 14.5921 52.8343C16.299 50.274 18.1134 49.024 20.1361 49.024H39.6241C39.6241 49.024 39.6913 49.024 39.7249 49.024C46.6936 49.7229 53.4539 55.744 53.7361 55.9994C54.0452 56.2816 54.1528 56.7184 54.0049 57.1082C53.8571 57.498 53.4808 57.7533 53.0641 57.7533V57.7601ZM15.1969 55.7441H50.1611C47.7217 53.9767 43.6091 51.4634 39.5771 51.04H20.1428C18.8728 51.04 17.5758 52.0145 16.2923 53.9297L15.2036 55.7441H15.1969Z" fill="#4DDC97"/>
<path d="M30.216 69.8561C29.6582 69.8561 29.208 69.4058 29.208 68.8481V50.704C29.208 50.1463 29.6582 49.696 30.216 49.696C30.7738 49.696 31.224 50.1463 31.224 50.704V68.8481C31.224 69.4058 30.7738 69.8561 30.216 69.8561Z" fill="#4DDC97"/>
<path d="M38.2802 63.136H35.5922C35.0345 63.136 34.5842 62.6858 34.5842 62.128C34.5842 61.5702 35.0345 61.12 35.5922 61.12H38.2802C38.838 61.12 39.2882 61.5702 39.2882 62.128C39.2882 62.6858 38.838 63.136 38.2802 63.136Z" fill="#4DDC97"/>
<path d="M18.1201 63.136H15.4321C14.8743 63.136 14.4241 62.6858 14.4241 62.128C14.4241 61.5702 14.8743 61.12 15.4321 61.12H18.1201C18.6778 61.12 19.1281 61.5702 19.1281 62.128C19.1281 62.6858 18.6778 63.136 18.1201 63.136Z" fill="#4DDC97"/>
<path d="M18.7921 74.56C19.7199 74.56 20.4721 73.8078 20.4721 72.88C20.4721 71.9521 19.7199 71.2 18.7921 71.2C17.8642 71.2 17.1121 71.9521 17.1121 72.88C17.1121 73.8078 17.8642 74.56 18.7921 74.56Z" fill="#4DDC97"/>
<path d="M63.816 74.56C64.7438 74.56 65.496 73.8078 65.496 72.88C65.496 71.9521 64.7438 71.2 63.816 71.2C62.8881 71.2 62.136 71.9521 62.136 72.88C62.136 73.8078 62.8881 74.56 63.816 74.56Z" fill="#4DDC97"/>
<path d="M79.9441 67.168H70.5361C69.9783 67.168 69.5281 66.7177 69.5281 66.16C69.5281 65.6022 69.9783 65.152 70.5361 65.152H79.9441C80.5018 65.152 80.9521 65.6022 80.9521 66.16C80.9521 66.7177 80.5018 67.168 79.9441 67.168Z" fill="#4DDC97"/>
<path d="M12.0721 67.168H4.68012C4.12236 67.168 3.67212 66.7177 3.67212 66.16C3.67212 65.6022 4.12236 65.152 4.68012 65.152H12.0721C12.6299 65.152 13.0801 65.6022 13.0801 66.16C13.0801 66.7177 12.6299 67.168 12.0721 67.168Z" fill="#4DDC97"/>
<path d="M30.888 39.616H13.416C12.8582 39.616 12.408 39.1657 12.408 38.608C12.408 38.0502 12.8582 37.6 13.416 37.6H30.888C31.4457 37.6 31.896 38.0502 31.896 38.608C31.896 39.1657 31.4457 39.616 30.888 39.616Z" fill="#FFC559"/>
<path d="M28.8722 32.224H22.8242C22.2664 32.224 21.8162 31.7738 21.8162 31.216C21.8162 30.6582 22.2664 30.208 22.8242 30.208H28.8722C29.4299 30.208 29.8802 30.6582 29.8802 31.216C29.8802 31.7738 29.4299 32.224 28.8722 32.224Z" fill="#FFC559"/>
<path d="M77.5855 59.057C77.3368 59.057 77.0949 58.9696 76.9001 58.7882C76.4901 58.4119 76.47 57.7735 76.8463 57.3635C82.0946 51.6986 84.9842 44.32 84.9842 36.592C84.9842 19.7315 71.2687 6.016 54.4082 6.016C41.7544 6.016 30.2498 13.9658 25.7877 25.8064C25.5928 26.3239 25.0149 26.5926 24.4907 26.3911C23.9666 26.1962 23.7045 25.6115 23.9061 25.0941C28.6639 12.4739 40.9212 4 54.4082 4C72.3775 4 87.0002 18.6227 87.0002 36.592C87.0002 44.8307 83.9157 52.6931 78.3247 58.7344C78.1231 58.9495 77.8543 59.057 77.5855 59.057Z" fill="#FFC559"/>
</svg>
