<svg width="90" height="90" viewBox="0 0 90 90" fill="none" xmlns="http://www.w3.org/2000/svg">
<path d="M74.0028 36.219C70.6737 33.1661 72.425 29.4505 73.9239 28.5591C75.4227 27.6677 75.9276 31.3833 77.0162 32.9452C78.1128 34.5072 80.2112 35.3986 82.9012 34.1364C82.9643 32.0775 81.71 26.445 78.9332 21.3015C74.4603 13.0263 66.9029 7.7251 66.9029 7.7251C66.9029 7.7251 61.2231 8.22997 57.618 10.4467C56.2374 11.2987 54.281 14.4936 55.2198 16.2685C56.1507 18.0514 55.204 18.7614 54.0917 19.0217C53.8393 19.0848 53.5868 18.9507 53.3344 18.7219C52.5219 17.9725 51.2281 18.4222 51.0704 19.5187C50.8889 20.7967 50.6049 22.0825 50.1789 23.3526C50.7075 24.315 52.5061 23.1948 55.6616 21.8616C58.8249 20.5284 60.5289 22.966 62.154 23.5892C63.779 24.2125 67.4157 23.4788 68.2046 23.6524C68.9934 23.8259 70.2004 25.806 69.7823 27.1628C69.3563 28.5197 67.676 27.857 63.2031 28.7169C58.7224 29.5689 61.5071 27.6283 57.6416 25.5141C53.7762 23.3999 51.4411 27.6835 48.0648 29.5215C44.6963 31.3675 44.8383 38.1518 45.4299 41.5202C46.0216 44.8887 47.5678 44.2734 50.8731 45.22C54.1785 46.1667 56.624 43.8868 59.1089 43.8079C61.5939 43.7291 62.0751 47.0108 63.4793 48.0521C64.8834 49.0934 65.7985 56.0275 66.3428 57.7709C69.4983 56.9821 73.6951 54.15 75.0204 51.46C76.3457 48.7699 74.8705 49.5272 75.2571 46.3087C75.6436 43.0822 81.1499 43.6581 82.0177 40.4631C82.8854 37.2682 77.3318 39.2877 74.0028 36.2269V36.219Z" fill="#FFC559"/>
<path d="M34.7805 48.2965C32.5954 46.3558 28.7378 44.7465 26.2134 44.5414C25.2826 44.4704 20.1155 41.6069 19.7605 39.8398C19.6106 39.0983 16.5025 34.8778 14.5934 33.5131C14.4356 38.9563 15.4296 43.65 15.4296 43.65C15.4296 43.65 16.5025 43.7762 17.9697 43.9419C23.6338 44.5888 21.3698 48.2965 22.9475 52.2408C23.8784 54.5758 25.3141 56.1851 25.7322 56.974H39.8214C39.3875 54.4496 38.9694 52.012 34.7726 48.2965H34.7805Z" fill="#FFC559"/>
<path d="M74.5866 59.7588C74.3183 59.7588 74.0422 59.6641 73.8135 59.4748C73.3165 59.0488 73.2613 58.2994 73.6872 57.8024C79.9114 50.5448 82.6725 40.9601 81.2762 31.5094C79.9824 22.8003 75.3833 15.1088 68.3072 9.86286C61.2389 4.61688 52.5456 2.4396 43.8365 3.72546C37.139 4.71943 31.0016 7.68558 26.0869 12.3084C25.6136 12.758 24.8642 12.7343 24.4145 12.261C23.9649 11.7877 23.9885 11.0383 24.4618 10.5886C29.7315 5.64241 36.3107 2.45538 43.4894 1.39041C52.8217 0.0019995 62.1382 2.34494 69.7192 7.96957C77.3003 13.5942 82.2307 21.83 83.6191 31.1702C85.1179 41.2993 82.1518 51.5704 75.4859 59.3486C75.2492 59.6247 74.9179 59.7588 74.5866 59.7588Z" fill="#4DDC97"/>
<path d="M21.4167 58.1179C21.0617 58.1179 20.7067 57.9601 20.4701 57.6524C16.9202 52.9587 14.5772 47.3814 13.7173 41.5201C13.3229 38.8537 13.2283 36.1557 13.4412 33.4894C13.4965 32.8346 14.0723 32.3613 14.7192 32.4007C15.374 32.456 15.8552 33.0239 15.8 33.6787C15.6027 36.1636 15.6895 38.688 16.0524 41.173C16.8649 46.6398 19.0422 51.8463 22.3555 56.2167C22.7499 56.7373 22.6473 57.4789 22.1267 57.8733C21.9137 58.039 21.6613 58.11 21.4167 58.11V58.1179Z" fill="#4DDC97"/>
<path d="M20.2569 88.3712C19.9019 88.3712 19.5469 88.2134 19.3102 87.9058C18.9158 87.3851 19.0184 86.6436 19.539 86.2491L22.5604 83.9535L12.0448 70.6532L8.88141 73.1382C8.36864 73.5405 7.62711 73.4537 7.21689 72.9409C6.81457 72.4282 6.90135 71.6866 7.41411 71.2764L11.5083 68.0578C12.0211 67.6555 12.7626 67.7423 13.165 68.2551L25.1558 83.425C25.353 83.6774 25.4398 83.993 25.4003 84.3085C25.3609 84.6241 25.1952 84.9081 24.9428 85.1053L20.959 88.1345C20.746 88.3002 20.4936 88.3791 20.2411 88.3791L20.2569 88.3712Z" fill="#FFC559"/>
<path d="M23.9014 83.8194C23.5149 83.8194 23.1362 83.63 22.9075 83.2829C22.5525 82.7386 22.7102 82.005 23.2546 81.65C25.2977 80.3247 27.4356 79.6147 29.6128 79.5358C31.9952 79.449 34.0699 79.4254 35.9001 79.4096C39.734 79.3701 42.5029 79.3465 44.4672 78.6917C49.9025 76.8773 70.4841 66.8587 73.8684 64.1529C73.8841 64.1371 73.9078 64.1213 73.9157 64.1134C73.4976 63.7426 71.9514 63.1589 70.0187 63.506C62.698 64.8392 55.9295 67.5213 55.8664 67.5529C55.2589 67.7974 54.5726 67.4977 54.3281 66.8902C54.0835 66.2828 54.3833 65.5965 54.9907 65.3519C55.2747 65.2415 62.0353 62.5514 69.6006 61.1788C72.4642 60.6582 75.4145 61.5811 76.1718 63.2457C76.6136 64.2081 76.306 65.2415 75.3514 66.0067C71.7463 68.894 50.9281 79.0388 45.2167 80.9479C42.9053 81.721 39.9786 81.7446 35.9238 81.792C34.1094 81.8077 32.0504 81.8314 29.6996 81.9182C27.9562 81.9813 26.2207 82.5729 24.5404 83.6537C24.3432 83.7799 24.1223 83.843 23.9014 83.843V83.8194Z" fill="#4DDC97"/>
<path d="M13.7249 71.3315C13.3778 71.3315 13.0307 71.1737 12.794 70.8818C12.3917 70.369 12.4785 69.6275 12.9913 69.2173C15.0423 67.608 16.5806 66.2669 17.4326 65.3439C20.5407 61.9834 24.3036 60.1295 28.035 60.1295H48.4509C50.715 60.1295 52.6635 61.6757 53.0894 63.7978C53.3656 65.1783 53.0185 66.5825 52.1428 67.6553C51.2672 68.7282 49.9655 69.3435 48.5771 69.3435L37.6907 70.0298C37.0281 70.0693 36.4759 69.5723 36.4364 68.9254C36.397 68.2706 36.894 67.7105 37.5408 67.6711L48.4982 66.9848C49.2477 66.9848 49.8788 66.685 50.3047 66.1565C50.7386 65.6279 50.9043 64.9574 50.7623 64.2632C50.5572 63.2534 49.5632 62.4961 48.443 62.4961H28.0271C24.9663 62.4961 21.8108 64.0739 19.1602 66.9532C18.2136 67.9788 16.6279 69.3672 14.4428 71.079C14.2298 71.2526 13.9695 71.3315 13.717 71.3315H13.7249Z" fill="#4DDC97"/>
<path d="M11.3981 26.6657C17.78 33.6788 29.195 33.5604 29.195 33.5604C29.195 33.5604 30.252 22.0745 23.8622 15.0615C17.4724 8.04842 6.06533 8.16675 6.06533 8.16675C6.06533 8.16675 5.00825 19.6527 11.3981 26.6657Z" stroke="#4DDC97" stroke-width="2" stroke-linecap="round" stroke-linejoin="round"/>
<path d="M31.23 40.4081C30.7015 40.4081 30.2203 40.0452 30.0862 39.5088C29.3367 36.5269 23.1678 26.5398 17.0146 21.2465C16.5176 20.8205 16.4624 20.0711 16.8884 19.5741C17.3144 19.0771 18.0638 19.0219 18.5608 19.4478C25.1479 25.1198 31.5614 35.6197 32.3897 38.9329C32.5474 39.564 32.1609 40.2109 31.5298 40.3686C31.4351 40.3923 31.3326 40.4002 31.2379 40.4002L31.23 40.4081Z" fill="#4DDC97"/>
<path d="M33.3994 18.3667C29.6128 25.7111 33.3363 34.9409 33.3363 34.9409C33.3363 34.9409 43.1971 32.2587 46.9837 24.9143C50.7703 17.57 47.0468 8.34021 47.0468 8.34021C47.0468 8.34021 37.186 11.0224 33.3994 18.3667Z" stroke="#4DDC97" stroke-width="2" stroke-linecap="round" stroke-linejoin="round"/>
<path d="M31.2299 40.4079C31.0957 40.4079 30.9538 40.3843 30.8118 40.3291C30.1964 40.1003 29.8888 39.4219 30.1176 38.8065C30.157 38.704 34.0067 28.4881 40.2545 18.4064C40.6016 17.8463 41.3274 17.6806 41.8796 18.0199C42.4397 18.367 42.6053 19.0927 42.2661 19.6449C36.1445 29.5373 32.3737 39.5323 32.3343 39.6349C32.1528 40.1082 31.7032 40.4001 31.2299 40.4001V40.4079Z" fill="#4DDC97"/>
</svg>
