<svg width="90" height="90" viewBox="0 0 90 90" fill="none" xmlns="http://www.w3.org/2000/svg">
<path d="M68.9264 74.6269L65.9863 70.7495C65.9863 70.7495 73.3871 74.6269 81.9037 70.9536L78.0511 68.0967C78.0511 68.0967 87.9863 68.0967 89.0004 62.995C87.9863 57.8937 78.0511 57.8937 78.0511 57.8937L81.9037 55.0365C73.3875 51.3635 65.9863 55.2406 65.9863 55.2406L68.9264 51.3635C55.7465 48.5067 45 62.995 45 62.995C45 62.995 55.7465 77.4837 68.9264 74.6269Z" fill="white" stroke="#464648" stroke-width="2" stroke-linecap="round" stroke-linejoin="round"/>
<path d="M45 62.9951H63.8571" stroke="#464648" stroke-width="2" stroke-linecap="round" stroke-linejoin="round"/>
<path d="M21.0737 74.627L24.0137 70.7496C24.0137 70.7496 16.6129 74.627 8.09661 70.9537L11.9493 68.0969C11.9493 68.0969 2.0137 68.0969 1 62.9952C2.0137 57.8938 11.9493 57.8938 11.9493 57.8938L8.09661 55.0366C16.6129 51.3637 24.0137 55.2407 24.0137 55.2407L21.0737 51.3637C34.2539 48.5068 45 62.9952 45 62.9952C45 62.9952 34.2539 77.4838 21.0737 74.627Z" fill="white" stroke="#464648" stroke-width="2" stroke-linecap="round" stroke-linejoin="round"/>
<path d="M44.9997 62.9951H26.1426" stroke="#464648" stroke-width="2" stroke-linecap="round" stroke-linejoin="round"/>
<path d="M60.0573 34.819C60.0573 44.1077 53.4221 51.6377 45.2371 51.6377C37.0521 51.6377 30.417 44.1077 30.417 34.819C30.417 25.5303 37.0525 18 45.2371 18C53.4218 18 60.0573 25.53 60.0573 34.819Z" fill="#D8C3EF" stroke="#464648" stroke-width="2" stroke-linecap="round" stroke-linejoin="round"/>
<path d="M45.044 46.604C42.8295 52.116 35.1447 54.1881 27.8795 51.2323C20.6144 48.2765 16.5195 41.4116 18.7339 35.8996C20.948 30.3876 28.6329 28.3159 35.898 31.2713C43.1632 34.2271 47.2581 41.092 45.044 46.604Z" fill="#D8C3EF" stroke="#464648" stroke-width="2" stroke-linecap="round" stroke-linejoin="round"/>
<path d="M46.4281 46.9839C48.6426 52.4959 56.3274 54.568 63.5925 51.6119C70.8577 48.6564 74.9526 41.7912 72.7381 36.2792C70.524 30.7672 62.8392 28.6954 55.574 31.6512C48.3089 34.6066 44.214 41.4719 46.4281 46.9839Z" fill="#D8C3EF" stroke="#464648" stroke-width="2" stroke-linecap="round" stroke-linejoin="round"/>
<path d="M48.0623 51.7453C48.0623 53.3226 46.7917 54.6014 45.2247 54.6014C43.6574 54.6014 42.3867 53.3226 42.3867 51.7453V33.7557C42.3867 32.1787 43.6574 30.8999 45.2247 30.8999C46.7917 30.8999 48.0623 32.1787 48.0623 33.7557V51.7453Z" fill="white" stroke="#464648" stroke-width="2" stroke-linecap="round" stroke-linejoin="round"/>
<path d="M44.7285 60.4052C42.5141 65.9172 34.8292 67.9893 27.5641 65.0335C20.2989 62.0777 16.204 55.2128 18.4185 49.7008C20.6323 44.1888 28.3171 42.1167 35.5826 45.0725C42.8477 48.0283 46.9423 54.8932 44.7285 60.4052Z" fill="#D8C3EF" stroke="#464648" stroke-width="2" stroke-linecap="round" stroke-linejoin="round"/>
<path d="M45.9094 60.4052C48.1239 65.9172 55.8084 67.9893 63.0739 65.0335C70.339 62.0777 74.4339 55.2128 72.2195 49.7008C70.0057 44.1888 62.3209 42.1167 55.0557 45.0725C47.7902 48.0283 43.6956 54.8932 45.9094 60.4052Z" fill="#D8C3EF" stroke="#464648" stroke-width="2" stroke-linecap="round" stroke-linejoin="round"/>
<path d="M59.064 55.0531C59.064 51.4557 54.8174 48.5447 49.5693 48.5447" stroke="#464648" stroke-width="2" stroke-linecap="round" stroke-linejoin="round"/>
<path d="M31.5732 55.0532C31.5732 50.8527 35.2416 47.4542 39.7743 47.4542" stroke="#464648" stroke-width="2" stroke-linecap="round" stroke-linejoin="round"/>
<path d="M42.3861 48.5447C42.3861 43.2682 37.691 38.9991 31.8887 38.9991" stroke="#464648" stroke-width="2" stroke-linecap="round" stroke-linejoin="round"/>
<path d="M48.0625 48.5447C48.0625 43.2682 52.3931 38.9991 57.7449 38.9991" stroke="#464648" stroke-width="2" stroke-linecap="round" stroke-linejoin="round"/>
<path d="M45.2246 30.8999V27.4159" stroke="#464648" stroke-width="2" stroke-linecap="round" stroke-linejoin="round"/>
</svg>
