<svg width="90" height="90" viewBox="0 0 90 90" fill="none" xmlns="http://www.w3.org/2000/svg">
<path d="M60.4892 33.3914C59.4087 33.6543 57.1167 33.739 57.5593 35.3993C55.8372 35.6972 56.6905 35.0283 55.9851 34.0159C54.453 33.7845 55.2456 35.023 53.8419 34.6407C53.8594 34.1391 53.5987 33.864 53.0984 33.8377C52.9824 33.2083 53.4573 32.7966 54.0173 32.6776C53.8124 32.0499 53.3684 30.1078 53.5798 29.4651C54.1309 28.7709 53.482 26.8092 53.3173 26.0737C54.3604 25.1909 54.2726 23.5543 53.7105 22.4149C53.6131 21.8513 53.8773 20.8802 54.3233 20.4965C53.8893 19.5083 54.3978 17.9163 52.7927 19.292C51.553 19.5423 51.0424 19.1768 50.781 17.9527C49.6243 18.2835 48.5033 15.8145 47.7197 17.1052C47.2304 16.8664 46.9535 15.999 46.8886 15.4991C46.0267 15.5334 44.9496 16.1905 44.4834 16.9273C42.6332 15.8961 43.4735 17.5574 44.4834 18.0871C43.932 18.3531 43.595 18.6804 43.7402 19.3368C43.2172 20.0985 42.2792 20.868 42.1656 21.88C40.9626 22.6043 40.6854 22.4212 40.2849 21.1211C40.7409 20.1027 40.298 18.9647 39.3661 18.3997C38.1981 18.8625 35.764 19.2122 34.5119 19.2024C33.8741 19.6564 32.1012 20.4962 31.3631 20.6303C30.6374 19.1758 28.0788 20.4206 27.3833 21.3885C27.0584 21.1389 26.5759 20.2263 26.203 21.0766C25.5527 20.785 24.6497 19.9568 24.8034 19.1131C23.634 19.8671 22.2687 16.4516 21.3042 17.9082C19.6806 17.3831 20.981 15.3993 16.9305 15.6776C17.1768 13.5695 13.9378 13.8675 12.6885 13C13.1517 14.9152 10.4205 15.86 11.1132 17.4622C11.8513 17.813 13.1932 18.4221 13.8253 18.8905C12.5403 20.0989 14.6652 22.4635 14.6995 23.9324C15.428 24.5513 16.6134 25.3512 17.5865 25.0921C18.0683 25.8049 18.2381 26.574 17.5865 27.1894C18.6554 27.1981 18.0137 28.8802 18.0679 29.4651C19.1886 30.7929 19.0441 27.4155 19.9482 29.2418C21.3423 29.289 23.1849 27.1554 22.5721 29.9111C22.7711 30.4173 23.0493 31.0502 22.3974 31.2494C18.7525 31.0586 18.1311 37.0254 22.1789 34.3285L22.2224 35.756C21.7637 35.8628 20.783 36.7621 21.8724 36.5591C22.1267 37.0184 21.961 37.6184 21.6539 37.987C21.6504 39.9484 20.1239 38.6139 18.9861 39.8164C19.1028 40.3317 19.5238 42.2322 19.5543 42.8056C20.2406 42.9207 20.7199 43.0454 20.5604 43.8319L22.9656 45.5721C25.2014 44.2989 28.4209 44.8083 30.7067 45.6617C31.1796 45.1314 31.9811 44.5597 32.7185 44.7691C32.8842 47.0798 34.9282 46.8512 32.9367 49.0969C34.1081 49.4732 34.7761 50.8923 34.1613 51.9971C34.7003 52.7308 34.3932 53.8769 33.3961 53.871C33.3361 55.5698 31.1425 55.2684 30.0504 55.2541C30.2566 55.8912 29.6716 56.7495 29.2632 57.1728C29.6764 58.1883 29.4513 59.7509 28.6727 60.5414C27.269 61.2261 28.648 63.2425 27.4269 63.7542C23.5908 63.4374 27.7851 70.055 28.2136 71.5848C30.8601 70.5885 31.0921 73.2388 32.0185 71.2504C32.8032 71.2938 34.4293 71.7969 34.9048 72.455C36.1075 72.7081 37.5959 72.0605 38.5786 72.9906C39.2494 72.3353 40.7862 71.5455 40.3494 70.3802C41.1167 69.2758 42.8443 68.8375 42.3831 67.2349L44.7452 66.8334C45.0519 66.2386 45.71 65.9841 46.3197 66.0972C46.1897 64.7421 48.2175 64.9522 49.0098 64.7586C49.4418 64.0949 49.4644 63.2677 49.0091 62.6169C49.5643 61.9252 49.3344 60.7423 49.0091 60.0068C49.9191 59.4713 51.1344 56.9141 52.0924 58.3336C51.8992 59.0477 52.3755 60.0601 52.8802 60.5421C52.5971 62.4286 53.1581 62.7387 54.9138 62.9512C56.4404 64.1519 57.1867 67.6165 58.9146 68.3061C59.7103 67.5489 61.7944 63.5127 62.3915 66.6993C63.1741 67.0035 64.2735 68.0869 64.5565 68.9082C65.9503 69.6447 66.161 69.5187 66.5902 67.9039C67.0826 67.9364 67.7166 69.6997 67.6016 70.6476C68.1832 71.2774 68.41 70.7187 68.6516 70.112C69.3028 69.5821 70.4461 69.3115 71.0129 70.1124C71.1317 70.8944 73.1023 70.8006 74.1999 70.6473C75.3775 71.2662 76.1543 72.6766 76.0366 70.112C77.4235 70.4376 77.3518 69.0248 76.9881 68.0372C77.9413 67.0707 77.9657 66.958 76.7586 66.2306C74.3032 66.6499 75.4777 64.9105 76.7586 64.1558C77.4064 62.445 78.9666 58.2863 75.7086 58.8685C74.1769 56.7765 76.118 54.0894 75.1185 51.841C74.6432 53.3949 72.3097 52.7956 71.1818 52.7109C69.3115 51.8042 67.9037 51.9635 69.8049 49.833C69.0291 49.2845 68.6043 46.5617 67.7712 48.695C66.081 48.8165 63.2342 47.1376 63.0479 45.2819C61.6651 44.6577 61.93 44.092 62.5232 42.9393C62.9456 41.2579 61.3165 38.9129 63.2445 37.9201C62.5486 37.4804 62.3335 35.8842 63.4414 36.1128V34.0379C62.5095 34.6302 61.252 33.9536 60.4892 33.3914Z" fill="white" stroke="#464648" stroke-width="2" stroke-linejoin="round"/>
<path d="M59.3221 45.7341V47.6069H39.623V45.7341C39.623 43.055 41.7602 40.8843 44.3987 40.8843H62.8638C63.0718 40.8843 63.2753 40.9025 63.4776 40.9299C61.1331 41.2389 59.3221 43.2694 59.3221 45.7341Z" fill="#D8C3EF" stroke="#464648" stroke-width="2" stroke-linecap="round" stroke-linejoin="round"/>
<path d="M43.6885 40.8843H65.0457C67.6829 40.8843 69.822 43.0556 69.822 45.7341L69.745 71.1495C69.745 73.8286 71.8834 75.9999 74.5213 75.9999H53.1634C50.5262 75.9999 48.3877 73.8286 48.3877 71.1495L48.4661 45.7341C48.4661 43.0556 46.3264 40.8843 43.6885 40.8843Z" fill="#D8C3EF" stroke="#464648" stroke-width="2" stroke-linecap="round" stroke-linejoin="round"/>
<path d="M59.3013 71.1496V69.2769H79.0004V71.1496C79.0004 73.8288 76.8626 76.0001 74.2241 76.0001H55.7609C55.5516 76.0001 55.3474 75.9819 55.1465 75.9545C57.4897 75.6455 59.3013 73.615 59.3013 71.1496Z" fill="#D8C3EF" stroke="#464648" stroke-width="2" stroke-linecap="round" stroke-linejoin="round"/>
<path d="M63.6223 47.9385H54.3477" stroke="#464648" stroke-width="2" stroke-linecap="round" stroke-linejoin="round"/>
<path d="M63.6223 53.1279H54.3477" stroke="#464648" stroke-width="2" stroke-linecap="round" stroke-linejoin="round"/>
<path d="M63.6223 58.3164H54.3477" stroke="#464648" stroke-width="2" stroke-linecap="round" stroke-linejoin="round"/>
</svg>
