<svg width="90" height="90" viewBox="0 0 90 90" fill="none" xmlns="http://www.w3.org/2000/svg">
<path d="M34.0832 27.9412H28.0986V39.8823H34.0832V27.9412Z" fill="white" stroke="#464648" stroke-width="2"/>
<path d="M47.7619 27.9412H41.7773V39.8823H47.7619V27.9412Z" fill="white" stroke="#464648" stroke-width="2"/>
<path d="M61.4416 27.9412H55.457V39.8823H61.4416V27.9412Z" fill="white" stroke="#464648" stroke-width="2"/>
<path d="M34.0832 45.8529H28.0986V62.0588H34.0832V45.8529Z" fill="white" stroke="#464648" stroke-width="2"/>
<path d="M47.7619 45.8529H41.7773V62.0588H47.7619V45.8529Z" fill="white" stroke="#464648" stroke-width="2"/>
<path d="M61.4416 45.8529H55.457V62.0588H61.4416V45.8529Z" fill="white" stroke="#464648" stroke-width="2"/>
<path d="M61.6647 20.2148V16H28.1814V20.2148H15C15 20.2148 15.0012 28.7941 22.7277 28.7941H67.1183C74.846 28.7941 74.846 20.2148 74.846 20.2148H61.6647Z" fill="#D8C3EF" stroke="#464648" stroke-width="2"/>
<path d="M64.0227 38.644V33.8469H25.9773V38.644H11C11 38.644 11.0014 48.4099 19.7806 48.4099H70.2194C79 48.4099 79 38.644 79 38.644H64.0227Z" fill="#D8C3EF" stroke="#464648" stroke-width="2"/>
<path d="M75 54H14V74H24.054V66.2189C24.054 64.4698 25.6342 63.0517 27.5831 63.0517C29.532 63.0517 31.1122 64.4698 31.1122 66.2189V74H40.9693V66.2189C40.9693 64.4698 42.5508 63.0517 44.4997 63.0517C46.4485 63.0517 48.0287 64.4698 48.0287 66.2189V74H57.8858V66.2189C57.8858 64.4698 59.466 63.0517 61.4149 63.0517C63.3638 63.0517 64.9453 64.4698 64.9453 66.2189V74H74.998V54H75Z" fill="white" stroke="#464648" stroke-width="2" stroke-linejoin="round"/>
<path d="M26.8156 61.2059C24.6905 61.2059 22.9688 62.8632 22.9688 64.9071V74H30.6632V64.9071C30.6632 62.8632 28.94 61.2059 26.8156 61.2059Z" fill="#D8C3EF" stroke="#464648" stroke-width="2"/>
<path d="M44.3435 61.2059C41.9835 61.2059 40.0684 62.8632 40.0684 64.9071V74H48.6178V64.9071C48.6178 62.8632 46.7035 61.2059 44.3435 61.2059Z" fill="#D8C3EF" stroke="#464648" stroke-width="2"/>
<path d="M61.868 61.2059C59.7438 61.2059 58.0215 62.8632 58.0215 64.9071V74H65.716V64.9071C65.716 62.8632 63.9922 61.2059 61.868 61.2059Z" fill="#D8C3EF" stroke="#464648" stroke-width="2"/>
</svg>
