<svg width="54" height="90" viewBox="0 0 54 90" fill="none" xmlns="http://www.w3.org/2000/svg">
<path d="M52.9795 78.925H50.3544H47.7302H45.1059H42.4808H39.8548H37.2306H34.6064H31.9795V69.8757V60.8255V51.7752V42.7259V33.6757V24.6263V32.977V23.925H34.6064H37.2306H39.8548H42.4808H45.1059H47.7302H50.3544H52.9795V32.977V24.6263V33.6757V42.7259V51.7752V60.8255V69.8757V78.925Z" fill="#D8C3EF" stroke="#464648" stroke-width="2" stroke-linejoin="round"/>
<path d="M45.7963 33.9424H39.1895V56.0456H45.7963V33.9424Z" fill="white" stroke="#464648" stroke-width="2" stroke-linejoin="round"/>
<path d="M46.2699 67.2762C46.2699 69.3528 44.5804 71.0353 42.4942 71.0353C40.4081 71.0353 38.7158 69.3528 38.7158 67.2762C38.7158 65.1996 40.4072 63.5153 42.4942 63.5153C44.5813 63.5153 46.2699 65.1996 46.2699 67.2762Z" fill="white" stroke="#464648" stroke-width="2"/>
<path d="M23.4385 11C30.8606 11 36.877 16.9901 36.877 24.3813C36.877 27.5942 35.7394 30.5404 33.8471 32.8481C34.9595 36.5402 38.8886 37.7639 38.8886 37.7639H23.691C23.691 37.7639 23.6938 37.7597 23.6966 37.7583C23.6083 37.7583 23.5255 37.7639 23.4385 37.7639C16.0165 37.7639 10 31.7738 10 24.3813C10 16.9887 16.0165 11 23.4385 11Z" fill="white" stroke="#464648" stroke-width="2" stroke-linejoin="round"/>
<path d="M24.258 19.8743H17.1289" stroke="#464648" stroke-width="2" stroke-linejoin="round"/>
<path d="M29.6048 24.3114H17.1289" stroke="#464648" stroke-width="2" stroke-linejoin="round"/>
<path d="M29.6048 28.7485H17.1289" stroke="#464648" stroke-width="2" stroke-linejoin="round"/>
</svg>
