<svg width="90" height="90" viewBox="0 0 90 90" fill="none" xmlns="http://www.w3.org/2000/svg">
<path d="M32.0725 22.9429C27.4077 22.1675 22.9968 22.5815 21.0902 22.8357L21.0694 22.8222C21.0709 22.8274 21.0739 22.8327 21.0754 22.8372C21.0702 22.8372 21.065 22.8387 21.0605 22.8387L21.0813 22.8507C22.8591 27.1995 31.1529 44.8467 46.3831 38.3861C36.55 37.1705 33.1091 29.747 32.0725 22.9429Z" fill="#D8C3EF" stroke="#464648" stroke-width="2" stroke-linecap="round" stroke-linejoin="round"/>
<path d="M73.1105 22.8379C73.1135 22.8327 73.1157 22.8274 73.1172 22.8229L73.0957 22.8364C71.1898 22.5822 66.7782 22.1682 62.1134 22.9437C61.0775 29.747 57.6374 37.1712 47.8027 38.3868C63.0338 44.8474 71.3275 27.2002 73.1061 22.8514L73.1261 22.8394C73.1209 22.8394 73.1157 22.8379 73.1105 22.8379Z" fill="#D8C3EF" stroke="#464648" stroke-width="2" stroke-linecap="round" stroke-linejoin="round"/>
<path d="M46.3828 38.3862C46.6005 38.4132 46.8086 38.4492 47.0322 38.4694L47.0389 38.4814C47.0389 38.4814 47.0418 38.4739 47.0433 38.4709C47.0477 38.4709 47.0514 38.4709 47.0551 38.4732L47.0485 38.4604C47.0522 38.4522 47.0551 38.4454 47.0588 38.4349C46.9574 38.3629 46.8619 38.2902 46.7641 38.2159C46.6375 38.2722 46.5094 38.3322 46.3828 38.3862Z" fill="white" stroke="#464648" stroke-width="2" stroke-linecap="round" stroke-linejoin="round"/>
<path d="M47.127 38.4349C47.1314 38.4454 47.1336 38.4522 47.1381 38.4604L47.1321 38.4732C47.1321 38.4732 47.1388 38.4709 47.1425 38.4709C47.144 38.4739 47.1455 38.4784 47.1477 38.4814L47.1543 38.4694C47.3772 38.4492 47.5845 38.4132 47.8022 38.3862C47.6778 38.3329 47.549 38.2729 47.4224 38.2159C47.3247 38.2902 47.2277 38.3629 47.127 38.4349Z" fill="white" stroke="#464648" stroke-width="2" stroke-linecap="round" stroke-linejoin="round"/>
<path d="M40.1245 25.8438C40.089 23.0916 40.7154 20.3656 41.6224 17.8818C37.9298 14.7757 33.824 12.8619 32.024 12.1082L32.0122 12.0857C32.0122 12.0909 32.0107 12.0984 32.0107 12.1029C32.0055 12.0992 32.0003 12.0977 31.9966 12.0954L32.0085 12.1179C31.7634 14.007 31.3695 18.3296 32.0721 22.9431C33.1088 29.7464 36.5489 37.1706 46.382 38.3862C46.5087 38.333 46.636 38.273 46.7626 38.216C41.8934 34.5999 40.1808 30.1911 40.1245 25.8438ZM62.1766 12.1187L62.1884 12.0962C62.1832 12.0984 62.1788 12.0999 62.1736 12.1037C62.1736 12.0984 62.1736 12.0909 62.1721 12.0864L62.1603 12.1089C60.3595 12.8626 56.2544 14.7779 52.5603 17.8826C53.4689 20.3663 54.0953 23.0923 54.059 25.8468C54.0035 30.1918 52.2901 34.6006 47.4209 38.2168C47.5475 38.273 47.6763 38.333 47.8007 38.387C57.6354 37.1714 61.0755 29.7479 62.1114 22.9438C62.8148 18.3311 62.4209 14.0077 62.1766 12.1187Z" fill="#D8C3EF" stroke="#464648" stroke-width="2" stroke-linecap="round" stroke-linejoin="round"/>
<path d="M47.0576 38.4348C47.0665 38.4423 47.074 38.4491 47.0829 38.4551V38.4678C47.0829 38.4678 47.0889 38.4641 47.0926 38.4603C47.0963 38.4641 47.0985 38.4656 47.1023 38.4678V38.4551C47.1104 38.4483 47.1186 38.4416 47.1276 38.4348C47.1149 38.4093 47.1052 38.3823 47.0926 38.3568C47.0807 38.3823 47.0695 38.4093 47.0576 38.4348Z" fill="white" stroke="#464648" stroke-width="2" stroke-linecap="round" stroke-linejoin="round"/>
<path d="M46.9891 38.1177C46.9134 38.1522 46.8377 38.1829 46.7627 38.2167C46.8614 38.2909 46.9571 38.3637 47.0581 38.4356C47.0699 38.4101 47.0811 38.3831 47.093 38.3577C47.0566 38.2774 47.0232 38.1964 46.9883 38.1184L46.9891 38.1177Z" fill="white" stroke="#464648" stroke-width="2" stroke-linecap="round" stroke-linejoin="round"/>
<path d="M47.1982 38.1177C47.1633 38.1957 47.1291 38.2767 47.0928 38.3569C47.1054 38.3824 47.115 38.4094 47.1277 38.4349C47.2293 38.3629 47.3258 38.2902 47.423 38.2159C47.3473 38.1822 47.2731 38.1514 47.1974 38.1169L47.1982 38.1177Z" fill="white" stroke="#464648" stroke-width="2" stroke-linecap="round" stroke-linejoin="round"/>
<path d="M46.9883 38.1176C47.0232 38.1955 47.0566 38.2765 47.0929 38.3568C47.1293 38.2765 47.1634 38.1955 47.1983 38.1176C47.1627 38.1011 47.1285 38.0868 47.0929 38.0703C47.058 38.0868 47.0232 38.1011 46.9883 38.1176Z" fill="white" stroke="#464648" stroke-width="2" stroke-linecap="round" stroke-linejoin="round"/>
<path d="M52.5611 17.8817C50.8958 13.3252 48.2872 9.58984 47.1017 8.0255V8C47.0988 8.00525 47.0958 8.009 47.0921 8.01425C47.0891 8.009 47.0862 8.00525 47.0825 8V8.0255C45.8978 9.58984 43.2884 13.3245 41.6224 17.8817C40.7146 20.3655 40.0889 23.0915 40.1245 25.8437C40.1808 30.191 41.8934 34.5998 46.7626 38.2159C46.8374 38.1822 46.9122 38.1514 46.9884 38.1169C47.0232 38.1004 47.058 38.0862 47.0928 38.0697C47.0899 38.0697 47.0877 38.0674 47.0847 38.0659L47.0729 38.0719C47.0729 38.0719 47.0743 38.0644 47.0743 38.0607C47.0714 38.0592 47.0677 38.0592 47.064 38.0554L47.0758 38.0502C47.0795 38.0029 47.0884 37.9617 47.0921 37.9152C47.0965 37.9609 47.1047 38.0022 47.1091 38.0502L47.1217 38.0554C47.1217 38.0554 47.1143 38.0592 47.1106 38.0607C47.1106 38.0644 47.1106 38.0697 47.1106 38.0719L47.0995 38.0659C47.0995 38.0659 47.0943 38.0697 47.0906 38.0697C47.1262 38.0862 47.1602 38.1004 47.1958 38.1169C47.2706 38.1514 47.3453 38.1822 47.4209 38.2159C52.29 34.5998 54.0034 30.191 54.059 25.8459C54.0953 23.0915 53.4688 20.3655 52.5611 17.8817Z" fill="#D8C3EF" stroke="#464648" stroke-width="2" stroke-linecap="round" stroke-linejoin="round"/>
<path d="M35.1651 54.7067H55.792C58.5367 54.7067 60.7593 52.4546 60.7593 49.6761C60.7593 48.3409 60.2467 47.1271 59.4079 46.2261C58.5026 45.2506 57.2177 44.6428 55.792 44.6428H28.0356L10.4316 63.5692L25.5515 75.6L34.8389 64.7715H56.5477L82.5739 44.6428C82.5739 44.6428 85.9222 39.6122 82.357 36.4369C79.4819 33.8755 75.4479 35.7821 75.4479 35.7821L59.3554 46.1747" fill="white"/>
<path d="M35.1651 54.7067H55.792C58.5367 54.7067 60.7593 52.4546 60.7593 49.6761C60.7593 48.3409 60.2467 47.1271 59.4079 46.2261C58.5026 45.2506 57.2177 44.6428 55.792 44.6428H28.0356L10.4316 63.5692L25.5515 75.6L34.8389 64.7715H56.5477L82.5739 44.6428C82.5739 44.6428 85.9222 39.6122 82.357 36.4369C79.4819 33.8755 75.4479 35.7821 75.4479 35.7821L59.3554 46.1747" stroke="#464648" stroke-width="2" stroke-linejoin="round"/>
<path d="M29.9318 73.2115L12.7177 58.4999L6 65.8557L23.634 81L29.9318 73.2115Z" fill="#D8C3EF" stroke="#464648" stroke-width="2" stroke-linejoin="round"/>
<ellipse cx="21.9547" cy="73.7999" rx="0.886364" ry="0.900003" stroke="#464648" stroke-width="2"/>
</svg>
