<svg width="24" height="24" viewBox="0 0 24 24" fill="none" xmlns="http://www.w3.org/2000/svg">
<g clip-path="url(#clip0_346_647)">
<path d="M1 3.2C1 3.4889 1.0569 3.77499 1.16747 4.04191C1.27802 4.30882 1.44008 4.55135 1.64437 4.75563C1.84865 4.95992 2.09118 5.12198 2.35809 5.23254C2.62501 5.34309 2.9111 5.4 3.2 5.4C3.4889 5.4 3.77499 5.34309 4.04191 5.23254C4.30882 5.12198 4.55135 4.95992 4.75563 4.75563C4.95992 4.55135 5.12198 4.30882 5.23254 4.04191C5.34309 3.77499 5.4 3.4889 5.4 3.2C5.4 2.9111 5.34309 2.62501 5.23254 2.35809C5.12198 2.09118 4.95992 1.84865 4.75563 1.64437C4.55135 1.44008 4.30882 1.27802 4.04191 1.16747C3.77499 1.0569 3.4889 1 3.2 1C2.9111 1 2.62501 1.0569 2.35809 1.16747C2.09118 1.27802 1.84865 1.44008 1.64437 1.64437C1.44008 1.84865 1.27802 2.09118 1.16747 2.35809C1.0569 2.62501 1 2.9111 1 3.2Z" stroke="white" stroke-width="1.5" stroke-linecap="round" stroke-linejoin="round"/>
<path d="M9.7998 3.2C9.7998 3.78348 10.0316 4.34305 10.4442 4.75563C10.8568 5.16822 11.4164 5.4 11.9998 5.4C12.5832 5.4 13.1428 5.16822 13.5554 4.75563C13.968 4.34305 14.1998 3.78348 14.1998 3.2C14.1998 2.61652 13.968 2.05695 13.5554 1.64437C13.1428 1.23179 12.5832 1 11.9998 1C11.4164 1 10.8568 1.23179 10.4442 1.64437C10.0316 2.05695 9.7998 2.61652 9.7998 3.2Z" stroke="white" stroke-width="1.5" stroke-linecap="round" stroke-linejoin="round"/>
<path d="M18.5996 3.2C18.5996 3.78348 18.8314 4.34305 19.244 4.75563C19.6566 5.16822 20.2162 5.4 20.7996 5.4C21.383 5.4 21.9426 5.16822 22.3553 4.75563C22.7678 4.34305 22.9996 3.78348 22.9996 3.2C22.9996 2.61652 22.7678 2.05695 22.3553 1.64437C21.9426 1.23179 21.383 1 20.7996 1C20.2162 1 19.6566 1.23179 19.244 1.64437C18.8314 2.05695 18.5996 2.61652 18.5996 3.2Z" stroke="white" stroke-width="1.5" stroke-linecap="round" stroke-linejoin="round"/>
<path d="M1 12C1 12.289 1.0569 12.5751 1.16747 12.8419C1.27802 13.1088 1.44008 13.3514 1.64437 13.5557C1.84865 13.76 2.09118 13.9221 2.35809 14.0326C2.62501 14.1431 2.9111 14.2 3.2 14.2C3.4889 14.2 3.77499 14.1431 4.04191 14.0326C4.30882 13.9221 4.55135 13.76 4.75563 13.5557C4.95992 13.3514 5.12198 13.1088 5.23254 12.8419C5.34309 12.5751 5.4 12.289 5.4 12C5.4 11.7111 5.34309 11.425 5.23254 11.1582C5.12198 10.8912 4.95992 10.6487 4.75563 10.4444C4.55135 10.2401 4.30882 10.078 4.04191 9.96751C3.77499 9.85696 3.4889 9.80005 3.2 9.80005C2.9111 9.80005 2.62501 9.85696 2.35809 9.96751C2.09118 10.078 1.84865 10.2401 1.64437 10.4444C1.44008 10.6487 1.27802 10.8912 1.16747 11.1582C1.0569 11.425 1 11.7111 1 12Z" stroke="white" stroke-width="1.5" stroke-linecap="round" stroke-linejoin="round"/>
<path d="M9.7998 12C9.7998 12.5835 10.0316 13.1431 10.4442 13.5557C10.8568 13.9682 11.4164 14.2 11.9998 14.2C12.5832 14.2 13.1428 13.9682 13.5554 13.5557C13.968 13.1431 14.1998 12.5835 14.1998 12C14.1998 11.4166 13.968 10.857 13.5554 10.4444C13.1428 10.0318 12.5832 9.80005 11.9998 9.80005C11.4164 9.80005 10.8568 10.0318 10.4442 10.4444C10.0316 10.857 9.7998 11.4166 9.7998 12Z" stroke="white" stroke-width="1.5" stroke-linecap="round" stroke-linejoin="round"/>
<path d="M18.5996 12C18.5996 12.5835 18.8314 13.1431 19.244 13.5557C19.6566 13.9682 20.2162 14.2 20.7996 14.2C21.383 14.2 21.9426 13.9682 22.3553 13.5557C22.7678 13.1431 22.9996 12.5835 22.9996 12C22.9996 11.4166 22.7678 10.857 22.3553 10.4444C21.9426 10.0318 21.383 9.80005 20.7996 9.80005C20.2162 9.80005 19.6566 10.0318 19.244 10.4444C18.8314 10.857 18.5996 11.4166 18.5996 12Z" stroke="white" stroke-width="1.5" stroke-linecap="round" stroke-linejoin="round"/>
<path d="M9.7998 20.8C9.7998 21.3834 10.0316 21.943 10.4442 22.3556C10.8568 22.7681 11.4164 23 11.9998 23C12.5832 23 13.1428 22.7681 13.5554 22.3556C13.968 21.943 14.1998 21.3834 14.1998 20.8C14.1998 20.2165 13.968 19.657 13.5554 19.2443C13.1428 18.8318 12.5832 18.6 11.9998 18.6C11.4164 18.6 10.8568 18.8318 10.4442 19.2443C10.0316 19.657 9.7998 20.2165 9.7998 20.8Z" stroke="white" stroke-width="1.5" stroke-linecap="round" stroke-linejoin="round"/>
</g>
<defs>
<clipPath id="clip0_346_647">
<rect width="24" height="24" fill="white"/>
</clipPath>
</defs>
</svg>
