<svg width="24" height="24" viewBox="0 0 24 24" fill="none" xmlns="http://www.w3.org/2000/svg">
<path d="M11.2042 21.9507H3.24351C2.82124 21.9507 2.41628 21.7831 2.11769 21.4844C1.81911 21.1859 1.65137 20.781 1.65137 20.3586V3.64116C1.65137 3.2189 1.81911 2.81394 2.11769 2.51534C2.41628 2.21676 2.82124 2.04902 3.24351 2.04902H9.11852C9.48221 2.03842 9.83858 2.15272 10.1283 2.37288C10.4179 2.59304 10.6235 2.90579 10.7107 3.25905L11.2042 5.23331H20.7571C21.1793 5.23331 21.5844 5.40104 21.8829 5.69963C22.1814 5.99822 22.3492 6.82545 22.3492 6.82545V11.5" stroke="white" stroke-width="1.4" stroke-linecap="round" stroke-linejoin="round"/>
<path d="M12.419 17.6725C11.8603 17.5752 11.8603 16.7731 12.419 16.6759C14.4432 16.3238 16.0532 14.782 16.4925 12.7749L16.5262 12.6211C16.6471 12.0689 17.4334 12.0654 17.559 12.6166L17.6 12.7959C18.0556 14.7935 19.6659 16.3222 21.6846 16.6734C22.2462 16.7711 22.2462 17.5773 21.6846 17.675C19.6659 18.0261 18.0556 19.5549 17.6 21.5525L17.559 21.7318C17.4334 22.2829 16.6471 22.2795 16.5262 21.7272L16.4925 21.5734C16.0532 19.5663 14.4432 18.0245 12.419 17.6725Z" stroke="white" stroke-width="1.4" stroke-linecap="round" stroke-linejoin="round"/>
</svg>
