<svg width="24" height="24" viewBox="0 0 24 24" fill="none" xmlns="http://www.w3.org/2000/svg">
<g clip-path="url(#clip0_302_3203)">
<path d="M19.1652 8.81577C19.1652 13.5922 12.0006 19.1647 12.0006 19.1647C12.0006 19.1647 4.83594 13.5922 4.83594 8.81577C4.83594 4.91342 8.09824 1.65112 12.0006 1.65112C15.9029 1.65112 19.1652 4.91342 19.1652 8.81577Z" stroke="white" stroke-width="1.4" stroke-linecap="round" stroke-linejoin="round"/>
<path d="M12.0005 11.204C13.3195 11.204 14.3887 10.1348 14.3887 8.81583C14.3887 7.49685 13.3195 6.42761 12.0005 6.42761C10.6815 6.42761 9.6123 7.49685 9.6123 8.81583C9.6123 10.1348 10.6815 11.204 12.0005 11.204Z" stroke="white" stroke-width="1.4" stroke-linecap="round" stroke-linejoin="round"/>
<path d="M18.4919 16.7765H19.961L22.3492 22.349H1.65137L4.03958 16.7765H5.50865" stroke="white" stroke-width="1.4" stroke-linecap="round" stroke-linejoin="round"/>
</g>
<defs>
<clipPath id="clip0_302_3203">
<rect width="24" height="24" fill="white"/>
</clipPath>
</defs>
</svg>
