<svg width="24" height="24" viewBox="0 0 24 24" fill="none" xmlns="http://www.w3.org/2000/svg">
<path d="M18.3486 21.951L9.71922 14.1365C9.5704 14.0167 9.38286 13.951 9.18919 13.951C8.99553 13.951 8.80798 14.0167 8.65917 14.1365L2.34863 18.5242" stroke="white" stroke-width="1.4" stroke-linecap="round" stroke-linejoin="round"/>
<path d="M16.9019 14.3509C15.5829 14.3509 14.5137 13.2817 14.5137 11.9627C14.5137 10.6437 15.5829 9.57446 16.9019 9.57446C18.2208 9.57446 19.2901 10.6437 19.2901 11.9627C19.2901 13.2817 18.2208 14.3509 16.9019 14.3509Z" stroke="white" stroke-width="1.4" stroke-linecap="round" stroke-linejoin="round"/>
<path d="M2 20.3102V4.5927C2 4.17043 2.16774 3.76547 2.46633 3.46688C2.76491 3.1683 3.16987 3.00055 3.59214 3.00055H9.46715C9.83084 2.98996 10.1872 3.10425 10.4769 3.32442C10.7666 3.54457 10.9721 3.85732 11.0593 4.21058L11.5529 6.18484H21.1057C21.5279 6.18484 21.933 6.35259 22.2315 6.65116C22.53 6.94975 22.6979 7.35471 22.6979 7.77698V20.3102C22.6979 20.7325 22.53 21.1375 22.2315 21.436C21.933 21.7346 21.5279 21.9024 21.1057 21.9024H3.59214C3.16987 21.9024 2.76491 21.7346 2.46633 21.436C2.16774 21.1375 2 20.7325 2 20.3102Z" stroke="white" stroke-width="1.4" stroke-linecap="round" stroke-linejoin="round"/>
</svg>
