<svg width="24" height="24" viewBox="0 0 24 24" fill="none" xmlns="http://www.w3.org/2000/svg">
<path d="M1 19.6006V13.2021L6.50005 10.8026L12.0001 13.2021V19.6006L6.50005 22L1 19.6006Z" stroke="white" stroke-width="1.4" stroke-linecap="round" stroke-linejoin="round"/>
<path d="M1 13.189L6.50005 15.5884L12.0001 13.189" stroke="white" stroke-width="1.4" stroke-linecap="round" stroke-linejoin="round"/>
<path d="M6.5 4.44641L12.0001 6.84587L17.5001 4.44641" stroke="white" stroke-width="1.4" stroke-linecap="round" stroke-linejoin="round"/>
<path d="M12 13.189L17.5 15.5884L23.0002 13.189" stroke="white" stroke-width="1.4" stroke-linecap="round" stroke-linejoin="round"/>
<path d="M6.50293 10.798V4.39945L12.003 2L17.5031 4.39945V10.798L12.003 13.1975L6.50293 10.798Z" stroke="white" stroke-width="1.4" stroke-linecap="round" stroke-linejoin="round"/>
<path d="M12 19.6006V13.2021L17.5 10.8026L23.0002 13.2021V19.6006L17.5 22L12 19.6006Z" stroke="white" stroke-width="1.4" stroke-linecap="round" stroke-linejoin="round"/>
<path d="M6.5 15.5908V21.9996" stroke="white" stroke-width="1.4" stroke-linecap="round" stroke-linejoin="round"/>
<path d="M17.5029 15.5908V21.9996" stroke="white" stroke-width="1.4" stroke-linecap="round" stroke-linejoin="round"/>
<path d="M12 6.84595V13.2547" stroke="white" stroke-width="1.4" stroke-linecap="round" stroke-linejoin="round"/>
</svg>
