<svg width="24" height="24" viewBox="0 0 24 24" fill="none" xmlns="http://www.w3.org/2000/svg">
<g clip-path="url(#clip0_346_612)">
<path d="M20.8 16.4C20.7998 16.0703 20.8737 15.7448 21.0164 15.4475C21.1591 15.1503 21.3668 14.889 21.6243 14.683C22.0539 14.3383 22.4005 13.9014 22.6386 13.4047C22.8768 12.908 23.0003 12.3641 23 11.8132C23.0001 11.3404 22.8859 10.8746 22.6671 10.4555C22.4483 10.0363 22.1315 9.67624 21.7436 9.40596C21.4342 9.19077 21.1852 8.8997 21.0207 8.56067C20.856 8.22164 20.7813 7.84602 20.8036 7.46981C20.8259 7.0936 20.9444 6.72942 21.1479 6.41219C21.3514 6.09496 21.6329 5.83531 21.9655 5.65813C22.278 5.49129 22.5393 5.24271 22.7215 4.93892C22.9037 4.63513 23 4.28756 23 3.93333C23 3.15536 22.6909 2.40926 22.1408 1.85915C21.5907 1.30905 20.8446 1 20.0667 1C19.7124 1.00005 19.3648 1.09631 19.0611 1.27851C18.7573 1.46071 18.5087 1.72201 18.3419 2.03449C18.1707 2.35601 17.9222 2.62999 17.619 2.83182C17.3157 3.03364 16.9671 3.15701 16.6044 3.19083C16.2417 3.22466 15.8762 3.16789 15.5409 3.02562C15.2055 2.88336 14.9107 2.66005 14.683 2.37573C14.3383 1.94613 13.9014 1.59947 13.4047 1.36135C12.908 1.12323 12.3641 0.99974 11.8132 1C11.3404 0.999915 10.8746 1.11412 10.4555 1.33289C10.0363 1.55166 9.67624 1.86851 9.40596 2.25644C9.19077 2.56583 8.8997 2.81476 8.56067 2.97935C8.22164 3.14393 7.84602 3.21868 7.46981 3.19639C7.0936 3.17412 6.72942 3.05556 6.41219 2.85211C6.09496 2.64865 5.83531 2.36712 5.65813 2.03449C5.49129 1.72201 5.24271 1.46071 4.93892 1.27851C4.63513 1.09631 4.28756 1.00005 3.93333 1C3.15536 1 2.40926 1.30905 1.85915 1.85915C1.30905 2.40926 1 3.15536 1 3.93333C1.00005 4.28756 1.09631 4.63513 1.27851 4.93892C1.46071 5.24271 1.72201 5.49129 2.03449 5.65813C2.35601 5.82937 2.62999 6.07777 2.83182 6.38102C3.03364 6.68428 3.15701 7.03292 3.19083 7.39563C3.22466 7.75833 3.16789 8.12376 3.02562 8.45911C2.88336 8.79446 2.66005 9.08923 2.37573 9.31698C1.94613 9.66174 1.59947 10.0986 1.36135 10.5953C1.12323 11.092 0.99974 11.6359 1 12.1868C0.999915 12.6596 1.11412 13.1254 1.33289 13.5445C1.55166 13.9637 1.86851 14.3238 2.25644 14.594C2.56583 14.8093 2.81476 15.1003 2.97935 15.4393C3.14393 15.7783 3.21868 16.154 3.19639 16.5302C3.17412 16.9064 3.05556 17.2706 2.85211 17.5878C2.64865 17.9051 2.36712 18.1647 2.03449 18.3419C1.72201 18.5087 1.46071 18.7573 1.27851 19.0611C1.09631 19.3648 1.00005 19.7124 1 20.0667C1 20.8446 1.30905 21.5907 1.85915 22.1408C2.40926 22.6909 3.15536 23 3.93333 23C4.28756 23 4.63513 22.9037 4.93892 22.7215C5.24271 22.5393 5.49129 22.278 5.65813 21.9655C5.82937 21.644 6.07777 21.37 6.38102 21.1682C6.68428 20.9663 7.03292 20.843 7.39563 20.8092C7.75833 20.7754 8.12376 20.8321 8.45911 20.9743C8.79446 21.1166 9.08923 21.3399 9.31698 21.6243C9.66174 22.0539 10.0986 22.4005 10.5953 22.6386C11.092 22.8768 11.6359 23.0003 12.1868 23C12.6596 23.0001 13.1254 22.8859 13.5445 22.6671C13.9637 22.4483 14.3238 22.1315 14.594 21.7436C14.8093 21.4342 15.1003 21.1852 15.4393 21.0207C15.7783 20.856 16.154 20.7813 16.5302 20.8036C16.9064 20.8259 17.2706 20.9444 17.5878 21.1479C17.9051 21.3514 18.1647 21.6329 18.3419 21.9655C18.5087 22.278 18.7573 22.5393 19.0611 22.7215C19.3648 22.9037 19.7124 23 20.0667 23C20.8446 23 21.5907 22.6909 22.1408 22.1408C22.6909 21.5907 23 20.8446 23 20.0667C23 19.7124 22.9037 19.3648 22.7215 19.0611C22.5393 18.7573 22.278 18.5087 21.9655 18.3419C21.6133 18.1543 21.3188 17.8746 21.1136 17.5326C20.9082 17.1904 20.7998 16.7989 20.8 16.4Z" stroke="white" stroke-width="1.5" stroke-linecap="round" stroke-linejoin="round"/>
<path d="M6.86621 6.8667H17.1329V17.1334H6.86621V6.8667Z" stroke="white" stroke-width="1.5" stroke-linecap="round" stroke-linejoin="round"/>
</g>
<defs>
<clipPath id="clip0_346_612">
<rect width="24" height="24" fill="white"/>
</clipPath>
</defs>
</svg>
