<svg width="24" height="24" viewBox="0 0 24 24" fill="none" xmlns="http://www.w3.org/2000/svg">
<path d="M20.7567 22.349H5.63138C4.99799 22.349 4.39053 22.0974 3.94266 21.6496C3.49479 21.2017 3.24316 20.5941 3.24316 19.9608C3.24316 19.3274 3.49479 18.7199 3.94266 18.272C4.39053 17.8241 4.99799 17.5726 5.63138 17.5726H19.1646C19.5868 17.5726 19.9919 17.4047 20.2904 17.1062C20.5889 16.8077 20.7567 16.4027 20.7567 15.9804V3.24327C20.7567 2.821 20.5889 2.41604 20.2904 2.11745C19.9919 1.81887 19.5868 1.65112 19.1646 1.65112H5.63138C5.00887 1.6509 4.41087 1.89376 3.96479 2.32795C3.51868 2.76215 3.25977 3.35336 3.24316 3.97565V19.8971" stroke="white" stroke-width="1.4" stroke-linecap="round" stroke-linejoin="round"/>
<path d="M8.01953 7.63159H15.9802" stroke="white" stroke-width="1.4" stroke-linecap="round" stroke-linejoin="round"/>
<path d="M8.01953 11.5923H12.796" stroke="white" stroke-width="1.4" stroke-linecap="round" stroke-linejoin="round"/>
<path d="M19.165 17.5725V22.3489" stroke="white" stroke-width="1.4" stroke-linecap="round" stroke-linejoin="round"/>
</svg>
