<svg width="1156" height="251" viewBox="0 0 1156 251" fill="none" xmlns="http://www.w3.org/2000/svg">
<path opacity="0.08" d="M120.701 69.082C117.537 47.9883 101.189 35.0684 79.041 35.0684C49.2461 35.0684 29.7344 58.0078 29.7344 98.0859C29.7344 139.219 49.5098 161.104 78.7773 161.104C100.662 161.104 116.746 148.975 120.701 128.408L160.779 128.672C156.297 164.004 126.766 196.172 78.25 196.172C27.0977 196.172 -10.6074 160.312 -10.6074 98.0859C-10.6074 35.8594 27.8887 0 78.25 0C122.283 0 155.506 25.3125 160.779 69.082H120.701ZM180.568 153.457C180.568 121.553 206.408 111.006 233.83 109.424C244.113 108.765 263.361 107.842 269.426 107.578V95.9766C269.162 84.1113 260.988 76.9922 246.486 76.9922C233.303 76.9922 224.865 83.0566 222.756 92.8125H185.578C187.951 68.0273 209.572 48.5156 247.541 48.5156C278.654 48.5156 308.186 62.4902 308.186 97.0312V193.535H271.271V173.76H270.217C263.098 186.943 249.65 196.172 228.293 196.172C200.871 196.172 180.568 181.934 180.568 153.457ZM218.01 152.402C218.01 163.477 226.975 169.277 239.367 169.277C257.033 169.277 269.689 157.412 269.426 142.383V131.836C263.493 132.1 246.882 133.022 240.158 133.682C226.711 135 218.01 141.328 218.01 152.402ZM413.141 50.3613V79.6289H386.246V149.502C386.246 160.84 391.783 163.74 399.693 164.004C403.648 164.004 410.504 163.74 415.25 163.213V194.062C411.031 194.854 404.176 195.381 394.42 195.381C366.207 195.381 346.959 182.725 347.223 155.039V79.6289H327.447V50.3613H347.223V16.084H386.246V50.3613H413.141ZM500.693 196.436C456.924 196.436 430.029 167.959 430.029 122.607C430.029 78.3105 457.188 48.5156 499.111 48.5156C536.816 48.5156 566.348 72.2461 566.348 121.025V132.1H468.525C468.525 153.721 481.445 167.168 501.484 167.168C514.668 167.168 524.16 161.367 528.115 152.666H565.293C559.756 179.033 536.025 196.436 500.693 196.436ZM468.525 107.578H529.434C529.434 90.1758 517.305 77.7832 499.902 77.7832C481.973 77.7832 469.185 91.0986 468.525 107.578ZM654.955 250.225C615.404 250.225 591.146 232.559 588.773 205.4H627.27C629.379 216.738 640.189 222.012 655.746 222.012C673.939 222.012 686.068 214.365 686.068 194.326V168.223H684.223C678.949 179.824 666.293 191.426 643.354 191.426C610.922 191.426 585.082 168.75 585.082 121.025C585.082 72.5098 611.713 48.5156 643.354 48.5156C667.348 48.5156 678.949 62.7539 684.223 74.3555H685.805V50.3613H724.564V195.117C724.564 231.504 695.561 250.225 654.955 250.225ZM655.482 162.158C674.994 162.158 686.068 146.865 686.068 121.553C686.068 95.9766 674.994 79.6289 655.482 79.6289C635.707 79.6289 625.16 96.7676 625.16 121.553C625.16 146.338 635.707 162.158 655.482 162.158ZM818.973 196.436C775.73 196.436 748.836 166.641 748.836 122.344C748.836 78.0469 775.73 48.5156 818.973 48.5156C862.215 48.5156 889.373 78.0469 889.373 122.344C889.373 166.641 862.215 196.436 818.973 196.436ZM819.236 166.113C839.275 166.113 849.559 147.393 849.559 122.344C849.559 97.0312 839.275 78.3105 819.236 78.3105C798.934 78.3105 788.387 97.0312 788.387 122.344C788.387 147.393 798.934 166.113 819.236 166.113ZM913.645 193.535V50.3613H951.35V75.1465H952.932C958.205 57.4805 971.389 48.252 987.473 48.252C991.428 48.252 996.438 48.7793 999.865 49.5703V84.375C996.174 83.3203 988.791 82.2656 983.254 82.2656C965.588 82.2656 952.668 94.6582 952.668 112.061V193.535H913.645ZM1046.02 247.324C1038.38 247.324 1031.26 247.061 1026.25 246.533V216.211C1031.26 216.475 1037.06 216.738 1042.07 216.738C1049.71 216.738 1056.04 215.947 1060.79 203.555L1063.16 197.49L1011.74 50.3613H1052.61L1082.67 155.83H1084.25L1114.58 50.3613H1155.97L1100.07 209.355C1091.9 232.295 1076.34 247.324 1046.02 247.324Z" fill="white"/>
</svg>
