<svg width="72" height="72" viewBox="0 0 72 72" fill="none" xmlns="http://www.w3.org/2000/svg">
<path d="M60.4362 15.7197H52.1533V25.6644H60.4362V15.7197Z" fill="#D8C3EF"/>
<path d="M60.4363 26.9902H52.1534C51.4218 26.9902 50.8281 26.3968 50.8281 25.6642V15.7195C50.8281 14.9876 51.4212 14.3936 52.1534 14.3936H60.4363C61.1678 14.3936 61.7615 14.9876 61.7615 15.7195V25.6642C61.7615 26.3968 61.1685 26.9902 60.4363 26.9902ZM53.4786 24.3383H59.111V17.0455H53.4786V24.3383Z" fill="#464648"/>
<path d="M64.6747 29.8096H8.3252V59.6742H64.6747V29.8096Z" fill="white"/>
<path d="M64.6747 60.9999H8.32526C7.59372 60.9999 7 60.4066 7 59.674V29.8094C7 29.0774 7.59305 28.4834 8.32526 28.4834H64.6747C65.4063 28.4834 66 29.0774 66 29.8094V59.674C66 60.4066 65.4069 60.9999 64.6747 60.9999ZM9.65052 58.348H63.3495V31.1353H9.65052V58.348Z" fill="#464648"/>
<path d="M64.6747 21.1571H48.3024L43.2068 12.3262H29.7924L24.6968 21.1571H8.3252V29.8096H64.6747V21.1571Z" fill="#D8C3EF"/>
<path d="M64.6747 31.1354H8.32526C7.59372 31.1354 7 30.5413 7 29.8094V21.1569C7 20.4243 7.59305 19.8309 8.32526 19.8309H23.9322L28.6448 11.663C28.8814 11.2526 29.3194 11 29.7925 11H43.2062C43.6799 11 44.1173 11.2526 44.3538 11.663L49.0665 19.8309H64.6741C65.4056 19.8309 65.9993 20.4243 65.9993 21.1569V29.8094C65.9993 30.5413 65.4069 31.1354 64.6747 31.1354ZM9.65052 28.4835H63.3495V22.4828H48.3025C47.8287 22.4828 47.3913 22.2302 47.1548 21.8198L42.4421 13.6519H30.5579L25.8452 21.8198C25.6087 22.2302 25.1707 22.4828 24.6975 22.4828H9.65052V28.4835Z" fill="#464648"/>
<path d="M50.4961 39.4384C50.4961 31.7041 44.2296 25.4336 36.4994 25.4336C28.7691 25.4336 22.502 31.7041 22.502 39.4384C22.502 47.1727 28.7691 53.4425 36.4994 53.4425C44.2296 53.4425 50.4961 47.1727 50.4961 39.4384Z" fill="white"/>
<path d="M36.4994 54.7693C28.0502 54.7693 21.1768 47.8922 21.1768 39.4392C21.1768 30.9862 28.0502 24.1084 36.4994 24.1084C44.9486 24.1084 51.8215 30.9855 51.8215 39.4392C51.8215 47.8928 44.948 54.7693 36.4994 54.7693ZM36.4994 26.7597C29.512 26.7597 23.8273 32.4474 23.8273 39.4385C23.8273 46.4296 29.512 52.1167 36.4994 52.1167C43.4869 52.1167 49.1709 46.4296 49.1709 39.4385C49.1709 32.4474 43.4869 26.7597 36.4994 26.7597Z" fill="#464648"/>
<path d="M36.499 31.6567C40.7929 31.6567 44.2762 35.1405 44.2764 39.439C44.2764 43.7369 40.7936 47.2212 36.499 47.2212C32.2044 47.221 28.7217 43.7373 28.7217 39.439C28.7218 35.1407 32.2052 31.6569 36.499 31.6567Z" fill="#D8C3EF" stroke="#464648" stroke-width="2.5"/>
<path d="M39.4813 19.6973H33.5176C32.7861 19.6973 32.1924 19.104 32.1924 18.3714C32.1924 17.6388 32.7854 17.0454 33.5176 17.0454H39.4813C40.2129 17.0454 40.8066 17.6394 40.8066 18.3714C40.8066 19.1033 40.2135 19.6973 39.4813 19.6973Z" fill="#464648"/>
</svg>
