<svg width="72" height="72" viewBox="0 0 72 72" fill="none" xmlns="http://www.w3.org/2000/svg">
<path d="M36.0003 24.915V6.09375C30.3688 6.09375 25.0939 7.61192 20.5469 10.2512L29.9272 26.5492C31.7144 25.5123 33.7873 24.915 36.0003 24.915Z" fill="#D8C3EF"/>
<path d="M29.927 27.643C29.8327 27.643 29.7378 27.6309 29.6451 27.6058C29.3654 27.5309 29.1272 27.3471 28.9827 27.0961L19.6024 10.7982C19.3014 10.2753 19.4797 9.60702 20.0004 9.30459C24.8522 6.48864 30.3844 5 36.0001 5C36.602 5 37.0905 5.48947 37.0905 6.09378V24.9151C37.0905 25.5194 36.6025 26.0089 36.0001 26.0089C34.0602 26.0089 32.1493 26.5229 30.4733 27.4959C30.3059 27.5932 30.1167 27.643 29.927 27.643ZM22.0454 10.668L30.3484 25.0934C31.7812 24.4141 33.328 23.9979 34.9097 23.8667V7.2078C30.4166 7.37297 26.0107 8.55808 22.0454 10.668Z" fill="#464648"/>
<path d="M42.072 26.5486L51.4523 10.2507C46.9058 7.61192 41.6309 6.09375 36 6.09375V24.915C38.2125 24.915 40.2848 25.5117 42.072 26.5486Z" fill="#D8C3EF"/>
<path d="M42.072 27.6424C41.8818 27.6424 41.6937 27.5927 41.5263 27.4953C39.8503 26.5229 37.9399 26.0089 36.0006 26.0089C35.3987 26.0089 34.9102 25.5194 34.9102 24.9151V6.09378C34.9102 5.48947 35.3981 5 36.0006 5C41.6157 5 47.1479 6.48809 51.9987 9.30404C52.5193 9.60647 52.6982 10.2748 52.3967 10.7976L43.0163 27.0955C42.8719 27.3466 42.6331 27.5303 42.3539 27.6052C42.2612 27.6299 42.1664 27.6424 42.072 27.6424ZM37.0905 23.8667C38.671 23.9979 40.2178 24.4141 41.6506 25.0928L49.953 10.6674C45.9888 8.55863 41.5824 7.37351 37.0905 7.2078V23.8667Z" fill="#464648"/>
<path d="M29.9272 26.5494L20.5468 10.2515C15.8569 12.9733 11.9489 16.894 9.23535 21.5984L25.4826 31.0077C26.549 29.1592 28.0843 27.6191 29.9272 26.5494Z" fill="#D8C3EF"/>
<path d="M25.4811 32.102C25.2962 32.102 25.1087 32.0544 24.9369 31.9549L8.68968 22.5456C8.43943 22.4006 8.25624 22.1611 8.18155 21.8811C8.10685 21.6011 8.14611 21.3019 8.29113 21.0509C11.0984 16.183 15.1477 12.1213 20.0006 9.30477C20.2503 9.15929 20.5485 9.11937 20.8282 9.19484C21.1079 9.26977 21.3462 9.45352 21.4907 9.70455L30.8715 26.0025C31.1725 26.5253 30.9942 27.1936 30.4735 27.496C28.7965 28.4695 27.3969 29.8734 26.4264 31.5562C26.2242 31.9062 25.8583 32.1025 25.4816 32.1025L25.4811 32.102ZM10.7424 21.209L25.1229 29.537C26.0268 28.2311 27.1587 27.0957 28.4601 26.189L20.1576 11.7641C16.357 14.1606 13.1315 17.396 10.7424 21.209Z" fill="#464648"/>
<path d="M25.4828 31.0082L9.23551 21.5989C6.60432 26.16 5.09082 31.4506 5.09082 37.0989H23.8542C23.8542 34.8796 24.449 32.8003 25.4828 31.0082Z" fill="#D8C3EF"/>
<path d="M23.8538 38.1925H5.09042C4.48796 38.1925 4 37.7031 4 37.0987C4 31.4663 5.48406 25.917 8.29135 21.0507C8.59285 20.5279 9.25964 20.3491 9.78031 20.6515L26.0276 30.0608C26.2778 30.2057 26.461 30.4453 26.5357 30.7253C26.6104 31.0058 26.5711 31.3044 26.4261 31.5554C25.4567 33.2366 24.9442 35.1534 24.9442 37.0987C24.9442 37.7031 24.4563 38.1925 23.8538 38.1925ZM6.20101 36.005H22.8086C22.9395 34.4195 23.3539 32.868 24.031 31.4307L9.65055 23.1021C7.54768 27.0791 6.36621 31.4986 6.20101 36.005Z" fill="#464648"/>
<path d="M46.5174 31.0075L62.7652 21.5982C60.0516 16.8933 56.143 12.9732 51.4526 10.2507L42.0723 26.5487C43.9151 27.6184 45.4515 29.1584 46.5174 31.0075Z" fill="#D8C3EF"/>
<path d="M46.5186 32.1012C46.1419 32.1012 45.776 31.9054 45.5737 31.5549C44.6033 29.8727 43.2037 28.4688 41.5261 27.4953C41.0049 27.1929 40.8266 26.5246 41.1281 26.0017L50.5084 9.70381C50.6529 9.45279 50.8917 9.26903 51.1709 9.19411C51.45 9.11864 51.7477 9.15856 51.9985 9.30404C56.852 12.1205 60.9018 16.1828 63.7085 21.0507C63.8535 21.3018 63.8928 21.6004 63.8181 21.8809C63.7434 22.1615 63.5602 22.4005 63.31 22.5454L47.0622 31.9547C46.8904 32.0542 46.7029 32.1018 46.518 32.1018L46.5186 32.1012ZM43.539 26.1882C44.841 27.095 45.9728 28.2303 46.8768 29.5363L61.2572 21.2082C58.8681 17.3953 55.6427 14.1599 51.8409 11.7634L43.539 26.1882Z" fill="#464648"/>
<path d="M48.1467 37.0987H66.9101C66.9101 31.4499 65.3966 26.1592 62.7654 21.5981L46.5176 31.0074C47.5518 32.7996 48.1467 34.8794 48.1467 37.0987Z" fill="#D8C3EF"/>
<path d="M66.9096 38.1923H48.1462C47.5443 38.1923 47.0558 37.7029 47.0558 37.0986C47.0558 35.1527 46.5433 33.2353 45.5734 31.5553C45.4283 31.3042 45.3891 31.0051 45.4638 30.7245C45.5385 30.444 45.7217 30.205 45.9719 30.0601L62.2197 20.6508C62.7409 20.3489 63.4072 20.5272 63.7087 21.05C66.516 25.9168 68 31.4661 68 37.0986C68 37.7029 67.5121 38.1923 66.9096 38.1923ZM49.1914 36.0048H65.799C65.6338 31.4984 64.4523 27.0784 62.3489 23.1014L47.9679 31.4295C48.6451 32.8667 49.0605 34.4182 49.1914 36.0048Z" fill="#464648"/>
<path d="M36 38.1919C35.7175 38.1919 35.4389 38.082 35.2285 37.8714C34.8795 37.5214 34.8087 36.98 35.0551 36.5512L41.1271 26.0017C41.2716 25.7506 41.5104 25.5669 41.7895 25.492C42.0681 25.4165 42.3669 25.4564 42.6172 25.6019C44.6246 26.7668 46.299 28.4463 47.4603 30.4594C47.6053 30.7104 47.6445 31.009 47.5699 31.2896C47.4952 31.5701 47.312 31.8091 47.0617 31.954L36.5446 38.0448C36.3745 38.1432 36.1864 38.1919 36 38.1919ZM42.4432 28.0902L38.9784 34.1099L44.9796 30.6344C44.2773 29.6549 43.4197 28.7946 42.4432 28.0902Z" fill="#464648"/>
<path d="M35.9996 38.1917C35.9058 38.1917 35.811 38.1796 35.7172 38.1545C35.2407 38.0265 34.9092 37.5934 34.9092 37.0979V24.9153C34.9092 24.311 35.3971 23.8215 35.9996 23.8215C38.3216 23.8215 40.6104 24.4373 42.6174 25.6022C43.1386 25.9046 43.3169 26.5729 43.0154 27.0958L36.9434 37.6448C36.7454 37.9893 36.3823 38.1917 35.9996 38.1917ZM37.09 26.0632V33.0159L40.5554 26.9957C39.46 26.498 38.2878 26.183 37.09 26.0632Z" fill="#464648"/>
<path d="M35.9981 38.1919C35.7702 38.1919 35.5412 38.1209 35.3449 37.9732C35.0592 37.7583 34.9087 37.4301 34.9082 37.0976C34.9082 36.8696 34.9791 36.6388 35.1263 36.4419V36.4408C35.4889 35.9584 36.172 35.86 36.654 36.222C36.9391 36.437 37.0901 36.7657 37.0901 37.0982C37.0901 37.3268 37.0193 37.557 36.872 37.7539C36.6578 38.0405 36.3296 38.1919 35.9981 38.1919Z" fill="#464648"/>
<path d="M35.9995 38.1922C35.9777 38.1922 35.9554 38.1917 35.933 38.19C35.5677 38.1676 35.2379 37.9636 35.0552 37.6459L28.9832 27.0963C28.6823 26.5735 28.8605 25.9052 29.3812 25.6028C31.3887 24.4373 33.6775 23.8215 36.0001 23.8215C36.602 23.8215 37.0905 24.311 37.0905 24.9153V37.0979C37.0905 37.3358 37.0131 37.5666 36.8708 37.7563C36.6641 38.0314 36.3403 38.1922 35.9995 38.1922ZM31.4432 26.9957L34.9096 33.0181V26.0632C33.7113 26.1825 32.5391 26.498 31.4432 26.9957Z" fill="#464648"/>
<path d="M36.0001 38.193C35.6692 38.193 35.3421 38.0421 35.1278 37.7561V37.755C34.9801 37.5581 34.9092 37.3278 34.9092 37.0992C34.9092 36.7667 35.0597 36.4386 35.3453 36.2237C35.8279 35.8616 36.511 35.9595 36.8719 36.4424C37.0191 36.6393 37.09 36.8695 37.09 37.0982C37.09 37.4307 36.9395 37.7593 36.6538 37.9743C36.4576 38.1219 36.228 38.193 36.0001 38.193Z" fill="#464648"/>
<path d="M35.9985 38.1924C35.8115 38.1924 35.6234 38.1443 35.4533 38.0458L24.9368 31.9551C24.6865 31.8101 24.5033 31.5706 24.4286 31.2906C24.3539 31.01 24.3932 30.7114 24.5382 30.4599C25.6995 28.4468 27.3738 26.7673 29.3802 25.6024C29.6305 25.4569 29.9287 25.4175 30.2078 25.4925C30.487 25.5674 30.7258 25.7511 30.8703 26.0022L36.9423 36.5517C37.1893 36.9805 37.1178 37.5219 36.7689 37.8719C36.559 38.0825 36.2798 38.1924 35.998 38.1924H35.9985ZM27.0195 30.6349L33.0195 34.1104L29.5552 28.0913C28.5793 28.7957 27.7217 29.6554 27.0195 30.6349Z" fill="#464648"/>
<path d="M48.1459 38.1925H35.9998C35.5064 38.1925 35.074 37.86 34.9464 37.3814C34.8188 36.9035 35.0266 36.3987 35.4546 36.1515L45.9717 30.0602C46.4923 29.7578 47.1591 29.9366 47.4606 30.4594C48.6225 32.4725 49.2364 34.7684 49.2364 37.0987C49.2364 37.703 48.7484 38.1925 48.1459 38.1925ZM40.0687 36.0044H47.001C46.8822 34.8023 46.5676 33.6265 46.0714 32.5278L40.0687 36.0044Z" fill="#464648"/>
<path d="M35.9995 37.0991L25.4824 43.1899C26.5489 45.0384 28.0842 46.579 29.927 47.6487C31.7142 48.6856 33.7871 49.2822 36.0001 49.2822C38.2131 49.2822 40.2849 48.6856 42.0721 47.6487C43.9149 46.579 45.4513 45.0384 46.5172 43.1899L35.9995 37.0991Z" fill="white"/>
<path d="M35.9996 50.3762C33.6776 50.3762 31.3888 49.7604 29.3808 48.5955C27.3733 47.43 25.6995 45.75 24.5382 43.7374C24.3932 43.4864 24.3539 43.1878 24.4286 42.9073C24.5033 42.6267 24.6865 42.3877 24.9368 42.2428L35.4533 36.152C35.8121 35.9437 36.2439 35.9628 36.5775 36.1723L47.0619 42.2439C47.3122 42.3888 47.4954 42.6278 47.57 42.9083C47.6447 43.1889 47.6055 43.487 47.4605 43.7385C46.2997 45.7516 44.6248 47.4311 42.6174 48.596C40.6099 49.7609 38.3217 50.3762 35.9996 50.3762ZM27.0189 43.5624C27.9332 44.8383 29.1114 45.9119 30.4728 46.7021C32.1488 47.6745 34.0603 48.1886 35.9996 48.1886C37.9389 48.1886 39.8493 47.6745 41.5253 46.7021C42.8867 45.9119 44.0649 44.8383 44.9792 43.563L35.9991 38.3626L27.0189 43.5624Z" fill="#464648"/>
<path d="M35.9992 38.1926H23.8541C23.2522 38.1926 22.7637 37.7031 22.7637 37.0988C22.7637 34.769 23.3776 32.4737 24.5389 30.4601C24.8398 29.9373 25.5061 29.7579 26.0278 30.0603L36.5444 36.151C36.9718 36.3988 37.1801 36.903 37.0525 37.381C36.925 37.8595 36.4931 38.1926 35.9992 38.1926ZM24.9985 36.005H31.9297L25.9275 32.529C25.4319 33.6282 25.1173 34.8035 24.9985 36.005Z" fill="#464648"/>
<path d="M53 55.4997C52 54.9997 50 55.9997 50 56.9997V66.9997H55.5V56.9997C55 56.6664 53.8 55.8997 53 55.4997Z" fill="#D8C3EF"/>
<circle cx="52.5" cy="52.5" r="2.5" fill="#D8C3EF"/>
<path d="M55.5984 67.9998H49.7047C49.1028 67.9998 48.6143 67.5103 48.6143 66.906V58.3329C48.6143 56.1 50.4254 54.2832 52.6515 54.2832C54.8776 54.2832 56.6888 56.1 56.6888 58.3329V66.906C56.6888 67.5103 56.2009 67.9998 55.5984 67.9998ZM50.7951 65.8122H54.508V58.3329C54.508 57.3064 53.6749 56.4708 52.6515 56.4708C51.6282 56.4708 50.7951 57.3064 50.7951 58.3329V65.8122Z" fill="#464648"/>
<path d="M52.6516 56.4723C50.5875 56.4723 48.9082 54.7878 48.9082 52.7179C48.9082 50.6479 50.5875 48.9629 52.6516 48.9629C54.7158 48.9629 56.395 50.6473 56.395 52.7179C56.395 54.7884 54.7158 56.4723 52.6516 56.4723ZM52.6516 51.1499C51.7902 51.1499 51.089 51.8532 51.089 52.7173C51.089 53.5814 51.7902 54.2841 52.6516 54.2841C53.513 54.2841 54.2142 53.5814 54.2142 52.7173C54.2142 51.8532 53.513 51.1499 52.6516 51.1499Z" fill="#464648"/>
<path d="M52.5023 50.4616C51.9822 50.4616 51.522 50.087 51.4294 49.5554C49.3745 37.7278 38.033 37.5528 37.3935 37.5528H37.3771C36.7774 37.5528 36.2894 37.0672 36.2861 36.4656C36.2829 35.8618 36.7659 35.3702 37.3673 35.3652H37.3706C37.6568 35.3652 51.2004 35.4954 53.5775 49.1803C53.6811 49.7753 53.2836 50.3419 52.6904 50.4458C52.6272 50.4567 52.5645 50.4622 52.5018 50.4622L52.5023 50.4616Z" fill="#464648"/>
</svg>
