<svg width="72" height="72" viewBox="0 0 72 72" fill="none" xmlns="http://www.w3.org/2000/svg">
<path d="M43.6402 53.9736H28.3604V66.6864H43.6402V53.9736Z" fill="#D8C3EF"/>
<path d="M43.6403 68.0003H28.3604C27.6406 68.0003 27.0576 67.4118 27.0576 66.6866V53.9739C27.0576 53.2487 27.6406 52.6602 28.3604 52.6602H43.6403C44.3595 52.6602 44.9431 53.2487 44.9431 53.9739V66.6866C44.9431 67.4118 44.3595 68.0003 43.6403 68.0003ZM29.6632 65.3729H42.3375V55.2876H29.6632V65.3729Z" fill="#464648"/>
<path d="M63.6971 47.0388H8.30273V57.0545H63.6971V47.0388Z" fill="#D8C3EF"/>
<path d="M63.6972 58.3685H8.3028C7.58365 58.3685 7 57.7799 7 57.0548V47.039C7 46.3139 7.58365 45.7253 8.3028 45.7253H63.6972C64.4163 45.7253 65 46.3139 65 47.039V57.0548C65 57.7799 64.4163 58.3685 63.6972 58.3685ZM9.6056 55.7411H62.3944V48.3528H9.6056V55.7411Z" fill="#464648"/>
<path d="M63.6971 13.5244H8.30273V47.0391H63.6971V13.5244Z" fill="white"/>
<path d="M63.6972 48.3528H8.3028C7.58365 48.3528 7 47.7642 7 47.0391V13.5244C7 12.7992 7.58365 12.2107 8.3028 12.2107H63.6972C64.4163 12.2107 65 12.7992 65 13.5244V47.0391C65 47.7642 64.4163 48.3528 63.6972 48.3528ZM9.6056 45.7253H62.3944V14.8381H9.6056V45.7253Z" fill="#464648"/>
<mask id="path-7-inside-1_302_2913" fill="white">
<rect x="19.25" y="4" width="33" height="44" rx="2"/>
</mask>
<rect x="19.25" y="4" width="33" height="44" rx="2" fill="white" stroke="#464648" stroke-width="5" stroke-linejoin="bevel" mask="url(#path-7-inside-1_302_2913)"/>
<path d="M41.2497 17.48H30.7003C29.9811 17.48 29.3975 16.8914 29.3975 16.1662C29.3975 15.4411 29.9805 14.8525 30.7003 14.8525H41.2497C41.9688 14.8525 42.5525 15.4404 42.5525 16.1662C42.5525 16.8921 41.9695 17.48 41.2497 17.48Z" fill="#464648"/>
<path d="M44.5068 23.3921H27.4434C26.7243 23.3921 26.1406 22.8035 26.1406 22.0784C26.1406 21.3532 26.7236 20.7646 27.4434 20.7646H44.5068C45.226 20.7646 45.8096 21.3525 45.8096 22.0784C45.8096 22.8042 45.2266 23.3921 44.5068 23.3921Z" fill="#464648"/>
<path d="M44.5068 29.3037H27.4434C26.7243 29.3037 26.1406 28.7151 26.1406 27.99C26.1406 27.2648 26.7236 26.6763 27.4434 26.6763H44.5068C45.226 26.6763 45.8096 27.2642 45.8096 27.99C45.8096 28.7158 45.2266 29.3037 44.5068 29.3037Z" fill="#464648"/>
<path d="M52.9999 68H19.0001C18.2809 68 17.6973 67.4114 17.6973 66.6863C17.6973 65.9611 18.2803 65.3726 19.0001 65.3726H52.9999C53.719 65.3726 54.3027 65.9604 54.3027 66.6863C54.3027 67.4121 53.7197 68 52.9999 68Z" fill="#464648"/>
</svg>
