<svg width="72" height="72" viewBox="0 0 72 72" fill="none" xmlns="http://www.w3.org/2000/svg">
<path d="M19.3869 9.36035C17.0829 9.36035 15.2148 11.453 15.2148 14.0341V57.6391C15.2148 55.058 17.0829 52.9654 19.3869 52.9654H57.7857V9.36035H19.3869Z" fill="white"/>
<path d="M15.2146 59C14.5441 59 14 58.3905 14 57.6394V14.0343C14 10.7069 16.4164 8 19.3866 8H57.7854C58.4559 8 59 8.60888 59 9.36062V52.9657C59 53.7167 58.4559 54.3263 57.7854 54.3263H19.3866C17.7561 54.3263 16.4291 55.8128 16.4291 57.6394C16.4291 58.3905 15.8856 59 15.2146 59ZM19.3866 10.7212C17.7561 10.7212 16.4291 12.2077 16.4291 14.0343V52.5983C17.2781 51.9711 18.2953 51.6057 19.3866 51.6057H56.5709V10.7212H19.3866Z" fill="#464648"/>
<path d="M15.2148 57.6388V57.9654C15.2148 60.5464 17.0829 62.6391 19.3869 62.6391H57.7857V52.9651H19.3869C17.0829 52.9651 15.2148 55.0577 15.2148 57.6388Z" fill="#D8C3EF"/>
<path d="M57.7854 64H19.3866C16.4164 64 14 61.293 14 57.9656V57.6391C14 54.3117 16.4164 51.6047 19.3866 51.6047H57.7854C58.4559 51.6047 59 52.2136 59 52.9654V62.6393C59 63.3911 58.4559 64 57.7854 64ZM19.3866 54.326C17.7561 54.326 16.4291 55.8124 16.4291 57.6391V57.9656C16.4291 59.7922 17.7561 61.2787 19.3866 61.2787H56.5709V54.326H19.3866Z" fill="#464648"/>
<path d="M21.0271 54.0031C20.3566 54.0031 19.8125 53.3942 19.8125 52.6424V10.2742C19.8125 9.52313 20.356 8.91357 21.0271 8.91357C21.6981 8.91357 22.2416 9.52313 22.2416 10.2742V52.6424C22.2416 53.3942 21.6981 54.0031 21.0271 54.0031Z" fill="#464648"/>
<path d="M47.1745 44.4165H31.1521C30.4816 44.4165 29.9375 43.807 29.9375 43.0559C29.9375 42.3049 30.481 41.6953 31.1521 41.6953H47.1745C47.845 41.6953 48.3891 42.3049 48.3891 43.0559C48.3891 43.807 47.8456 44.4165 47.1745 44.4165Z" fill="#464648"/>
<path d="M40.7471 9.56201V28.7732L46.5366 25.0977L52.3261 28.7732V9.56201H40.7471Z" fill="#D8C3EF"/>
<path d="M40.747 30.1461C40.5349 30.1461 40.3227 30.0836 40.1331 29.9581C39.7604 29.7118 39.5312 29.261 39.5312 28.7739V9.56266C39.5312 8.8045 40.0753 8.19043 40.747 8.19043H52.326C52.9972 8.19043 53.5418 8.8045 53.5418 9.56266V28.7739C53.5418 29.261 53.3126 29.7125 52.94 29.9581C52.5674 30.2037 52.1066 30.2085 51.7303 29.9697L46.5365 26.6723L41.3434 29.9697C41.158 30.0871 40.9519 30.1461 40.747 30.1461ZM46.5365 23.7261C46.742 23.7261 46.9475 23.7844 47.1323 23.9024L51.1103 26.428V10.9349H41.9628V26.4273L45.9402 23.9024C46.1256 23.7851 46.3311 23.7261 46.5365 23.7261Z" fill="#464648"/>
</svg>
