<svg width="72" height="72" viewBox="0 0 72 72" fill="none" xmlns="http://www.w3.org/2000/svg">
<path d="M64.6747 8.34668H8.3252V50.2526H64.6747V8.34668Z" fill="white"/>
<path d="M64.6747 51.5992H8.32526C7.59372 51.5992 7 50.9959 7 50.2526V8.34661C7 7.60261 7.59305 7 8.32526 7H64.6747C65.4063 7 66 7.60261 66 8.34661V50.2526C66 50.9959 65.4069 51.5992 64.6747 51.5992ZM9.65052 48.9059H63.3495V9.69323H9.65052V48.9059Z" fill="#464648"/>
<path d="M49.9705 29.6794C50.1767 22.1205 44.3134 15.823 36.8745 15.6135C29.4355 15.4039 23.2378 21.3617 23.0316 28.9205C22.8254 36.4793 28.6887 42.7768 36.1276 42.9864C43.5666 43.1959 49.7642 37.2382 49.9705 29.6794Z" fill="#D8C3EF"/>
<path d="M36.5001 44.338C28.3398 44.338 21.7002 37.5915 21.7002 29.2991C21.7002 21.0066 28.3398 14.2607 36.5001 14.2607C44.6604 14.2607 51.2999 21.0066 51.2999 29.2991C51.2999 37.5915 44.661 44.338 36.5001 44.338ZM36.5001 16.954C29.8009 16.954 24.3507 22.4919 24.3507 29.2991C24.3507 36.1062 29.8009 41.6448 36.5001 41.6448C43.1993 41.6448 48.6494 36.1069 48.6494 29.2991C48.6494 22.4912 43.1993 16.954 36.5001 16.954Z" fill="#464648"/>
<path d="M32.7744 23.0884V35.5102L43.4918 29.2996L32.7744 23.0884Z" fill="white"/>
<path d="M32.7745 36.8571C32.5445 36.8571 32.3146 36.7965 32.1085 36.6753C31.7004 36.4342 31.4492 35.9905 31.4492 35.5105V23.0893C31.4492 22.6099 31.7004 22.1655 32.1085 21.9251C32.5167 21.6848 33.0203 21.6821 33.4311 21.9198L44.1485 28.1303C44.562 28.37 44.8171 28.8164 44.8171 29.2999C44.8171 29.7833 44.562 30.2297 44.1485 30.4694L33.4311 36.68C33.2271 36.7978 33.0011 36.8571 32.7745 36.8571ZM34.0997 25.4068V33.1916L40.8168 29.2992L34.0997 25.4068Z" fill="#464648"/>
<path d="M64.33 60.7352H8.66901C7.93747 60.7352 7.34375 60.1319 7.34375 59.3886C7.34375 58.6453 7.9368 58.042 8.66901 58.042H64.33C65.0615 58.042 65.6553 58.6446 65.6553 59.3886C65.6553 60.1326 65.0622 60.7352 64.33 60.7352Z" fill="#464648"/>
<path d="M21.8875 63.6535C24.2055 63.6535 26.0846 61.7441 26.0846 59.3887C26.0846 57.0334 24.2055 55.124 21.8875 55.124C19.5695 55.124 17.6904 57.0334 17.6904 59.3887C17.6904 61.7441 19.5695 63.6535 21.8875 63.6535Z" fill="white"/>
<path d="M21.8876 65.0003C18.8421 65.0003 16.3652 62.4835 16.3652 59.3897C16.3652 56.2958 18.8421 53.7783 21.8876 53.7783C24.9331 53.7783 27.41 56.2951 27.41 59.3897C27.41 62.4842 24.9331 65.0003 21.8876 65.0003ZM21.8876 56.4715C20.3039 56.4715 19.0158 57.7805 19.0158 59.3897C19.0158 60.9989 20.3039 62.3071 21.8876 62.3071C23.4713 62.3071 24.7594 60.9982 24.7594 59.3897C24.7594 57.7811 23.4713 56.4715 21.8876 56.4715Z" fill="#464648"/>
</svg>
