<svg width="72" height="72" viewBox="0 0 72 72" fill="none" xmlns="http://www.w3.org/2000/svg">
<path d="M9.25781 23.4336V58.6892L27.0853 62.7413V27.4857L9.25781 23.4336Z" fill="white"/>
<path d="M27.0853 63.9992C26.9922 63.9992 26.8992 63.9885 26.8067 63.9678L8.97923 59.9156C8.40628 59.7854 8 59.276 8 58.6892V23.4336C8 23.0512 8.17421 22.689 8.47295 22.45C8.77169 22.2116 9.16288 22.1217 9.53646 22.2066L27.3639 26.2588C27.9369 26.3889 28.3432 26.8984 28.3432 27.4852V62.7407C28.3432 63.1231 28.169 63.4848 27.8702 63.7237C27.6457 63.903 27.3683 63.9992 27.0853 63.9992ZM10.5157 57.6848L25.8275 61.1653V28.4902L10.5157 25.0097V57.6848Z" fill="#464648"/>
<path d="M27.085 27.4858V62.7413L44.9124 54.6364V19.3821L27.085 27.4858Z" fill="white"/>
<path d="M27.0853 63.9993C26.8476 63.9993 26.6105 63.9314 26.4048 63.7993C26.0451 63.5679 25.8281 63.1691 25.8281 62.7415V27.4859C25.8281 26.9928 26.1162 26.545 26.5652 26.3413L44.3933 18.237C44.7833 18.0596 45.2348 18.0929 45.5946 18.3244C45.9543 18.5558 46.1713 18.9546 46.1713 19.3822V54.6372C46.1713 55.1302 45.8832 55.578 45.4342 55.7818L27.6061 63.8867C27.4401 63.9622 27.2627 63.9993 27.0853 63.9993ZM28.3432 28.2966V60.788L43.6556 53.8271V21.3357L28.3432 28.2966Z" fill="#464648"/>
<path d="M62.7412 23.4336L44.9131 19.3821V54.6364L62.7412 58.6892V23.4336Z" fill="white"/>
<path d="M62.7412 59.9471C62.6481 59.9471 62.5551 59.9364 62.4626 59.9156L44.6345 55.8635C44.0616 55.7333 43.6553 55.2239 43.6553 54.6371V19.3821C43.6553 18.9998 43.8295 18.6375 44.1282 18.3985C44.427 18.1601 44.8175 18.0696 45.1917 18.1551L63.0198 22.2066C63.5928 22.3368 63.9991 22.8463 63.9991 23.433V58.6886C63.9991 59.071 63.8249 59.4333 63.5261 59.6723C63.3016 59.8515 63.0242 59.9471 62.7412 59.9471ZM46.171 53.6327L61.4834 57.1132V24.4381L46.171 20.9582V53.6327Z" fill="#464648"/>
<path d="M17.9444 13.0736C12.8558 18.1603 12.8558 26.4099 17.9444 31.4966L27.155 40.7085L36.3675 31.4966C41.4548 26.4099 41.4548 18.1603 36.3675 13.0736C31.2814 7.98622 23.0318 7.98622 17.9444 13.0736ZM30.5958 25.7244C28.6958 27.6244 25.616 27.6244 23.7173 25.7244C21.8179 23.825 21.8179 20.7458 23.7173 18.8458C25.616 16.9465 28.6952 16.9465 30.5958 18.8458C32.4952 20.7458 32.4952 23.825 30.5958 25.7244Z" fill="#D8C3EF"/>
<path d="M27.1558 41.9663C26.8338 41.9663 26.5118 41.8436 26.2665 41.5977L17.056 32.3865C14.3572 29.6891 12.8711 26.1017 12.8711 22.286C12.8711 18.4703 14.3572 14.8823 17.056 12.1849C19.7534 9.48615 23.3408 8 27.1565 8C30.9722 8 34.5595 9.48615 37.2576 12.1842C39.9557 14.8817 41.4418 18.4691 41.4418 22.2854C41.4418 26.1017 39.9557 29.6884 37.2576 32.3859L28.0451 41.5971C27.7992 41.843 27.4779 41.9663 27.1558 41.9663ZM27.1565 10.5157C24.0125 10.5157 21.0572 11.7396 18.8339 13.9628C16.6107 16.1854 15.3862 19.1408 15.3862 22.2847C15.3862 25.4287 16.6107 28.384 18.8339 30.6067L27.1552 38.9286L35.4784 30.6067C37.701 28.384 38.9255 25.4287 38.9255 22.2847C38.9255 19.1408 37.701 16.1854 35.4784 13.9628C33.2551 11.7396 30.3005 10.5157 27.1565 10.5157ZM27.1558 28.4067C25.5206 28.4067 23.9835 27.7696 22.8276 26.613C21.6716 25.457 21.0345 23.9199 21.0345 22.2847C21.0345 20.6495 21.671 19.1125 22.8276 17.9559C23.9829 16.7999 25.52 16.1628 27.1552 16.1628C28.7904 16.1628 30.3275 16.7993 31.4841 17.9552C33.8709 20.3433 33.8709 24.2269 31.4841 26.613C30.3275 27.7696 28.7904 28.4067 27.1558 28.4067ZM27.1558 18.6791C26.193 18.6791 25.2873 19.054 24.6068 19.7351C23.9257 20.4162 23.5502 21.3219 23.5502 22.2854C23.5502 23.2489 23.9251 24.1539 24.6062 24.835C25.2867 25.5162 26.1923 25.8916 27.1552 25.8916C28.1181 25.8916 29.0244 25.5162 29.7055 24.835C31.1111 23.4294 31.1111 21.1414 29.7055 19.7357C29.0244 19.0552 28.1187 18.6798 27.1552 18.6798L27.1558 18.6791Z" fill="#464648"/>
</svg>
