<svg width="72" height="72" viewBox="0 0 72 72" fill="none" xmlns="http://www.w3.org/2000/svg">
<path d="M57.4928 9.32812H15.5078V42.5526H57.4928V9.32812Z" fill="#D8C3EF"/>
<path d="M57.4928 43.8812H15.5079C14.7763 43.8812 14.1826 43.2861 14.1826 42.5528V9.32837C14.1826 8.59444 14.7757 8 15.5079 8H57.4928C58.2244 8 58.8181 8.59444 58.8181 9.32837V42.5528C58.8181 43.2861 58.2244 43.8812 57.4928 43.8812ZM16.8331 41.2245H56.1676V10.6567H16.8331V41.2245Z" fill="#464648"/>
<path d="M32.6325 26.6786L23.7937 17.8184H8.3252V62.6714H64.6747V26.6786H32.6325Z" fill="white"/>
<path d="M64.6747 64H8.32526C7.59372 64 7 63.4055 7 62.6716V17.8186C7 17.0853 7.59305 16.4902 8.32526 16.4902H23.7937C24.1449 16.4902 24.4822 16.6304 24.7307 16.8794L33.1819 25.3504H64.6747C65.4063 25.3504 66 25.9456 66 26.6788V62.6716C66 63.4055 65.4069 64 64.6747 64ZM9.65052 61.3432H63.3495V28.0072H32.6332C32.282 28.0072 31.9447 27.867 31.6963 27.618L23.2451 19.147H9.65052V61.3432Z" fill="#464648"/>
<path d="M53.677 53.064H18.3223C17.5908 53.064 16.9971 52.4689 16.9971 51.7356C16.9971 51.0023 17.5901 50.4072 18.3223 50.4072H53.677C54.4086 50.4072 55.0023 51.0017 55.0023 51.7356C55.0023 52.4695 54.4092 53.064 53.677 53.064Z" fill="#464648"/>
<path d="M39.68 45.6567H18.3253C17.5937 45.6567 17 45.0616 17 44.3284C17 43.5951 17.5931 43 18.3253 43H39.68C40.4115 43 41.0052 43.5944 41.0052 44.3284C41.0052 45.0623 40.4122 45.6567 39.68 45.6567Z" fill="#464648"/>
</svg>
