<svg width="72" height="72" viewBox="0 0 72 72" fill="none" xmlns="http://www.w3.org/2000/svg">
<rect x="5" y="15" width="10" height="42" fill="#D8C3EF"/>
<rect x="57" y="15" width="10" height="42" fill="#D8C3EF"/>
<rect x="16" y="16" width="40" height="40" fill="white"/>
<path d="M15.5059 58.2867H5.17557C4.52666 58.2867 4 57.7622 4 57.1159V14.8844C4 14.2375 4.52607 13.7136 5.17557 13.7136H15.5059C16.1548 13.7136 16.6815 14.2375 16.6815 14.8844V57.1165C16.6815 57.7628 16.1554 58.2867 15.5059 58.2867ZM6.35115 55.9452H14.3304V16.0551H6.35115V55.9452Z" fill="#464648"/>
<path d="M13.5072 15.3783C12.8583 15.3783 12.3316 14.8538 12.3316 14.2075V11.3415H8.35115V14.2075C8.35115 14.8538 7.82449 15.3783 7.17557 15.3783C6.52666 15.3783 6 14.8538 6 14.2075V10.1708C6 9.52391 6.52607 9 7.17557 9H13.5072C14.1561 9 14.6828 9.52391 14.6828 10.1708V14.2075C14.6828 14.8538 14.1561 15.3783 13.5072 15.3783Z" fill="#464648"/>
<path d="M13.5068 63H7.1746C6.52509 63 5.99902 62.4755 5.99902 61.8292V57.7919C5.99902 57.1456 6.52509 56.6211 7.1746 56.6211C7.8241 56.6211 8.35017 57.1456 8.35017 57.7919V60.6585H12.3307V57.7919C12.3307 57.1456 12.8573 56.6211 13.5062 56.6211C14.1552 56.6211 14.6818 57.1456 14.6818 57.7919V61.8292C14.6818 62.4755 14.1557 63 13.5068 63Z" fill="#464648"/>
<path d="M66.8243 58.2867H56.4939C55.845 58.2867 55.3184 57.7622 55.3184 57.1159V14.8844C55.3184 14.2375 55.845 13.7136 56.4939 13.7136H66.8243C67.4732 13.7136 67.9999 14.2375 67.9999 14.8844V57.1165C67.9999 57.7628 67.4738 58.2867 66.8243 58.2867ZM57.6695 55.9452H65.6487V16.0551H57.6695V55.9452Z" fill="#464648"/>
<path d="M64.8246 15.3783C64.1757 15.3783 63.649 14.8538 63.649 14.2075V11.3415H59.6685V14.2075C59.6685 14.8538 59.1425 15.3783 58.493 15.3783C57.8435 15.3783 57.3174 14.8538 57.3174 14.2075V10.1708C57.3174 9.52391 57.8435 9 58.493 9H64.8246C65.4735 9 66.0002 9.52391 66.0002 10.1708V14.2075C66.0002 14.8538 65.4741 15.3783 64.8246 15.3783Z" fill="#464648"/>
<path d="M64.8246 63H58.493C57.844 63 57.3174 62.4755 57.3174 61.8292V57.7919C57.3174 57.1456 57.8435 56.6211 58.493 56.6211C59.1425 56.6211 59.6685 57.1456 59.6685 57.7919V60.6585H63.649V57.7919C63.649 57.1456 64.1751 56.6211 64.8246 56.6211C65.4741 56.6211 66.0002 57.1456 66.0002 57.7919V61.8292C66.0002 62.4755 65.4741 63 64.8246 63Z" fill="#464648"/>
<path d="M55.5989 17.6521H16.4012C15.7522 17.6521 15.2256 17.1276 15.2256 16.4813C15.2256 15.835 15.7517 15.3105 16.4012 15.3105H55.5989C56.2478 15.3105 56.7745 15.835 56.7745 16.4813C56.7745 17.1276 56.2484 17.6521 55.5989 17.6521Z" fill="#464648"/>
<path d="M55.5989 56.6897H16.4012C15.7522 56.6897 15.2256 56.1652 15.2256 55.5189C15.2256 54.8726 15.7517 54.3481 16.4012 54.3481H55.5989C56.2478 54.3481 56.7745 54.8726 56.7745 55.5189C56.7745 56.1652 56.2484 56.6897 55.5989 56.6897Z" fill="#464648"/>
<path d="M24.5974 48.349C23.9485 48.349 23.4219 47.8245 23.4219 47.1783V40.4359C23.4219 39.7896 23.9479 39.2651 24.5974 39.2651C25.247 39.2651 25.773 39.7896 25.773 40.4359V47.1783C25.773 47.8245 25.247 48.349 24.5974 48.349Z" fill="#464648"/>
<path d="M30.2986 48.349C29.6497 48.349 29.123 47.8245 29.123 47.1783V24.8209C29.123 24.1746 29.6491 23.6501 30.2986 23.6501C30.9481 23.6501 31.4742 24.1746 31.4742 24.8209V47.1777C31.4742 47.8239 30.9481 48.349 30.2986 48.349Z" fill="#464648"/>
<path d="M35.9998 48.349C35.3503 48.349 34.8242 47.8245 34.8242 47.1783V24.8209C34.8242 24.1746 35.3503 23.6501 35.9998 23.6501C36.6493 23.6501 37.1754 24.1746 37.1754 24.8209V47.1777C37.1754 47.8239 36.6487 48.349 35.9998 48.349Z" fill="#464648"/>
<path d="M41.7019 48.349C41.053 48.349 40.5264 47.8245 40.5264 47.1783V24.8209C40.5264 24.1746 41.0524 23.6501 41.7019 23.6501C42.3514 23.6501 42.8775 24.1746 42.8775 24.8209V47.1777C42.8775 47.8239 42.3514 48.349 41.7019 48.349Z" fill="#464648"/>
<path d="M47.4031 32.734C46.7542 32.734 46.2275 32.2101 46.2275 31.5633V24.8209C46.2275 24.1746 46.7536 23.6501 47.4031 23.6501C48.0526 23.6501 48.5787 24.1746 48.5787 24.8209V31.5633C48.5787 32.2101 48.0526 32.734 47.4031 32.734Z" fill="#464648"/>
</svg>
