<svg width="166" height="40" viewBox="0 0 166 40" fill="none" xmlns="http://www.w3.org/2000/svg">
<path d="M15.1915 12.8403L1.5 30.1038H6.74389L13.451 21.235L11.6163 30.0838H15.685L19.2594 12.8403H15.1915Z" fill="#004E59"/>
<path d="M35.2139 33.5831H35.2129C31.8633 32.8419 29.264 31.1601 27.7739 28.8946C27.1449 27.9542 26.7088 26.8994 26.4993 25.7566C26.261 24.4733 26.3077 23.0805 26.6792 21.6273C27.5275 18.3117 29.9018 15.3204 33.0294 13.1909C33.0294 13.1909 33.0311 13.1893 33.0323 13.1893H33.0337C33.0455 13.1816 33.0556 13.1722 33.0663 13.1599C33.0685 13.1583 33.0709 13.1552 33.0735 13.1522C33.079 13.1429 33.0858 13.1368 33.0914 13.1275C33.0943 13.1228 33.0953 13.1182 33.0983 13.1151C33.1021 13.1074 33.1055 13.0965 33.1083 13.0874C33.11 13.0827 33.111 13.0797 33.1118 13.0734C33.1156 13.0594 33.1182 13.0457 33.1182 13.0287C33.1182 12.9268 33.0339 12.8417 32.931 12.8403H27.7213C26.1121 14.3429 24.7948 16.0648 23.8911 17.9224L24.9447 12.8403H20.8768L17.3008 30.0838H21.3703L22.5885 24.2032C22.6487 24.9583 22.7874 25.6841 23.0042 26.3775C24.3975 30.8282 28.9416 33.9152 35.1202 33.9938C35.1308 33.9968 35.1409 33.9984 35.1524 33.9998C35.1693 33.9998 35.1846 33.9984 35.1997 33.9952C35.3097 33.9796 35.3931 33.8978 35.3965 33.7943C35.3995 33.6941 35.3204 33.606 35.2141 33.5829L35.2139 33.5831Z" fill="#004E59"/>
<path d="M45.1832 7.22539C45.1687 7.22397 45.153 7.22235 45.1371 7.21769C44.6414 7.13892 44.1318 7.08019 43.6097 7.04475C43.1927 7.01539 42.767 7 42.3343 7C36.8988 7 31.504 9.31182 27.7243 12.8405H32.9309C33.0338 12.8419 33.1181 12.927 33.1181 13.0288C33.1181 13.0458 33.1155 13.0596 33.1117 13.0736C33.1108 13.0797 33.1098 13.0829 33.1082 13.0876C33.1056 13.0969 33.1022 13.1076 33.0982 13.1153C33.0951 13.1183 33.0939 13.123 33.0913 13.1276C33.0855 13.137 33.0786 13.143 33.0734 13.1524C33.0708 13.1554 33.0684 13.1584 33.0662 13.16C33.0555 13.1724 33.0454 13.1817 33.0336 13.1894H33.0326C33.0309 13.1894 33.0297 13.191 33.0297 13.191C29.9019 15.3206 27.5276 18.3118 26.6791 21.6275C26.6503 21.7433 26.6232 21.8575 26.597 21.9733C26.5914 21.998 26.5865 22.0242 26.5797 22.0521C26.5575 22.1572 26.5362 22.2637 26.5167 22.3686C26.5149 22.3763 26.5141 22.384 26.5137 22.3903C26.4688 22.6359 26.4328 22.883 26.4082 23.1284C26.4142 23.1068 26.4213 23.0867 26.4285 23.0651C26.4309 23.062 26.432 23.0557 26.4344 23.0527C26.4569 23.0033 26.4911 22.9802 26.4911 22.9802C26.5491 22.9308 26.6109 22.9278 26.6642 22.9324C26.7196 22.9417 26.7944 22.9571 26.8518 23.0683C26.8526 23.0699 26.8534 23.0699 26.8534 23.0729C26.8695 23.0977 26.9991 23.371 27.1426 23.6104C27.6595 24.4798 28.0682 24.9972 29.1969 25.8495C29.5998 26.1523 29.4843 26.4131 29.4628 26.8797C29.4601 26.9428 29.4603 27.0109 29.462 27.0773C29.4133 28.1182 30.0973 29.1882 31.4663 29.976C32.4654 30.6153 33.7394 30.9875 35.2016 30.9875C35.9579 30.9875 36.7102 30.8871 37.442 30.7034C39.4909 30.271 41.5468 29.2225 42.8352 27.4497C42.8632 27.411 42.8902 27.3709 42.9182 27.3339C44.0762 25.8359 44.4266 24.4508 44.5025 23.43C44.5478 22.9636 44.5347 22.5112 44.4681 22.0819C44.3383 21.2295 44.0012 20.4588 43.4936 19.8071L43.495 19.8057H43.4916C43.3915 19.6759 43.2825 19.551 43.1693 19.4319C42.8367 19.0813 42.4502 18.7741 42.0143 18.5178C41.4365 18.1148 40.7824 17.7347 40.0727 17.3503C40.0462 17.3363 40.0222 17.3226 39.996 17.307C38.3918 16.4066 37.8808 15.1543 37.7606 14.1645C37.7077 13.6627 37.7385 13.1236 37.8665 12.5647C38.5119 9.73242 41.3566 7.43458 44.2213 7.43458C44.4117 7.43458 44.7301 7.44531 44.9702 7.46556C44.9817 7.46698 45.0439 7.47022 45.1174 7.47326C45.12 7.47326 45.122 7.47488 45.1238 7.47488C45.1341 7.4763 45.1449 7.4763 45.154 7.47488C45.2186 7.47022 45.2711 7.42385 45.2784 7.36208C45.2852 7.30335 45.2448 7.24787 45.1832 7.2262V7.22539Z" fill="#004E59"/>
<path d="M45.1832 7.22539C45.1687 7.22397 45.153 7.22235 45.1371 7.21769C44.6414 7.13892 44.1318 7.08019 43.6097 7.04475C43.1927 7.01539 42.767 7 42.3343 7C36.8988 7 31.504 9.31182 27.7243 12.8405H32.9309C33.0338 12.8419 33.1181 12.927 33.1181 13.0288C33.1181 13.0458 33.1155 13.0596 33.1117 13.0736C33.1108 13.0797 33.1098 13.0829 33.1082 13.0876C33.1056 13.0969 33.1022 13.1076 33.0982 13.1153C33.0951 13.1183 33.0939 13.123 33.0913 13.1276C33.0855 13.137 33.0786 13.143 33.0734 13.1524C33.0708 13.1554 33.0684 13.1584 33.0662 13.16C33.0555 13.1724 33.0454 13.1817 33.0336 13.1894H33.0326C33.0309 13.1894 33.0297 13.191 33.0297 13.191C29.9019 15.3206 27.5276 18.3118 26.6791 21.6275C26.6503 21.7433 26.6232 21.8575 26.597 21.9733C26.5914 21.998 26.5865 22.0242 26.5797 22.0521C26.5575 22.1572 26.5362 22.2637 26.5167 22.3686C26.5149 22.3763 26.5141 22.384 26.5137 22.3903C26.4688 22.6359 26.4328 22.883 26.4082 23.1284C26.4142 23.1068 26.4213 23.0867 26.4285 23.0651C26.4309 23.062 26.432 23.0557 26.4344 23.0527C26.4569 23.0033 26.4911 22.9802 26.4911 22.9802C26.5491 22.9308 26.6109 22.9278 26.6642 22.9324C26.7196 22.9417 26.7944 22.9571 26.8518 23.0683C26.8526 23.0699 26.8534 23.0699 26.8534 23.0729C26.8695 23.0977 26.9991 23.371 27.1426 23.6104C27.6595 24.4798 28.0682 24.9972 29.1969 25.8495C29.5998 26.1523 29.4843 26.4131 29.4628 26.8797C29.4601 26.9428 29.4603 27.0109 29.462 27.0773C29.4133 28.1182 30.0973 29.1882 31.4663 29.976C32.4654 30.6153 33.7394 30.9875 35.2016 30.9875C35.9579 30.9875 36.7102 30.8871 37.442 30.7034C39.4909 30.271 41.5468 29.2225 42.8352 27.4497C42.8632 27.411 42.8902 27.3709 42.9182 27.3339C44.0762 25.8359 44.4266 24.4508 44.5025 23.43C44.5478 22.9636 44.5347 22.5112 44.4681 22.0819C44.3383 21.2295 44.0012 20.4588 43.4936 19.8071L43.495 19.8057H43.4916C43.3915 19.6759 43.2825 19.551 43.1693 19.4319C42.8367 19.0813 42.4502 18.7741 42.0143 18.5178C41.4365 18.1148 40.7824 17.7347 40.0727 17.3503C40.0462 17.3363 40.0222 17.3226 39.996 17.307C38.3918 16.4066 37.8808 15.1543 37.7606 14.1645C37.7077 13.6627 37.7385 13.1236 37.8665 12.5647C38.5119 9.73242 41.3566 7.43458 44.2213 7.43458C44.4117 7.43458 44.7301 7.44531 44.9702 7.46556C44.9817 7.46698 45.0439 7.47022 45.1174 7.47326C45.12 7.47326 45.122 7.47488 45.1238 7.47488C45.1341 7.4763 45.1449 7.4763 45.154 7.47488C45.2186 7.47022 45.2711 7.42385 45.2784 7.36208C45.2852 7.30335 45.2448 7.24787 45.1832 7.2262V7.22539Z" fill="#00AFBA"/>
<path d="M116.681 13.546C116.663 13.478 116.368 12.3322 115.696 11.8364C115.576 11.7299 114.959 11.1971 114.584 11.1941C114.503 11.1107 114.299 11.0149 113.578 11.0349H113.566C113.28 11.0766 111.842 11.299 111.583 11.6001C111.566 11.6125 110.703 12.2888 110.407 12.8773C110.401 12.885 110.009 13.4441 110.009 14.4324C110.009 14.5095 110.011 14.5869 110.014 14.6655C110.026 14.7349 110.203 16.0429 110.73 16.4321C110.771 16.4909 111.196 17.0961 112.06 17.4313C112.141 17.5163 112.423 17.7387 113.2 17.7802C113.256 17.7756 114.19 17.6583 114.861 17.3462C114.897 17.3292 115.817 16.8953 116.278 16.0028C116.324 15.9441 116.723 15.4145 116.723 14.2408C116.723 14.0308 116.709 13.7991 116.681 13.5458L116.681 13.546ZM114.795 14.6377C114.628 15.1968 114.058 15.6138 114.051 15.6185C113.394 15.9627 112.708 15.7805 112.704 15.7774C112.126 15.4439 111.951 14.8107 111.95 14.8046C111.9 14.6841 111.878 14.5435 111.878 14.403C111.878 14.0802 111.987 13.7343 112.147 13.5197C112.164 13.4996 112.664 12.9915 112.664 12.9915C112.806 12.8927 113.266 12.834 113.428 12.8202H113.455L113.476 12.8062C113.589 12.7321 114.09 12.9962 114.465 13.2833C114.761 13.5829 114.797 14.227 114.797 14.5156C114.797 14.5806 114.796 14.616 114.795 14.6375L114.795 14.6377Z" fill="#595857"/>
<path d="M131.39 13.546C131.374 13.478 131.08 12.3322 130.407 11.8364C130.288 11.7299 129.668 11.1971 129.293 11.1941C129.213 11.1107 129.011 11.0149 128.288 11.0349H128.274C127.99 11.0766 126.551 11.299 126.295 11.6001C126.275 11.6125 125.417 12.2888 125.119 12.8773C125.111 12.885 124.72 13.4441 124.72 14.4324C124.72 14.5095 124.721 14.5869 124.727 14.6655C124.735 14.7349 124.914 16.0429 125.442 16.4321C125.481 16.4909 125.908 17.0961 126.77 17.4313C126.852 17.5163 127.136 17.7387 127.91 17.7802C127.966 17.7756 128.9 17.6583 129.57 17.3462C129.609 17.3292 130.527 16.8953 130.987 16.0028C131.035 15.9441 131.434 15.4145 131.434 14.2408C131.434 14.0308 131.419 13.7991 131.39 13.5458L131.39 13.546ZM129.505 14.6377C129.335 15.1968 128.768 15.6138 128.764 15.6185C128.102 15.9627 127.419 15.7805 127.412 15.7774C126.836 15.4439 126.664 14.8107 126.661 14.8046C126.609 14.6841 126.587 14.5435 126.587 14.403C126.587 14.0802 126.698 13.7343 126.854 13.5197C126.875 13.4996 127.373 12.9915 127.373 12.9915C127.518 12.8927 127.978 12.834 128.141 12.8202H128.165L128.187 12.8062C128.301 12.7321 128.799 12.9962 129.174 13.2833C129.472 13.5829 129.507 14.227 129.507 14.5156C129.507 14.5806 129.505 14.616 129.505 14.6375L129.505 14.6377Z" fill="#595857"/>
<path d="M59.3889 13.1749C59.4159 13.3572 59.4066 13.5192 59.3628 13.6536C59.3193 13.7911 59.2611 13.8993 59.1863 13.9795C59.1118 14.0613 59.0335 14.123 58.9506 14.1603C58.8662 14.1957 58.7956 14.2144 58.7326 14.2144C58.7153 14.2144 58.6666 14.213 58.5877 14.2067C58.5106 14.1974 58.4104 14.1927 58.2876 14.1836C58.1648 14.1806 58.029 14.1729 57.8803 14.165C57.7329 14.1603 57.584 14.1542 57.4353 14.1542C57.2867 14.165 57.1475 14.168 57.0154 14.1636C56.8842 14.1589 56.7717 14.1542 56.6743 14.1542C56.5608 14.1542 56.4513 14.148 56.347 14.1326H55.5122L54.2318 14.1542H53.7089L53.2108 14.196L52.3888 14.2284L52.1932 14.1141L51.5781 12.5915L51.7083 12.3645L53.0121 12.4356C53.1256 12.4463 53.2247 12.4556 53.3064 12.4586C53.3885 12.4647 53.4805 12.4663 53.5861 12.4663C53.7334 12.4663 53.8892 12.4647 54.0551 12.4617C54.2209 12.4586 54.3497 12.454 54.4471 12.4463L54.3684 10.8603L54.5522 10.6318L56.1709 11.1523L56.3152 11.3469L56.3605 12.4062L57.0819 12.4248H58.5633C58.6155 12.4356 58.6857 12.4449 58.7721 12.4495C58.8606 12.4556 58.9451 12.4819 59.0293 12.5299C59.1122 12.5808 59.1867 12.6535 59.2503 12.7509C59.3175 12.8481 59.3632 12.9902 59.3891 13.1755L59.3889 13.1749Z" fill="#595857"/>
<path d="M63.3469 22.5026C63.366 22.6014 63.3719 22.7249 63.3672 22.8718C63.366 22.9489 63.3047 23.2006 63.2022 23.3598C63.1074 23.5064 62.9724 23.5621 62.9351 23.5975C62.8556 23.6686 52.1567 23.6763 52.1567 23.6763L51.948 23.3489L51.9227 22.762L51.8301 19.6148L52.0527 19.4526L53.5287 20.1861L53.66 20.3807L53.7256 21.8446C53.8039 21.8584 53.9218 21.8694 54.079 21.8754C54.2348 21.8831 54.4101 21.8878 54.6031 21.8878C54.7512 21.8971 54.9054 21.8985 55.0616 21.8955C55.2189 21.8894 55.3683 21.8878 55.5073 21.8878H59.2303L60.9616 21.8444L62.6141 21.7964C62.7373 21.7964 62.8432 21.8242 62.9349 21.8799C63.0273 21.934 63.1072 21.9988 63.1767 22.0759C63.2211 22.1393 63.2562 22.2088 63.2825 22.2812C63.3087 22.3507 63.3312 22.4264 63.3465 22.5022L63.3469 22.5026Z" fill="#595857"/>
<path d="M136.534 22.2555C136.551 22.3543 136.558 22.4779 136.553 22.6231C136.549 22.7018 136.491 22.9536 136.386 23.1127C136.294 23.2593 136.158 23.3167 136.12 23.3505C136.041 23.4183 125.343 23.4276 125.343 23.4276L125.134 23.1034L125.108 22.5135L125.018 19.3678L125.239 19.2056L126.714 19.939L126.845 20.1337L126.911 21.5976C126.99 21.6113 127.107 21.6239 127.264 21.63C127.421 21.6361 127.597 21.6377 127.788 21.6377C127.936 21.65 128.09 21.6516 128.247 21.6484C128.405 21.6407 128.554 21.6377 128.693 21.6377H132.415L134.146 21.5976L135.798 21.5512C135.92 21.5512 136.027 21.5775 136.12 21.633C136.212 21.6885 136.294 21.7519 136.363 21.8276C136.406 21.894 136.441 21.9619 136.468 22.033C136.494 22.1055 136.516 22.1784 136.534 22.2555Z" fill="#595857"/>
<path d="M58.1573 16.8215C58.1347 16.468 58.0007 16.1018 57.7578 15.7235C57.7493 15.7049 57.7244 15.6541 57.6887 15.5737C57.6503 15.4965 57.5766 15.3991 57.4692 15.2833C57.3629 15.166 57.217 15.0439 57.0348 14.9066C56.8527 14.7754 56.6116 14.6363 56.3131 14.4974C56.0324 14.4789 55.8035 14.4633 55.6256 14.454C55.4495 14.4433 55.3082 14.437 55.2048 14.437C55.0931 14.437 55.0097 14.4463 54.953 14.468L54.222 14.5715C54.1196 14.6225 54.0171 14.678 53.9139 14.7353C53.8213 14.7878 53.7197 14.8465 53.6134 14.9159C53.5059 14.987 53.3992 15.0595 53.2976 15.1399C53.1575 15.3005 53.0343 15.4751 52.9315 15.665C52.8389 15.8333 52.7508 16.0263 52.666 16.2456C52.5829 16.4665 52.5352 16.7043 52.526 16.9637C52.5076 17.1429 52.5038 17.3219 52.5117 17.5028C52.5213 17.651 52.5443 17.8069 52.5827 17.9661C52.6183 18.1236 52.684 18.2656 52.7783 18.3847C52.8343 18.5222 52.9039 18.6564 52.9893 18.7877C53.0633 18.8958 53.1573 19.0147 53.2678 19.1382C53.3815 19.2648 53.5154 19.3685 53.6762 19.4594C53.9094 19.5675 54.1481 19.6647 54.3907 19.7419C54.5883 19.813 54.7978 19.8654 55.0222 19.8994C55.2466 19.9351 55.4427 19.9272 55.6115 19.8778C55.6679 19.8778 55.7707 19.8731 55.9203 19.8624C56.0706 19.8516 56.2449 19.8097 56.4468 19.7358C56.647 19.6617 56.8555 19.5458 57.0719 19.393C57.286 19.237 57.4833 19.0161 57.6594 18.7273C57.8455 18.4292 57.9862 18.1157 58.0792 17.7836C58.1557 17.4965 58.18 17.1753 58.1571 16.8215H58.1573ZM56.3896 17.152C56.362 17.3126 56.3075 17.4779 56.2258 17.6431C56.0919 17.8624 55.943 18.0123 55.785 18.0848C55.6208 18.1652 55.4712 18.2083 55.3388 18.2176C55.1796 18.2253 55.02 18.1976 54.8695 18.1311C54.6189 18.0246 54.4528 17.8887 54.375 17.7281C54.2941 17.5615 54.2534 17.3977 54.2534 17.2494C54.2534 17.0765 54.2941 16.8896 54.3766 16.698C54.4041 16.6008 54.4537 16.5143 54.5281 16.437C54.5281 16.4355 54.7537 16.2239 54.7537 16.2239C54.7521 16.2253 55.0399 16.051 55.0399 16.051C55.2325 16.0263 55.4103 16.0186 55.5554 16.0309C55.6934 16.0447 55.7975 16.0727 55.8677 16.1081C55.9563 16.1468 56.0213 16.1929 56.0638 16.2456C56.2195 16.3924 56.3159 16.5467 56.3546 16.7073C56.3826 16.8217 56.3976 16.9266 56.3976 17.0271C56.3976 17.0704 56.3946 17.1105 56.39 17.1522L56.3896 17.152Z" fill="#595857"/>
<path d="M87.283 16.3196C87.2585 15.9583 87.1202 15.5829 86.8708 15.1969C86.864 15.1768 86.841 15.1274 86.8018 15.044C86.7619 14.9636 86.6905 14.8633 86.5784 14.7475C86.4701 14.6303 86.3206 14.5021 86.134 14.3646C85.9491 14.2271 85.7019 14.0867 85.3958 13.9446C85.111 13.9259 84.8747 13.9091 84.693 13.8998C84.5132 13.8891 84.3705 13.8828 84.2641 13.8828C84.1512 13.8828 84.0622 13.8935 84.0077 13.9136L83.2618 14.0201C83.1581 14.0726 83.0523 14.1283 82.9456 14.1884C82.8504 14.2392 82.747 14.3012 82.6373 14.3707C82.529 14.4431 82.4201 14.5205 82.3157 14.6023C82.1722 14.7629 82.0486 14.9421 81.9419 15.1367C81.8467 15.3081 81.7562 15.5073 81.6726 15.7329C81.5851 15.9553 81.5368 16.1977 81.5275 16.4634C81.5084 16.6486 81.503 16.8325 81.5122 17.0148C81.5223 17.1677 81.5452 17.3252 81.5851 17.4858C81.6241 17.6511 81.6895 17.7932 81.7869 17.9151C81.8423 18.0573 81.9151 18.1946 82.0011 18.3258C82.0772 18.44 82.1722 18.5589 82.2873 18.6871C82.4024 18.8136 82.5405 18.9202 82.7033 19.0145C82.9404 19.1257 83.1853 19.2231 83.4331 19.3033C83.6341 19.3744 83.8491 19.4299 84.0785 19.4639C84.3073 19.501 84.509 19.4933 84.6803 19.4422C84.7379 19.4422 84.8429 19.4362 84.9965 19.4268C85.1492 19.4161 85.3263 19.3713 85.5336 19.2956C85.7385 19.2185 85.9519 19.104 86.1729 18.9451C86.3908 18.7891 86.5911 18.5621 86.7714 18.2657C86.9656 17.9615 87.1061 17.6403 87.2027 17.3036C87.2794 17.0101 87.3056 16.6813 87.2834 16.32L87.283 16.3196ZM85.4765 16.6561C85.4473 16.8228 85.3905 16.9897 85.3092 17.1596C85.172 17.3819 85.0192 17.5348 84.8558 17.6136C84.6924 17.6907 84.538 17.7371 84.3991 17.7464C84.2373 17.7558 84.0761 17.7248 83.9211 17.6583C83.6649 17.5502 83.4961 17.4129 83.4139 17.246C83.331 17.0731 83.2912 16.9079 83.2912 16.7533C83.2912 16.5788 83.331 16.3905 83.4186 16.1928C83.4439 16.0926 83.4969 16.0059 83.5721 15.9241L83.8038 15.7064L84.0962 15.5302C84.2919 15.5039 84.473 15.4978 84.6211 15.5118C84.7616 15.5272 84.8705 15.5519 84.9411 15.5906C85.0333 15.6292 85.0969 15.677 85.1422 15.7295C85.301 15.8807 85.4008 16.0383 85.4407 16.2005C85.4682 16.3178 85.4821 16.4245 85.4821 16.528C85.4821 16.5727 85.4813 16.616 85.4767 16.6561H85.4765Z" fill="#595857"/>
<path d="M64.558 14.5786C64.566 14.6003 64.5715 14.6341 64.5715 14.6821C64.5715 14.7315 64.5481 14.8443 64.5051 14.9415C64.4863 14.9725 64.4759 15.0173 64.4729 15.0713C64.4686 15.1268 64.4509 15.1732 64.4272 15.218C64.3742 15.2704 64.3336 15.3198 64.301 15.3631C64.2706 15.4049 64.2207 15.4559 64.1512 15.5098C64.1337 15.5205 64.078 15.5391 63.987 15.5669C63.896 15.5932 63.8324 15.6056 63.797 15.6056H62.7871L62.7706 17.4403V18.6772C62.7706 18.8394 62.7645 18.9923 62.7515 19.1328C62.738 19.275 62.6959 19.4032 62.6263 19.5234C62.5226 19.7071 62.3868 19.8215 62.2217 19.8649C62.1795 19.908 62.1312 19.9281 62.0794 19.9204C62.0261 19.9157 61.9647 19.9143 61.8961 19.9143C61.7993 19.9143 61.4793 19.8896 61.3927 19.8418C61.3046 19.7924 61.2404 19.7399 61.1973 19.6859C61.1633 19.6425 61.1355 19.5854 61.118 19.5145C61.1011 19.4451 61.0868 19.3817 61.0796 19.3276C61.0703 19.2642 61.0661 19.1917 61.0661 19.1144L61.0496 18.855V15.3263L61.0343 13.0825L61.0081 11.1135L60.9844 10.6919L61.1414 10.5947L62.7273 11.3096L62.7672 11.5212L62.7529 12.8215L62.7706 13.6755H63.5871L63.8487 13.7064C63.9105 13.7172 63.9715 13.7388 64.0341 13.7712C64.087 13.7943 64.137 13.8207 64.1899 13.8531C64.2432 13.8855 64.2909 13.9241 64.3346 13.9675C64.4044 14.0539 64.4547 14.1698 64.4843 14.3164C64.5161 14.463 64.5407 14.5234 64.558 14.5788V14.5786Z" fill="#595857"/>
<path d="M79.0551 16.5497C79.0652 16.6455 79.0682 16.7397 79.0682 16.8292C79.0682 16.922 79.0582 17.0161 79.0407 17.1103C79.0137 17.2075 78.962 17.2986 78.8875 17.3837C78.8503 17.427 78.8173 17.4655 78.7893 17.4965L78.3719 17.6895H74.5521C74.534 17.6895 73.5345 17.7158 73.48 17.7065L73.4665 17.8656C73.4665 17.898 73.4639 18.264 73.4572 18.4169C73.453 18.5697 73.4146 18.7674 73.3493 18.8524C73.3023 18.9096 73.2523 19.0023 73.1958 19.0331L72.982 19.1505L72.6111 19.2447L72.1706 19.2678C72.1062 19.2678 72.045 19.2647 71.9888 19.2524C71.8683 19.2307 71.7835 19.2044 71.7382 19.1706C71.6881 19.152 71.5744 19.0918 71.4965 18.9697C71.4132 18.8385 71.3895 18.522 71.3895 18.4879L71.3721 18.3537L71.3599 17.7545V17.6897H68.5327C68.4472 17.702 66.7186 17.7097 66.7186 17.7097L66.3283 17.0487L66.0645 16.1283L66.2866 15.9692L69.0198 15.9584L72.28 15.9414C72.28 15.9414 78.5892 15.9013 78.6923 15.9538C78.7752 16.0109 78.8515 16.0803 78.9213 16.1731C78.9911 16.2626 79.0364 16.3894 79.0549 16.5499L79.0551 16.5497Z" fill="#595857"/>
<path d="M108.38 16.0083C108.388 16.0885 108.391 16.1689 108.391 16.246C108.391 16.3232 108.383 16.4019 108.364 16.4838C108.335 16.5656 108.284 16.6429 108.212 16.7168C108.175 16.7525 108.141 16.7863 108.114 16.8126L107.696 16.9748C107.696 16.9748 102.858 16.9995 102.804 16.9888L102.79 17.1263C102.79 17.1541 102.787 17.3333 102.782 17.4661C102.776 17.5959 102.743 17.7595 102.676 17.829C102.631 17.8754 102.597 17.9355 102.571 17.9418L102.484 18.0206L102.244 18.1208L101.998 18.1579L101.581 18.1842C101.516 18.1842 101.438 18.1688 101.383 18.1579C101.261 18.1394 101.189 18.1085 101.143 18.0791C101.042 18.0437 100.921 17.954 100.865 17.8968C100.809 17.846 100.773 17.7934 100.753 17.7486C100.726 17.6945 100.71 17.5803 100.71 17.5263V17.4011L100.683 17.0319V16.9748H97.854C97.7711 16.9872 96.0436 16.9918 96.0436 16.9918L95.6538 16.4297L95.3867 15.6482L95.5556 15.4429L101.604 15.4909C101.604 15.4909 107.913 15.4568 108.016 15.5002C108.098 15.548 108.176 15.6067 108.245 15.6855C108.316 15.7642 108.359 15.8708 108.38 16.0083H108.38Z" fill="#595857"/>
<path d="M88.395 12.8375C88.4157 12.944 88.4119 13.0182 88.3904 13.0599C88.3666 13.1032 88.3421 13.1664 88.3175 13.2529C88.2807 13.347 88.24 13.4228 88.1917 13.4752C88.1426 13.5277 88.0935 13.5617 88.0406 13.5787C87.9885 13.5941 87.9347 13.605 87.8832 13.6097C87.8287 13.6158 87.7866 13.6174 87.7498 13.6174H87.3951C87.2279 13.6097 87.0407 13.605 86.8356 13.6097C86.6277 13.6158 86.4196 13.6174 86.2079 13.6174C86.0835 13.6174 85.9708 13.6204 85.8663 13.6281C85.7605 13.6342 85.6677 13.6374 85.5878 13.6374H85.3384L84.4551 13.6081L83.2073 13.6374L82.6671 13.6575L82.0601 13.6759H81.377L81.1904 13.6451L80.4775 12.1425L80.6609 11.9232L81.5849 11.985H82.139L82.8764 12.005H83.4435V11.903L83.3508 10.5192L83.4834 10.2197L85.1418 10.6924L85.2714 10.9765L85.3382 11.9663L85.9704 11.9309L87.0647 11.9463H87.5642C87.6348 11.9463 87.7091 11.9524 87.7904 11.9619C87.8603 11.985 87.9285 12.0066 87.9937 12.0344C88.0589 12.0607 88.1273 12.1162 88.1964 12.2011C88.2517 12.2659 88.2916 12.357 88.323 12.4805C88.3544 12.601 88.3775 12.7215 88.3944 12.8373L88.395 12.8375Z" fill="#595857"/>
<path d="M92.0441 23.4933C91.8761 23.711 91.6965 23.8222 91.5023 23.8222L90.9774 23.8052L90.6328 23.4763L90.461 23.0981L90.4211 22.1236V21.6202L82.5922 21.6001L81.2876 21.6157L81.0896 21.523L80.9054 21.2526L80.7489 20.8249L80.4971 20.2257L80.6559 19.9092L82.1975 19.9833L84.3847 19.9693L91.9779 19.9292L92.2258 20.1656V22.9097C92.2258 23.1398 92.1653 23.3358 92.0439 23.4935L92.0441 23.4933Z" fill="#595857"/>
<path d="M78.0159 23.3292C77.8499 23.5516 77.6698 23.6627 77.4741 23.6627L76.948 23.6488L76.6051 23.3169L76.4354 22.9386L76.3956 21.9625V21.4591L72.4158 21.4437L67.2623 21.456L67.0632 21.3602L66.8799 21.0931L66.7209 20.6654L66.4707 20.0646L66.6291 19.7495L68.1716 19.822L76.3277 19.7679H77.9489L78.1995 20.0057V22.7482C78.1995 22.9785 78.1377 23.1729 78.0157 23.3288L78.0159 23.3292Z" fill="#595857"/>
<path d="M78.0159 14.846C77.8499 15.0683 77.6698 15.1795 77.4741 15.1795L76.948 15.1639L76.6051 14.832L76.4354 14.4474L76.3956 13.4653V12.9572L67.2625 12.9525L66.8799 12.585L66.7209 12.1541L66.4707 11.5471L66.6291 11.229L68.1716 11.3015L70.3587 11.2875L72.6778 11.2752L74.3789 11.2474H77.9491L78.1997 11.4868V14.2587C78.1997 14.4918 78.1379 14.688 78.0159 14.8456V14.846Z" fill="#595857"/>
<path d="M93.5997 14.6699C93.6098 14.6916 93.6144 14.724 93.6144 14.7704C93.6144 14.8182 93.5899 14.8892 93.5492 14.982C93.5293 15.0128 93.5192 15.0531 93.5138 15.1071C93.5108 15.1596 93.4939 15.206 93.4693 15.2477C93.4148 15.3001 93.3733 15.3465 93.3427 15.3882C93.3119 15.4283 93.262 15.4763 93.1924 15.5302C93.1747 15.5395 93.1187 15.5579 93.0265 15.5826C92.9338 15.6104 92.8716 15.6227 92.8361 15.6227H91.821L91.8041 16.8953V18.0937C91.8041 18.2496 91.7964 18.3979 91.7841 18.5323C91.7703 18.6682 91.7304 18.7948 91.659 18.9106C91.5545 19.0882 91.4187 19.1978 91.253 19.2395C91.2085 19.2812 91.1608 19.2998 91.1079 19.2952C91.0566 19.2889 90.9966 19.2875 90.9254 19.2875C90.8294 19.2875 90.574 19.2644 90.485 19.2164C90.4005 19.1702 90.3339 19.1192 90.2908 19.0667C90.254 19.025 90.2278 18.9693 90.2117 18.9015C90.194 18.8351 90.1787 18.7717 90.171 18.7209C90.1618 18.6575 90.1579 18.5896 90.1579 18.5186L90.1427 18.2652V14.854L90.1249 12.6858L90.0996 10.7816L90.0742 10.374L90.2324 10.2798L91.7618 10.9715L91.8002 11.1769L91.7872 12.4324L91.8041 13.677H92.6236L92.8883 13.7171C92.9489 13.7264 93.0118 13.7495 93.0716 13.7803C93.1246 13.802 93.1783 13.8267 93.2304 13.8591C93.2834 13.8885 93.3294 13.9269 93.3761 13.9672C93.4452 14.0507 93.4967 14.1633 93.5265 14.304C93.5581 14.4429 93.5794 14.6159 93.5993 14.6699H93.5997Z" fill="#595857"/>
<path d="M123.038 14.5179C123.038 14.5596 122.933 15.1278 122.887 15.2129C122.869 15.2406 122.68 15.4012 122.61 15.4476C122.594 15.4583 122.538 15.4739 122.445 15.4984C122.353 15.5201 122.004 15.5308 122.004 15.5308L121.529 15.5278L121.238 15.5247L121.214 16.5085L121.185 17.0737C121.183 17.2205 121.175 17.1926 121.16 17.3208C121.146 17.4459 121.018 17.5848 120.945 17.6914C120.84 17.855 120.726 17.9538 120.56 17.9909C120.515 18.0295 120.101 18.0666 120.013 18.0202C119.925 17.9755 119.838 17.9508 119.795 17.9028C119.761 17.8641 119.546 17.6093 119.536 17.5616C119.528 17.5044 119.525 17.4396 119.525 17.3732L119.52 17.2219L119.554 16.2922L119.563 14.612L119.562 12.6107L119.553 10.8533L119.529 10.4797L119.688 10.3916L121.212 11.0419L121.249 11.2318L121.228 12.3901L121.234 13.6102L121.726 13.6133L122.055 13.6163L122.317 13.6534C122.378 13.6641 122.442 13.6844 122.502 13.7151C122.556 13.7336 122.608 13.7569 122.66 13.7862C122.711 13.8172 122.924 14.0703 122.955 14.1985C122.985 14.3297 123.038 14.4733 123.038 14.5183V14.5179Z" fill="#595857"/>
<path d="M107.725 12.3551C107.698 12.3968 107.667 12.4355 107.633 12.477C107.598 12.508 107.559 12.5388 107.521 12.5697C107.48 12.5975 107.437 12.6238 107.383 12.6455C107.312 12.6639 107.232 12.6718 107.14 12.6672C107.047 12.6625 106.992 12.6611 106.975 12.6611H106.476C106.345 12.6611 106.199 12.6534 106.042 12.641L105.267 12.6303L104.241 12.5639L104.358 12.6102L105.082 12.9268L106.829 13.7267C106.893 13.7267 106.949 13.7591 107.002 13.8239C107.053 13.8903 107.098 13.9628 107.131 14.0448C107.169 14.1236 107.196 14.2054 107.22 14.2858C107.24 14.3646 107.249 14.4233 107.238 14.451C107.223 14.5808 107.184 14.6904 107.131 14.7769C107.082 14.8603 107.022 14.9281 106.962 14.9792C106.901 15.03 106.842 15.0673 106.787 15.092C106.727 15.1197 106.69 15.129 106.672 15.129C106.619 15.1507 106.55 15.1537 106.467 15.146C106.385 15.1353 106.306 15.1213 106.227 15.1013C106.13 15.0812 106.037 15.0533 105.951 15.0241L105.254 14.6936L104.308 14.2412L103.558 13.849L102.597 13.3796L101.625 12.8531L100.875 13.2747L100.087 13.7117L99.3917 14.0592L98.011 14.6938L97.3649 15.0104L96.9306 15.1155L96.5653 15.0104C96.4933 14.9703 96.4341 14.9162 96.385 14.8451C96.3367 14.7756 96.296 14.6983 96.2622 14.6165C96.2262 14.527 96.1908 14.4358 96.1564 14.3461L96.2216 13.9539L96.5746 13.7423L97.0236 13.4999L97.6827 13.2281L98.2453 12.9577L98.903 12.7014L99.22 12.5639L97.7465 12.6026L96.4589 12.6212L96.2493 12.5147L96.0783 12.2119L95.9064 11.798L95.71 11.2652L95.8933 11.1123L96.8258 11.1324H101.441C101.441 11.1324 107.46 11.1324 107.507 11.1648C107.555 11.1986 107.599 11.2389 107.634 11.279C107.668 11.3314 107.704 11.3855 107.739 11.4456L107.83 11.9167L107.726 12.3553L107.725 12.3551Z" fill="#595857"/>
<path d="M119.834 19.5403C119.58 18.904 119.058 18.3976 119.008 18.3559C118.963 18.3172 118.686 18.0424 118.268 17.9219C117.823 17.789 117.265 17.7303 117.227 17.7303C117.227 17.7242 116.829 17.7226 116.491 17.7627C116.247 17.7921 116.001 17.897 115.862 17.9217C115.785 17.948 115.293 18.141 114.924 18.4375C114.56 18.7232 114.319 19.1108 114.281 19.1786C114.2 19.3115 114.14 19.469 114.102 19.6511C114.074 19.7392 114.043 19.8473 114.017 19.9739C113.998 20.0928 113.978 20.2396 113.961 20.4172C113.94 20.5948 113.952 20.7985 113.942 21.0672C113.952 21.197 113.974 21.4101 114.014 21.5599C114.049 21.6911 114.077 21.7853 114.143 21.9552C114.212 22.1265 114.312 22.3165 114.444 22.5204C114.502 22.6069 114.563 22.6917 114.631 22.7784C114.689 22.8588 114.86 23.1413 115.236 23.3513C115.707 23.6123 116.437 23.796 116.945 23.7713C117.397 23.7496 118.021 23.6694 118.492 23.413C118.987 23.1427 119.32 22.695 119.399 22.6148C119.559 22.468 119.66 22.3197 119.708 22.1824C119.793 21.9678 119.867 21.7547 119.923 21.5384C119.97 21.3562 120.006 21.1618 120.037 20.9579C120.05 20.859 120.072 20.1363 119.835 19.5401L119.834 19.5403ZM118.057 21.5139C117.849 21.8228 117.437 22.016 117.419 22.0234C117.295 22.0852 116.895 22.1223 116.796 22.0945C116.798 22.0945 116.766 22.0868 116.766 22.0868C116.659 22.0575 116.334 21.968 116.143 21.8288C115.956 21.693 115.797 21.4459 115.775 21.3608C115.775 21.3594 115.766 21.3177 115.766 21.3177C115.729 21.1863 115.64 20.8837 115.674 20.5796C115.692 20.4437 115.791 20.0065 116.018 19.775C116.247 19.5434 116.574 19.4692 116.685 19.4476L116.714 19.4399L116.936 19.4058L117.02 19.3998C117.06 19.3951 117.534 19.4322 117.833 19.7039C118.003 19.8585 118.315 20.2708 118.282 20.7171C118.263 20.9781 118.218 21.2776 118.057 21.5139Z" fill="#595857"/>
<path d="M104.247 19.8621C104.009 19.2799 103.526 18.8165 103.482 18.7795C103.439 18.744 103.183 18.4937 102.794 18.3826C102.384 18.2637 101.867 18.2096 101.831 18.2096C101.831 18.2019 101.462 18.2019 101.147 18.239C100.922 18.2653 100.696 18.3609 100.566 18.3826C100.496 18.4073 100.04 18.5849 99.6956 18.852C99.3603 19.1144 99.1369 19.4682 99.1009 19.5284C99.0248 19.6519 98.9721 19.7971 98.9359 19.9639C98.9105 20.0441 98.8829 20.1399 98.8552 20.2574C98.8399 20.3669 98.8216 20.5014 98.803 20.6604C98.7861 20.8226 98.7962 21.0109 98.7861 21.2549C98.7962 21.3738 98.8169 21.5684 98.853 21.7073C98.886 21.8248 98.9129 21.9096 98.9749 22.0672C99.0363 22.2247 99.1291 22.3946 99.2504 22.5813C99.3056 22.6601 99.3623 22.7389 99.4253 22.816C99.4783 22.8902 99.6379 23.148 99.9855 23.3411C100.421 23.5789 101.097 23.7458 101.568 23.7241C101.988 23.704 102.564 23.6299 103.001 23.3983C103.459 23.1512 103.77 22.7419 103.844 22.6694C103.989 22.5319 104.085 22.4007 104.129 22.2711C104.209 22.0781 104.274 21.8819 104.326 21.6859C104.371 21.5176 104.406 21.3414 104.432 21.1561C104.445 21.065 104.468 20.404 104.247 19.8621H104.247ZM102.805 20.9337C102.792 21.0773 102.767 21.4109 102.598 21.6579C102.405 21.9406 102.024 22.1166 102.007 22.1243C101.893 22.1784 101.521 22.2138 101.431 22.1891L101.403 22.1798C101.305 22.1551 101.003 22.0716 100.829 21.9467C100.657 21.8248 100.509 21.5978 100.49 21.522L100.479 21.4803C100.445 21.3614 100.365 21.085 100.399 20.8086C100.413 20.6867 100.501 20.2882 100.71 20.0765C100.921 19.8682 101.226 19.8017 101.326 19.7784L101.356 19.7724L101.56 19.7414L101.639 19.7353C101.677 19.7307 102.116 19.7647 102.389 20.0117C102.539 20.1476 102.808 20.4921 102.808 20.872C102.808 20.8937 102.807 20.9121 102.805 20.9337H102.805Z" fill="#595857"/>
<path d="M136.406 18.4548L136.349 18.9675L136.155 19.261L135.827 19.4479L135.375 19.5127L134.953 19.2703L134.831 18.7713L134.826 16.9986L134.315 16.9955L133.959 17.0093L133.347 16.9969L133.105 16.9151L132.93 16.3283L132.728 15.4002L132.921 15.2118L134.2 15.2365L134.819 15.2212L134.811 13.9069L134.605 13.8868L133.88 13.9008L133.332 13.9178L133.114 13.7973L132.794 12.3194L132.958 12.1141L133.67 12.1572L134.49 12.1789L134.867 12.1449L134.869 11.768L134.859 10.6947L135.065 10.5435L136.362 11.118L136.446 11.3897L136.441 12.3889L136.432 14.3271V16.8317L136.406 18.4548Z" fill="#595857"/>
<path d="M151.06 20.0493L150.761 20.3365C150.761 20.3365 149.989 20.3379 149.857 20.3458C149.725 20.3505 146.409 20.3365 146.409 20.3365L146.036 20.3549V22.6714L145.842 23.0527L145.584 23.2643L145.249 23.3862C145.205 23.3862 144.933 23.417 144.888 23.417C144.842 23.417 144.584 23.2981 144.539 23.2765C144.508 23.2641 144.393 23.2224 144.292 23.1236C144.212 23.0432 144.143 22.9136 144.128 22.8565C144.102 22.7283 144.106 21.6921 144.106 21.6086V21.3678C144.106 21.2627 144.089 20.4705 144.089 20.3964L143.653 20.381L139.023 20.3563L138.886 20.2466L138.455 18.7764L138.589 18.5757L150.909 18.6391L151.22 19.0297L151.29 19.68L151.059 20.0491L151.06 20.0493Z" fill="#595857"/>
<path d="M150.512 15.0224L150.48 17.1289L150.318 17.5966L149.959 17.8964L149.452 17.9859L148.883 17.6617L148.759 16.9219V15.2587L148.79 12.9192L147.859 12.9098L146.591 12.9175L145.547 12.9439L143.037 12.9175L140.952 12.9113L139.258 12.9376L139.061 12.777L138.526 11.4026L138.65 11.2481L150.108 11.2173L150.472 11.5277L150.476 12.3864L150.512 15.0224Z" fill="#595857"/>
<path d="M164.477 22.5026C164.496 22.6014 164.503 22.7235 164.499 22.8718C164.496 22.9489 164.435 23.2006 164.332 23.3598C164.238 23.5064 164.104 23.5621 164.065 23.5975C163.986 23.6686 153.205 23.6763 153.205 23.6763L152.996 23.3489L152.969 22.762L152.878 19.6148L153.1 19.4526L154.576 20.1861L154.707 20.3807L154.772 21.8432C154.853 21.8572 154.97 21.8696 155.126 21.8756C155.284 21.8833 155.457 21.888 155.652 21.888C155.799 21.8973 155.951 21.8987 156.11 21.8957C156.267 21.8896 156.416 21.888 156.555 21.888H160.277L162.008 21.8432L163.743 21.7969C163.866 21.7969 163.974 21.8246 164.064 21.8803C164.158 21.9344 164.238 21.9992 164.307 22.0763C164.352 22.1397 164.386 22.2092 164.411 22.2817C164.438 22.3511 164.46 22.4269 164.477 22.5026Z" fill="#595857"/>
<path d="M160.871 18.5496L160.65 18.8815L160.094 18.9465H159.442L158.387 18.9803L157.723 18.9602V19.5455L157.701 20.2372L157.419 20.5554L156.955 20.7129C156.908 20.7036 156.566 20.6866 156.529 20.6666C156.493 20.6449 156.456 20.6295 156.418 20.6188C156.382 20.608 156.349 20.5941 156.322 20.5724C156.295 20.5493 156.229 20.5199 156.177 20.4442C156.135 20.3808 156.098 20.268 156.094 20.2403C156.079 20.1769 156.064 20.1044 156.046 20.0193C156.025 19.9252 156.012 19.8247 156.003 19.7182L155.987 19.0589V18.9384L154.895 18.9554L154.051 18.9384L153.066 18.9214L152.887 18.7808L152.596 18.2387L152.306 17.4589L152.473 17.2041L153.662 17.2875L154.868 17.3216L155.713 17.3386L157.555 17.3031L158.735 17.2677L159.582 17.2831L160.442 17.2987L160.733 17.5196L160.943 18.0585L160.871 18.5496Z" fill="#595857"/>
<path d="M159.656 13.1303C159.591 12.9203 159.512 12.7211 159.419 12.5295C159.343 12.3628 159.252 12.1883 159.142 12.0107C159.03 11.8314 158.905 11.6848 158.765 11.569C158.61 11.4208 158.429 11.291 158.225 11.1751C158.049 11.081 157.84 10.9914 157.594 10.9064C157.348 10.823 157.063 10.7845 156.74 10.7952C156.684 10.7952 156.57 10.809 156.398 10.8339C156.229 10.8616 156.05 10.8987 155.866 10.9451C155.68 10.9931 155.501 11.0502 155.332 11.1196C155.157 11.1877 155.045 11.2539 154.989 11.3173C154.841 11.4424 154.698 11.5737 154.56 11.7095C154.44 11.8268 154.32 11.9552 154.207 12.0971C154.088 12.2393 153.996 12.3782 153.922 12.5141C153.838 12.6299 153.767 12.7735 153.714 12.9402C153.666 13.0884 153.626 13.266 153.59 13.4699C153.551 13.6753 153.541 13.9086 153.56 14.1724C153.59 14.4041 153.63 14.6234 153.684 14.835C153.731 15.0126 153.795 15.201 153.878 15.3941C153.963 15.5888 154.068 15.7463 154.198 15.8605C154.329 16.0381 154.491 16.2017 154.683 16.3486C154.851 16.4737 155.066 16.5987 155.326 16.7208C155.583 16.8396 155.906 16.9214 156.295 16.9648C156.489 16.9741 156.688 16.9648 156.891 16.9324C157.069 16.9107 157.252 16.8799 157.448 16.8366C157.643 16.7965 157.82 16.7315 157.989 16.6483C158.146 16.5541 158.308 16.449 158.475 16.3317C158.605 16.2266 158.746 16.0987 158.899 15.9456C159.052 15.7943 159.179 15.612 159.281 15.402C159.381 15.2538 159.47 15.0762 159.546 14.8662C159.598 14.6886 159.642 14.4539 159.677 14.1635C159.707 13.8747 159.701 13.5303 159.656 13.1303ZM157.855 14.701L157.627 14.9944C157.625 14.9944 157.329 15.2244 157.329 15.2244C157.179 15.3032 157.025 15.3542 156.876 15.3743L156.461 15.399L156.165 15.3603C156.165 15.3603 156.083 15.3403 156.044 15.3326C155.902 15.2491 155.784 15.1596 155.695 15.0592L155.479 14.7658L155.33 14.443C155.284 14.3504 155.259 14.2407 155.258 14.1111L155.281 13.7018L155.384 13.3081C155.428 13.1909 155.48 13.0951 155.544 13.024C155.545 13.024 155.979 12.6998 155.979 12.6998C155.97 12.7059 156.156 12.6441 156.156 12.6441L156.402 12.59L156.628 12.542L156.746 12.5204C156.855 12.5281 156.97 12.5574 157.086 12.6022L157.398 12.7504C157.398 12.752 157.699 12.9651 157.699 12.9651C157.792 13.0609 157.863 13.186 157.907 13.331L158.003 13.7711C158.003 13.7727 158.014 14.2698 158.016 14.2791C157.981 14.4505 157.926 14.5912 157.855 14.701Z" fill="#595857"/>
<path d="M164.336 19.4162L164.281 19.9399L164.087 20.238L163.752 20.4294L163.292 20.4988L162.862 20.238L162.726 19.7637L162.722 16.3201L161.564 16.3092L161.381 16.195L161.21 15.7008L160.93 14.7527L161.115 14.5455L162.226 14.5348H162.74V14.2878V12.9287L162.722 12.4069V10.9089L162.932 10.7344L164.253 11.3089L164.336 11.5869L164.351 12.7544L164.336 14.7234L164.351 17.2573L164.336 19.4162Z" fill="#595857"/>
<path d="M51.5771 27.1606H54.9809L54.8239 27.9545H53.697V31.9108H52.731V27.9545H51.5771V27.1606Z" fill="#595857"/>
<path d="M55.7422 27.1606H56.6865V29.0077H58.0448V27.1606H59.0087V31.9108H58.0448V29.7936H56.6865V31.9108H55.7422V27.1606Z" fill="#595857"/>
<path d="M60.3047 27.1608H62.994L62.8728 27.9407H61.2552V29.0401H62.6065V29.8216H61.2689V31.0909H63.0547V31.9108H60.3047V27.1608Z" fill="#595857"/>
<path d="M67.3882 27.1484H68.413L69.9017 31.911H68.8825L68.5498 30.7853H67.1644L66.8325 31.911H65.8398L67.3882 27.1484ZM67.3956 29.9914H68.3192C68.3192 29.9914 68.1646 29.491 68.0606 29.034C68.0119 28.8163 67.8718 28.194 67.8718 28.194C67.8718 28.194 67.7355 28.7561 67.6466 29.1097C67.5576 29.4526 67.4968 29.6765 67.3956 29.9914Z" fill="#595857"/>
<path d="M73.5484 27.4351L73.1187 28.0851C72.882 27.9061 72.631 27.8164 72.3674 27.8164C72.0486 27.8164 71.735 27.9756 71.5647 28.2287C71.3822 28.5021 71.3001 28.8958 71.3001 29.4519C71.3001 30.1005 71.3548 30.4618 71.4969 30.7228C71.6869 31.0703 72.0003 31.2556 72.4062 31.2556C72.6652 31.2556 72.89 31.1799 73.1187 31.0225C73.1479 31.0025 73.1813 30.9761 73.2161 30.9484L73.6504 31.5506C73.2771 31.8548 72.8749 31.9937 72.339 31.9937C71.6867 31.9937 71.1841 31.7807 70.7969 31.3374C70.4155 30.9051 70.2275 30.3322 70.2275 29.6357C70.2275 29.0396 70.3274 28.5702 70.5463 28.1595C70.9124 27.4691 71.5907 27.0601 72.3521 27.0601C72.821 27.0601 73.291 27.2095 73.5484 27.4351Z" fill="#595857"/>
<path d="M75.4503 27.1484H76.4755L77.9624 31.911H76.9452L76.6121 30.7853H75.2262L74.892 31.911H73.9023L75.4503 27.1484ZM75.4563 29.9914H76.3815C76.3815 29.9914 76.2245 29.491 76.1229 29.034C76.0746 28.8163 75.9337 28.194 75.9337 28.194C75.9337 28.194 75.7962 28.7561 75.7089 29.1097C75.6195 29.4526 75.5581 29.6765 75.4565 29.9914H75.4563Z" fill="#595857"/>
<path d="M78.6564 27.1904H79.6064C79.8789 27.1904 80.2388 27.2044 80.4276 27.2168C80.8289 27.2508 81.1682 27.4083 81.4604 27.6878C81.8948 28.1187 82.1073 28.727 82.1073 29.5812C82.1073 30.2299 81.9423 30.7641 81.6315 31.2027C81.3461 31.5933 80.9233 31.8388 80.4827 31.8851C80.3062 31.8991 80.0814 31.9115 79.8028 31.9115H78.6562V27.1906L78.6564 27.1904ZM79.6211 27.9409V31.1344H80.1291C80.756 31.1344 81.0392 30.6758 81.0392 29.6705C81.0392 29.1191 80.9931 28.6513 80.8021 28.3362C80.6455 28.0798 80.4276 27.9409 80.0554 27.9409H79.6211Z" fill="#595857"/>
<path d="M83.126 27.1608H85.8142L85.6931 27.9407H84.0753V29.0401H85.4274V29.8216H84.0906V31.0909H85.8756V31.9108H83.126V27.1608Z" fill="#595857"/>
<path d="M87.1119 27.1608H88.3406L88.9607 29.5407C89.0466 29.8819 89.0835 30.0194 89.1219 30.2635C89.1702 30.0194 89.2177 29.8001 89.2922 29.519L89.9292 27.1608H91.1748L91.5952 31.911H90.6559L90.4816 29.3769C90.4601 29.0757 90.441 28.8702 90.441 28.6171C90.385 28.8905 90.3512 29.0263 90.2707 29.3151L89.5232 31.911H88.6884L88.0154 29.4186C87.954 29.1855 87.825 28.5907 87.825 28.5907C87.825 28.8702 87.8111 29.1359 87.7928 29.4324L87.6285 31.9108H86.6699L87.1119 27.1608Z" fill="#595857"/>
<path d="M92.1514 27.1484H93.2925L93.905 28.4611C94.0201 28.7205 94.0869 28.8904 94.1429 29.068C94.1966 28.9321 94.2932 28.6988 94.393 28.4734L95.0055 27.1545H96.1265L94.6178 29.9574V31.911H93.6272V29.9574L92.1514 27.1484Z" fill="#595857"/>
<path d="M101.007 27.1001C102.266 27.1001 103.038 28.0235 103.038 29.5138C103.038 30.5854 102.665 31.3855 101.986 31.7669C101.701 31.926 101.437 31.9862 101.042 31.9862C100.328 31.9862 99.8673 31.7885 99.5089 31.3175C99.149 30.8511 98.9648 30.2519 98.9648 29.5541C98.9648 28.5272 99.3577 27.7102 100.031 27.3348C100.308 27.1835 100.655 27.1001 101.007 27.1001ZM100.996 27.838C100.675 27.838 100.391 28.0019 100.261 28.255C100.099 28.5624 100.024 28.9792 100.024 29.5537C100.024 30.372 100.166 30.8801 100.444 31.0901C100.595 31.2013 100.786 31.2553 101.008 31.2553C101.667 31.2553 101.945 30.7503 101.945 29.5397C101.945 29.0547 101.905 28.7058 101.823 28.4403C101.748 28.2009 101.497 27.838 100.996 27.838H100.996Z" fill="#595857"/>
<path d="M104.064 27.1763H106.628L106.518 27.9484H105.015V29.0341H106.219V29.8139H105.015V31.9111H104.064V27.1765V27.1763Z" fill="#595857"/>
<path d="M110.037 27.1606H111.009V29.3289L112.353 27.1606H113.521L112.014 29.3643L113.692 31.9108H112.44L111.009 29.4324V31.9108H110.037L110.037 27.1606Z" fill="#595857"/>
<path d="M116.021 27.1001C117.278 27.1001 118.051 28.0235 118.051 29.5138C118.051 30.5854 117.68 31.3855 117 31.7669C116.715 31.926 116.449 31.9862 116.055 31.9862C115.341 31.9862 114.882 31.7885 114.523 31.3175C114.162 30.8511 113.979 30.2519 113.979 29.5541C113.979 28.5272 114.371 27.7102 115.045 27.3348C115.323 27.1835 115.669 27.1001 116.021 27.1001ZM116.009 27.838C115.69 27.838 115.403 28.0019 115.275 28.255C115.111 28.5624 115.036 28.9792 115.036 29.5537C115.036 30.372 115.178 30.8801 115.459 31.0901C115.608 31.2013 115.798 31.2553 116.021 31.2553C116.682 31.2553 116.959 30.7503 116.959 29.5397C116.959 29.0547 116.919 28.7058 116.838 28.4403C116.762 28.2009 116.511 27.838 116.009 27.838H116.009Z" fill="#595857"/>
<path d="M119.031 27.1537L120.79 27.1598C121.626 27.1598 122.174 27.7203 122.174 28.5573C122.174 29.2661 121.706 29.8529 121.123 29.8683C121.218 29.9441 121.26 29.9842 121.321 30.066C121.591 30.4072 122.453 31.9098 122.453 31.9098H121.332C121.149 31.5947 121.075 31.4667 120.891 31.133C120.425 30.2774 120.274 30.0536 120.11 29.9686C120.06 29.9499 120.037 29.9345 119.962 29.9299V31.9096H119.031V27.1533V27.1537ZM119.969 27.9275L119.962 29.2124H120.281C120.688 29.2124 120.865 29.1707 120.994 29.0549C121.109 28.9451 121.178 28.7738 121.178 28.5778C121.178 28.2827 121.063 28.0851 120.838 27.9939C120.73 27.9538 120.531 27.9275 120.299 27.9275H119.969Z" fill="#595857"/>
<path d="M123.288 27.1608H125.978L125.857 27.9407H124.238V29.0401H125.593V29.8216H124.253V31.0909H126.04V31.9108H123.288V27.1608Z" fill="#595857"/>
<path d="M128.025 27.1484H129.049L130.537 31.911H129.519L129.187 30.7853H127.8L127.468 31.911H126.475L128.025 27.1484ZM128.03 29.9914H128.957C128.957 29.9914 128.798 29.491 128.696 29.034C128.649 28.8163 128.505 28.194 128.505 28.194C128.505 28.194 128.371 28.7561 128.282 29.1097C128.193 29.4526 128.132 29.6765 128.03 29.9914H128.03Z" fill="#595857"/>
<path d="M131.249 27.1606H132.302L133.205 29.0632C133.444 29.568 133.628 30.067 133.721 30.4082C133.689 30.0391 133.654 29.4324 133.646 29.1019L133.628 27.1606H134.531V31.9108H133.538L132.731 30.0933C132.472 29.4988 132.181 28.8301 132.093 28.5353C132.127 28.9259 132.133 29.485 132.14 29.8819L132.165 31.911H131.249V27.1606Z" fill="#595857"/>
<path d="M141.493 27.4964L141.045 28.182C140.615 27.9196 140.297 27.8175 139.943 27.8175C139.556 27.8175 139.283 28.0445 139.283 28.3643C139.283 28.6114 139.415 28.7349 139.807 28.8446L140.38 29.0022C141.153 29.2138 141.572 29.7126 141.572 30.4167C141.572 31.3804 140.798 32.0151 139.625 32.0151C139.088 32.0151 138.488 31.8559 138.016 31.5841L138.367 30.8397C138.809 31.0714 139.191 31.2211 139.664 31.2211C140.21 31.2211 140.493 30.9971 140.493 30.5724C140.493 30.2636 140.297 30.0674 139.877 29.9578L139.352 29.8142C138.883 29.6844 138.593 29.4991 138.422 29.2134C138.293 29.0018 138.224 28.7563 138.224 28.4876C138.224 27.6213 138.918 27.019 139.916 27.019C140.493 27.019 141.078 27.1952 141.493 27.4964Z" fill="#595857"/>
<path d="M142.214 27.1606H145.615L145.458 27.9545H144.331V31.9108H143.367V27.9545H142.214V27.1606Z" fill="#595857"/>
<path d="M146.268 27.1606H147.239V30.2847C147.239 30.6399 147.251 30.7233 147.319 30.8515C147.428 31.0646 147.654 31.1804 147.964 31.1804C148.379 31.1804 148.645 30.9765 148.684 30.6276C148.699 30.5257 148.699 30.4546 148.699 30.2043V27.1606H149.665V30.3605C149.665 30.8129 149.656 30.9009 149.589 31.1049C149.467 31.4817 149.004 32.0006 147.986 32.0006C147.266 32.0006 146.743 31.7812 146.471 31.3643C146.315 31.1188 146.268 30.9273 146.268 30.4686V27.1606Z" fill="#595857"/>
<path d="M150.824 27.1904H151.774C152.047 27.1904 152.407 27.2044 152.597 27.2168C152.996 27.2508 153.336 27.4083 153.63 27.6878C154.065 28.1187 154.275 28.727 154.275 29.5812C154.275 30.2299 154.112 30.7641 153.798 31.2027C153.516 31.5933 153.092 31.8388 152.652 31.8851C152.474 31.8991 152.251 31.9115 151.972 31.9115H150.824V27.1904ZM151.79 27.9409V31.1344H152.297C152.924 31.1344 153.209 30.6758 153.209 29.6705C153.209 29.1191 153.161 28.6513 152.969 28.3362C152.815 28.0798 152.597 27.9409 152.222 27.9409H151.79H151.79Z" fill="#595857"/>
<path d="M155.313 27.1606H156.306V31.9108H155.313V27.1606Z" fill="#595857"/>
<path d="M157.575 27.1608H160.266L160.143 27.9407H158.528V29.0401H159.88V29.8216H158.54V31.0909H160.328V31.9108H157.575V27.1608Z" fill="#595857"/>
<path d="M164.403 27.4964L163.952 28.182C163.527 27.9196 163.207 27.8175 162.854 27.8175C162.467 27.8175 162.196 28.0445 162.196 28.3643C162.196 28.6114 162.324 28.7349 162.718 28.8446L163.288 29.0022C164.061 29.2138 164.482 29.7126 164.482 30.4167C164.482 31.3804 163.708 32.0151 162.532 32.0151C161.998 32.0151 161.4 31.8559 160.925 31.5841L161.278 30.8397C161.718 31.0714 162.099 31.2211 162.576 31.2211C163.117 31.2211 163.404 30.9971 163.404 30.5724C163.404 30.2636 163.206 30.0674 162.785 29.9578L162.262 29.8142C161.793 29.6844 161.501 29.4991 161.331 29.2134C161.203 29.0018 161.133 28.7563 161.133 28.4876C161.133 27.6213 161.828 27.019 162.826 27.019C163.403 27.019 163.987 27.1952 164.403 27.4964H164.403Z" fill="#595857"/>
</svg>
