<svg width="165" height="40" viewBox="0 0 165 40" fill="none" xmlns="http://www.w3.org/2000/svg">
<path d="M61.1124 11.4907H53.5771V29.3563H61.1124V11.4907Z" fill="#005EAE"/>
<path d="M38.7147 11.4907H31.1787V29.3563H38.7147V11.4907Z" fill="#005EAE"/>
<path d="M20.6101 11.4907H11.9814L21.6683 31.1331L25.933 22.3162L20.6101 11.4907Z" fill="#005EAE"/>
<path d="M61.5626 4.3685C61.5626 6.78059 59.6609 8.73541 57.317 8.73541C54.9732 8.73541 53.0723 6.7798 53.0723 4.3685C53.0723 1.9572 54.9739 0 57.317 0C59.6601 0 61.5626 1.9572 61.5626 4.3685Z" fill="#005EAE"/>
<path d="M49.3663 13.3262C49.3663 15.7375 47.4653 17.6923 45.12 17.6923C42.7746 17.6923 40.876 15.7367 40.876 13.3262C40.876 10.9157 42.7761 8.9585 45.12 8.9585C47.4638 8.9585 49.3663 10.9133 49.3663 13.3262Z" fill="#009D87"/>
<path d="M18.9903 35.6345C18.9903 38.0466 17.0901 39.9998 14.7455 39.9998C12.4009 39.9998 10.5 38.0466 10.5 35.6345C10.5 33.2224 12.4017 31.2676 14.7455 31.2676C17.0894 31.2676 18.9903 33.2232 18.9903 35.6345Z" fill="#EE7625"/>
<path d="M93.4969 29.2108V25.0068H95.1948C95.6315 25.0068 95.9484 25.0456 96.146 25.1208C96.3452 25.1959 96.5028 25.3304 96.6212 25.5234C96.7396 25.7165 96.7996 25.9372 96.7996 26.1856C96.7996 26.5012 96.7081 26.7615 96.5289 26.9664C96.3482 27.1721 96.1906 27.3018 95.8322 27.3556C96.0099 27.4616 96.1706 27.5764 96.3267 27.7757C96.5236 28.0217 97.1303 29.2108 97.1303 29.2108H96.1452C96.1452 29.2108 95.5477 28.0637 95.2248 27.6776C95.1502 27.589 95.0663 27.5241 94.9779 27.4925C94.8918 27.4616 94.678 27.4561 94.4873 27.4561H94.3212V29.2108H93.4969ZM94.322 26.7852H94.8926C95.2886 26.7852 95.537 26.7678 95.6354 26.733C95.7338 26.6982 95.8107 26.6381 95.8669 26.555C95.9222 26.472 95.9499 26.3667 95.9499 26.2402C95.9499 26.0978 95.9138 25.9846 95.8407 25.8976C95.7684 25.8106 95.6646 25.7552 95.53 25.7323C95.4616 25.7228 95.2601 25.718 94.9287 25.718H94.3227V26.7845L94.322 26.7852Z" fill="#3F3A2E"/>
<path d="M112.995 29.2108V25.0068H114.692C115.129 25.0068 115.446 25.0456 115.642 25.1208C115.843 25.1959 116 25.3304 116.119 25.5234C116.237 25.7165 116.296 25.9372 116.296 26.1856C116.296 26.5012 116.206 26.7615 116.026 26.9664C115.846 27.1721 115.688 27.3018 115.33 27.3556C115.507 27.4616 115.667 27.5764 115.825 27.7757C116.02 28.0217 116.63 29.2108 116.63 29.2108H115.642C115.642 29.2108 115.046 28.0637 114.722 27.6776C114.648 27.589 114.565 27.5241 114.478 27.4925C114.391 27.4616 114.176 27.4561 113.986 27.4561H113.82V29.2108H112.995ZM113.819 26.7852H114.392C114.787 26.7852 115.034 26.7678 115.132 26.733C115.231 26.6982 115.307 26.6381 115.364 26.555C115.418 26.472 115.446 26.3667 115.446 26.2402C115.446 26.0978 115.41 25.9846 115.335 25.8976C115.263 25.8106 115.16 25.7552 115.027 25.7323C114.959 25.7228 114.758 25.718 114.425 25.718H113.819V26.7845V26.7852Z" fill="#3F3A2E"/>
<path d="M72.0478 25.0068H73.0206L71.6472 27.6483V29.2329H70.7883V27.6483L69.3672 25.0068H70.3784L71.2312 26.8477L72.0478 25.0068Z" fill="#3F3A2E"/>
<path d="M76.2373 28.8574C75.9259 29.1865 75.4775 29.3518 74.8908 29.3518C74.3041 29.3518 73.8527 29.1865 73.5436 28.8574C73.1283 28.4547 72.9199 27.874 72.9199 27.1162C72.9199 26.3409 73.1283 25.7602 73.5436 25.3734C73.8527 25.0442 74.3025 24.8789 74.8908 24.8789C75.4791 24.8789 75.9259 25.0442 76.2373 25.3734C76.651 25.7602 76.8579 26.3409 76.8579 27.1162C76.8579 27.874 76.651 28.4547 76.2373 28.8574ZM75.6998 28.2166C75.8997 27.9563 75.9997 27.5908 75.9997 27.1154C75.9997 26.6399 75.8997 26.2744 75.6998 26.0149C75.4998 25.7562 75.2315 25.6257 74.8908 25.6257C74.5502 25.6257 74.2795 25.7555 74.0749 26.0126C73.8719 26.2713 73.7712 26.6375 73.7712 27.1154C73.7712 27.5932 73.8719 27.9555 74.0749 28.2166C74.2795 28.4729 74.5494 28.6011 74.8908 28.6011C75.2322 28.6011 75.4998 28.4729 75.6998 28.2166Z" fill="#3F3A2E"/>
<path d="M77.3877 25.0068H78.2882L79.9169 27.9537V25.0068H80.7181V29.2329H79.8584L78.1874 26.2354V29.2329H77.3877V25.0068Z" fill="#3F3A2E"/>
<path d="M84.2844 26.3266C84.2198 26.0378 84.0614 25.8369 83.8092 25.7214C83.6677 25.6589 83.5101 25.6256 83.3378 25.6256C83.0064 25.6256 82.7357 25.7538 82.5219 26.0101C82.3097 26.2672 82.2028 26.6533 82.2028 27.1683C82.2028 27.6873 82.3189 28.0544 82.5496 28.2703C82.7795 28.4855 83.0418 28.5939 83.3355 28.5939C83.6231 28.5939 83.8584 28.5084 84.0422 28.3391C84.226 28.1683 84.3383 27.9468 84.3821 27.6707H83.4309V26.9658H85.1426V29.2323H84.4874L84.489 28.7054C84.3237 28.9048 84.1752 29.0456 84.043 29.1279C83.8169 29.2695 83.5378 29.3415 83.2056 29.3415C82.6627 29.3415 82.2159 29.1461 81.8706 28.76C81.5077 28.37 81.3262 27.8368 81.3262 27.162C81.3262 26.4785 81.5092 25.9302 81.8752 25.5181C82.2405 25.1051 82.7257 24.8994 83.3271 24.8994C83.8492 24.8994 84.2698 25.0347 84.5859 25.3084C84.9019 25.5798 85.0834 25.9192 85.1311 26.3274H84.2852L84.2844 26.3266Z" fill="#3F3A2E"/>
<path d="M86.8552 25.0068H86.0039V29.2329H86.8552V25.0068Z" fill="#3F3A2E"/>
<path d="M87.7559 25.0068H88.6548L90.2858 27.9537V25.0068H91.0855V29.2329H90.2281L88.5556 26.2354V29.2329H87.7559V25.0068Z" fill="#3F3A2E"/>
<path d="M101.913 27.9294C101.94 28.1209 101.991 28.2672 102.069 28.363C102.211 28.5362 102.456 28.6232 102.799 28.6232C103.007 28.6232 103.175 28.5995 103.304 28.5544C103.548 28.4658 103.671 28.302 103.671 28.0639C103.671 27.9231 103.611 27.8179 103.492 27.7404C103.372 27.666 103.182 27.5995 102.922 27.5426L102.477 27.4429C102.04 27.3432 101.741 27.2341 101.576 27.1186C101.299 26.9239 101.161 26.6186 101.161 26.2032C101.161 25.8251 101.298 25.5118 101.567 25.2618C101.839 25.0102 102.235 24.8853 102.76 24.8853C103.198 24.8853 103.572 25.0031 103.882 25.2389C104.19 25.4754 104.353 25.8172 104.369 26.2665H103.544C103.53 26.0134 103.418 25.833 103.213 25.7246C103.075 25.655 102.905 25.6186 102.701 25.6186C102.474 25.6186 102.293 25.6653 102.16 25.7563C102.023 25.848 101.955 25.9762 101.955 26.1407C101.955 26.2918 102.021 26.4034 102.156 26.4785C102.24 26.5268 102.424 26.5861 102.701 26.6542L103.421 26.8282C103.737 26.905 103.976 27.007 104.132 27.136C104.375 27.3345 104.499 27.6217 104.499 27.9983C104.499 28.3835 104.354 28.7047 104.064 28.961C103.774 29.2158 103.365 29.3431 102.835 29.3431C102.293 29.3431 101.869 29.2174 101.558 28.9658C101.248 28.715 101.094 28.3693 101.094 27.9294H101.913Z" fill="#3F3A2E"/>
<path d="M110.082 25.0068H111.053L112.505 29.2329H111.575L111.304 28.3635H109.792L109.513 29.2329H108.615L110.082 25.0068ZM110.025 27.6357H111.076L110.556 25.9744L110.025 27.6357Z" fill="#3F3A2E"/>
<path d="M117.267 25.4483C117.597 25.1034 118.018 24.9277 118.53 24.9277C119.213 24.9277 119.712 25.1611 120.029 25.6263C120.205 25.8881 120.297 26.1516 120.31 26.415H119.452C119.396 26.2117 119.327 26.0598 119.242 25.957C119.089 25.7742 118.863 25.6809 118.561 25.6809C118.257 25.6809 118.016 25.8106 117.84 26.0693C117.662 26.328 117.573 26.6951 117.573 27.1697C117.573 27.6444 117.668 27.9972 117.853 28.2338C118.039 28.4703 118.276 28.5882 118.563 28.5882C118.858 28.5882 119.082 28.4869 119.237 28.2836C119.322 28.1752 119.392 28.0115 119.448 27.7939H120.3C120.228 28.2543 120.04 28.6293 119.738 28.9173C119.435 29.2068 119.048 29.3516 118.576 29.3516C117.991 29.3516 117.533 29.1562 117.197 28.7662C116.863 28.3754 116.696 27.8374 116.696 27.1555C116.696 26.4174 116.886 25.8486 117.267 25.4483Z" fill="#3F3A2E"/>
<path d="M120.878 29.2329V25.0068H121.731V26.6191H123.328V25.0068H124.18V29.2329H123.328V27.3461H121.731V29.2329H120.878Z" fill="#3F3A2E"/>
<path d="M127.374 25.0068H126.521V29.2329H127.374V25.0068Z" fill="#3F3A2E"/>
<path d="M128.163 25.0068H129.063L130.693 27.9537V25.0068H131.493V29.2329H130.635L128.962 26.2354V29.2329H128.163V25.0068Z" fill="#3F3A2E"/>
<path d="M132.916 27.9294C132.943 28.1209 132.994 28.2672 133.072 28.363C133.215 28.5362 133.459 28.6232 133.803 28.6232C134.01 28.6232 134.178 28.5995 134.306 28.5544C134.551 28.4658 134.674 28.302 134.674 28.0639C134.674 27.9231 134.614 27.8179 134.494 27.7404C134.373 27.666 134.184 27.5995 133.924 27.5426L133.479 27.4429C133.042 27.3432 132.743 27.2341 132.58 27.1186C132.302 26.9239 132.164 26.6186 132.164 26.2032C132.164 25.8251 132.3 25.5118 132.569 25.2618C132.84 25.0102 133.237 24.8853 133.762 24.8853C134.201 24.8853 134.575 25.0031 134.883 25.2389C135.193 25.4754 135.356 25.8172 135.372 26.2665H134.547C134.531 26.0134 134.421 25.833 134.214 25.7246C134.078 25.655 133.907 25.6186 133.703 25.6186C133.476 25.6186 133.296 25.6653 133.159 25.7563C133.026 25.848 132.957 25.9762 132.957 26.1407C132.957 26.2918 133.025 26.4034 133.156 26.4785C133.242 26.5268 133.424 26.5861 133.703 26.6542L134.424 26.8282C134.739 26.905 134.977 27.007 135.134 27.136C135.378 27.3345 135.501 27.6217 135.501 27.9983C135.501 28.3835 135.357 28.7047 135.066 28.961C134.777 29.2158 134.367 29.3431 133.838 29.3431C133.296 29.3431 132.869 29.2174 132.561 28.9658C132.251 28.715 132.097 28.3693 132.097 27.9294H132.916Z" fill="#3F3A2E"/>
<path d="M139.089 25.0068V25.756H137.858V29.2329H136.995V25.756H135.761V25.0068H139.089Z" fill="#3F3A2E"/>
<path d="M140.484 25.0068H139.632V29.2329H140.484V25.0068Z" fill="#3F3A2E"/>
<path d="M144.353 25.0068V25.756H143.126V29.2329H142.261V25.756H141.026V25.0068H144.353Z" fill="#3F3A2E"/>
<path d="M144.855 25.0068H145.727V27.6025C145.727 27.892 145.761 28.104 145.827 28.2385C145.931 28.4751 146.157 28.5937 146.505 28.5937C146.853 28.5937 147.076 28.4751 147.182 28.2385C147.248 28.104 147.279 27.892 147.279 27.6025V25.0068H148.152V27.604C148.152 28.0526 148.085 28.4039 147.95 28.6531C147.697 29.1119 147.216 29.3421 146.505 29.3421C145.794 29.3421 145.313 29.1119 145.058 28.6531C144.923 28.4031 144.855 28.0526 144.855 27.604V25.0068Z" fill="#3F3A2E"/>
<path d="M151.962 25.0068V25.756H150.732V29.2329H149.868V25.756H148.634V25.0068H151.962Z" fill="#3F3A2E"/>
<path d="M153.729 28.4727H153.327V27.3873H155.323V26.6531H153.327V25.756H155.5V25.0068H152.488V28.589C152.488 28.9442 152.768 29.2329 153.113 29.2329H155.5V28.4727H153.729Z" fill="#3F3A2E"/>
<path d="M106.367 28.4727H105.966V27.3873H107.96V26.6531H105.966V25.756H108.138V25.0068H105.127V28.589C105.127 28.9442 105.406 29.2329 105.751 29.2329H108.138V28.4727H106.367Z" fill="#3F3A2E"/>
<path d="M98.8636 28.4727H98.4622V27.3873H100.459V26.6531H98.4622V25.756H100.636V25.0068H97.624V28.589C97.624 28.9442 97.9047 29.2329 98.2492 29.2329H100.635V28.4727H98.8628H98.8636Z" fill="#3F3A2E"/>
<path d="M98.8943 11.2495H98.8928V9.28516H97.1026V11.2495C97.1026 15.9969 93.7891 18.3077 93.7891 18.3077L94.7657 19.3931C94.7657 19.3931 96.7842 17.8813 97.9985 15.243C99.2104 17.8813 101.23 19.3931 101.23 19.3931L102.206 18.3077C102.206 18.3077 98.8943 15.9969 98.8943 11.2495Z" fill="#3F3A2E"/>
<path d="M74.9645 17.0918C72.4661 17.0918 70.4414 18.3196 70.4414 19.8369C70.4414 21.3543 72.4661 22.5845 74.9645 22.5845C77.4629 22.5845 79.4892 21.3559 79.4892 19.8369C79.4892 18.318 77.4645 17.0918 74.9645 17.0918ZM74.9645 21.0742C73.4543 21.0742 72.2301 20.5205 72.2301 19.8369C72.2301 19.1534 73.4543 18.602 74.9645 18.602C76.4748 18.602 77.699 19.1558 77.699 19.8369C77.699 20.5181 76.4748 21.0742 74.9645 21.0742Z" fill="#3F3A2E"/>
<path d="M78.3283 15.0594V13.2193H78.3229C79.0396 12.7352 79.4756 12.0928 79.4756 11.3895C79.4756 9.87294 77.4494 8.64355 74.951 8.64355C72.4526 8.64355 70.4255 9.87294 70.4255 11.3895C70.4255 12.0991 70.87 12.7494 71.6013 13.2367V15.0602H68.6484V16.5712H81.2781V15.0602H78.3276L78.3283 15.0594ZM74.951 10.153C76.4605 10.153 77.6847 10.706 77.6847 11.3887C77.6847 12.0714 76.4605 12.6244 74.951 12.6244C73.4415 12.6244 72.2157 12.0706 72.2157 11.3887C72.2157 10.7068 73.4392 10.153 74.951 10.153ZM73.3231 13.9519C73.8275 14.0706 74.375 14.1346 74.951 14.1346C75.5339 14.1346 76.0921 14.0674 76.6051 13.9464L76.5451 15.0594H73.3838L73.3231 13.9519Z" fill="#3F3A2E"/>
<path d="M105.161 8.81787H103.37V22.19H105.161V8.81787Z" fill="#3F3A2E"/>
<path d="M113.29 16.4561C110.87 16.4561 108.911 17.8263 108.911 19.52C108.911 21.2138 110.87 22.584 113.29 22.584C115.709 22.584 117.666 21.213 117.666 19.52C117.666 17.827 115.705 16.4561 113.29 16.4561ZM113.29 21.0745C111.861 21.0745 110.701 20.3784 110.701 19.52C110.701 18.6617 111.861 17.9663 113.29 17.9663C114.718 17.9663 115.877 18.6625 115.877 19.52C115.877 20.3776 114.718 21.0745 113.29 21.0745Z" fill="#3F3A2E"/>
<path d="M110.666 13.4672C111.723 14.8248 113.502 15.5755 113.502 15.5755L114.342 14.449C114.342 14.449 111.561 13.3146 111.553 10.9753H114.231V9.46582H107.086V10.9753H109.762C109.756 12.972 107.37 14.6318 106.667 15.0764L107.484 16.2266C107.484 16.2266 109.467 15.1539 110.666 13.4672Z" fill="#3F3A2E"/>
<path d="M115.861 8.82227V11.6647H113.816V13.1757H115.861V16.2824H117.651V8.82227H115.861Z" fill="#3F3A2E"/>
<path d="M141.48 15.1262C141.76 14.1144 141.907 11.8977 141.92 11.5504L141.924 10.075C141.924 9.53305 141.494 9.09082 140.965 9.09082H132.887V10.6026H140.133V11.5504C140.133 13.4609 139.848 14.8097 139.79 15.1262H131.304V16.6372H136.425V22.19H138.215V16.6372H143.531V15.1262H141.48Z" fill="#3F3A2E"/>
<path d="M128.255 8.82227V10.4638H125.725C125.073 9.64976 124.078 9.12842 122.962 9.12842C121.002 9.12842 119.412 10.7375 119.412 12.7224C119.412 14.7073 121.002 16.3172 122.962 16.3172C124.147 16.3172 125.194 15.7286 125.839 14.8284H128.255V18.2728H130.044V8.82227H128.255ZM122.962 14.807C121.989 14.807 121.202 13.8735 121.202 12.7232C121.202 11.5729 121.989 10.6394 122.962 10.6394C123.936 10.6394 124.723 11.5722 124.723 12.7232C124.723 13.8743 123.935 14.807 122.962 14.807ZM128.255 13.3181H126.464C126.495 13.1251 126.514 12.9265 126.514 12.7232C126.514 12.4661 126.486 12.2161 126.436 11.9748H128.255V13.3181Z" fill="#3F3A2E"/>
<path d="M123.022 20.6798V17.7266H121.232V21.2059C121.232 21.7493 121.66 22.19 122.189 22.19H130.043V20.6798H123.022Z" fill="#3F3A2E"/>
<path d="M89.0361 12.7234C89.0361 10.7385 87.4481 9.12939 85.4857 9.12939C83.5233 9.12939 81.9346 10.7385 81.9346 12.7234C81.9346 14.7083 83.524 16.3182 85.4857 16.3182C87.4474 16.3182 89.0361 14.7091 89.0361 12.7234ZM83.7247 12.7234C83.7247 11.5723 84.513 10.6396 85.4857 10.6396C86.4585 10.6396 87.2459 11.5723 87.2459 12.7234C87.2459 13.8745 86.4585 14.8072 85.4857 14.8072C84.513 14.8072 83.7247 13.8737 83.7247 12.7234Z" fill="#3F3A2E"/>
<path d="M92.6896 8.81592H90.8994V18.2736H92.6896V8.81592Z" fill="#3F3A2E"/>
<path d="M85.6818 20.6798V17.7266H83.8916V21.2059C83.8916 21.7493 84.3191 22.19 84.849 22.19H92.7026V20.6798H85.6818Z" fill="#3F3A2E"/>
<path d="M148.433 20.6798V18.3516H146.644V21.2059C146.644 21.7494 147.071 22.19 147.601 22.19H155.453V20.6798H148.433Z" fill="#3F3A2E"/>
<path d="M153.644 8.80957V16.5703H150.394V18.0814H153.644V19.4033H155.437V8.80957H153.644Z" fill="#3F3A2E"/>
<path d="M148.605 8.64355C146.615 8.64355 145.005 9.86819 145.005 11.3784C145.005 12.8886 146.615 14.1141 148.605 14.1141C150.595 14.1141 152.203 12.8894 152.203 11.3784C152.203 9.8674 150.592 8.64355 148.605 8.64355ZM148.596 12.5904C147.606 12.5904 146.803 12.0509 146.803 11.3879C146.803 10.725 147.606 10.1823 148.596 10.1823C149.586 10.1823 150.388 10.7218 150.388 11.3879C150.388 12.054 149.586 12.5904 148.596 12.5904Z" fill="#3F3A2E"/>
<path d="M153.2 14.1934C153.2 14.1934 152.26 14.6221 146.866 14.6657L144.595 14.6799V16.1909L146.644 16.1798V17.6371H148.433V16.0833C150.136 15.9678 152.666 15.759 153.197 15.5264L153.2 14.1934Z" fill="#3F3A2E"/>
</svg>
