<svg width="165" height="40" viewBox="0 0 165 40" fill="none" xmlns="http://www.w3.org/2000/svg">
<path d="M88.6946 20.9316H79.3496V22.5546H87.1881C87.4926 22.5546 87.6451 22.6989 87.6451 22.9883V24.7395C87.6451 25.0822 87.7577 25.3501 87.9838 25.5431C88.2091 25.7357 88.48 25.8322 88.7963 25.8322C89.1008 25.8322 89.3659 25.7357 89.5917 25.5431C89.8173 25.3501 89.9304 25.0824 89.9304 24.7395V22.1048C89.9304 21.323 89.5185 20.9316 88.6946 20.9316Z" fill="#002970"/>
<path d="M91.1661 18.4266H77.5381V20.0329H91.1661C91.4479 20.0329 91.6711 19.9527 91.8346 19.7918C91.9981 19.6315 92.0802 19.444 92.0802 19.2296C92.0802 19.0152 91.9984 18.8279 91.8346 18.6673C91.6711 18.5067 91.4479 18.4263 91.1661 18.4263V18.4266Z" fill="#002970"/>
<path d="M75.9826 24.0477H69.3312C68.9362 24.0477 68.7391 23.8622 68.7391 23.4909V20.6436H66.4883V24.0157C66.4883 24.6738 66.6262 25.1319 66.9028 25.3927C67.1792 25.6523 67.6615 25.7826 68.3501 25.7826H75.9826C76.2756 25.7826 76.5126 25.6864 76.6933 25.4957C76.8508 25.3366 76.9301 25.1399 76.9301 24.9069C76.9301 24.6738 76.8482 24.472 76.6847 24.3025C76.521 24.1328 76.2871 24.0477 75.9826 24.0477Z" fill="#002970"/>
<path d="M71.2602 17.9804C72.039 17.2752 72.4283 16.35 72.4283 15.2043C72.4283 14.0586 72.039 13.1359 71.2602 12.4368C70.482 11.7366 69.4662 11.3867 68.2142 11.3867C66.9504 11.3867 65.9294 11.7366 65.1509 12.4368C64.3727 13.1359 63.9834 14.0594 63.9834 15.2043C63.9834 16.3491 64.3727 17.2752 65.1509 17.9804C65.9291 18.686 66.9504 19.0382 68.2142 19.0382C69.4662 19.0382 70.482 18.6858 71.2602 17.9804ZM66.2679 15.2043C66.2679 14.5579 66.4595 14.0383 66.843 13.6458C67.2041 13.2848 67.6612 13.1047 68.2139 13.1047C68.7554 13.1047 69.2064 13.2848 69.5678 13.6458C69.9511 14.0383 70.1433 14.5579 70.1433 15.2043C70.1433 15.8507 69.9571 16.3637 69.5848 16.7399C69.2128 17.1158 68.7557 17.3042 68.2142 17.3042C67.6612 17.3042 67.1986 17.1161 66.8263 16.7399C66.454 16.3634 66.2681 15.851 66.2681 15.2043H66.2679Z" fill="#002970"/>
<path d="M116.296 19.3092C114.175 17.761 113.115 15.7985 113.115 13.4232V11.5615H110.813V13.4232C110.813 14.7275 110.576 15.8515 110.102 16.7956C109.606 17.8033 108.805 18.7048 107.699 19.4998C107.439 19.6908 107.31 19.9187 107.31 20.184C107.31 20.4062 107.397 20.6 107.572 20.764C107.747 20.9289 107.959 21.0111 108.207 21.0111C108.354 21.0111 108.5 20.9793 108.647 20.9155C109.267 20.6613 109.947 20.1918 110.686 19.5078C111.425 18.8239 111.874 18.2276 112.032 17.7183C112.268 18.2276 112.731 18.7944 113.419 19.4202C114.107 20.0461 114.722 20.4594 115.264 20.6613C115.444 20.7357 115.619 20.7729 115.788 20.7729C116.048 20.7729 116.257 20.6925 116.415 20.5336C116.573 20.3744 116.651 20.1892 116.651 19.9771C116.651 19.7122 116.533 19.4895 116.296 19.3092Z" fill="#002970"/>
<path d="M126.4 19.1983C127.686 19.1983 128.732 18.8405 129.539 18.1248C130.346 17.4088 130.749 16.4784 130.749 15.3329C130.749 14.1976 130.346 13.2703 129.539 12.5486C128.732 11.8274 127.686 11.4673 126.4 11.4673C125.125 11.4673 124.084 11.8277 123.277 12.5486C122.47 13.2703 122.067 14.1978 122.067 15.3329C122.067 16.4784 122.47 17.4088 123.277 18.1248C124.084 18.8405 125.125 19.1983 126.4 19.1983ZM124.843 13.7415C125.249 13.3596 125.768 13.1689 126.4 13.1689C127.043 13.1689 127.567 13.3596 127.973 13.7415C128.38 14.1234 128.583 14.6642 128.583 15.3644C128.583 16.0647 128.382 16.5975 127.981 16.9633C127.581 17.3289 127.053 17.5118 126.399 17.5118C125.756 17.5118 125.243 17.3372 124.859 16.9868C124.442 16.6049 124.233 16.0638 124.233 15.3644C124.233 14.6651 124.436 14.1234 124.842 13.7415H124.843Z" fill="#002970"/>
<path d="M145.963 12.2287H142.527V10.5674H139.626C139.626 10.5674 140.208 10.7194 140.208 11.5121H140.209V12.2287H136.672V14.0265H145.963V12.2287H145.963Z" fill="#002970"/>
<path d="M74.2391 11.9747V20.3442C74.2391 20.6731 74.3518 20.9299 74.5776 21.1151C74.8031 21.3006 75.074 21.3934 75.3897 21.3934C75.6945 21.3934 75.9597 21.3009 76.1852 21.1151C76.4107 20.9296 76.5239 20.6728 76.5239 20.3442V11.0303H73.6562C73.6562 11.0303 74.2391 11.1823 74.2391 11.975V11.9747Z" fill="#002970"/>
<path d="M117.973 11.9747V24.8834C117.973 25.2333 118.091 25.5092 118.328 25.7105C118.531 25.8911 118.785 25.981 119.089 25.981C119.405 25.981 119.673 25.8854 119.893 25.6948C120.113 25.5041 120.223 25.2333 120.223 24.8834V11.0303H117.39C117.39 11.0303 117.972 11.1823 117.972 11.975L117.973 11.9747Z" fill="#002970"/>
<path d="M103.959 11.8957V24.9753C103.959 25.2957 104.067 25.549 104.284 25.7328C104.47 25.8986 104.703 25.9813 104.982 25.9813C105.271 25.9813 105.517 25.8932 105.719 25.7185C105.92 25.5439 106.022 25.296 106.022 24.9753V11.0303H103.425C103.425 11.0303 103.959 11.1697 103.959 11.8957H103.959Z" fill="#002970"/>
<path d="M100.773 11.8822V24.9908C100.773 25.3063 100.88 25.5556 101.094 25.736C101.277 25.8992 101.506 25.981 101.78 25.981C102.065 25.981 102.307 25.894 102.506 25.7225C102.704 25.5502 102.803 25.3063 102.803 24.9908V11.0303H100.247C100.247 11.0303 100.773 11.1677 100.773 11.8825L100.773 11.8822Z" fill="#002970"/>
<path d="M132.442 11.9747V20.1672C132.442 21.2542 130.749 21.2505 130.749 21.2505H121.535V22.9676H130.749C130.749 22.9676 132.442 22.9711 132.442 21.8835V24.8826C132.442 25.2324 132.56 25.509 132.797 25.7102C133 25.8909 133.254 25.9808 133.558 25.9808C133.874 25.9808 134.142 25.8851 134.362 25.6945C134.582 25.5038 134.692 25.2324 134.692 24.8826V11.0303H131.859C131.859 11.0303 132.441 11.1823 132.441 11.975L132.442 11.9747Z" fill="#002970"/>
<path d="M146.667 11.0303C146.667 11.0303 147.249 11.1823 147.249 11.975V20.4464C147.249 21.5334 145.557 21.5302 145.557 21.5302H142.562V20.213C144.053 19.8223 145.13 18.7181 145.13 17.4132C145.13 15.7834 143.448 14.4614 141.372 14.4614C139.297 14.4614 137.615 15.7834 137.615 17.4132C137.615 18.7544 138.752 19.8847 140.31 20.2457V21.5302H136.062V23.2476H145.557C145.557 23.2476 147.249 23.2502 147.249 22.1632V24.8832C147.249 25.233 147.368 25.5095 147.604 25.7108C147.807 25.8914 148.061 25.9813 148.366 25.9813C148.682 25.9813 148.95 25.8857 149.17 25.695C149.39 25.5044 149.499 25.233 149.499 24.8832V11.0303H146.667H146.667ZM141.373 16.1298C142.159 16.1298 142.797 16.7052 142.797 17.4135C142.797 18.1218 142.159 18.6972 141.373 18.6972C140.586 18.6972 139.949 18.1229 139.949 17.4135C139.949 16.7041 140.586 16.1298 141.373 16.1298Z" fill="#002970"/>
<path d="M56.6452 20.2158C54.3156 20.2158 52.4268 21.6163 52.4268 23.344C52.4268 25.0717 54.3156 26.4725 56.6452 26.4725C58.9747 26.4725 60.8633 25.0714 60.8633 23.344C60.8633 21.6166 58.9747 20.2158 56.6452 20.2158ZM56.6452 24.8562C55.5848 24.8562 54.7256 24.1794 54.7256 23.344C54.7256 22.5086 55.5848 21.8325 56.6452 21.8325C57.7055 21.8325 58.5651 22.5092 58.5651 23.344C58.5651 24.1788 57.7055 24.8562 56.6452 24.8562Z" fill="#002970"/>
<path d="M63.1901 18.2893H59.8692V16.0993C60.4886 15.5247 60.8629 14.7832 60.8629 13.9722C60.8629 12.1486 58.9743 10.6699 56.6447 10.6699C54.3152 10.6699 52.4263 12.1486 52.4263 13.9722C52.4263 14.6598 52.6952 15.2982 53.1548 15.8273V18.2896H49.4736V19.8332H63.1901C63.6438 19.8332 64.0109 19.4874 64.0109 19.0611C64.0109 18.6348 63.6435 18.2899 63.1901 18.2899V18.2893ZM56.645 12.3759C57.7051 12.3759 58.5649 13.0904 58.5649 13.9722C58.5649 14.8539 57.7054 15.5688 56.645 15.5688C55.5847 15.5688 54.7254 14.8536 54.7254 13.9722C54.7254 13.0907 55.5847 12.3759 56.645 12.3759ZM55.0937 17.0408C55.574 17.1897 56.0969 17.2747 56.645 17.2747C57.0507 17.2747 57.4414 17.2269 57.8125 17.1433V18.2893H55.0937V17.0408Z" fill="#002970"/>
<path d="M89.8115 16.1216C89.6423 15.9667 89.411 15.8885 89.1174 15.8885H82.3629C82.1819 15.8885 82.058 15.8673 81.9903 15.8241C81.8776 15.76 81.8208 15.61 81.8208 15.3744V15.0048H89.4389V13.6392H81.8208V12.7074H89.8454V11.1328H78.9727C78.9727 11.1328 79.5193 11.2774 79.5524 12.0091V15.6632C79.5524 16.3062 79.7015 16.7694 80.0008 17.0531C80.2996 17.3368 80.788 17.4788 81.4651 17.4788H89.1171C89.4107 17.4788 89.642 17.3987 89.8112 17.2375C89.9807 17.0769 90.0654 16.8899 90.0654 16.6755C90.0654 16.4611 89.9807 16.2764 89.8112 16.1207L89.8115 16.1216Z" fill="#002970"/>
<path d="M101.011 13.2266H98.5459V14.769H101.011V13.2266Z" fill="#002970"/>
<path d="M101.937 16.7983H98.4551V18.3408H101.937V16.7983Z" fill="#002970"/>
<path d="M99.5543 19.0943C99.4132 18.9494 99.2245 18.8773 98.9875 18.8773C98.8858 18.8773 98.7781 18.8936 98.6657 18.9254C97.6387 19.2042 96.6171 19.2786 95.6016 19.1504C95.1615 19.086 94.9414 18.8452 94.9414 18.4275V16.8206H97.4471C98.327 16.8206 98.7674 16.4029 98.7674 15.5676V11.3901H93.0623V13.0932H96.7025V14.9409C96.7025 15.1121 96.6398 15.1977 96.516 15.1977H92.7578V19.1023C92.7578 19.6591 92.8934 20.0768 93.1643 20.3553C93.4576 20.6765 93.9655 20.8695 94.6881 20.9336C94.9929 20.9657 95.3086 20.982 95.6361 20.982C97.0012 20.982 98.1866 20.7836 99.1912 20.3874C99.5747 20.2374 99.7666 19.9806 99.7666 19.6162C99.7666 19.4129 99.6962 19.2385 99.5552 19.0943H99.5543Z" fill="#002970"/>
<path d="M54.4646 29.3335L53.0021 32.1101V34.0405H52.0592V32.1101L50.5967 29.3335H51.6286L52.5375 31.231L53.4327 29.3335H54.4646Z" fill="#898989"/>
<path d="M58.4828 31.6879C58.4828 32.2081 58.4645 32.5631 58.4283 32.7523C58.3645 33.079 58.2208 33.3498 57.9979 33.5657C57.8201 33.7377 57.6265 33.8668 57.417 33.9527C57.2076 34.0386 56.9637 34.0816 56.6859 34.0816C56.4124 34.0816 56.1688 34.0386 55.9548 33.9527C55.7405 33.8668 55.5448 33.7377 55.367 33.5657C55.1438 33.3498 55.0024 33.081 54.9435 32.7595C54.9068 32.5654 54.8887 32.2084 54.8887 31.6882C54.8887 31.1724 54.9068 30.8179 54.9435 30.6238C55.007 30.2935 55.1484 30.0221 55.367 29.8108C55.5448 29.6385 55.7393 29.5096 55.9513 29.4235C56.1633 29.3379 56.4081 29.2949 56.6862 29.2949C56.9548 29.2949 57.1961 29.3379 57.4104 29.4235C57.6244 29.5096 57.8204 29.6385 57.9979 29.8108C58.2165 30.0221 58.3576 30.2912 58.4217 30.617C58.4624 30.8245 58.4831 31.1815 58.4831 31.6879H58.4828ZM57.5328 31.6879C57.5328 31.2385 57.5167 30.9322 57.4851 30.7693C57.4532 30.6061 57.3895 30.4715 57.2941 30.3659C57.1438 30.1984 56.941 30.1145 56.6859 30.1145C56.5538 30.1145 56.4363 30.1366 56.334 30.1807C56.2314 30.2245 56.1435 30.2863 56.0711 30.3659C55.9755 30.4672 55.9125 30.6007 55.8832 30.7658C55.8536 30.931 55.8387 31.2385 55.8387 31.6882C55.8387 32.1512 55.8525 32.4606 55.8798 32.6172C55.9074 32.7738 55.9709 32.9049 56.0711 33.0106C56.2214 33.178 56.4262 33.2616 56.6862 33.2616C56.9413 33.2616 57.1441 33.178 57.2944 33.0106C57.3854 32.9089 57.4481 32.7701 57.4822 32.594C57.5164 32.418 57.5334 32.1159 57.5334 31.6882L57.5328 31.6879Z" fill="#898989"/>
<path d="M63.1771 34.0405H62.33L60.4029 31.1514V34.0405H59.4531V29.3335H60.3003L62.2274 32.2158V29.3335H63.1771V34.0405Z" fill="#898989"/>
<path d="M67.7761 32.1062C67.7761 32.4509 67.7408 32.7337 67.6701 32.9547C67.5994 33.1758 67.4753 33.3759 67.2978 33.5548C67.12 33.7337 66.9151 33.8663 66.6827 33.9524C66.4503 34.0383 66.2018 34.0816 65.9378 34.0816C65.6781 34.0816 65.4376 34.0377 65.217 33.9493C64.9958 33.8611 64.7987 33.7334 64.6258 33.5657C64.4026 33.3498 64.2612 33.081 64.202 32.7595C64.1656 32.5654 64.1475 32.2084 64.1475 31.6882C64.1475 31.1724 64.1656 30.8179 64.202 30.6238C64.2658 30.2935 64.4069 30.0221 64.6258 29.8108C64.8036 29.6385 64.9981 29.5096 65.2101 29.4235C65.4218 29.3379 65.6646 29.2949 65.9381 29.2949C66.471 29.2949 66.9013 29.4461 67.2297 29.749C67.5167 30.0169 67.6965 30.3656 67.7695 30.7956H66.8129C66.6991 30.3419 66.4072 30.1145 65.9384 30.1145C65.6833 30.1145 65.4804 30.1984 65.3302 30.3659C65.2345 30.4672 65.1719 30.6007 65.1423 30.7658C65.1127 30.931 65.0978 31.2385 65.0978 31.6882C65.0978 32.1512 65.1116 32.4618 65.1389 32.6207C65.1662 32.7793 65.2299 32.9115 65.3302 33.0172C65.4758 33.1803 65.6787 33.2616 65.9384 33.2616C66.2208 33.2616 66.4463 33.1735 66.6149 32.9971C66.6876 32.9181 66.7422 32.8231 66.779 32.7131C66.8152 32.6029 66.8335 32.4884 66.8335 32.3693V32.1909H65.9384V31.4174H67.7764V32.1065L67.7761 32.1062Z" fill="#898989"/>
<path d="M69.689 34.0405H68.7393V29.3335H69.689V34.0405Z" fill="#898989"/>
<path d="M74.5485 34.0405H73.7013L71.7743 31.1514V34.0405H70.8242V29.3335H71.6717L73.5988 32.2158V29.3335H74.5485V34.0405Z" fill="#898989"/>
<path d="M80.411 32.6533C80.411 33.0987 80.2378 33.4512 79.8916 33.7108C79.5633 33.9576 79.1352 34.0813 78.6069 34.0813C78.2197 34.0813 77.8847 34.0352 77.6023 33.9424C77.3199 33.8499 77.0625 33.6891 76.8301 33.4597L77.4451 32.8649C77.5911 33.006 77.7629 33.1073 77.9611 33.1689C78.159 33.2304 78.3791 33.2611 78.6204 33.2611C79.1941 33.2611 79.4814 33.0673 79.4814 32.6793C79.4814 32.5076 79.4311 32.3753 79.3309 32.2828C79.2855 32.2431 79.2286 32.209 79.1602 32.1804C79.0918 32.1517 79.0051 32.1305 78.9005 32.1177L78.313 32.0381C77.8985 31.9811 77.5839 31.8511 77.3699 31.6482C77.1372 31.4237 77.0211 31.1151 77.0211 30.7229C77.0211 30.2955 77.1725 29.9505 77.4756 29.688C77.7787 29.426 78.1924 29.2949 78.7158 29.2949C79.0577 29.2949 79.3527 29.337 79.6006 29.4206C79.8488 29.5042 80.0778 29.6453 80.2875 29.8437L79.6865 30.4189C79.5495 30.2955 79.3958 30.2105 79.2249 30.1641C79.0542 30.118 78.8755 30.0948 78.6885 30.0948C78.4426 30.0948 78.2559 30.15 78.1283 30.26C78.0008 30.3702 77.937 30.5136 77.937 30.6897C77.937 30.7604 77.9473 30.8222 77.9677 30.8749C77.9881 30.9279 78.0257 30.9783 78.0806 31.0266C78.1898 31.124 78.34 31.1855 78.5316 31.2119L79.1056 31.2909C79.5156 31.3481 79.8256 31.4695 80.035 31.6547C80.1668 31.7735 80.2625 31.9158 80.3217 32.081C80.3809 32.2462 80.4107 32.4372 80.4107 32.653L80.411 32.6533Z" fill="#898989"/>
<path d="M84.7976 30.8013C84.7976 31.2155 84.6565 31.559 84.3738 31.8327C84.073 32.1236 83.6792 32.2687 83.1917 32.2687H82.2554V34.0405H81.3057V29.3335H83.1914C83.6835 29.3335 84.0773 29.4766 84.3735 29.7632C84.6559 30.0363 84.7976 30.3824 84.7976 30.8013ZM83.8475 30.8013C83.8475 30.6072 83.7837 30.4506 83.6565 30.3315C83.5289 30.2124 83.358 30.1531 83.144 30.1531H82.2554V31.4425H83.144C83.358 31.4425 83.5289 31.385 83.6565 31.2705C83.7837 31.156 83.8475 30.9997 83.8475 30.8013Z" fill="#898989"/>
<path d="M88.8026 34.0405H85.5977V29.3335H88.8026V30.1531H86.5471V31.257H88.4676V32.0766H86.5471V33.2206H88.8026V34.0405Z" fill="#898989"/>
<path d="M93.148 32.5935C93.0662 33.0693 92.8588 33.4398 92.5261 33.7043C92.2118 33.9554 91.8225 34.0811 91.3577 34.0811C91.098 34.0811 90.8576 34.0373 90.6369 33.9488C90.4157 33.8606 90.2187 33.7329 90.0457 33.5652C89.8225 33.3493 89.6811 33.0805 89.6223 32.759C89.5855 32.5649 89.5674 32.2079 89.5674 31.6877C89.5674 31.1719 89.5855 30.8175 89.6223 30.6234C89.6857 30.293 89.8268 30.0216 90.0457 29.8103C90.2232 29.638 90.4195 29.5091 90.6335 29.423C90.8475 29.3374 91.0891 29.2944 91.3577 29.2944C91.8268 29.2944 92.2164 29.4181 92.5261 29.6646C92.8588 29.9291 93.0662 30.3016 93.148 30.7817H92.1848C92.1345 30.5793 92.0458 30.4204 91.9179 30.3059C91.7769 30.1779 91.5921 30.1141 91.3643 30.1141C91.1049 30.1141 90.9021 30.1956 90.7564 30.3585C90.6651 30.4556 90.6025 30.5944 90.5686 30.7751C90.5344 30.9557 90.5171 31.2598 90.5171 31.6875C90.5171 32.1329 90.5332 32.4392 90.5651 32.6064C90.5967 32.7742 90.6605 32.9105 90.7564 33.0164C90.9021 33.1796 91.1049 33.2609 91.3643 33.2609C91.5921 33.2609 91.7734 33.2005 91.9079 33.0791C92.0423 32.958 92.1345 32.7962 92.1848 32.5933L93.148 32.5935Z" fill="#898989"/>
<path d="M94.9188 34.0405H93.9688V29.3335H94.9188V34.0405Z" fill="#898989"/>
<path d="M99.8106 34.0405H98.8201L98.5331 33.2075H96.804L96.5107 34.0405H95.5195L97.2895 29.3335H98.0344L99.8109 34.0405H99.8106ZM98.2803 32.4342L97.6859 30.722L97.0708 32.4342H98.2803Z" fill="#898989"/>
<path d="M103.569 34.0405H100.412V29.3335H101.362V33.2209H103.569V34.0405Z" fill="#898989"/>
<path d="M109.343 32.5935C109.261 33.0693 109.054 33.4398 108.721 33.7043C108.407 33.9554 108.018 34.0811 107.553 34.0811C107.293 34.0811 107.053 34.0373 106.832 33.9488C106.611 33.8606 106.414 33.7329 106.241 33.5652C106.018 33.3493 105.876 33.0805 105.817 32.759C105.781 32.5649 105.763 32.2079 105.763 31.6877C105.763 31.1719 105.781 30.8175 105.817 30.6234C105.881 30.293 106.022 30.0216 106.241 29.8103C106.419 29.638 106.614 29.5091 106.829 29.423C107.043 29.3374 107.284 29.2944 107.553 29.2944C108.022 29.2944 108.411 29.4181 108.721 29.6646C109.054 29.9291 109.261 30.3016 109.343 30.7817H108.38C108.329 30.5793 108.241 30.4204 108.113 30.3059C107.972 30.1779 107.787 30.1141 107.559 30.1141C107.3 30.1141 107.097 30.1956 106.951 30.3585C106.86 30.4556 106.797 30.5944 106.764 30.7751C106.729 30.9557 106.712 31.2598 106.712 31.6875C106.712 32.1329 106.728 32.4392 106.76 32.6064C106.791 32.7742 106.856 32.9105 106.951 33.0164C107.097 33.1796 107.3 33.2609 107.559 33.2609C107.787 33.2609 107.968 33.2005 108.103 33.0791C108.237 32.958 108.329 32.7962 108.38 32.5933L109.343 32.5935Z" fill="#898989"/>
<path d="M111.113 34.0405H110.163V29.3335H111.113V34.0405Z" fill="#898989"/>
<path d="M115.377 30.1531H114.106V34.0405H113.156V30.1531H111.885V29.3335H115.377V30.1531H115.377Z" fill="#898989"/>
<path d="M119.47 29.3335L118.008 32.1101V34.0405H117.065V32.1101L115.603 29.3335H116.634L117.543 31.231L118.439 29.3335H119.47Z" fill="#898989"/>
<path d="M125.06 32.5935C124.978 33.0693 124.771 33.4398 124.438 33.7043C124.124 33.9554 123.735 34.0811 123.27 34.0811C123.01 34.0811 122.77 34.0373 122.549 33.9488C122.328 33.8606 122.131 33.7329 121.958 33.5652C121.735 33.3493 121.593 33.0805 121.534 32.759C121.497 32.5649 121.479 32.2079 121.479 31.6877C121.479 31.1719 121.497 30.8175 121.534 30.6234C121.598 30.293 121.739 30.0216 121.958 29.8103C122.135 29.638 122.331 29.5091 122.545 29.423C122.76 29.3374 123.001 29.2944 123.27 29.2944C123.739 29.2944 124.128 29.4181 124.438 29.6646C124.77 29.9291 124.978 30.3016 125.06 30.7817H124.096C124.046 30.5793 123.958 30.4204 123.83 30.3059C123.689 30.1779 123.504 30.1141 123.276 30.1141C123.017 30.1141 122.814 30.1956 122.668 30.3585C122.577 30.4556 122.515 30.5944 122.48 30.7751C122.446 30.9557 122.429 31.2598 122.429 31.6875C122.429 32.1329 122.445 32.4392 122.477 32.6064C122.509 32.7742 122.573 32.9105 122.668 33.0164C122.814 33.1796 123.017 33.2609 123.276 33.2609C123.504 33.2609 123.685 33.2005 123.82 33.0791C123.954 32.958 124.046 32.7962 124.096 32.5933H125.06L125.06 32.5935Z" fill="#898989"/>
<path d="M129.31 31.6879C129.31 32.2081 129.292 32.5631 129.255 32.7523C129.191 33.079 129.048 33.3498 128.825 33.5657C128.647 33.7377 128.453 33.8668 128.244 33.9527C128.034 34.0386 127.791 34.0816 127.513 34.0816C127.24 34.0816 126.996 34.0386 126.782 33.9527C126.567 33.8668 126.372 33.7377 126.194 33.5657C125.971 33.3498 125.83 33.081 125.77 32.7595C125.734 32.5654 125.716 32.2084 125.716 31.6882C125.716 31.1724 125.734 30.8179 125.77 30.6238C125.834 30.2935 125.975 30.0221 126.194 29.8108C126.372 29.6385 126.566 29.5096 126.778 29.4235C126.99 29.3379 127.235 29.2949 127.513 29.2949C127.782 29.2949 128.023 29.3379 128.237 29.4235C128.451 29.5096 128.647 29.6385 128.825 29.8108C129.044 30.0221 129.185 30.2912 129.249 30.617C129.29 30.8245 129.31 31.1815 129.31 31.6879H129.31ZM128.36 31.6879C128.36 31.2385 128.344 30.9322 128.312 30.7693C128.281 30.6061 128.217 30.4715 128.121 30.3659C127.971 30.1984 127.768 30.1145 127.513 30.1145C127.381 30.1145 127.264 30.1366 127.161 30.1807C127.059 30.2245 126.971 30.2863 126.898 30.3659C126.802 30.4672 126.739 30.6007 126.71 30.7658C126.68 30.931 126.666 31.2385 126.666 31.6882C126.666 32.1512 126.679 32.4606 126.707 32.6172C126.734 32.7738 126.798 32.9049 126.898 33.0106C127.048 33.178 127.253 33.2616 127.513 33.2616C127.768 33.2616 127.971 33.178 128.121 33.0106C128.212 32.9089 128.275 32.7701 128.309 32.594C128.343 32.418 128.36 32.1159 128.36 31.6882L128.36 31.6879Z" fill="#898989"/>
<path d="M133.786 32.4276C133.786 32.9215 133.617 33.32 133.277 33.6246C132.938 33.9283 132.511 34.0806 131.996 34.0806C131.486 34.0806 131.06 33.9286 130.718 33.6246C130.377 33.32 130.206 32.9215 130.206 32.4276V29.3335H131.156V32.3941C131.156 32.663 131.231 32.8748 131.381 33.0291C131.532 33.1834 131.736 33.2604 131.996 33.2604C132.256 33.2604 132.462 33.1843 132.615 33.0325C132.767 32.8805 132.844 32.6681 132.844 32.3944V29.3338H133.787V32.4279L133.786 32.4276Z" fill="#898989"/>
<path d="M138.569 34.0405H137.722L135.795 31.1514V34.0405H134.845V29.3335H135.692L137.619 32.2158V29.3335H138.569V34.0405Z" fill="#898989"/>
<path d="M143.121 32.5935C143.039 33.0693 142.831 33.4398 142.499 33.7043C142.184 33.9554 141.795 34.0811 141.331 34.0811C141.071 34.0811 140.83 34.0373 140.609 33.9488C140.388 33.8606 140.192 33.7329 140.018 33.5652C139.795 33.3493 139.654 33.0805 139.594 32.759C139.558 32.5649 139.54 32.2079 139.54 31.6877C139.54 31.1719 139.558 30.8175 139.594 30.6234C139.658 30.293 139.799 30.0216 140.018 29.8103C140.196 29.638 140.392 29.5091 140.606 29.423C140.82 29.3374 141.061 29.2944 141.33 29.2944C141.799 29.2944 142.189 29.4181 142.498 29.6646C142.831 29.9291 143.038 30.3016 143.12 30.7817H142.157C142.107 30.5793 142.018 30.4204 141.891 30.3059C141.749 30.1779 141.565 30.1141 141.337 30.1141C141.077 30.1141 140.874 30.1956 140.729 30.3585C140.638 30.4556 140.575 30.5944 140.541 30.7751C140.507 30.9557 140.49 31.2598 140.49 31.6875C140.49 32.1329 140.506 32.4392 140.537 32.6064C140.569 32.7742 140.633 32.9105 140.729 33.0164C140.874 33.1796 141.077 33.2609 141.337 33.2609C141.565 33.2609 141.746 33.2005 141.88 33.0791C142.015 32.958 142.107 32.7962 142.157 32.5933H143.12L143.121 32.5935Z" fill="#898989"/>
<path d="M144.89 34.0405H143.94V29.3335H144.89V34.0405Z" fill="#898989"/>
<path d="M149.181 34.0405H146.024V29.3335H146.974V33.2209H149.182L149.181 34.0405Z" fill="#898989"/>
<path d="M15.5 20.4996C15.5 29.0462 22.4769 36 31.0539 36C39.631 36 46.6079 29.0465 46.6079 20.4996C46.6079 11.9526 39.6307 5 31.0539 5C22.4772 5 15.5 11.9526 15.5 20.4996Z" fill="#B2A62A"/>
<path d="M16.5186 20.4996C16.5186 28.4863 23.039 34.9852 31.0541 34.9852C39.0692 34.9852 45.5896 28.4863 45.5896 20.4996C45.5896 12.513 39.0692 6.01465 31.0544 6.01465C23.0395 6.01465 16.5186 12.5127 16.5186 20.4996Z" fill="#621115"/>
<path d="M31.0535 26.762C27.5645 26.762 24.7256 23.9329 24.7256 20.4563C24.7256 16.9797 27.5645 14.1504 31.0535 14.1504C34.5425 14.1504 37.3812 16.9791 37.3812 20.4563C37.3812 23.9335 34.5425 26.762 31.0535 26.762ZM31.0535 14.3995C27.7024 14.3995 24.9764 17.1163 24.9764 20.456C24.9764 23.7958 27.7027 26.5117 31.0535 26.5117C34.4044 26.5117 37.1306 23.7952 37.1306 20.456C37.1306 17.1168 34.4044 14.3995 31.0535 14.3995Z" fill="white"/>
<path d="M32.0211 14.5733L33.0521 9.64612L33.0694 9.52817C33.0694 8.41854 32.1676 7.51904 31.0535 7.51904C29.9395 7.51904 29.0371 8.41854 29.0371 9.52817L29.0661 9.64612L30.0854 14.5733" fill="#B2A62A"/>
<path d="M34.5165 15.6427L36.5083 12.9185C36.5083 12.9185 36.8404 12.1807 36.1624 11.7479C35.6616 11.4261 35.1135 11.7974 34.9986 11.9752L33.3496 14.9582" fill="#B2A62A"/>
<path d="M33.3248 14.96L35.2309 11.4836C35.2309 11.4836 35.6549 10.344 34.4779 9.88878C33.4199 9.47882 32.9145 10.4198 32.8634 10.5607L32.0205 14.5729" fill="#B2A62A"/>
<path d="M27.5888 15.6427L25.5983 12.9185C25.5983 12.9185 25.2656 12.1807 25.943 11.7479C26.4446 11.4261 26.9925 11.7974 27.1074 11.9752L28.7569 14.9582" fill="#B2A62A"/>
<path d="M28.7811 14.96L26.8753 11.4836C26.8753 11.4836 26.451 10.344 27.6271 9.88878C28.6869 9.47882 29.1911 10.4198 29.2425 10.5607L30.0848 14.5729" fill="#B2A62A"/>
<path d="M25.7944 17.6791L21.4099 15.1798L21.3027 15.126C20.2438 14.7836 19.1067 15.3608 18.7623 16.4169C18.4181 17.4727 18.9982 18.6058 20.0568 18.949L20.1783 18.9567L25.1962 19.5141" fill="#B2A62A"/>
<path d="M27.5861 15.6433L25.6019 12.9159C25.6019 12.9159 24.9997 12.3722 24.378 12.881C23.9164 13.2566 24.1011 13.8901 24.2358 14.0544L26.5717 16.5402" fill="#B2A62A"/>
<path d="M26.5672 16.5637L23.8383 13.6831C23.8383 13.6831 22.8811 12.9282 22.0833 13.9027C21.3654 14.7804 22.108 15.5497 22.2258 15.6407L25.7944 17.6788" fill="#B2A62A"/>
<path d="M25.4457 22.2091L22.2305 23.254C22.2305 23.254 21.4238 23.3414 21.2192 22.5641C21.0687 21.9901 21.591 21.5862 21.7972 21.5324L25.1533 20.8896" fill="#B2A62A"/>
<path d="M25.1627 20.8673L21.2565 21.5996C21.2565 21.5996 20.0376 21.65 19.9666 20.3935C19.9031 19.2633 20.958 19.076 21.1074 19.0703L25.1968 19.5115" fill="#B2A62A"/>
<path d="M26.8359 24.5386L23.0958 27.9216L23.0122 28.0069C22.3577 28.9041 22.5571 30.1609 23.4586 30.8133C24.3589 31.4652 25.6195 31.2659 26.2745 30.369L26.3202 30.2562L28.4027 25.6725" fill="#B2A62A"/>
<path d="M25.4471 22.2124L22.2295 23.2496C22.2295 23.2496 21.5245 23.6521 21.8173 24.3996C22.0347 24.953 22.6958 24.9733 22.8937 24.8966L25.9871 23.45" fill="#B2A62A"/>
<path d="M26.009 23.4614L22.416 25.1571C22.416 25.1571 21.4004 25.8307 22.0844 26.8882C22.6992 27.8398 23.663 27.3746 23.788 27.291L26.8355 24.5381" fill="#B2A62A"/>
<path d="M31.0507 26.2697L31.0547 29.6387C31.0547 29.6387 30.8883 30.4314 30.0848 30.3844C29.4901 30.3506 29.2652 29.7303 29.2778 29.5181L29.7024 26.1392" fill="#B2A62A"/>
<path d="M29.6843 26.1229L29.1764 30.0521C29.1764 30.0521 28.8474 31.2227 27.6274 30.9009C26.5279 30.6124 26.6756 29.5554 26.7161 29.412L28.4013 25.6729" fill="#B2A62A"/>
<path d="M33.7041 25.6727L35.7765 30.2624L35.8323 30.368C36.487 31.2658 37.7476 31.465 38.6482 30.8132C39.5491 30.1607 39.7491 28.904 39.0946 28.0062L39.0016 27.928L35.2709 24.5376" fill="#B2A62A"/>
<path d="M31.0545 26.2697L31.0508 29.6387C31.0508 29.6387 31.2171 30.4314 32.0209 30.3844C32.6165 30.3506 32.8403 29.7303 32.8276 29.5181L32.4039 26.1392" fill="#B2A62A"/>
<path d="M32.4219 26.1229L32.9298 30.0521C32.9298 30.0521 33.259 31.2227 34.4785 30.9009C35.5779 30.6124 35.4314 29.5554 35.3895 29.412L33.7046 25.6729" fill="#B2A62A"/>
<path d="M36.6595 22.2124L39.8773 23.2496C39.8773 23.2496 40.582 23.6521 40.289 24.3996C40.0727 24.953 39.4108 24.9733 39.2123 24.8966L36.1191 23.45" fill="#B2A62A"/>
<path d="M36.0962 23.4614L39.6892 25.1571C39.6892 25.1571 40.7056 25.8307 40.0218 26.8882C39.4056 27.8398 38.4421 27.3746 38.318 27.291L35.2705 24.5376" fill="#B2A62A"/>
<path d="M36.9092 19.5135L41.93 18.9681L42.0487 18.9487C43.1079 18.6057 43.687 17.4723 43.3423 16.4171C42.9984 15.361 41.8617 14.7833 40.8022 15.1262L40.6985 15.1906L36.3105 17.679" fill="#B2A62A"/>
<path d="M36.6602 22.2091L39.876 23.254C39.876 23.254 40.6821 23.3414 40.8866 22.5641C41.0377 21.9901 40.5143 21.5862 40.3083 21.5324L36.9532 20.8896" fill="#B2A62A"/>
<path d="M36.9429 20.8673L40.8493 21.5996C40.8493 21.5996 42.0691 21.65 42.1398 20.3935C42.2027 19.2633 41.1484 19.076 40.9987 19.0703L36.9102 19.5115" fill="#B2A62A"/>
<path d="M34.5205 15.6433L36.5042 12.9159C36.5042 12.9159 37.106 12.3722 37.7283 12.881C38.1899 13.2566 38.0049 13.8901 37.8708 14.0544L35.534 16.5402" fill="#B2A62A"/>
<path d="M35.5391 16.5637L38.2677 13.6831C38.2677 13.6831 39.2243 12.9282 40.0229 13.9027C40.7414 14.7804 39.9985 15.5497 39.8807 15.6407L36.3116 17.6793" fill="#B2A62A"/>
<path d="M43.4616 16.3777C43.2852 15.8352 42.9071 15.3941 42.3978 15.1356C41.8884 14.8762 41.3081 14.8309 40.7637 15.007C40.7542 15.0102 40.7448 15.0142 40.7361 15.0199L40.3187 15.2569C40.3802 15.1298 40.4308 14.985 40.4492 14.8238C40.4888 14.4751 40.3779 14.1384 40.1196 13.8224C39.2535 12.7657 38.2003 13.5762 38.1762 13.5962L38.1409 13.634C38.1679 13.3537 38.1015 13.0228 37.8079 12.7837C37.4152 12.4625 37.0052 12.5078 36.7082 12.6435C36.7441 12.3266 36.6637 11.9183 36.2307 11.6418C36.0207 11.5066 35.7771 11.4643 35.5263 11.5178C35.4533 11.5338 35.3827 11.5576 35.316 11.5865L35.3488 11.5267C35.3537 11.5141 35.8012 10.2662 34.524 9.77207C34.1436 9.62463 33.7891 9.6232 33.4697 9.76777C33.3243 9.83333 33.2031 9.92408 33.1017 10.0203L33.1764 9.66299L33.195 9.52701C33.195 8.35039 32.2344 7.39307 31.0536 7.39307C29.8729 7.39307 28.9117 8.35039 28.9117 9.52701C28.9117 9.53703 28.9128 9.54705 28.9154 9.55707L29.0128 10.0263C28.91 9.9278 28.7859 9.83448 28.637 9.7672C28.3176 9.62291 27.9622 9.62463 27.5827 9.77207C26.3063 10.2662 26.7542 11.5141 26.7666 11.543L26.7924 11.5905C26.7654 11.5788 26.7407 11.5653 26.712 11.5553C26.5051 11.4826 26.1914 11.4388 25.8757 11.6412C25.4479 11.9149 25.3643 12.3171 25.4023 12.6406C25.111 12.5081 24.6964 12.4588 24.2994 12.7832C24.0049 13.0234 23.9389 13.3549 23.9673 13.6366L23.917 13.5833C23.9064 13.5756 22.8532 12.7649 21.9871 13.8224C21.7291 14.1379 21.6182 14.4745 21.6578 14.8232C21.6757 14.9804 21.7245 15.1224 21.7845 15.2478L21.4668 15.0666L21.3424 15.0062C20.2191 14.6426 19.0091 15.2581 18.644 16.3769C18.4673 16.9194 18.5127 17.4979 18.7727 18.0055C19.0324 18.5134 19.4751 18.8901 20.0192 19.0662C20.029 19.0691 20.039 19.0716 20.0494 19.0719L20.5274 19.1246C20.401 19.1919 20.2734 19.2806 20.1631 19.4014C19.9273 19.6599 19.8195 19.996 19.8422 20.4011C19.9129 21.6619 21.0563 21.7232 21.2522 21.7232C21.268 21.7232 21.2778 21.7223 21.2801 21.7223L21.3309 21.7129C21.1436 21.9233 21.0023 22.2299 21.0982 22.596C21.2275 23.0873 21.5866 23.2891 21.9069 23.353C21.69 23.588 21.5131 23.9662 21.7004 24.444C21.8391 24.797 22.1353 24.9622 22.4128 25.0223L22.3467 25.0532C22.3355 25.0604 21.237 25.8087 21.9793 26.9561C22.1997 27.2974 22.4855 27.5063 22.8288 27.5771C22.9173 27.5954 23.004 27.6034 23.0882 27.6034C23.1534 27.6034 23.2161 27.5974 23.2767 27.5891L23.0063 27.8339L22.9101 27.9332C22.574 28.3944 22.4381 28.9581 22.5277 29.5212C22.6174 30.084 22.9213 30.5784 23.3844 30.9137C23.7633 31.1882 24.2037 31.3205 24.6401 31.3205C25.3029 31.3205 25.9567 31.0159 26.3753 30.4419C26.3813 30.4339 26.3865 30.4253 26.3902 30.4153L26.5882 29.9787C26.6134 30.1195 26.6591 30.2687 26.7407 30.4107C26.9145 30.7127 27.2021 30.9188 27.5954 31.0222C27.7551 31.064 27.9007 31.0829 28.0338 31.0829C29.0045 31.0829 29.2943 30.0955 29.3007 30.068L29.3076 30.015C29.3222 30.0399 29.334 30.0651 29.3506 30.0895C29.4756 30.2693 29.7031 30.4883 30.0778 30.5092C30.103 30.5112 30.1277 30.5117 30.1524 30.5117C30.6178 30.5117 30.8991 30.2455 31.0505 29.9744C31.1999 30.2403 31.482 30.5117 31.9531 30.5117C31.9773 30.5117 32.0025 30.5112 32.0278 30.5092C32.2783 30.4948 32.5013 30.3863 32.6722 30.1948C32.7213 30.1399 32.7641 30.08 32.8003 30.0182L32.8092 30.0857C32.8124 30.0972 33.102 31.0829 34.0721 31.0829C34.2051 31.0829 34.3511 31.064 34.5105 31.0222C34.9069 30.918 35.1959 30.7101 35.3695 30.4038C35.447 30.2667 35.491 30.1241 35.5163 29.989L35.6659 30.3205L35.7311 30.4416C36.0676 30.9028 36.564 31.2065 37.1288 31.2959C37.2422 31.313 37.3557 31.3222 37.4683 31.3222C37.9168 31.3222 38.3529 31.1816 38.7223 30.914C39.6778 30.2223 39.8904 28.8848 39.1969 27.9329C39.1906 27.9246 39.1837 27.9172 39.1759 27.9112L38.8206 27.5888C38.8835 27.5974 38.9481 27.6037 39.0162 27.6037C39.0998 27.6037 39.1868 27.5962 39.2748 27.5779C39.6192 27.5078 39.9065 27.2988 40.1283 26.9564C40.87 25.809 39.7706 25.0609 39.7439 25.0449L39.6968 25.0229C39.9726 24.9619 40.2679 24.7967 40.4055 24.4443C40.5911 23.9719 40.4204 23.5966 40.1986 23.357C40.5124 23.2934 40.8772 23.0925 41.0079 22.5963C41.1044 22.2293 40.9617 21.9221 40.7721 21.7109L40.8439 21.7246H40.86C41.0128 21.7246 42.1924 21.6825 42.2645 20.4011C42.2872 19.9958 42.1792 19.6597 41.9433 19.4017C41.8353 19.2835 41.7106 19.1965 41.5865 19.1295L41.9511 19.0897L42.0875 19.0659C42.6319 18.8896 43.0746 18.5128 43.334 18.0052C43.5937 17.4974 43.6388 16.9191 43.4619 16.3769L43.4616 16.3777ZM43.1102 17.8924C42.8813 18.3408 42.4903 18.6737 42.028 18.8246L36.8958 19.3891C36.8268 19.3966 36.7774 19.4581 36.7849 19.5268C36.7866 19.5431 36.7915 19.558 36.7993 19.5718C36.8024 19.5778 36.8076 19.5826 36.8119 19.5884C36.8171 19.595 36.8217 19.6021 36.8283 19.6076C36.8334 19.6121 36.8395 19.6144 36.8452 19.6181C36.853 19.6227 36.8602 19.6273 36.8688 19.6305C36.8748 19.6327 36.8814 19.6327 36.888 19.6342C36.8952 19.6353 36.9018 19.6382 36.909 19.6382C36.9136 19.6382 36.9179 19.6379 36.9225 19.6376L40.9927 19.1965C40.997 19.1965 41.45 19.2345 41.7571 19.5703C41.9462 19.7773 42.0321 20.0524 42.0137 20.388C41.9531 21.4649 40.97 21.4781 40.8781 21.4781C40.8743 21.4781 40.872 21.4775 40.8717 21.4781L36.9653 20.7461C36.8955 20.7332 36.832 20.7779 36.8191 20.8457C36.8125 20.8804 36.8214 20.9144 36.8403 20.9408C36.8564 20.9766 36.8872 21.0055 36.9288 21.0135L40.2759 21.6539C40.4385 21.6966 40.8942 22.0415 40.7652 22.5334C40.6149 23.1031 40.0929 23.1368 39.9504 23.1368C39.9392 23.1368 39.9303 23.1365 39.924 23.1365C39.9211 23.1348 39.918 23.1328 39.9151 23.1311L37.876 22.4738L36.6981 22.091C36.6315 22.0699 36.5617 22.1056 36.5401 22.1712C36.5401 22.1712 36.5401 22.1721 36.5401 22.1726C36.5401 22.1732 36.5393 22.1735 36.539 22.1744C36.5177 22.2396 36.5539 22.3106 36.6197 22.3318L37.934 22.7546L39.8301 23.3687C39.9254 23.4286 40.4023 23.7652 40.1711 24.3547C39.9858 24.8273 39.4124 24.8408 39.2638 24.7838L36.1707 23.3372C36.1313 23.3186 36.0891 23.3246 36.0552 23.3447C36.0242 23.3553 35.9975 23.3773 35.9822 23.4094C35.9526 23.4718 35.9794 23.5462 36.0417 23.5754L39.6189 25.2625C39.656 25.2877 40.5227 25.8834 39.916 26.8216C39.7324 27.1053 39.4991 27.2779 39.223 27.3343C38.8315 27.4139 38.4592 27.2364 38.4017 27.1997L35.3542 24.4463C35.3178 24.4134 35.2666 24.4068 35.2235 24.4242C35.2218 24.4248 35.2195 24.4248 35.2175 24.4257C35.2112 24.4288 35.206 24.4343 35.2 24.4383C35.1925 24.444 35.1839 24.4477 35.1776 24.4552C35.1718 24.4612 35.1695 24.4686 35.1655 24.4758C35.1609 24.4829 35.1551 24.4898 35.1523 24.4978C35.1511 24.5013 35.1517 24.5053 35.1506 24.5087C35.1477 24.521 35.1448 24.533 35.1454 24.5451C35.1457 24.5522 35.1488 24.5594 35.1506 24.5662C35.1526 24.5745 35.1531 24.5834 35.1566 24.5914C35.1615 24.6014 35.1689 24.61 35.1767 24.6186C35.1801 24.6229 35.1819 24.6278 35.1859 24.6315L35.1899 24.6355L38.9202 28.0245L39.0015 28.0924C39.6037 28.9326 39.4135 30.1049 38.5741 30.7127C38.1656 31.0084 37.6657 31.1287 37.1673 31.0494C36.6685 30.9706 36.2302 30.703 35.9429 30.3105L33.8181 25.6226C33.7897 25.5593 33.7153 25.5319 33.6524 25.5596C33.6254 25.5717 33.6064 25.5931 33.5941 25.6175C33.5918 25.6218 33.5883 25.6249 33.5866 25.6292C33.5814 25.6427 33.5794 25.6575 33.5794 25.6719C33.5794 25.6733 33.5786 25.6747 33.5788 25.6762C33.5788 25.6928 33.5829 25.7088 33.5898 25.7245L35.2686 29.4482C35.2928 29.5298 35.3473 29.9349 35.1506 30.2818C35.0115 30.5275 34.7745 30.6952 34.4461 30.7814C33.3637 31.068 33.0623 30.0623 33.0537 30.0371L32.5461 26.1082C32.5372 26.0394 32.4731 25.9908 32.4056 25.9999C32.3711 26.0045 32.3418 26.0226 32.3223 26.0483C32.2921 26.0747 32.2737 26.1133 32.2792 26.156L32.7021 29.5264C32.7069 29.6114 32.6486 29.8461 32.4846 30.0299C32.3573 30.1725 32.1987 30.2504 32.0132 30.2607C31.376 30.2976 31.2004 29.7207 31.1783 29.6474C31.1789 29.6452 31.18 29.642 31.1803 29.6397L31.178 27.7448L31.1798 26.271C31.1798 26.2023 31.1237 26.1465 31.0545 26.1462L31.0531 26.1468C31.0525 26.1468 31.0519 26.1462 31.0513 26.1462C30.9821 26.1468 30.9261 26.2023 30.9261 26.271L30.9293 27.7371L30.9287 29.632C30.9 29.7388 30.7204 30.2944 30.093 30.2607C29.8189 30.2446 29.6506 30.082 29.5575 29.948C29.444 29.7843 29.3992 29.6031 29.4029 29.5347L29.8275 26.156C29.833 26.1133 29.8146 26.0749 29.7847 26.0486C29.7652 26.0228 29.7359 26.0045 29.7014 25.9999C29.6339 25.9908 29.5698 26.0394 29.5609 26.1082L29.0562 30.019C29.0444 30.0626 28.7491 31.0688 27.66 30.7811C27.3339 30.6952 27.0981 30.5295 26.959 30.287C26.7594 29.9395 26.8122 29.5355 26.8312 29.4639L28.3825 26.0214L28.517 25.7248C28.5457 25.6621 28.5172 25.588 28.4546 25.5596C28.4385 25.5525 28.4219 25.549 28.4052 25.5488C28.3906 25.5488 28.3765 25.5513 28.363 25.5556C28.3615 25.5562 28.3601 25.5562 28.3587 25.5565C28.3282 25.5676 28.3021 25.5903 28.288 25.6223L28.2159 25.7824L26.2043 30.2103L26.1644 30.3085C25.5482 31.1384 24.3703 31.3202 23.5324 30.7127C23.1236 30.4164 22.8549 29.9798 22.7757 29.4831C22.6969 28.9859 22.8164 28.488 23.1011 28.0949L26.9203 24.6321C26.9717 24.5857 26.9754 24.5064 26.9289 24.4554C26.8823 24.4045 26.8033 24.4005 26.7519 24.4471L23.7185 27.1886C23.6464 27.237 23.2701 27.4142 22.8799 27.3331C22.605 27.277 22.3729 27.1044 22.1905 26.8216C21.5832 25.8834 22.449 25.2874 22.4706 25.2713L26.0636 23.5754C26.1262 23.5459 26.1529 23.4718 26.123 23.4094C26.1078 23.3776 26.0811 23.3553 26.0501 23.3447C26.0159 23.3246 25.9737 23.3186 25.9343 23.3372L22.8486 24.7801C22.6921 24.8411 22.1209 24.8276 21.9342 24.3547C21.7012 23.7601 22.1959 23.4182 22.2611 23.3742C22.2637 23.3739 22.2669 23.3742 22.2695 23.3736L24.1828 22.7521L25.4856 22.3318C25.5516 22.3106 25.5878 22.2396 25.5663 22.1744C25.566 22.1735 25.5654 22.1729 25.5649 22.1718V22.1712C25.5436 22.1056 25.4726 22.0699 25.4069 22.091L24.1233 22.5093L22.1988 23.1317C22.087 23.1383 21.501 23.1431 21.3407 22.5334C21.2117 22.0415 21.6668 21.6966 21.8207 21.6559L25.177 21.0135C25.2193 21.0052 25.25 20.976 25.2664 20.9396C25.2845 20.913 25.2925 20.8798 25.2862 20.8457C25.2736 20.7782 25.2083 20.7335 25.14 20.7461L21.2519 21.4758C21.2074 21.4781 20.1554 21.5088 20.0922 20.388C20.0735 20.0521 20.1597 19.7773 20.3484 19.5706C20.6167 19.2769 21.0261 19.1993 21.0945 19.1956L25.0377 19.6216L25.1836 19.6379C25.1882 19.6385 25.1928 19.6385 25.1977 19.6385C25.2075 19.6385 25.2161 19.6356 25.2256 19.6336C25.229 19.633 25.2325 19.6327 25.2359 19.6316C25.2491 19.6273 25.2612 19.621 25.2724 19.6127C25.2738 19.6113 25.2756 19.6107 25.277 19.6098C25.2885 19.6004 25.2977 19.5892 25.3054 19.5764C25.306 19.5755 25.3069 19.5746 25.3075 19.5735C25.3149 19.56 25.3204 19.5443 25.3221 19.5277C25.3221 19.5277 25.3221 19.5277 25.3221 19.5271C25.3296 19.4584 25.2799 19.3969 25.2109 19.3894L25.0276 19.3699L20.1881 18.8323L20.0821 18.8251C19.6084 18.6674 19.2231 18.337 18.9962 17.893C18.7669 17.4447 18.7264 16.9337 18.8824 16.455C19.2048 15.4671 20.2734 14.9237 21.2476 15.238L25.7071 17.7722L25.7329 17.7871H25.7335C25.7513 17.7971 25.7703 17.8014 25.7895 17.802C25.7912 17.8023 25.7932 17.8037 25.795 17.8037C25.7987 17.8037 25.8016 17.8014 25.8053 17.8008C25.82 17.7997 25.8335 17.7963 25.847 17.7902C25.8521 17.7877 25.8573 17.7857 25.8622 17.7828C25.8777 17.7728 25.8915 17.7602 25.9018 17.7433C25.9024 17.7421 25.9036 17.7419 25.9041 17.7407C25.9214 17.7104 25.9248 17.6769 25.9162 17.646C25.9162 17.6442 25.9148 17.6428 25.9142 17.6414C25.905 17.6122 25.886 17.5864 25.8576 17.5701L22.3037 15.5418C22.2356 15.4894 21.9514 15.1911 21.9066 14.7957C21.8747 14.5163 21.9672 14.2421 22.1813 13.9813C22.8894 13.1158 23.7263 13.7525 23.7481 13.768L26.477 16.6486C26.5244 16.6986 26.604 16.7009 26.6542 16.6537C26.6798 16.6294 26.6927 16.597 26.693 16.5644C26.7008 16.5257 26.693 16.4848 26.664 16.4536L24.3336 13.9747C24.2273 13.845 24.0632 13.2988 24.4583 12.9764C24.9538 12.5719 25.4324 12.9358 25.4945 12.9833C25.4953 12.9859 25.4965 12.9887 25.4976 12.9907L26.8125 14.7903L27.4859 15.7153C27.51 15.7491 27.5474 15.7648 27.5856 15.7654C27.587 15.7654 27.5882 15.7662 27.5896 15.7662C27.5908 15.7662 27.5919 15.7651 27.5933 15.7651C27.6169 15.7637 27.6405 15.7585 27.6609 15.7439L27.6617 15.7428C27.6617 15.7428 27.6629 15.7428 27.6632 15.7422C27.7192 15.7015 27.7312 15.6234 27.6905 15.5678L27.0102 14.6389L25.7059 12.8487C25.6645 12.7431 25.4807 12.1909 26.011 11.8519C26.2423 11.703 26.475 11.7371 26.6292 11.7912C26.8174 11.8568 26.9605 11.977 26.9978 12.0345L28.6474 15.0176C28.6727 15.0628 28.7224 15.0866 28.7706 15.0814C28.7746 15.0814 28.7781 15.0846 28.7821 15.0846C28.8025 15.0846 28.8229 15.0797 28.8419 15.0694C28.9028 15.0365 28.9249 14.9606 28.8919 14.8994L26.9938 11.4402C26.9783 11.3987 26.6244 10.4108 27.6735 10.0054C27.9889 9.88314 28.2782 9.87971 28.5339 9.99537C28.897 10.1588 29.0961 10.5221 29.1208 10.5863L29.9505 14.5384L29.9628 14.5982C29.9654 14.6097 29.9712 14.6194 29.9766 14.6294C30.0019 14.6778 30.0551 14.7067 30.1114 14.6953C30.1185 14.6935 30.124 14.6892 30.1303 14.6869C30.155 14.6775 30.1769 14.6623 30.1907 14.6411C30.1918 14.6397 30.1918 14.6374 30.193 14.6357C30.1998 14.6237 30.2062 14.6108 30.2088 14.5968C30.2096 14.5922 30.2085 14.5873 30.2088 14.5825C30.2099 14.571 30.2113 14.5593 30.2088 14.5475L29.1883 9.61576L29.1631 9.51298C29.1711 8.48094 30.0166 7.64356 31.0542 7.64356C32.0919 7.64356 32.9448 8.48867 32.946 9.5104L31.8988 14.5475C31.8847 14.6148 31.9281 14.6809 31.9959 14.6958C32.0043 14.6975 32.0132 14.6984 32.0218 14.6984C32.0267 14.6984 32.031 14.6964 32.0359 14.6958C32.0416 14.6953 32.0471 14.6944 32.0528 14.693C32.0626 14.6904 32.0715 14.6864 32.0804 14.6815C32.085 14.6792 32.0893 14.6772 32.0933 14.6744C32.1025 14.6678 32.1103 14.6598 32.1174 14.6509C32.12 14.6477 32.1232 14.6454 32.1255 14.6423C32.1341 14.6291 32.141 14.6145 32.1442 14.5988L32.9822 10.604C33.0117 10.523 33.21 10.1603 33.5737 9.99622C33.8296 9.88085 34.1189 9.884 34.4338 10.0062C35.4789 10.4099 35.1299 11.3993 35.1218 11.4245L33.2157 14.9002C33.1824 14.9612 33.2048 15.0374 33.2654 15.0703C33.2847 15.0806 33.3051 15.0855 33.3257 15.0855C33.3298 15.0855 33.3332 15.0826 33.3372 15.082C33.3858 15.0875 33.4352 15.0637 33.4605 15.0185L35.1055 12.0426C35.1517 11.9707 35.3384 11.8155 35.5806 11.7629C35.7668 11.7228 35.9403 11.7526 36.096 11.8528C36.6346 12.1969 36.4381 12.7606 36.4111 12.8361C36.4088 12.8384 36.4057 12.8407 36.4037 12.8427L35.2422 14.4396L34.4168 15.5687C34.376 15.6242 34.3881 15.7027 34.4444 15.743C34.4453 15.7439 34.4467 15.7436 34.4479 15.7439C34.4479 15.7439 34.448 15.7442 34.4482 15.7448C34.4683 15.7591 34.4912 15.7642 34.5142 15.7657C34.5154 15.7659 34.5168 15.7671 34.518 15.7671C34.5194 15.7671 34.5208 15.7662 34.5223 15.7662C34.5608 15.7659 34.599 15.7502 34.6231 15.7161L35.4215 14.6168L36.6048 12.9956C36.6935 12.9235 37.1635 12.5793 37.6502 12.9773C38.0446 13.2979 37.8809 13.8453 37.7809 13.969L35.4442 16.4542C35.4151 16.4851 35.4071 16.5266 35.4151 16.5652C35.4157 16.5976 35.4284 16.6299 35.4539 16.6543C35.5045 16.7015 35.5838 16.6992 35.6312 16.6491L38.3465 13.7806C38.3819 13.7528 39.215 13.1127 39.9269 13.9813C40.1412 14.2424 40.2334 14.5166 40.2018 14.796C40.1567 15.1914 39.8729 15.4897 39.8197 15.5323L36.3801 17.4965L36.2506 17.5701C36.2204 17.5873 36.2 17.6153 36.1917 17.6465C36.1917 17.6465 36.1917 17.6474 36.1917 17.648C36.1879 17.6628 36.1865 17.678 36.1882 17.6935C36.1902 17.7101 36.1951 17.7261 36.204 17.7413C36.2054 17.7439 36.2083 17.745 36.2098 17.7473C36.2192 17.7613 36.2307 17.7731 36.2445 17.7817C36.2508 17.7862 36.2572 17.7888 36.2643 17.7914C36.2755 17.7965 36.287 17.7991 36.2994 17.8008C36.3043 17.8014 36.3083 17.8043 36.3129 17.8043C36.3155 17.8043 36.3178 17.8023 36.3201 17.8023C36.337 17.8014 36.3537 17.7971 36.3695 17.7891C36.3712 17.7882 36.3732 17.7888 36.3749 17.7877L36.4649 17.7358L40.7669 15.2964L40.8571 15.24C41.334 15.0897 41.8405 15.1318 42.2857 15.3577C42.7353 15.5864 43.0692 15.9764 43.2251 16.455C43.3814 16.9337 43.3415 17.4444 43.1122 17.8924H43.1102Z" fill="white"/>
<path d="M23.9912 20.3964C23.9912 24.2766 27.1588 27.4338 31.0531 27.4338C34.9475 27.4338 38.1148 24.2766 38.1148 20.3964C38.1148 16.5161 34.9472 13.3599 31.0531 13.3599C27.1591 13.3599 23.9912 16.5158 23.9912 20.3964Z" fill="white"/>
<path d="M37.8806 20.3939C37.8806 24.1511 34.8242 27.1979 31.0531 27.1979C27.282 27.1979 24.2256 24.1511 24.2256 20.3939C24.2256 16.6367 27.2817 13.5898 31.0531 13.5898C34.8245 13.5898 37.8806 16.6362 37.8806 20.3939Z" fill="#B2A62A"/>
<path d="M24.7051 20.3964C24.7051 23.8844 27.5532 26.7218 31.0531 26.7218C34.5531 26.7218 37.4003 23.8844 37.4003 20.3964C37.4003 16.9083 34.5528 14.0713 31.0531 14.0713C27.5535 14.0713 24.7051 16.9086 24.7051 20.3964Z" fill="white"/>
<path d="M28.6905 22.0394C28.2064 22.0651 27.7732 22.082 27.3908 22.0906L26.04 22.0972V21.5561L27.4356 21.5498C27.8709 21.541 28.294 21.5249 28.7046 21.5015C29.1154 21.478 29.4409 21.4511 29.6807 21.4213V21.975C29.5046 21.9919 29.1746 22.0133 28.6905 22.0397V22.0394ZM28.7155 18.3409C28.9801 18.6218 29.1122 18.9536 29.1122 19.3349C29.1122 19.7216 28.9801 20.0555 28.7155 20.3366C28.4509 20.6174 28.1142 20.7583 27.7051 20.7583C27.296 20.7583 26.9608 20.6177 26.6979 20.3366C26.4353 20.0552 26.3041 19.7214 26.3041 19.3349C26.3041 18.9536 26.4353 18.622 26.6979 18.3409C26.9608 18.0601 27.296 17.9192 27.7051 17.9192C28.1142 17.9192 28.4509 18.0598 28.7155 18.3409ZM28.3159 18.7265C28.1719 18.553 27.9683 18.4657 27.7054 18.4657C27.4469 18.4657 27.2449 18.553 27.1004 18.7265C26.9562 18.9006 26.8838 19.1033 26.8838 19.3346C26.8838 19.5714 26.9559 19.776 27.1004 19.9498C27.2449 20.1233 27.4469 20.21 27.7054 20.21C27.9683 20.21 28.1719 20.1233 28.3159 19.9498C28.4607 19.7758 28.5328 19.5714 28.5328 19.3346C28.5328 19.1033 28.4607 18.9006 28.3159 18.7265ZM29.8833 23.2489V17.584H30.4461V23.2489H29.8833Z" fill="#B2A62A"/>
<path d="M33.7744 22.3511C33.4314 22.3706 33.0364 22.3846 32.59 22.3927L31.0088 22.3992V21.8522H32.5397V21.2733C32.2435 21.2258 32.0016 21.1216 31.8137 20.9607C31.6262 20.7995 31.5325 20.6054 31.5325 20.3781C31.5325 20.1207 31.6555 19.9037 31.9011 19.7279C32.1467 19.5519 32.4515 19.464 32.8155 19.464C33.1832 19.464 33.4909 19.553 33.7382 19.7314C33.9859 19.9095 34.1097 20.127 34.1097 20.3847C34.1097 20.5991 34.0186 20.7869 33.8365 20.9481C33.6546 21.1087 33.4211 21.2132 33.1358 21.2601V21.8459C33.4173 21.8459 33.6854 21.8344 33.9408 21.8109C34.1959 21.7875 34.4225 21.7603 34.6216 21.7305V22.2773C34.4001 22.3073 34.118 22.3317 33.7744 22.3511ZM31.2846 19.1935V18.6656H34.3119V19.1935H31.2846ZM31.9766 18.2794V17.7583H33.6084V18.2794H31.9766ZM33.3412 20.0595C33.2005 19.9713 33.0252 19.9275 32.8152 19.9275C32.6127 19.9275 32.442 19.9713 32.303 20.0595C32.1642 20.1476 32.095 20.2536 32.095 20.3781C32.095 20.5066 32.1642 20.612 32.303 20.6936C32.442 20.7752 32.6147 20.8161 32.821 20.8161C33.0307 20.8161 33.2056 20.7752 33.3444 20.6936C33.4829 20.6123 33.5524 20.5089 33.5524 20.3847C33.5524 20.2559 33.4817 20.1476 33.3412 20.0595ZM34.8466 23.2489V17.584H35.4094V23.2489H34.8466Z" fill="#B2A62A"/>
</svg>
