<svg width="165" height="40" viewBox="0 0 165 40" fill="none" xmlns="http://www.w3.org/2000/svg">
<path d="M45.0187 9.04402H48.6656V10.5762H46.2125C46.6728 10.9167 47.0582 11.3577 47.3556 11.8922C47.6618 12.4259 47.8109 13.0063 47.8109 13.6255C47.8109 14.1629 47.713 14.6693 47.5121 15.1504C47.3092 15.629 47.0439 16.0356 46.7082 16.3799C46.3658 16.7354 45.9649 17.0188 45.5082 17.2246C45.0507 17.4257 44.5643 17.5275 44.0561 17.5275C43.5334 17.5275 43.0455 17.426 42.5855 17.2246C42.1313 17.0191 41.7369 16.7354 41.4021 16.3799C41.0582 16.0356 40.7909 15.6293 40.6041 15.1504C40.4125 14.6693 40.3183 14.1629 40.3183 13.6255C40.3183 13.0063 40.4662 12.4259 40.7614 11.8922C41.0582 11.3574 41.4302 10.9167 41.8851 10.5762H39.4092V9.04402H43.1521V7.11279H45.0184V9.04431L45.0187 9.04402ZM46.1388 13.5538C46.1388 13.2361 46.0797 12.9329 45.9612 12.6434C45.8433 12.3596 45.6883 12.106 45.4987 11.8925C45.309 11.6713 45.0879 11.4983 44.8296 11.3649C44.5775 11.2341 44.3181 11.1638 44.0564 11.1638C43.7838 11.1638 43.5196 11.2341 43.2649 11.3649C43.01 11.4983 42.7869 11.6713 42.5981 11.8925C42.4059 12.106 42.2563 12.3596 42.1454 12.6434C42.0312 12.9332 41.9732 13.2361 41.9732 13.5538C41.9732 13.8714 42.0312 14.1752 42.1454 14.4616C42.2565 14.7485 42.4062 14.9964 42.5981 15.2164C42.7869 15.4325 43.01 15.6009 43.2649 15.7206C43.5196 15.8419 43.784 15.905 44.0564 15.905C44.3181 15.905 44.5775 15.8419 44.8296 15.7206C45.0879 15.6012 45.309 15.4325 45.4987 15.2164C45.6886 14.9961 45.8436 14.7485 45.9612 14.4616C46.0797 14.1752 46.1388 13.8722 46.1388 13.5538ZM43.2545 19.3036H44.9829V22.9744H52.1036V24.5573H43.2548V19.3033L43.2545 19.3036ZM51.8543 12.5605H54.115V14.1629H51.8543V20.0507H50.1459V7.57272H51.8543V12.5607V12.5605Z" fill="#141313"/>
<path d="M63.6111 14.5886C63.6916 14.2805 63.7689 13.9132 63.8396 13.4742C63.9099 13.0413 63.976 12.604 64.034 12.159C64.0818 11.7128 64.1178 11.2785 64.1434 10.8507C64.1679 10.4214 64.1789 10.0596 64.1789 9.75063H57.0934V8.14648H65.9951C66.0057 8.62047 65.9993 9.13491 65.965 9.70329C65.9396 10.2697 65.8918 10.8455 65.8321 11.432C65.7773 12.0193 65.6996 12.5839 65.6079 13.1354C65.5232 13.6814 65.4306 14.1625 65.3355 14.5883H68.8427V16.1144H62.5599V18.9064H66.122V24.8461H64.3896V20.4491H56.935V18.9064H60.7277V16.1144H54.3887V14.5883H63.6108L63.6111 14.5886Z" fill="#141313"/>
<path d="M75.602 17.7366H69.0322V16.193H83.381V17.7366H77.4002V20.948H75.6017L75.602 17.7366ZM71.65 19.1493H73.4479V22.9361H80.9245V24.519H71.65V19.1493ZM71.7201 8.11084H80.5854V14.3949H71.7201V8.11084ZM73.4479 12.8837H78.8064V9.61657H73.4479V12.8837Z" fill="#141313"/>
<path d="M89.4286 8.92914H92.6676V10.457H90.7831C91.1395 10.7898 91.4237 11.184 91.6361 11.6342C91.8508 12.0846 91.9558 12.5738 91.9558 13.0946C91.9558 13.9487 91.7087 14.6996 91.2206 15.3624C90.7245 16.0119 90.1039 16.4475 89.3574 16.6486V18.0631C90.1382 18.0255 90.8917 17.9744 91.6164 17.9122C92.344 17.8465 92.9478 17.7822 93.4332 17.7225V19.1887C93.0784 19.2555 92.6277 19.3126 92.0815 19.3617C91.5357 19.4125 90.9432 19.4566 90.3008 19.4942C89.6723 19.5496 89.0277 19.5812 88.3698 19.6081C87.712 19.6371 87.0964 19.6486 86.5269 19.6486L83.6953 19.667V18.1569H85.9046L87.5438 18.1417V16.6308C86.8035 16.4119 86.2017 15.9818 85.7324 15.3314C85.2656 14.6832 85.029 13.9352 85.029 13.0943C85.029 12.5735 85.1339 12.0846 85.3413 11.6339C85.5498 11.1837 85.8286 10.7895 86.1688 10.4567H84.2305V8.92885H87.6504V7.05615H89.4283V8.92885L89.4286 8.92914ZM90.4263 13.0381C90.4263 12.4654 90.2265 11.9659 89.8309 11.5401C89.4303 11.1114 88.9832 10.8982 88.4844 10.8982C87.9737 10.8982 87.5241 11.1114 87.1304 11.5401C86.7413 11.9659 86.5432 12.4654 86.5432 13.0381C86.5432 13.6139 86.7413 14.1074 87.1304 14.5315C87.5238 14.9504 87.9734 15.1601 88.4844 15.1601C88.9832 15.1601 89.4303 14.9504 89.8309 14.5315C90.2265 14.1074 90.4263 13.6139 90.4263 13.0381ZM95.9086 14.2024H98.1547V15.787H95.9086V22.1341H94.2148V7.61306H95.9086V14.2024Z" fill="#141313"/>
<path d="M102.814 16.9358L98.7539 16.9538V15.486H101.71C102.302 15.486 102.953 15.4728 103.661 15.4421C104.365 15.4177 105.059 15.3858 105.734 15.3474C106.423 15.3069 107.072 15.2639 107.684 15.2157C108.293 15.1629 108.813 15.1061 109.238 15.0453V16.4764C108.743 16.5519 108.067 16.629 107.22 16.7039C106.371 16.7837 105.489 16.8391 104.575 16.8795V19.2859H102.813V16.9358H102.814ZM103.742 7.61214C104.253 7.61214 104.731 7.70855 105.19 7.89562C105.646 8.08871 106.048 8.35038 106.393 8.67947C106.725 9.01057 106.991 9.40192 107.195 9.84922C107.396 10.2951 107.495 10.7719 107.495 11.2778C107.495 11.7914 107.396 12.2662 107.195 12.7141C106.991 13.1602 106.725 13.5438 106.393 13.8784C106.048 14.2086 105.646 14.466 105.19 14.6599C104.73 14.8539 104.253 14.9497 103.742 14.9497C103.217 14.9497 102.729 14.8539 102.271 14.6599C101.815 14.466 101.419 14.2086 101.088 13.8784C100.741 13.5438 100.477 13.1602 100.287 12.7141C100.093 12.2662 100.001 11.7914 100.001 11.2778C100.001 10.7722 100.093 10.2954 100.287 9.84922C100.477 9.40192 100.741 9.01057 101.088 8.67947C101.419 8.35038 101.815 8.08842 102.271 7.89562C102.729 7.70855 103.216 7.61214 103.742 7.61214ZM103.742 13.4383C104.286 13.4383 104.763 13.2259 105.175 12.807C105.582 12.3847 105.786 11.8748 105.786 11.2609C105.786 10.6603 105.582 10.1502 105.175 9.72097C104.763 9.29663 104.286 9.08345 103.742 9.08345C103.191 9.08345 102.714 9.29663 102.304 9.72097C101.894 10.1505 101.696 10.6603 101.696 11.2609C101.696 11.8746 101.894 12.3844 102.304 12.807C102.714 13.2259 103.191 13.4383 103.742 13.4383ZM102.832 20.1813H104.556V22.9742H111.842V24.5571H102.832V20.1811L102.832 20.1813ZM110.022 19.0182H106.678V17.5661H110.022V7.59521H111.734V20.5443H110.022V19.0182Z" fill="#141313"/>
<path d="M113.389 12.3869C113.389 11.8039 113.493 11.2438 113.7 10.7196C113.908 10.1894 114.188 9.73639 114.546 9.34819C114.9 8.95655 115.322 8.6441 115.8 8.41399C116.282 8.18675 116.795 8.0717 117.341 8.0717C117.875 8.0717 118.384 8.18675 118.864 8.41399C119.346 8.6441 119.759 8.95655 120.12 9.34819C120.472 9.73639 120.761 10.1894 120.972 10.7196C121.186 11.2438 121.293 11.8039 121.293 12.3869C121.293 12.9857 121.185 13.5495 120.972 14.0794C120.761 14.6074 120.472 15.065 120.12 15.4423C119.759 15.8394 119.346 16.1492 118.864 16.373C118.384 16.596 117.875 16.7041 117.341 16.7041C116.795 16.7041 116.282 16.5963 115.8 16.373C115.322 16.1492 114.9 15.8394 114.546 15.4423C114.188 15.065 113.908 14.6074 113.7 14.0794C113.493 13.5495 113.389 12.986 113.389 12.3869ZM119.552 12.3869C119.552 11.6521 119.337 11.0244 118.908 10.5042C118.481 9.9926 117.96 9.7361 117.342 9.7361C116.71 9.7361 116.187 9.9926 115.767 10.5042C115.346 11.0241 115.13 11.6518 115.13 12.3869C115.13 13.1386 115.346 13.7687 115.767 14.28C116.187 14.787 116.71 15.0463 117.342 15.0463C117.96 15.0463 118.482 14.7873 118.908 14.28C119.337 13.7687 119.552 13.1383 119.552 12.3869ZM117.251 19.2861H118.977V22.9738H126.277V24.5585H117.251V19.2861ZM124.199 9.67384V7.57275H125.907V20.0513H124.199V15.3301H121.685V13.7443H124.199V11.2613H121.667V9.67384H124.199Z" fill="#141313"/>
<path d="M133.094 8.87299H136.738V10.3979H134.852C135.162 10.7193 135.41 11.0891 135.602 11.5192C135.791 11.9459 135.887 12.3857 135.887 12.8505C135.887 13.3692 135.788 13.8564 135.585 14.306C135.38 14.7582 135.112 15.1596 134.783 15.501C134.438 15.8453 134.037 16.1142 133.581 16.3064C133.123 16.4995 132.639 16.589 132.13 16.589C131.608 16.589 131.119 16.4995 130.661 16.3064C130.205 16.1142 129.813 15.8456 129.475 15.501C129.133 15.1596 128.866 14.7582 128.675 14.306C128.489 13.8564 128.391 13.3692 128.391 12.8505C128.391 12.386 128.482 11.9461 128.668 11.5192C128.854 11.0891 129.099 10.7193 129.408 10.3979H127.483V8.87299H131.222V7H133.093V8.87299H133.094ZM134.213 12.7704C134.213 12.464 134.154 12.1771 134.035 11.8985C133.918 11.6288 133.762 11.3798 133.573 11.1637C133.383 10.9609 133.161 10.7916 132.906 10.6659C132.649 10.5397 132.391 10.4783 132.129 10.4783C131.858 10.4783 131.59 10.5397 131.336 10.6659C131.085 10.7916 130.859 10.9612 130.67 11.1637C130.48 11.3798 130.332 11.6291 130.217 11.8985C130.101 12.1768 130.048 12.464 130.048 12.7704C130.048 13.0769 130.101 13.3692 130.217 13.6501C130.332 13.9304 130.48 14.1729 130.67 14.3755C130.859 14.5757 131.085 14.7381 131.336 14.8626C131.59 14.9794 131.858 15.0454 132.129 15.0454C132.391 15.0454 132.649 14.9794 132.906 14.8626C133.161 14.7378 133.383 14.5757 133.573 14.3755C133.762 14.1726 133.918 13.9304 134.035 13.6501C134.154 13.3692 134.213 13.0769 134.213 12.7704ZM131.474 17.7367H133.201V19.5698H138.165V17.7367H139.896V24.5575H131.473V17.7367H131.474ZM138.165 21.0623H133.201V23.032H138.165V21.0623ZM139.945 11.6982H142.191V13.3033H139.945V16.8619H138.237V7.5965H139.945V11.6982Z" fill="#141313"/>
<path d="M146.455 16.6705C145.683 16.4766 145.046 16.0525 144.549 15.3938C144.051 14.7379 143.803 13.975 143.803 13.0944C143.803 12.5728 143.908 12.0845 144.114 11.6331C144.322 11.1838 144.599 10.7888 144.942 10.4551H143.003V8.92897H146.419V7.05713H148.199V8.92897H151.44V10.4551H149.557C149.909 10.7888 150.197 11.1838 150.406 11.6331C150.621 12.0848 150.726 12.5728 150.726 13.0944C150.726 13.9196 150.497 14.6526 150.034 15.2902C149.569 15.9311 148.987 16.3624 148.272 16.5896V18.0245C149.09 17.9866 149.883 17.9373 150.649 17.8793C151.416 17.8251 152.044 17.7531 152.543 17.6793V19.1492C152.189 19.2132 151.735 19.272 151.192 19.3193C150.646 19.373 150.058 19.4186 149.427 19.4565C148.8 19.5081 148.153 19.5486 147.489 19.5704C146.824 19.5959 146.208 19.6071 145.637 19.6071L142.469 19.6281V18.1215H145.014L146.455 18.0979V16.6702L146.455 16.6705ZM149.196 13.0373C149.196 12.4638 148.997 11.966 148.601 11.5393C148.205 11.1107 147.755 10.8984 147.257 10.8984C146.746 10.8984 146.296 11.111 145.904 11.5393C145.511 11.966 145.318 12.4638 145.318 13.0373C145.318 13.6109 145.511 14.1084 145.904 14.5298C146.296 14.9485 146.746 15.1593 147.257 15.1593C147.755 15.1593 148.205 14.9485 148.601 14.5298C148.997 14.1084 149.196 13.6132 149.196 13.0373ZM153.344 7.61288H155.034V22.1325H153.344V7.61288Z" fill="#141313"/>
<path d="M34.792 18.3831C34.792 17.6867 34.6868 16.9809 34.4673 16.2883C33.5763 13.5032 31.0935 11.7203 28.3843 11.6204C27.4584 9.01755 25.0345 7.146 22.1601 7.146C19.2857 7.146 16.8806 8.99689 15.942 11.5806C13.2182 11.6672 10.7172 13.4593 9.8275 16.2518C9.60664 16.9447 9.5 17.652 9.5 18.3495C9.5 20.4242 10.4507 22.3838 12.041 23.6632C11.8651 24.276 11.7711 24.9072 11.7711 25.5393C11.7711 27.6344 12.7233 29.7019 14.5144 31.0289C15.6913 31.8962 17.0624 32.3231 18.4141 32.3231C19.7193 32.3231 21.0102 31.9315 22.1123 31.1792C23.2211 31.9438 24.5218 32.3435 25.8383 32.3435C27.1902 32.3435 28.5596 31.92 29.7394 31.0484C31.5302 29.7191 32.4835 27.6559 32.4835 25.5588C32.4835 24.944 32.3847 24.3279 32.2196 23.724C33.8292 22.4426 34.792 20.4709 34.792 18.3831ZM24.8229 13.3603C25.2714 13.0522 25.7618 12.7879 26.3025 12.6074C26.8239 12.4405 27.3529 12.359 27.8748 12.3334C28.0121 12.841 28.1109 13.3703 28.1109 13.9229C28.1109 14.5163 28 15.0832 27.8413 15.6238C27.0428 14.6268 26.0192 13.8369 24.8229 13.3603ZM22.1601 7.85726C24.6524 7.86042 26.775 9.42296 27.6649 11.6374C27.1357 11.677 26.6089 11.7602 26.0876 11.9381C25.3015 12.1951 24.6043 12.6023 23.9974 13.0966C23.6887 13.0177 23.3781 12.9503 23.0624 12.9018V13.6263C23.1617 13.6389 23.2622 13.6487 23.3632 13.6676C23.6378 13.7181 23.8961 13.805 24.1566 13.8922C24.7469 14.0845 25.2972 14.3536 25.8003 14.6896L24.7086 16.3038C24.1611 15.946 23.5402 15.6881 22.8635 15.585C22.6378 15.5512 22.4111 15.513 22.1764 15.513C22.1705 15.513 22.1635 15.5093 22.1598 15.5093C22.15 15.5093 22.1376 15.513 22.1266 15.513C21.8948 15.5176 21.6722 15.5512 21.4449 15.5882C20.8619 15.6766 20.3155 15.8766 19.8251 16.1586L18.6631 14.5909C19.1307 14.2974 19.6332 14.0618 20.1689 13.8885C20.4258 13.8053 20.6841 13.7181 20.9542 13.6679C21.0529 13.6512 21.1528 13.6392 21.2516 13.6266V12.9021C20.9421 12.9503 20.6348 13.0146 20.3312 13.0969C19.712 12.5805 19.0049 12.1621 18.2056 11.9011C17.6932 11.7269 17.1783 11.6445 16.6631 11.6029C17.5601 9.40718 19.6776 7.86042 22.1598 7.85726M25.887 18.7862C25.9638 18.9764 26.0226 19.1775 26.0679 19.3786C26.0806 19.4269 26.0969 19.4673 26.1053 19.5126C26.161 19.7798 26.1886 20.0546 26.1906 20.3378C26.1886 21.5644 25.6532 22.6532 24.8187 23.4052C24.7942 23.4259 24.7669 23.446 24.7418 23.4701C24.5758 23.6086 24.4056 23.7366 24.2216 23.8517C24.1949 23.8686 24.167 23.8792 24.1389 23.8981C23.5494 24.2387 22.8818 24.4462 22.1604 24.4462C21.4153 24.4462 20.7237 24.2224 20.1264 23.8657C20.1036 23.8563 20.0811 23.8402 20.0589 23.8299C19.8684 23.7096 19.6951 23.5759 19.528 23.4288C19.5074 23.4078 19.488 23.3909 19.4672 23.3728C18.6515 22.6211 18.1293 21.5483 18.1273 20.3381C18.1273 20.0475 18.1597 19.7614 18.2177 19.4848C18.2253 19.4498 18.2405 19.4151 18.2517 19.383C18.3018 19.1698 18.3567 18.9598 18.4371 18.7624C18.4529 18.7282 18.4726 18.6972 18.4864 18.6614C19.0592 17.3582 20.2775 16.4323 21.7265 16.2696C21.7622 16.2679 21.7974 16.2636 21.8292 16.2596C21.9392 16.2504 22.045 16.2263 22.1604 16.2263C22.2678 16.2263 22.3689 16.2504 22.4738 16.2596C22.5109 16.2636 22.5433 16.2679 22.5754 16.2696C24.0314 16.4277 25.2565 17.3553 25.8307 18.6614C25.8496 18.7001 25.8698 18.7446 25.887 18.7862ZM22.1123 30.2949C21.7077 29.963 21.3368 29.5765 21.0189 29.1298C20.6618 28.6308 20.3999 28.0954 20.2131 27.5428C20.8383 27.7158 21.4823 27.8418 22.1606 27.8418C22.8047 27.8418 23.4189 27.7293 24.0165 27.5704C23.8314 28.1052 23.5779 28.6248 23.2371 29.1097C22.9099 29.569 22.5275 29.9575 22.1123 30.2949ZM16.2099 13.9229C16.2099 13.3577 16.3098 12.8212 16.4544 12.2987C16.9642 12.3265 17.4791 12.4014 17.9903 12.5785C18.5483 12.7629 19.0541 13.0324 19.5116 13.3526C18.3099 13.8274 17.2762 14.6245 16.4769 15.6238C16.3199 15.0781 16.2099 14.5163 16.2099 13.9229ZM10.1966 18.3498C10.1966 17.7269 10.2887 17.0908 10.4884 16.4771C11.2577 14.0544 13.3811 12.4858 15.7203 12.3102C15.5954 12.8307 15.5096 13.3672 15.5096 13.9232C15.5096 14.7731 15.6818 15.5759 15.96 16.3236C15.7929 16.5921 15.6443 16.8756 15.5104 17.1654L16.1997 17.3949C16.2425 17.3011 16.2813 17.2087 16.3292 17.1183C16.4611 16.8753 16.588 16.6349 16.7439 16.4096C17.1114 15.8846 17.5537 15.425 18.0511 15.0316L19.2089 16.5993C18.6858 17.0317 18.2481 17.5739 17.9419 18.2006C17.844 18.3917 17.7664 18.5945 17.696 18.8063C17.6865 18.8347 17.6772 18.8654 17.6687 18.8932C17.6029 19.1101 17.5421 19.325 17.5064 19.5562C17.4642 19.8107 17.429 20.0661 17.429 20.3381C17.429 20.7191 17.4788 21.0864 17.5601 21.4421L15.7203 22.047C15.5785 21.501 15.4989 20.9294 15.4966 20.3381C15.4966 20.3111 15.5048 20.2873 15.5048 20.2592C15.5087 19.9714 15.5543 19.6957 15.5906 19.4154C15.6027 19.325 15.6216 19.2372 15.6396 19.1477L14.9643 18.9247C14.9122 19.2188 14.87 19.5215 14.8503 19.8291C14.165 20.2715 13.5488 20.8502 13.0435 21.5578C12.7261 21.9976 12.4909 22.469 12.2962 22.9519C10.9822 21.8037 10.1969 20.1252 10.1969 18.3495M12.869 23.3912C13.0527 22.9014 13.288 22.4211 13.6065 21.9775C13.9618 21.478 14.3805 21.0617 14.836 20.7105C14.9027 22.0679 15.3056 23.3306 15.9884 24.4025C15.4311 24.3865 14.8692 24.3024 14.3121 24.1225V24.1179C13.7879 23.9466 13.3096 23.6898 12.869 23.3912ZM18.4141 31.607C17.2005 31.607 15.9769 31.2326 14.9235 30.4542C13.3203 29.2669 12.4689 27.4137 12.4689 25.5399C12.4689 25.0518 12.5395 24.5672 12.6569 24.0938C13.1025 24.3756 13.5749 24.6252 14.0955 24.7982L14.2057 24.4628L14.0994 24.7982C14.7671 25.0142 15.4502 25.1267 16.1249 25.1267H16.1522C16.2735 25.1267 16.3922 25.1038 16.5146 25.0975C16.7146 25.3442 16.9273 25.5757 17.1558 25.7935L17.5627 25.2231C17.4898 25.1502 17.4127 25.0828 17.3438 25.0088C17.1558 24.8034 16.9856 24.5885 16.8224 24.3609C16.4679 23.8761 16.1806 23.3404 15.9581 22.7717L17.7869 22.1703C18.0292 22.7717 18.3873 23.3108 18.8333 23.7619C18.9844 23.9165 19.158 24.0485 19.3296 24.1816C19.3535 24.2037 19.3769 24.2224 19.4022 24.2424C19.578 24.3759 19.7696 24.4812 19.9677 24.5885C20.5307 24.8903 21.1531 25.0828 21.8171 25.1405L21.8047 27.1127C21.177 27.0671 20.5769 26.932 20.0049 26.7334C19.7426 26.6388 19.4928 26.5369 19.2449 26.4181C19.174 26.382 19.1042 26.3355 19.0311 26.2979L18.6102 26.8927C18.8713 27.0448 19.1383 27.1773 19.4191 27.2918C19.6245 28.0817 19.9545 28.8515 20.4548 29.5481C20.769 29.9891 21.1278 30.3796 21.5163 30.7167C20.5738 31.2989 19.5024 31.607 18.4141 31.607ZM31.7812 25.5588C31.7812 27.4324 30.9329 29.2833 29.3331 30.4737C28.2726 31.2587 27.0501 31.6314 25.8383 31.6314C24.7416 31.6314 23.6558 31.3149 22.709 30.725C23.1108 30.3793 23.4783 29.9779 23.7996 29.5309L23.5179 29.3186L23.7996 29.526C24.2866 28.8391 24.6147 28.0888 24.822 27.317C25.1301 27.1957 25.4239 27.0476 25.7092 26.8858L25.2911 26.2976C25.1934 26.351 25.0992 26.4064 25.0007 26.4577C24.7523 26.5756 24.4971 26.6692 24.234 26.755C23.6986 26.9386 23.1389 27.0668 22.5562 27.1087L22.565 25.1368C23.1834 25.0768 23.763 24.8972 24.2911 24.6177C24.4968 24.5144 24.6974 24.4046 24.8811 24.2711C24.8997 24.2588 24.9132 24.2422 24.9337 24.2267C25.1124 24.0964 25.2882 23.9535 25.4506 23.7928C25.9205 23.3263 26.2955 22.7585 26.5448 22.1307L28.3618 22.76C28.1325 23.3519 27.8346 23.8987 27.4677 24.3974C27.3031 24.6203 27.134 24.8444 26.9455 25.0429C26.8875 25.1035 26.8222 25.1594 26.7595 25.22L27.1683 25.7909C27.383 25.5852 27.5853 25.366 27.7732 25.133C27.8959 25.1428 28.0143 25.162 28.1393 25.162C28.8218 25.162 29.5143 25.0559 30.196 24.8346C30.7056 24.6651 31.1656 24.4212 31.6031 24.1489C31.7131 24.6131 31.7818 25.0865 31.7818 25.5588M30.6453 21.9976C30.9703 22.4515 31.2092 22.9416 31.3918 23.4437C30.9605 23.7326 30.4943 23.9857 29.9788 24.1549C29.4279 24.3377 28.8649 24.4209 28.3112 24.4364C28.9949 23.3725 29.3981 22.1196 29.4754 20.7728C29.9087 21.1176 30.3063 21.5199 30.6453 21.9976ZM31.968 23.0073C31.7708 22.5123 31.5302 22.0275 31.2092 21.5773C30.7216 20.8916 30.1285 20.3281 29.4729 19.8879C29.4535 19.5597 29.4138 19.2372 29.3547 18.9213L28.6772 19.1425C28.6964 19.2541 28.7192 19.3568 28.7312 19.4673C28.7681 19.7479 28.8188 20.0308 28.8188 20.3232C28.8188 20.3303 28.8216 20.3338 28.8216 20.3378C28.8188 20.9263 28.7397 21.4944 28.5979 22.0369L26.769 21.4005C26.845 21.0597 26.8872 20.7033 26.8872 20.3378C26.8872 20.0816 26.852 19.8311 26.8143 19.5901C26.7795 19.3494 26.7209 19.1201 26.6481 18.8929C26.6427 18.8737 26.6376 18.8553 26.6315 18.8341C26.5611 18.6143 26.4753 18.402 26.378 18.2003C26.1109 17.6494 25.7452 17.1691 25.3071 16.7648L26.4083 15.1386C26.8473 15.5082 27.242 15.9339 27.5737 16.4096C27.7276 16.6366 27.859 16.8753 27.9871 17.1183C28.0349 17.2084 28.074 17.3011 28.1151 17.3918L28.8033 17.1617C28.6713 16.8719 28.5236 16.589 28.3551 16.3233C28.6336 15.5756 28.8033 14.7728 28.8033 13.9229C28.8033 13.3804 28.7259 12.8545 28.6066 12.3484C30.9332 12.5389 33.0335 14.1028 33.8039 16.5072C34.0014 17.1315 34.0926 17.7604 34.0965 18.3833C34.0926 20.1682 33.2983 21.859 31.968 23.0073Z" fill="#0086C1"/>
<path d="M42.2721 28.7915H40.9641V32.9225H40.4332V28.7915H39.1279V28.3018H42.2721V28.7915Z" fill="#231916"/>
<path d="M45.5491 32.9223H45.0309V31.0212C45.0309 30.3338 44.7799 29.9901 44.2788 29.9901C44.0261 29.9901 43.8132 30.0896 43.6407 30.2882C43.4679 30.4867 43.3815 30.7418 43.3815 31.0534V32.9223H42.8633V28.0376H43.3815V30.1705H43.3942C43.6426 29.7539 43.9966 29.5453 44.4558 29.5453C45.1845 29.5453 45.5491 29.9932 45.5491 30.8893V32.9223Z" fill="#231916"/>
<path d="M49.0903 31.4048H46.8059C46.8141 31.7718 46.9112 32.0556 47.0966 32.2555C47.2817 32.4549 47.5366 32.5551 47.8613 32.5551C48.2257 32.5551 48.5605 32.4326 48.8661 32.1878V32.6839C48.5816 32.8942 48.2054 32.9998 47.7378 32.9998C47.2809 32.9998 46.9216 32.85 46.6605 32.5505C46.3991 32.2507 46.2686 31.8292 46.2686 31.2858C46.2686 30.7725 46.4112 30.3541 46.6965 30.0308C46.9821 29.7074 47.3363 29.5459 47.7598 29.5459C48.1832 29.5459 48.5107 29.6853 48.7423 29.9648C48.9741 30.2443 49.0898 30.6319 49.0898 31.128V31.4054L49.0903 31.4048ZM48.5594 30.9567C48.5574 30.6517 48.4851 30.4141 48.343 30.2448C48.2007 30.075 48.0031 29.99 47.7505 29.99C47.5063 29.99 47.2989 30.0793 47.1281 30.2577C46.9576 30.4359 46.8521 30.6689 46.8121 30.9567H48.5594Z" fill="#231916"/>
<path d="M54.0172 28.7913H52.2477V30.3894H53.8844V30.8761H52.2477V32.922H51.7168V28.3013H54.0172V28.7913Z" fill="#231916"/>
<path d="M57.3172 31.4048H55.0325C55.041 31.7718 55.138 32.0556 55.3232 32.2555C55.5086 32.4549 55.7635 32.5551 56.0879 32.5551C56.4525 32.5551 56.7874 32.4326 57.0926 32.1878V32.6839C56.8082 32.8942 56.4323 32.9998 55.9647 32.9998C55.5075 32.9998 55.1484 32.85 54.8871 32.5505C54.626 32.2507 54.4951 31.8292 54.4951 31.2858C54.4951 30.7725 54.638 30.3541 54.9231 30.0308C55.2086 29.7074 55.5629 29.5459 55.9863 29.5459C56.4098 29.5459 56.7373 29.6853 56.9691 29.9648C57.2007 30.2443 57.3166 30.6319 57.3166 31.128V31.4054L57.3172 31.4048ZM56.7862 30.9567C56.784 30.6517 56.7117 30.4141 56.5696 30.2448C56.4272 30.075 56.23 29.99 55.9773 29.99C55.7328 29.99 55.5255 30.0793 55.3547 30.2577C55.1842 30.4359 55.0789 30.6689 55.0387 30.9567H56.7862Z" fill="#231916"/>
<path d="M60.8726 32.9223H60.3544V32.3617H60.3417C60.1017 32.7869 59.7309 32.9998 59.2295 32.9998C58.8232 32.9998 58.4979 32.852 58.2546 32.5568C58.0115 32.2616 57.8896 31.859 57.8896 31.35C57.8896 30.8046 58.0244 30.3671 58.294 30.0388C58.5638 29.71 58.9228 29.5456 59.3716 29.5456C59.8158 29.5456 60.1394 29.7238 60.3414 30.0804H60.3541V28.0376H60.8723V32.9223H60.8726ZM60.3544 31.4304V30.9438C60.3544 30.6772 60.268 30.4517 60.0952 30.2672C59.9228 30.0824 59.7033 29.9901 59.438 29.9901C59.122 29.9901 58.8736 30.1083 58.6924 30.3444C58.5115 30.5805 58.4206 30.9073 58.4206 31.3239C58.4206 31.7041 58.5075 32.0042 58.6814 32.2246C58.855 32.4449 59.0885 32.5548 59.3811 32.5548C59.6698 32.5548 59.9039 32.4486 60.0843 32.2357C60.2643 32.0234 60.3544 31.7546 60.3544 31.4304Z" fill="#231916"/>
<path d="M64.4682 31.4048H62.1839C62.192 31.7718 62.2891 32.0556 62.4745 32.2555C62.6597 32.4549 62.9146 32.5551 63.2393 32.5551C63.6036 32.5551 63.9384 32.4326 64.244 32.1878V32.6839C63.9595 32.8942 63.5834 32.9998 63.1157 32.9998C62.6588 32.9998 62.2995 32.85 62.0384 32.5505C61.777 32.2507 61.6465 31.8292 61.6465 31.2858C61.6465 30.7725 61.7891 30.3541 62.0744 30.0308C62.36 29.7074 62.7142 29.5459 63.1377 29.5459C63.5611 29.5459 63.8886 29.6853 64.1202 29.9648C64.352 30.2443 64.4677 30.6319 64.4677 31.128V31.4054L64.4682 31.4048ZM63.9373 30.9567C63.9353 30.6517 63.863 30.4141 63.721 30.2448C63.5786 30.075 63.3811 29.99 63.1284 29.99C62.8842 29.99 62.6765 30.0793 62.506 30.2577C62.3355 30.4359 62.23 30.6689 62.1901 30.9567H63.9373Z" fill="#231916"/>
<path d="M66.9151 30.1583C66.8248 30.0874 66.694 30.0521 66.5232 30.0521C66.3021 30.0521 66.1172 30.1583 65.9686 30.3709C65.8201 30.5835 65.7458 30.8736 65.7458 31.2408V32.9227H65.2275V29.6232H65.7458V30.3029H65.7585C65.8325 30.0708 65.945 29.8903 66.0967 29.76C66.2483 29.6301 66.418 29.5649 66.6054 29.5649C66.7401 29.5649 66.8437 29.5801 66.9151 29.61V30.1577V30.1583Z" fill="#231916"/>
<path d="M69.7518 32.9224H69.2335V32.4068H69.2208C68.9952 32.8022 68.6637 32.9996 68.2254 32.9996C67.9032 32.9996 67.6508 32.9127 67.4688 32.7385C67.2868 32.5649 67.1953 32.3337 67.1953 32.0459C67.1953 31.4296 67.5515 31.0707 68.2634 30.9697L69.2335 30.8311C69.2335 30.2707 69.0112 29.9901 68.5667 29.9901C68.177 29.9901 67.8253 30.1256 67.5113 30.3961V29.8547C67.8295 29.6484 68.1961 29.5454 68.6108 29.5454C69.3714 29.5454 69.7518 29.9557 69.7518 30.7763V32.9224ZM69.2338 31.2531L68.4533 31.3627C68.2133 31.3972 68.0321 31.4577 67.9097 31.5449C67.7876 31.6319 67.7265 31.7859 67.7265 32.0071C67.7265 32.1684 67.7828 32.3001 67.8956 32.4019C68.0084 32.5041 68.1587 32.5549 68.3461 32.5549C68.6032 32.5549 68.8154 32.4631 68.9828 32.2794C69.1505 32.0955 69.234 31.8631 69.234 31.5817L69.2338 31.2531Z" fill="#231916"/>
<path d="M72.1631 32.8903C72.0409 32.9588 71.8797 32.9933 71.6797 32.9933C71.1127 32.9933 70.8297 32.6711 70.8297 32.0266V30.0739H70.2734V29.6229H70.8297V28.8172L71.348 28.6465V29.6226H72.1631V30.0736H71.348V31.9328C71.348 32.1537 71.3848 32.3118 71.4585 32.4062C71.5322 32.5006 71.6544 32.548 71.8251 32.548C71.9557 32.548 72.0682 32.5115 72.1631 32.4384V32.8894V32.8903Z" fill="#231916"/>
<path d="M73.0483 28.7849C72.9554 28.7849 72.8765 28.7528 72.8109 28.6882C72.7458 28.6237 72.7129 28.5422 72.7129 28.4435C72.7129 28.3448 72.7456 28.2625 72.8109 28.197C72.8762 28.1316 72.9554 28.0986 73.0483 28.0986C73.1432 28.0986 73.2238 28.1313 73.2902 28.197C73.3564 28.2625 73.3897 28.3448 73.3897 28.4435C73.3897 28.5379 73.3564 28.6185 73.2902 28.6854C73.2238 28.7517 73.1432 28.7849 73.0483 28.7849ZM73.3015 32.9223H72.7827V29.6227H73.3015V32.9223Z" fill="#231916"/>
<path d="M75.6359 32.9998C75.1576 32.9998 74.7757 32.8457 74.4904 32.5376C74.2049 32.2294 74.0625 31.8206 74.0625 31.3116C74.0625 30.7573 74.2108 30.3246 74.5079 30.0133C74.805 29.7017 75.2062 29.5459 75.7118 29.5459C76.1941 29.5459 76.5708 29.6971 76.8415 30.0004C77.1122 30.3031 77.2475 30.7231 77.2475 31.2602C77.2475 31.7864 77.1015 32.2082 76.8097 32.5249C76.5179 32.8417 76.1266 32.9998 75.6359 32.9998ZM75.6739 29.9903C75.3407 29.9903 75.0776 30.1057 74.8838 30.3366C74.6899 30.5676 74.5931 30.8861 74.5931 31.2921C74.5931 31.6828 74.6911 31.9913 74.8869 32.2171C75.0827 32.4423 75.3452 32.5554 75.6739 32.5554C76.0087 32.5554 76.2661 32.4446 76.4465 32.2234C76.6265 32.0025 76.7166 31.6877 76.7166 31.2794C76.7166 30.8671 76.6265 30.549 76.4465 30.3257C76.2661 30.1025 76.0087 29.9903 75.6739 29.9903Z" fill="#231916"/>
<path d="M80.7074 32.9224H80.1891V31.0405C80.1891 30.3405 79.9384 29.9901 79.437 29.9901C79.1779 29.9901 78.9635 30.0897 78.7941 30.2882C78.6247 30.4868 78.5397 30.7375 78.5397 31.0405V32.9224H78.0215V29.6229H78.5397V30.1706H78.5524C78.7969 29.754 79.1509 29.5454 79.614 29.5454C79.9679 29.5454 80.2386 29.6619 80.4263 29.8952C80.6137 30.1281 80.7074 30.4647 80.7074 30.9051V32.9224Z" fill="#231916"/>
<path d="M84.8087 32.9998C84.3307 32.9998 83.9486 32.8457 83.6633 32.5376C83.378 32.2294 83.2354 31.8206 83.2354 31.3116C83.2354 30.7573 83.3839 30.3246 83.681 30.0133C83.9781 29.7017 84.3791 29.5459 84.8847 29.5459C85.3672 29.5459 85.7437 29.6971 86.0146 30.0004C86.285 30.3031 86.4206 30.7231 86.4206 31.2602C86.4206 31.7864 86.2746 32.2082 85.9826 32.5249C85.6905 32.8417 85.2994 32.9998 84.8087 32.9998ZM84.8467 29.9903C84.5141 29.9903 84.2508 30.1057 84.0566 30.3366C83.8631 30.5676 83.766 30.8861 83.766 31.2921C83.766 31.6828 83.8642 31.9913 84.06 32.2171C84.2558 32.4423 84.5181 32.5554 84.8467 32.5554C85.1818 32.5554 85.439 32.4446 85.6193 32.2234C85.7997 32.0025 85.8897 31.6877 85.8897 31.2794C85.8897 30.8671 85.7997 30.549 85.6193 30.3257C85.439 30.1025 85.1818 29.9903 84.8467 29.9903Z" fill="#231916"/>
<path d="M88.7441 28.5011C88.6431 28.4432 88.528 28.4142 88.3994 28.4142C88.0373 28.4142 87.8559 28.6469 87.8559 29.1131V29.6224H88.6141V30.0734H87.8559V32.9219H87.341V30.0734H86.7881V29.6224H87.341V29.0876C87.341 28.7418 87.4389 28.4684 87.635 28.2676C87.8305 28.0667 88.075 27.9663 88.3679 27.9663C88.5255 27.9663 88.6513 27.9855 88.7438 28.0243L88.7441 28.5011Z" fill="#231916"/>
<path d="M94.1665 32.9223H93.427L91.6764 30.8086C91.6111 30.7292 91.5712 30.6755 91.5563 30.6474H91.5436V32.9223H91.0127V28.3016H91.5436V30.4732H91.5563C91.5855 30.4259 91.6258 30.3734 91.6764 30.3151L93.3702 28.3013H94.0306L92.0875 30.5183L94.1667 32.922L94.1665 32.9223Z" fill="#231916"/>
<path d="M95.8409 32.9998C95.3629 32.9998 94.9808 32.8457 94.6955 32.5376C94.4099 32.2294 94.2676 31.8206 94.2676 31.3116C94.2676 30.7573 94.4159 30.3246 94.7132 30.0133C95.0101 29.7017 95.4113 29.5459 95.9169 29.5459C96.3994 29.5459 96.7759 29.6971 97.0466 30.0004C97.3172 30.3031 97.4526 30.7231 97.4526 31.2602C97.4526 31.7864 97.3068 32.2082 97.0148 32.5249C96.7227 32.8417 96.3316 32.9998 95.8409 32.9998ZM95.8789 29.9903C95.5461 29.9903 95.2827 30.1057 95.0889 30.3366C94.8953 30.5676 94.7982 30.8861 94.7982 31.2921C94.7982 31.6828 94.8961 31.9913 95.0922 32.2171C95.2878 32.4423 95.5503 32.5554 95.8789 32.5554C96.2137 32.5554 96.4712 32.4446 96.6515 32.2234C96.8316 32.0025 96.9216 31.6877 96.9216 31.2794C96.9216 30.8671 96.8316 30.549 96.6515 30.3257C96.4712 30.1025 96.2137 29.9903 95.8789 29.9903Z" fill="#231916"/>
<path d="M99.9142 30.1583C99.8236 30.0874 99.693 30.0521 99.5222 30.0521C99.3011 30.0521 99.1162 30.1583 98.9677 30.3709C98.8191 30.5835 98.7448 30.8736 98.7448 31.2408V32.9227H98.2266V29.6232H98.7448V30.3029H98.7575C98.8312 30.0708 98.944 29.8903 99.0957 29.76C99.2473 29.6301 99.417 29.5649 99.6044 29.5649C99.7392 29.5649 99.8424 29.5801 99.9142 29.61V30.1577V30.1583Z" fill="#231916"/>
<path d="M103.061 31.4048H100.777C100.785 31.7718 100.882 32.0556 101.067 32.2555C101.253 32.4549 101.507 32.5551 101.832 32.5551C102.196 32.5551 102.531 32.4326 102.837 32.1878V32.6839C102.552 32.8942 102.176 32.9998 101.709 32.9998C101.252 32.9998 100.893 32.85 100.631 32.5505C100.37 32.2507 100.239 31.8292 100.239 31.2858C100.239 30.7725 100.382 30.3541 100.667 30.0308C100.953 29.7074 101.307 29.5459 101.73 29.5459C102.154 29.5459 102.481 29.6853 102.713 29.9648C102.945 30.2443 103.061 30.6319 103.061 31.128V31.4054L103.061 31.4048ZM102.53 30.9567C102.528 30.6517 102.456 30.4141 102.314 30.2448C102.171 30.075 101.974 29.99 101.721 29.99C101.477 29.99 101.27 30.0793 101.099 30.2577C100.928 30.4359 100.823 30.6689 100.783 30.9567H102.53Z" fill="#231916"/>
<path d="M106.11 32.9224H105.592V32.4068H105.579C105.354 32.8022 105.022 32.9996 104.584 32.9996C104.262 32.9996 104.009 32.9127 103.827 32.7385C103.645 32.5649 103.554 32.3337 103.554 32.0459C103.554 31.4296 103.91 31.0707 104.622 30.9697L105.592 30.8311C105.592 30.2707 105.37 29.9901 104.925 29.9901C104.535 29.9901 104.183 30.1256 103.87 30.3961V29.8547C104.188 29.6484 104.555 29.5454 104.969 29.5454C105.73 29.5454 106.11 29.9557 106.11 30.7763V32.9224ZM105.592 31.2531L104.811 31.3627C104.571 31.3972 104.39 31.4577 104.268 31.5449C104.145 31.6319 104.085 31.7859 104.085 32.0071C104.085 32.1684 104.141 32.3001 104.254 32.4019C104.366 32.5041 104.517 32.5549 104.704 32.5549C104.961 32.5549 105.173 32.4631 105.341 32.2794C105.509 32.0955 105.592 31.8631 105.592 31.5817V31.2531H105.592Z" fill="#231916"/>
<path d="M109.712 32.9224H109.194V31.0405C109.194 30.3405 108.943 29.9901 108.442 29.9901C108.183 29.9901 107.968 30.0897 107.799 30.2882C107.63 30.4868 107.545 30.7375 107.545 31.0405V32.9224H107.026V29.6229H107.545V30.1706H107.557C107.802 29.754 108.155 29.5454 108.619 29.5454C108.973 29.5454 109.243 29.6619 109.431 29.8952C109.619 30.1281 109.712 30.4647 109.712 30.9051V32.9224Z" fill="#231916"/>
<path d="M115.614 32.7285C115.279 32.909 114.862 32.9991 114.363 32.9991C113.718 32.9991 113.202 32.7876 112.815 32.3641C112.427 31.9409 112.233 31.3857 112.233 30.6983C112.233 29.9595 112.451 29.3621 112.888 28.9068C113.323 28.4514 113.877 28.2236 114.546 28.2236C114.976 28.2236 115.332 28.287 115.615 28.4139V28.9906C115.29 28.8058 114.932 28.7134 114.54 28.7134C114.02 28.7134 113.598 28.8907 113.275 29.2448C112.951 29.5994 112.79 30.0731 112.79 30.6659C112.79 31.2288 112.941 31.6769 113.243 32.0109C113.545 32.3449 113.942 32.5122 114.433 32.5122C114.888 32.5122 115.282 32.4092 115.615 32.2029V32.7279L115.614 32.7285Z" fill="#231916"/>
<path d="M118.938 32.9223H118.42V32.4004H118.407C118.192 32.8001 117.859 32.9998 117.408 32.9998C116.637 32.9998 116.252 32.5315 116.252 31.595V29.623H116.767V31.5112C116.767 32.2073 117.028 32.5553 117.55 32.5553C117.803 32.5553 118.012 32.4604 118.175 32.2701C118.338 32.0802 118.42 31.8314 118.42 31.5242V29.623H118.938V32.9223Z" fill="#231916"/>
<path d="M120.41 32.9223H119.892V28.0376H120.41V32.9223Z" fill="#231916"/>
<path d="M122.908 32.8903C122.786 32.9588 122.625 32.9933 122.425 32.9933C121.858 32.9933 121.575 32.6711 121.575 32.0266V30.0739H121.019V29.6229H121.575V28.8172L122.093 28.6465V29.6226H122.908V30.0736H122.093V31.9328C122.093 32.1537 122.13 32.3118 122.204 32.4062C122.277 32.5006 122.399 32.548 122.57 32.548C122.701 32.548 122.813 32.5115 122.908 32.4384V32.8894V32.8903Z" fill="#231916"/>
<path d="M126.18 32.9223H125.662V32.4004H125.649C125.434 32.8001 125.102 32.9998 124.651 32.9998C123.88 32.9998 123.494 32.5315 123.494 31.595V29.623H124.009V31.5112C124.009 32.2073 124.27 32.5553 124.793 32.5553C125.045 32.5553 125.254 32.4604 125.417 32.2701C125.58 32.0802 125.662 31.8314 125.662 31.5242V29.623H126.18V32.9223Z" fill="#231916"/>
<path d="M128.821 30.1583C128.731 30.0874 128.6 30.0521 128.429 30.0521C128.208 30.0521 128.023 30.1583 127.875 30.3709C127.726 30.5835 127.652 30.8736 127.652 31.2408V32.9227H127.134V29.6232H127.652V30.3029H127.665C127.738 30.0708 127.851 29.8903 128.003 29.76C128.155 29.6301 128.324 29.5649 128.512 29.5649C128.646 29.5649 128.75 29.5801 128.821 29.61V30.1577V30.1583Z" fill="#231916"/>
<path d="M131.658 32.9224H131.139V32.4068H131.127C130.901 32.8022 130.57 32.9996 130.132 32.9996C129.809 32.9996 129.557 32.9127 129.375 32.7385C129.193 32.5649 129.102 32.3337 129.102 32.0459C129.102 31.4296 129.458 31.0707 130.17 30.9697L131.139 30.8311C131.139 30.2707 130.917 29.9901 130.473 29.9901C130.083 29.9901 129.731 30.1256 129.418 30.3961V29.8547C129.736 29.6484 130.102 29.5454 130.517 29.5454C131.278 29.5454 131.658 29.9557 131.658 30.7763V32.9224ZM131.139 31.2531L130.359 31.3627C130.119 31.3972 129.938 31.4577 129.816 31.5449C129.693 31.6319 129.632 31.7859 129.632 32.0071C129.632 32.1684 129.689 32.3001 129.802 32.4019C129.914 32.5041 130.065 32.5549 130.252 32.5549C130.509 32.5549 130.721 32.4631 130.889 32.2794C131.056 32.0955 131.14 31.8631 131.14 31.5817V31.2531H131.139Z" fill="#231916"/>
<path d="M133.092 32.9223H132.573V28.0376H133.092V32.9223Z" fill="#231916"/>
<path d="M139.066 32.7285C138.732 32.909 138.314 32.9991 137.815 32.9991C137.171 32.9991 136.655 32.7876 136.267 32.3641C135.879 31.9409 135.686 31.3857 135.686 30.6983C135.686 29.9595 135.903 29.3621 136.34 28.9068C136.776 28.4514 137.329 28.2236 137.998 28.2236C138.428 28.2236 138.784 28.287 139.066 28.4139V28.9906C138.742 28.8058 138.384 28.7134 137.992 28.7134C137.472 28.7134 137.05 28.8907 136.727 29.2448C136.403 29.5994 136.242 30.0731 136.242 30.6659C136.242 31.2288 136.393 31.6769 136.695 32.0109C136.997 32.3449 137.394 32.5122 137.884 32.5122C138.339 32.5122 138.734 32.4092 139.066 32.2029V32.7279L139.066 32.7285Z" fill="#231916"/>
<path d="M142.407 31.4048H140.122C140.131 31.7718 140.227 32.0556 140.413 32.2555C140.598 32.4549 140.853 32.5551 141.177 32.5551C141.542 32.5551 141.877 32.4326 142.182 32.1878V32.6839C141.898 32.8942 141.522 32.9998 141.054 32.9998C140.597 32.9998 140.238 32.85 139.977 32.5505C139.715 32.2507 139.585 31.8292 139.585 31.2858C139.585 30.7725 139.728 30.3541 140.013 30.0308C140.298 29.7074 140.653 29.5459 141.076 29.5459C141.5 29.5459 141.827 29.6853 142.059 29.9648C142.291 30.2443 142.406 30.6319 142.406 31.128V31.4054L142.407 31.4048ZM141.876 30.9567C141.874 30.6517 141.801 30.4141 141.659 30.2448C141.517 30.075 141.32 29.99 141.067 29.99C140.823 29.99 140.615 30.0793 140.445 30.2577C140.274 30.4359 140.169 30.6689 140.129 30.9567H141.876Z" fill="#231916"/>
<path d="M145.852 32.9224H145.334V31.0405C145.334 30.3405 145.083 29.9901 144.582 29.9901C144.322 29.9901 144.108 30.0897 143.939 30.2882C143.769 30.4868 143.684 30.7375 143.684 31.0405V32.9224H143.166V29.6229H143.684V30.1706H143.697C143.941 29.754 144.295 29.5454 144.759 29.5454C145.113 29.5454 145.383 29.6619 145.571 29.8952C145.758 30.1281 145.852 30.4647 145.852 30.9051V32.9221L145.852 32.9224Z" fill="#231916"/>
<path d="M148.249 32.8903C148.127 32.9588 147.966 32.9933 147.766 32.9933C147.199 32.9933 146.916 32.6711 146.916 32.0266V30.0739H146.359V29.6229H146.916V28.8172L147.434 28.6465V29.6226H148.249V30.0736H147.434V31.9328C147.434 32.1537 147.471 32.3118 147.544 32.4062C147.618 32.5006 147.74 32.548 147.911 32.548C148.042 32.548 148.154 32.5115 148.249 32.4384V32.8894V32.8903Z" fill="#231916"/>
<path d="M151.462 31.4048H149.177C149.185 31.7718 149.282 32.0556 149.468 32.2555C149.653 32.4549 149.908 32.5551 150.232 32.5551C150.597 32.5551 150.932 32.4326 151.237 32.1878V32.6839C150.953 32.8942 150.577 32.9998 150.109 32.9998C149.652 32.9998 149.293 32.85 149.032 32.5505C148.77 32.2507 148.64 31.8292 148.64 31.2858C148.64 30.7725 148.782 30.3541 149.068 30.0308C149.353 29.7074 149.707 29.5459 150.131 29.5459C150.554 29.5459 150.882 29.6853 151.113 29.9648C151.345 30.2443 151.461 30.6319 151.461 31.128V31.4054L151.462 31.4048ZM150.931 30.9567C150.929 30.6517 150.856 30.4141 150.714 30.2448C150.572 30.075 150.375 29.99 150.122 29.99C149.877 29.99 149.67 30.0793 149.499 30.2577C149.329 30.4359 149.223 30.6689 149.183 30.9567H150.931Z" fill="#231916"/>
<path d="M153.908 30.1583C153.818 30.0874 153.687 30.0521 153.516 30.0521C153.295 30.0521 153.11 30.1583 152.962 30.3709C152.813 30.5835 152.739 30.8736 152.739 31.2408V32.9227H152.221V29.6232H152.739V30.3029H152.752C152.825 30.0708 152.938 29.8903 153.09 29.76C153.241 29.6301 153.411 29.5649 153.599 29.5649C153.733 29.5649 153.837 29.5801 153.908 29.61V30.1577V30.1583Z" fill="#231916"/>
<path d="M154.355 32.803V32.236C154.637 32.4489 154.948 32.5551 155.287 32.5551C155.742 32.5551 155.969 32.4004 155.969 32.0911C155.969 32.003 155.95 31.9284 155.911 31.8673C155.872 31.8059 155.82 31.752 155.753 31.7047C155.687 31.6573 155.609 31.6151 155.519 31.5775C155.43 31.54 155.333 31.5007 155.23 31.4599C155.087 31.402 154.961 31.3434 154.852 31.2843C154.744 31.2252 154.654 31.1587 154.581 31.0846C154.508 31.0106 154.453 30.9262 154.416 30.8316C154.38 30.7372 154.361 30.6264 154.361 30.4999C154.361 30.3452 154.396 30.2081 154.465 30.089C154.535 29.9697 154.628 29.8698 154.743 29.7892C154.859 29.7089 154.991 29.648 155.14 29.607C155.288 29.5663 155.442 29.5459 155.6 29.5459C155.88 29.5459 156.131 29.5952 156.352 29.6942V30.229C156.114 30.0701 155.84 29.9906 155.53 29.9906C155.433 29.9906 155.346 30.0018 155.268 30.0245C155.19 30.0469 155.123 30.0784 155.067 30.1194C155.011 30.1605 154.968 30.2092 154.938 30.2661C154.907 30.3229 154.892 30.386 154.892 30.4546C154.892 30.5406 154.907 30.6124 154.938 30.6706C154.968 30.7283 155.013 30.7799 155.072 30.8253C155.131 30.87 155.203 30.911 155.287 30.9475C155.371 30.9842 155.467 31.0241 155.574 31.0668C155.718 31.1225 155.846 31.1799 155.96 31.2393C156.074 31.2987 156.171 31.3649 156.251 31.439C156.33 31.5133 156.392 31.5988 156.435 31.6952C156.478 31.7922 156.5 31.9069 156.5 32.0401C156.5 32.2033 156.465 32.345 156.394 32.4653C156.323 32.5855 156.229 32.6856 156.111 32.7648C155.993 32.8443 155.858 32.9034 155.704 32.9421C155.55 32.9809 155.389 33.0001 155.22 33.0001C154.887 33.0001 154.599 32.9347 154.354 32.8033L154.355 32.803Z" fill="#231916"/>
</svg>
