<svg width="18" height="18" viewBox="0 0 18 18" fill="none" xmlns="http://www.w3.org/2000/svg">
<g clip-path="url(#clip0_9_633)">
<path d="M8.99992 16.2967C14.6169 16.2967 18.1275 10.2161 15.319 5.35165C14.0156 3.0941 11.6067 1.70337 8.99992 1.70337M8.99992 16.2967C3.38293 16.2967 -0.127633 10.2161 2.68083 5.35165C3.98428 3.0941 6.3931 1.70337 8.99992 1.70337M8.99992 16.2967C11.2384 16.2967 12.1951 12.1108 12.1951 9.00001C12.1951 5.88916 11.2384 1.70337 8.99992 1.70337M8.99992 16.2967C6.76146 16.2967 5.80479 12.1108 5.80479 9.00001C5.80479 5.88916 6.76146 1.70337 8.99992 1.70337M2.10862 6.56782H15.8912M2.10862 11.4322H15.8912" stroke="white" stroke-width="1.5" stroke-linecap="round" stroke-linejoin="round"/>
</g>
<defs>
<clipPath id="clip0_9_633">
<rect width="18" height="18" fill="white"/>
</clipPath>
</defs>
</svg>
