<svg width="40" height="40" viewBox="0 0 40 40" fill="none" xmlns="http://www.w3.org/2000/svg">
<path d="M10.4617 18.5878C16.1715 16.1007 19.978 14.4609 21.8813 13.6687C27.3218 11.4066 28.4509 11.0137 29.1883 11.0004C29.3505 10.9977 29.7115 11.0378 29.9472 11.2284C30.143 11.3891 30.1981 11.6064 30.2256 11.7587C30.2501 11.9111 30.2837 12.2584 30.2562 12.5295C29.9624 15.6262 28.6865 23.1407 28.0378 26.609C27.7654 28.0766 27.2239 28.5687 26.7006 28.6167C25.5623 28.7213 24.6994 27.8652 23.5979 27.1433C21.8752 26.0133 20.9021 25.3101 19.2283 24.2076C17.2945 22.9335 18.549 22.2331 19.6506 21.0887C19.9382 20.7891 24.9504 16.2314 25.0452 15.818C25.0574 15.7663 25.0697 15.5735 24.9534 15.4719C24.8402 15.37 24.6719 15.4049 24.5495 15.4324C24.3751 15.4716 21.6242 17.2917 16.2878 20.8922C15.5075 21.4289 14.8007 21.6906 14.1642 21.6768C13.4666 21.6618 12.1202 21.2814 11.1196 20.9565C9.89566 20.5578 8.91957 20.3469 9.00524 19.6698C9.04807 19.3173 9.53457 18.9565 10.4617 18.5878Z" fill="white"/>
</svg>
