<svg width="40" height="40" viewBox="0 0 40 40" fill="none" xmlns="http://www.w3.org/2000/svg">
<path d="M29.6046 29.5741H25.7522V23.541C25.7522 22.1024 25.7265 20.2504 23.7486 20.2504C21.7421 20.2504 21.4352 21.8178 21.4352 23.4363V29.5737H17.5828V17.1672H21.2811V18.8627H21.3328C22.0869 17.5733 23.4891 16.8032 24.9817 16.8586C28.8863 16.8586 29.6062 19.4269 29.6062 22.7681L29.6046 29.5741ZM13.236 15.4713C12.0013 15.4715 11.0002 14.4708 11 13.2361C10.9998 12.0013 12.0005 11.0002 13.2352 11C14.4699 10.9998 15.4709 12.0005 15.4712 13.2353C15.4713 13.8282 15.2358 14.3969 14.8167 14.8162C14.3975 15.2355 13.8289 15.4712 13.236 15.4713ZM15.1622 29.5741H11.3058V17.1672H15.1622V29.5741Z" fill="white"/>
</svg>
