<svg width="40" height="40" viewBox="0 0 40 40" fill="none" xmlns="http://www.w3.org/2000/svg">
<path d="M30.5145 14.5055C30.2577 13.52 29.5164 12.7502 28.5674 12.4835C26.8602 12 19.9889 12 19.9889 12C19.9889 12 13.1176 12.0147 11.4104 12.4982C10.4614 12.7648 9.72004 13.5346 9.46325 14.5201C8.94684 17.6703 8.74649 22.4703 9.47736 25.4945C9.73415 26.48 10.4755 27.2498 11.4244 27.5165C13.1317 28 20.003 28 20.003 28C20.003 28 26.8743 28 28.5815 27.5165C29.5305 27.2498 30.2718 26.48 30.5286 25.4945C31.0732 22.3399 31.2411 17.5429 30.5145 14.5055Z" fill="white"/>
<path d="M17.8021 23.4285L23.5023 19.9999L17.8021 16.5713V23.4285Z" fill="#002237"/>
</svg>
