<svg width="160" height="50" viewBox="0 0 160 50" fill="none" xmlns="http://www.w3.org/2000/svg">
<g clip-path="url(#clip0_13_606)">
<path d="M151.175 0.0610352L137.075 12.0793L142.082 16.3415L152.928 7.09762V39.9086L106.186 0.0610352H97.9358V49.0488H103.713L121.496 33.8903L116.488 29.6281L104.427 39.9086V7.09762L153.649 49.0488H159.426V0.0610352H151.175Z" fill="#59BD7B"/>
<path d="M30.1069 28.2928C29.9053 28.2562 29.6794 28.2197 29.429 28.1892C29.1786 28.1587 28.916 28.1465 28.6351 28.1465C27.829 28.1465 27.1389 28.3538 26.5649 28.7562C25.9847 29.1648 25.4962 29.6221 25.0992 30.1282C24.6473 30.7136 24.2565 31.366 23.9328 32.0794V28.5794H18.6565V28.8721L20.916 29.3111V41.2623L18.6565 41.7014V41.994H26.1924V41.7014L23.9328 41.2623V32.8111C24.1832 32.3233 24.5069 31.8904 24.9099 31.5001C25.2336 31.1709 25.6489 30.8721 26.1557 30.5977C26.6565 30.3294 27.2366 30.1892 27.8901 30.1892C28.116 30.1892 28.3359 30.2136 28.5496 30.2623C28.7634 30.3111 28.9466 30.366 29.0931 30.4209C29.2702 30.5001 29.4351 30.5672 29.5817 30.6221L30.7115 28.4392C30.5344 28.4026 30.3328 28.3538 30.1069 28.2928Z" fill="white"/>
<path d="M41.7406 30.0306C41.0749 29.4148 40.3115 28.9514 39.4444 28.6282C38.5772 28.3111 37.6795 28.1465 36.7512 28.1465C35.823 28.1465 34.8948 28.305 34.0398 28.6282C33.1848 28.9514 32.4276 29.4148 31.7619 30.0306C31.0963 30.6404 30.5711 31.3904 30.1802 32.2745C29.7955 33.1587 29.6001 34.1648 29.6001 35.2928C29.6001 36.4209 29.7955 37.427 30.1802 38.3111C30.5711 39.1953 31.0963 39.9453 31.7619 40.555C32.4276 41.1648 33.1848 41.6343 34.0398 41.9514C34.8948 42.2745 35.7986 42.4331 36.7512 42.4331C37.7039 42.4331 38.5772 42.2745 39.4444 41.9514C40.3115 41.6282 41.081 41.1648 41.7406 40.555C42.4062 39.9453 42.9314 39.1953 43.3222 38.3111C43.707 37.427 43.9024 36.4209 43.9024 35.2928C43.9024 34.1648 43.707 33.1587 43.3222 32.2745C42.9314 31.3904 42.4062 30.6404 41.7406 30.0306ZM40.1589 38.5001C39.9146 39.3538 39.6215 40.0428 39.2551 40.555C38.8886 41.0672 38.4856 41.4392 38.052 41.6648C37.6123 41.8904 37.1787 42.0001 36.7512 42.0001C36.3238 42.0001 35.8902 41.8904 35.4505 41.6648C35.0108 41.4453 34.6077 41.0733 34.2474 40.555C33.8871 40.0367 33.5818 39.3538 33.3436 38.5001C33.1054 37.6465 32.9894 36.5794 32.9894 35.2928C32.9894 34.0062 33.1054 32.9453 33.3436 32.0855C33.5818 31.2318 33.881 30.5489 34.2474 30.0306C34.6138 29.5123 35.0108 29.1465 35.4505 28.9209C35.8902 28.6953 36.3238 28.5855 36.7512 28.5855C37.1787 28.5855 37.6123 28.6953 38.052 28.9209C38.4917 29.1465 38.8948 29.5123 39.2551 30.0306C39.6215 30.5428 39.9207 31.2318 40.1589 32.0855C40.397 32.9392 40.5192 34.0062 40.5192 35.2928C40.5192 36.5794 40.397 37.6465 40.1589 38.5001Z" fill="white"/>
<path d="M53.6978 28.8781L55.768 29.3172V39.2257C55.4932 39.7318 55.1695 40.1708 54.7909 40.5367C54.4611 40.8659 54.0703 41.1708 53.6062 41.4391C53.142 41.7135 52.6107 41.8476 52.0062 41.8476C51.255 41.8476 50.5955 41.5611 50.0275 40.9879C49.4596 40.4147 49.1787 39.4391 49.1787 38.0611V29.3172L51.2489 28.8781V28.5854H43.9023V28.8781L46.1619 29.3172V38.0611C46.1619 38.7196 46.2962 39.3172 46.5588 39.8537C46.8214 40.3903 47.1939 40.8476 47.6703 41.2257C48.1466 41.6037 48.7023 41.9025 49.3436 42.1159C49.9848 42.3294 50.681 42.4391 51.4382 42.4391C52.1955 42.4391 52.8367 42.3294 53.3741 42.1037C53.9176 41.8781 54.3634 41.6342 54.7115 41.3598C55.139 41.0306 55.4871 40.6586 55.7619 40.2501V42.0001H61.0382V41.7074L58.7787 41.2684V29.3172L61.0382 28.8781V28.5854H53.6978V28.8781Z" fill="white"/>
<path d="M77.032 32.2743C76.6412 31.3902 76.1404 30.6401 75.5236 30.0304C74.9129 29.4206 74.2106 28.9511 73.4167 28.6341C72.6229 28.317 71.829 28.1523 71.0229 28.1523C70.2717 28.1523 69.6122 28.2682 69.0625 28.4999C68.5129 28.7316 68.0549 28.9877 67.7068 29.256C67.2793 29.5853 66.9435 29.945 66.6931 30.3353V28.5853H61.4167V28.878L63.6763 29.317V48.2621L61.4167 48.7011V48.9938H68.9526V48.7011L66.6931 48.2621V40.9755C66.919 41.2499 67.2183 41.4938 67.5969 41.7072C67.9206 41.9023 68.3297 42.0731 68.8183 42.2194C69.3068 42.3658 69.9175 42.4389 70.6442 42.4389C71.548 42.4389 72.4152 42.2804 73.2458 41.9572C74.0763 41.6341 74.8152 41.1706 75.4687 40.5609C76.1221 39.945 76.6412 39.2011 77.032 38.317C77.4229 37.4328 77.6183 36.4267 77.6183 35.2987C77.6183 34.1706 77.4229 33.1645 77.032 32.2804M73.8687 38.4084C73.6305 39.2438 73.3129 39.9206 72.9282 40.4328C72.5374 40.945 72.0977 41.3109 71.6091 41.5243C71.1206 41.7377 70.6137 41.8475 70.0824 41.8475C69.5022 41.8475 69.0015 41.756 68.574 41.567C68.1465 41.3841 67.7984 41.1828 67.5175 40.9694C67.1877 40.7194 66.9129 40.4267 66.687 40.0975V31.3536C66.9618 30.8658 67.2916 30.4328 67.6641 30.0426C67.9938 29.7133 68.3786 29.4145 68.8305 29.1402C69.2824 28.8658 69.8198 28.7316 70.4488 28.7316C70.8763 28.7316 71.3099 28.8414 71.7496 29.067C72.1893 29.2926 72.5923 29.6523 72.9587 30.1584C73.319 30.6645 73.6244 31.3353 73.8625 32.1706C74.1007 33.006 74.2229 34.0426 74.2229 35.2926C74.2229 36.5426 74.1007 37.5731 73.8625 38.4084" fill="white"/>
<path d="M14.4061 27.4755C13.2397 27.6706 12.3969 28.4145 12 28.8292C11.6397 28.6828 11.2488 28.5548 10.8213 28.4389C10.4977 28.3536 10.1313 28.2926 9.72821 28.2377C9.32516 28.1767 8.90989 28.1523 8.48241 28.1523C7.50531 28.1523 6.59539 28.2804 5.77096 28.5304C4.94043 28.7804 4.22592 29.1341 3.62134 29.5792C3.02287 30.0243 2.54653 30.5487 2.21066 31.1523C1.87478 31.756 1.70379 32.4023 1.70379 33.1036C1.70379 33.8048 1.83814 34.3962 2.10073 34.8841C2.36333 35.3719 2.67478 35.7804 3.02287 36.1097C3.39539 36.4755 3.83508 36.7926 4.34195 37.0426C3.81676 37.2987 3.33432 37.567 2.91295 37.8597C2.55875 38.1341 2.24119 38.4389 1.95417 38.7804C1.66714 39.1219 1.52058 39.5121 1.52058 39.9633C1.52058 40.6219 1.85035 41.1767 2.516 41.628C3.18165 42.0731 4.23203 42.2987 5.66104 42.2987H11.6885C14.0702 42.2987 15.2671 43.2194 15.2671 45.067C15.2671 45.5731 15.1267 46.0548 14.8519 46.5243C14.5771 46.9877 14.1801 47.3962 13.6671 47.7499C13.1542 48.1036 12.5191 48.378 11.7618 48.5792C11.0107 48.7865 10.1679 48.8841 9.23966 48.8841C7.63356 48.8841 6.38165 48.5548 5.49004 47.8902C4.59844 47.2316 4.15264 46.3841 4.15264 45.3536C4.15264 45.0609 4.21371 44.7682 4.34195 44.4816C4.39081 44.3231 4.45798 44.1828 4.53127 44.0426L1.70379 43.1706C1.55722 43.2865 1.42898 43.4206 1.32516 43.5792C1.22745 43.7133 1.13585 43.8841 1.06256 44.0914C0.989281 44.2926 0.946533 44.5243 0.946533 44.7743C0.946533 45.4328 1.11753 46.0487 1.4534 46.6097C1.79539 47.1767 2.30226 47.6645 2.98012 48.0792C3.65798 48.4999 4.51905 48.8292 5.56333 49.0731C6.6076 49.317 7.82898 49.4389 9.23966 49.4389C10.3694 49.4389 11.3954 49.3048 12.3297 49.0304C13.258 48.756 14.0519 48.3841 14.6992 47.9084C15.3526 47.4328 15.8595 46.878 16.2259 46.2438C16.5923 45.6097 16.7755 44.9267 16.7755 44.1889C16.7755 42.945 16.3053 41.9511 15.3649 41.2011C14.4244 40.4511 13.1969 40.0792 11.6946 40.0792H5.66714C4.61066 40.0792 3.90837 39.9877 3.56027 39.8048C3.20607 39.6219 3.03508 39.3841 3.03508 39.0914C3.03508 38.878 3.12669 38.6645 3.316 38.4511C3.50531 38.2377 3.72516 38.0548 3.97554 37.8962C4.25035 37.7011 4.5618 37.5182 4.916 37.3414C5.21524 37.4938 5.55722 37.6219 5.92974 37.7194C6.25951 37.817 6.63203 37.8962 7.05951 37.9633C7.48699 38.0304 7.96333 38.067 8.48852 38.067C9.46562 38.067 10.3694 37.9389 11.2 37.6889C12.0305 37.4328 12.745 37.0853 13.3435 36.6402C13.9481 36.195 14.4183 35.6706 14.7542 35.067C15.0962 34.4633 15.261 33.8109 15.261 33.1158C15.261 32.2377 15.0412 31.445 14.5649 30.756C14.0763 30.0487 13.3801 29.506 12.4763 29.0731C13.0687 28.4938 13.9297 28.1401 14.9862 28.4145C16.2931 28.756 16.7878 30.2377 16.7878 30.2377L18.4244 28.5975C17.429 27.8109 16.171 27.195 14.4 27.4938M11.5969 35.1584C11.4076 35.7316 11.1511 36.2011 10.8274 36.5731C10.4977 36.945 10.1374 37.2133 9.73432 37.378C9.33127 37.5426 8.916 37.6219 8.48852 37.6219C8.06104 37.6219 7.64577 37.5426 7.24272 37.378C6.83966 37.2133 6.47936 36.945 6.14959 36.5731C5.81982 36.2072 5.56333 35.7316 5.38012 35.1584C5.19081 34.5853 5.0931 33.9023 5.0931 33.1036C5.0931 32.3048 5.19081 31.6219 5.38012 31.0487C5.56943 30.4755 5.82592 30.0121 6.14959 29.6523C6.47936 29.2926 6.83966 29.0243 7.24272 28.8536C7.64577 28.6767 8.05493 28.5914 8.48852 28.5914C8.92211 28.5914 9.33127 28.6767 9.73432 28.8536C10.1374 29.0304 10.5038 29.2987 10.8274 29.6523C11.1511 30.0121 11.4076 30.4816 11.5969 31.0487C11.7862 31.6219 11.8778 32.3109 11.8778 33.1036C11.8778 33.8962 11.7862 34.5853 11.5969 35.1584Z" fill="white"/>
<path d="M15.2122 0.292683L17.6611 1.01829V15.5671L5.25191 0H0V0.292683L2.44886 0.878049V19.3841L0 20.1159V20.4024H5.64885V20.1159L3.2 19.3841V2.47561L17.8504 20.6951H18.4122V1.01829L20.8611 0.292683V0H15.2122V0.292683Z" fill="white"/>
<path d="M49.081 8.62805L53.9787 1.01829L56.4276 0.292683V0H50.7787V0.292683L53.2214 1.01829L48.7024 8.01829L44.3726 0.731707L46.6321 0.292683V0H38.5344V0.292683L40.794 0.731707L46.8581 10.9024L41.3558 19.3841L38.9131 20.1098V20.4024H44.5619V20.1098L42.1131 19.3841L47.2001 11.4878L52.0917 19.6768L49.8321 20.1098V20.4024H57.9298V20.1098L55.6703 19.6768L49.081 8.62805Z" fill="white"/>
<path d="M63.9572 0H63.6091H56.9709V4.23171H57.3496L59.0351 0.585366H63.6091V19.6768L61.3496 20.1098V20.4024H69.0687V20.1098L66.8091 19.6768V0.585366H71.3343L73.0259 4.23171H73.3984V0H63.9572Z" fill="white"/>
<path d="M35.7496 19.8171H33.7283L33.7344 19.8232H27.6397V9.90854H31.5909L33.2825 12.1646H33.6611V7.07317H33.2825L31.5909 9.32927H27.6397V0.585366H33.3557H35.371L37.0626 4.23171H37.4412V0H37.4351H33.4962H22.1802V0.292683L24.4397 0.731707V19.6768L22.1802 20.1098V20.4024H33.8687H37.8138V16.1768H37.4351L35.7496 19.8171Z" fill="white"/>
</g>
<defs>
<clipPath id="clip0_13_606">
<rect width="160" height="50" fill="white"/>
</clipPath>
</defs>
</svg>
