<svg width="24" height="19" viewBox="0 0 24 19" fill="none" xmlns="http://www.w3.org/2000/svg">
<g clip-path="url(#clip0_387_12738)">
<path d="M22.745 10.8247H17.7502C17.0575 10.8247 16.4952 10.2653 16.4952 9.57616C16.4952 8.88697 17.0575 8.32764 17.7502 8.32764H22.745C23.4377 8.32764 23.9999 8.88697 23.9999 9.57616C23.9999 10.2653 23.4377 10.8247 22.745 10.8247Z" fill="#C2D7FF"/>
<path d="M21.5955 19.0002C21.3671 19.0002 21.1362 18.9377 20.9278 18.8079L16.6559 16.1286C16.0686 15.7615 15.8929 14.9899 16.2644 14.4056C16.6334 13.8213 17.4089 13.6465 17.9962 14.0161L22.2682 16.6954C22.8555 17.0625 23.0312 17.8341 22.6597 18.4184C22.4213 18.7954 22.0147 19.0002 21.598 19.0002H21.5955Z" fill="#C2D7FF"/>
<path d="M17.3261 5.32854C16.9094 5.32854 16.5028 5.12128 16.2644 4.74673C15.8954 4.16242 16.0711 3.39333 16.6559 3.02377L20.9278 0.344438C21.5152 -0.0226268 22.2882 0.152166 22.6597 0.733977C23.0286 1.31829 22.853 2.08737 22.2681 2.45694L17.9962 5.13626C17.7879 5.26611 17.557 5.32854 17.3286 5.32854H17.3261Z" fill="#C2D7FF"/>
<path d="M4.73625 4.97441H2.57519C1.15206 4.97441 0 6.12055 0 7.53637V11.4368C0 12.8526 1.15206 13.9987 2.57519 13.9987H4.73625C5.10772 13.9987 5.46413 14.1386 5.7352 14.3883L10.3033 18.5808C11.247 19.4473 12.7756 18.7806 12.7756 17.5046V1.46856C12.7756 0.190071 11.247 -0.474143 10.3033 0.392331L5.7352 4.58487C5.46413 4.83457 5.10521 4.97441 4.73625 4.97441Z" fill="#336DE2"/>
</g>
<defs>
<clipPath id="clip0_387_12738">
<rect width="24" height="19" fill="white"/>
</clipPath>
</defs>
</svg>
