<svg width="9" height="14" viewBox="0 0 9 14" fill="none" xmlns="http://www.w3.org/2000/svg">
<path d="M6.05 7.00029L0.7625 1.71279C0.5875 1.53779 0.5 1.32529 0.5 1.07529C0.5 0.825293 0.5875 0.612793 0.7625 0.437793C0.9375 0.262793 1.15 0.175293 1.4 0.175293C1.65 0.175293 1.8625 0.262793 2.0375 0.437793L7.64375 6.04404C7.78125 6.18154 7.88125 6.33154 7.94375 6.49404C8.00625 6.65654 8.0375 6.82529 8.0375 7.00029C8.0375 7.17529 8.00625 7.34404 7.94375 7.50654C7.88125 7.66904 7.78125 7.81904 7.64375 7.95654L2.0375 13.5628C1.8625 13.7378 1.65 13.8253 1.4 13.8253C1.15 13.8253 0.9375 13.7378 0.7625 13.5628C0.5875 13.3878 0.5 13.1753 0.5 12.9253C0.5 12.6753 0.5875 12.4628 0.7625 12.2878L6.05 7.00029Z" fill="white"/>
</svg>
