<svg width="8" height="12" viewBox="0 0 8 12" fill="none" xmlns="http://www.w3.org/2000/svg">
<path d="M4.98812 5.99276L1.10895 2.11359C0.914506 1.91915 0.814853 1.67852 0.809992 1.39172C0.805131 1.10491 0.899923 0.864285 1.09437 0.669841C1.28881 0.475396 1.53187 0.378174 1.82353 0.378174C2.1152 0.378174 2.35826 0.475396 2.5527 0.669841L6.69437 4.78234C6.86937 4.95734 6.99576 5.14692 7.07353 5.35109C7.15131 5.55526 7.1902 5.76915 7.1902 5.99276C7.1902 6.21637 7.15131 6.43026 7.07353 6.63442C6.99576 6.83859 6.86937 7.02817 6.69437 7.20317L2.56728 11.3303C2.37284 11.5247 2.12978 11.6219 1.83812 11.6219C1.54645 11.6219 1.3034 11.5247 1.10895 11.3303C0.914506 11.1358 0.817284 10.8928 0.817284 10.6011C0.817284 10.3094 0.914506 10.0664 1.10895 9.87192L4.98812 5.99276Z" fill="#929BAA"/>
</svg>
