<svg width="12" height="8" viewBox="0 0 12 8" fill="none" xmlns="http://www.w3.org/2000/svg">
<path d="M6.00724 4.98787L9.88641 1.10871C10.0809 0.914262 10.3215 0.814609 10.6083 0.809748C10.8951 0.804887 11.1357 0.899679 11.3302 1.09412C11.5246 1.28857 11.6218 1.53162 11.6218 1.82329C11.6218 2.11496 11.5246 2.35801 11.3302 2.55246L7.21766 6.69412C7.04266 6.86912 6.85308 6.99551 6.64891 7.07329C6.44474 7.15107 6.23085 7.18996 6.00724 7.18996C5.78363 7.18996 5.56974 7.15107 5.36558 7.07329C5.16141 6.99551 4.97183 6.86912 4.79683 6.69412L0.669742 2.56704C0.475297 2.37259 0.378076 2.12954 0.378076 1.83787C0.378076 1.54621 0.475297 1.30315 0.669742 1.10871C0.864186 0.914262 1.10724 0.817039 1.39891 0.817039C1.69058 0.817039 1.93363 0.914262 2.12808 1.10871L6.00724 4.98787Z" fill="#929BAA"/>
</svg>
