<svg width="17" height="20" viewBox="0 0 17 20" fill="none" xmlns="http://www.w3.org/2000/svg">
<g clip-path="url(#clip0_387_12744)">
<path d="M17 1.87778C17 0.844444 16.1286 0 15.0622 0H5.53824L0 5.36667V18.12C0 19.1533 0.871442 19.9978 1.93781 19.9978H15.0622C16.1286 19.9978 17 19.1533 17 18.12V1.87778Z" fill="#94B7FF"/>
<path d="M3.60043 5.36667C4.6668 5.36667 5.53824 4.52222 5.53824 3.48889V0L0 5.36667H3.60043Z" fill="#D1E1FF"/>
<path d="M12.902 15.9311H4.10041C3.5936 15.9311 3.18311 15.5333 3.18311 15.0422C3.18311 14.5511 3.5936 14.1533 4.10041 14.1533H12.902C13.4088 14.1533 13.8193 14.5511 13.8193 15.0422C13.8193 15.5333 13.4088 15.9311 12.902 15.9311Z" fill="white"/>
<path d="M12.902 11.7778H4.10041C3.5936 11.7778 3.18311 11.38 3.18311 10.8889C3.18311 10.3978 3.5936 10 4.10041 10H12.902C13.4088 10 13.8193 10.3978 13.8193 10.8889C13.8193 11.38 13.4088 11.7778 12.902 11.7778Z" fill="white"/>
</g>
<defs>
<clipPath id="clip0_387_12744">
<rect width="17" height="20" fill="white"/>
</clipPath>
</defs>
</svg>
