<svg width="9" height="14" viewBox="0 0 9 14" fill="none" xmlns="http://www.w3.org/2000/svg">
<path d="M2.95 6.99971L8.2375 12.2872C8.4125 12.4622 8.5 12.6747 8.5 12.9247C8.5 13.1747 8.4125 13.3872 8.2375 13.5622C8.0625 13.7372 7.85 13.8247 7.6 13.8247C7.35 13.8247 7.1375 13.7372 6.9625 13.5622L1.35625 7.95596C1.21875 7.81846 1.11875 7.66846 1.05625 7.50596C0.99375 7.34346 0.9625 7.17471 0.9625 6.99971C0.9625 6.82471 0.99375 6.65596 1.05625 6.49346C1.11875 6.33096 1.21875 6.18096 1.35625 6.04346L6.9625 0.437207C7.1375 0.262207 7.35 0.174707 7.6 0.174707C7.85 0.174707 8.0625 0.262207 8.2375 0.437207C8.4125 0.612207 8.5 0.824707 8.5 1.07471C8.5 1.32471 8.4125 1.53721 8.2375 1.71221L2.95 6.99971Z" fill="white"/>
</svg>
