<svg width="16" height="18" viewBox="0 0 16 18" fill="none" xmlns="http://www.w3.org/2000/svg">
<path d="M13.0072 7.00195H2.99282C1.89222 7.00195 1 7.83789 1 8.86907V15.1348C1 16.166 1.89222 17.002 2.99282 17.002H13.0072C14.1078 17.002 15 16.166 15 15.1348V8.86907C15 7.83789 14.1078 7.00195 13.0072 7.00195Z" stroke="#929BAA" stroke-width="1.5" stroke-linecap="round" stroke-linejoin="round"/>
<path d="M4.5 6.99405V4.89622C4.5 2.75171 6.07502 0.99707 8 0.99707C9.92498 0.99707 11.5 2.75171 11.5 4.89622V6.99405" stroke="#929BAA" stroke-width="1.5" stroke-linecap="round" stroke-linejoin="round"/>
<path d="M8 13.4907C8.82843 13.4907 9.5 12.8194 9.5 11.9914C9.5 11.1634 8.82843 10.4922 8 10.4922C7.17157 10.4922 6.5 11.1634 6.5 11.9914C6.5 12.8194 7.17157 13.4907 8 13.4907Z" stroke="#929BAA" stroke-width="1.5" stroke-linecap="round" stroke-linejoin="round"/>
</svg>
