<svg width="23" height="23" viewBox="0 0 23 23" fill="none" xmlns="http://www.w3.org/2000/svg">
<path d="M22.2 22.2C21.6201 22.7799 20.6799 22.7799 20.1 22.2L16.2 18.3C15.45 18.9 14.5875 19.375 13.6125 19.725C12.6375 20.075 11.6 20.25 10.5 20.25C7.775 20.25 5.46875 19.3062 3.58125 17.4188C1.69375 15.5312 0.75 13.225 0.75 10.5C0.75 7.775 1.69375 5.46875 3.58125 3.58125C5.46875 1.69375 7.775 0.75 10.5 0.75C13.225 0.75 15.5312 1.69375 17.4188 3.58125C19.3062 5.46875 20.25 7.775 20.25 10.5C20.25 11.6 20.075 12.6375 19.725 13.6125C19.375 14.5875 18.9 15.45 18.3 16.2L22.2 20.1C22.7799 20.6799 22.7799 21.6201 22.2 22.2ZM10.5 17.25C12.375 17.25 13.9688 16.5938 15.2812 15.2812C16.5938 13.9688 17.25 12.375 17.25 10.5C17.25 8.625 16.5938 7.03125 15.2812 5.71875C13.9688 4.40625 12.375 3.75 10.5 3.75C8.625 3.75 7.03125 4.40625 5.71875 5.71875C4.40625 7.03125 3.75 8.625 3.75 10.5C3.75 12.375 4.40625 13.9688 5.71875 15.2812C7.03125 16.5938 8.625 17.25 10.5 17.25Z" fill="#001030"/>
</svg>
