<svg width="184" height="46" viewBox="0 0 184 46" fill="none" xmlns="http://www.w3.org/2000/svg">
<path d="M58.4935 13.2339H48.5117V12.0072H50.7606V10.6964C50.3557 10.516 50.0451 10.2915 49.8287 10.0229C49.6161 9.7543 49.51 9.44561 49.51 9.09686C49.51 8.6599 49.6722 8.28308 49.9969 7.96639C50.3217 7.64567 50.7847 7.40115 51.386 7.23278C51.9874 7.06441 52.6928 6.98023 53.5027 6.98023C54.3045 6.98023 55.0039 7.06441 55.6013 7.23278C56.1986 7.40115 56.6595 7.64567 56.9842 7.96639C57.3129 8.28308 57.4794 8.6599 57.4833 9.09686C57.4794 9.44561 57.3671 9.7583 57.1467 10.0349C56.9261 10.3075 56.6095 10.532 56.1966 10.7084V12.0072H58.4935V13.2339ZM53.4906 13.8112C54.2804 13.8112 54.9599 13.8873 55.5291 14.0397C56.0983 14.192 56.5353 14.4145 56.8401 14.7071C57.1447 14.9998 57.299 15.3546 57.303 15.7715C57.299 16.1964 57.1447 16.5572 56.8401 16.8538C56.5353 17.1505 56.0983 17.375 55.5291 17.5273C54.9599 17.6796 54.2804 17.7558 53.4906 17.7558C52.6888 17.7558 52.0014 17.6796 51.4282 17.5273C50.8548 17.375 50.416 17.1505 50.1112 16.8538C49.8066 16.5572 49.6543 16.1964 49.6543 15.7715C49.6543 15.3546 49.8066 14.9998 50.1112 14.7071C50.416 14.4145 50.8548 14.192 51.4282 14.0397C52.0014 13.8873 52.6888 13.8112 53.4906 13.8112ZM53.4906 14.9657C51.9633 14.9657 51.2056 15.2343 51.2177 15.7715C51.2056 16.3327 51.9633 16.6133 53.4906 16.6133C54.9939 16.6133 55.7516 16.3327 55.7636 15.7715C55.7516 15.2343 54.9939 14.9657 53.4906 14.9657ZM53.5027 8.15881C52.7251 8.15881 52.1296 8.23898 51.7167 8.39933C51.3079 8.55968 51.1055 8.79219 51.1095 9.09686C51.1055 9.39351 51.3079 9.618 51.7167 9.77033C52.1256 9.92267 52.7209 9.99882 53.5027 9.99882C54.2764 9.99882 54.8677 9.92267 55.2766 9.77033C55.6895 9.618 55.896 9.39351 55.896 9.09686C55.896 8.79219 55.6895 8.55968 55.2766 8.39933C54.8637 8.23898 54.2724 8.15881 53.5027 8.15881ZM54.6692 12.0072V11.0932C54.3246 11.1333 53.9356 11.1534 53.5027 11.1534C53.0456 11.1534 52.6488 11.1313 52.3121 11.0872V12.0072H54.6692ZM88.4214 14.7011H86.8821V6.83591H88.4214V14.7011ZM88.7101 17.5754H81.0853V13.9074H82.6368V16.3487H88.7101V17.5754ZM82.4204 7.53344C82.9775 7.53344 83.4826 7.6517 83.9357 7.8882C84.3926 8.12472 84.7534 8.45344 85.018 8.87438C85.2826 9.29128 85.4149 9.76231 85.4149 10.2875C85.4149 10.8206 85.2826 11.2997 85.018 11.7246C84.7575 12.1455 84.3986 12.4743 83.9417 12.7108C83.4848 12.9473 82.9775 13.0655 82.4204 13.0655C81.8632 13.0655 81.3561 12.9473 80.899 12.7108C80.4421 12.4743 80.0813 12.1455 79.8167 11.7246C79.5561 11.2997 79.4257 10.8206 79.4257 10.2875C79.4257 9.76231 79.5581 9.29128 79.8227 8.87438C80.0873 8.45344 80.446 8.12472 80.899 7.8882C81.3561 7.6517 81.8632 7.53344 82.4204 7.53344ZM82.4204 8.86837C82.1357 8.86435 81.8791 8.92047 81.6507 9.03672C81.4222 9.14897 81.2438 9.31333 81.1154 9.52981C80.9872 9.74628 80.9251 9.99882 80.929 10.2875C80.9251 10.5841 80.9872 10.8427 81.1154 11.0632C81.2438 11.2796 81.4202 11.446 81.6446 11.5623C81.8731 11.6745 82.1317 11.7306 82.4204 11.7306C82.7009 11.7306 82.9516 11.6745 83.172 11.5623C83.3966 11.446 83.5728 11.2796 83.7012 11.0632C83.8334 10.8427 83.8997 10.5841 83.8997 10.2875C83.8997 9.99882 83.8334 9.74628 83.7012 9.52981C83.5728 9.31333 83.3966 9.14897 83.172 9.03672C82.9474 8.92047 82.697 8.86435 82.4204 8.86837ZM120.009 13.4504H115.884V15.3385H114.369V13.4504H109.991V12.2357H120.009V13.4504ZM118.722 11.3337H111.242V7.30493H118.722V11.3337ZM112.745 10.1431H117.219V8.49555H112.745V10.1431ZM118.903 17.5754H111.17V14.3884H112.697V16.3487H118.903V17.5754ZM149.504 11.2736H150.935V12.5484H149.504V17.7678H147.952V6.82388H149.504V11.2736ZM140.616 14.6771C141.771 14.6771 142.673 14.6691 143.322 14.653V13.715C142.934 13.6388 142.595 13.5085 142.306 13.3241C142.018 13.1397 141.795 12.9112 141.639 12.6386C141.482 12.366 141.406 12.0634 141.41 11.7306C141.406 11.3257 141.516 10.969 141.741 10.6603C141.969 10.3476 142.288 10.1051 142.697 9.93269C143.106 9.76031 143.575 9.67413 144.104 9.67413C144.621 9.67413 145.082 9.76031 145.487 9.93269C145.896 10.1051 146.215 10.3476 146.443 10.6603C146.676 10.969 146.794 11.3257 146.798 11.7306C146.794 12.0634 146.712 12.368 146.551 12.6446C146.391 12.9172 146.165 13.1457 145.872 13.3301C145.583 13.5145 145.247 13.6428 144.862 13.715V14.5989C145.836 14.5468 146.686 14.4686 147.411 14.3644L147.508 15.4828C146.477 15.6753 145.431 15.7975 144.369 15.8496C143.306 15.9017 142.124 15.9278 140.821 15.9278L140.616 14.6771ZM147.327 9.24117H140.833V8.03854H143.322V6.88401H144.862V8.03854H147.327V9.24117ZM144.104 10.8407C143.723 10.8407 143.421 10.9209 143.196 11.0812C142.972 11.2375 142.861 11.454 142.865 11.7306C142.861 12.0153 142.972 12.2357 143.196 12.3921C143.421 12.5444 143.723 12.6206 144.104 12.6206C144.473 12.6206 144.768 12.5444 144.988 12.3921C145.208 12.2357 145.319 12.0153 145.319 11.7306C145.319 11.454 145.208 11.2375 144.988 11.0812C144.768 10.9209 144.473 10.8407 144.104 10.8407ZM180.767 15.098H179.227V14.2321H177.135V13.1858H179.227V6.83591H180.767V15.098ZM181.007 17.5754H172.853V14.3043H174.381V12.8491C173.635 12.8811 172.721 12.8972 171.639 12.8972L171.458 11.6825C172.869 11.6745 174.138 11.6504 175.265 11.6104C176.391 11.5703 177.463 11.4861 178.482 11.3578L178.566 12.4522C177.732 12.5925 176.85 12.6967 175.92 12.7649V14.8455H174.381V16.3487H181.007V17.5754ZM175.018 7.20873C175.543 7.20472 176.012 7.2849 176.425 7.44925C176.838 7.61362 177.161 7.84612 177.393 8.14678C177.63 8.44343 177.748 8.78417 177.748 9.16901C177.748 9.54985 177.632 9.88658 177.399 10.1792C177.167 10.4719 176.842 10.6984 176.425 10.8587C176.012 11.0151 175.543 11.0932 175.018 11.0932C174.481 11.0932 174.004 11.0151 173.587 10.8587C173.17 10.6984 172.845 10.4739 172.613 10.1852C172.38 9.89259 172.264 9.55386 172.264 9.16901C172.264 8.78417 172.378 8.44343 172.607 8.14678C172.839 7.84612 173.164 7.61362 173.581 7.44925C174.002 7.2849 174.481 7.20472 175.018 7.20873ZM175.018 8.32718C174.621 8.32718 174.305 8.40134 174.068 8.54966C173.831 8.69798 173.715 8.90444 173.719 9.16901C173.715 9.42958 173.829 9.63202 174.062 9.77634C174.299 9.91666 174.617 9.9868 175.018 9.9868C175.395 9.9868 175.7 9.91465 175.932 9.77033C176.169 9.62601 176.289 9.42558 176.293 9.16901C176.289 8.90444 176.169 8.69798 175.932 8.54966C175.7 8.40134 175.395 8.32718 175.018 8.32718Z" fill="white"/>
<path d="M63.2156 35.3847H47.0684V33.4003H50.7063V31.2798C50.0515 30.9879 49.5489 30.6248 49.1987 30.1903C48.8549 29.7558 48.6831 29.2565 48.6831 28.6924C48.6831 27.9856 48.9458 27.376 49.471 26.8636C49.9962 26.3448 50.7453 25.9493 51.718 25.6769C52.6907 25.4045 53.832 25.2683 55.1421 25.2683C56.439 25.2683 57.5705 25.4045 58.5368 25.6769C59.503 25.9493 60.2488 26.3448 60.774 26.8636C61.3057 27.376 61.5748 27.9856 61.5814 28.6924C61.5748 29.2565 61.3934 29.7624 61.0366 30.2099C60.68 30.6507 60.1677 31.014 59.4998 31.2992V33.4003H63.2156V35.3847ZM55.1225 36.3184C56.4 36.3184 57.4991 36.4416 58.42 36.6881C59.3409 36.9346 60.0478 37.2944 60.5406 37.7678C61.0333 38.2412 61.2831 38.8151 61.2896 39.4895C61.2831 40.1768 61.0333 40.7605 60.5406 41.2404C60.0478 41.7202 59.3409 42.0835 58.42 42.3298C57.4991 42.5763 56.4 42.6994 55.1225 42.6994C53.8256 42.6994 52.7135 42.5763 51.7861 42.3298C50.8588 42.0835 50.1487 41.7202 49.6559 41.2404C49.163 40.7605 48.9167 40.1768 48.9167 39.4895C48.9167 38.8151 49.163 38.2412 49.6559 37.7678C50.1487 37.2944 50.8588 36.9346 51.7861 36.6881C52.7135 36.4416 53.8256 36.3184 55.1225 36.3184ZM55.1225 38.1862C52.6519 38.1862 51.4262 38.6206 51.4456 39.4895C51.4262 40.3974 52.6519 40.8513 55.1225 40.8513C57.5544 40.8513 58.7799 40.3974 58.7994 39.4895C58.7799 38.6206 57.5544 38.1862 55.1225 38.1862ZM55.1421 27.175C53.884 27.175 52.921 27.3046 52.253 27.564C51.5916 27.8233 51.2641 28.1994 51.2707 28.6924C51.2641 29.1722 51.5916 29.5354 52.253 29.7817C52.9145 30.0282 53.8774 30.1514 55.1421 30.1514C56.3935 30.1514 57.3501 30.0282 58.0115 29.7817C58.6794 29.5354 59.0133 29.1722 59.0133 28.6924C59.0133 28.1994 58.6794 27.8233 58.0115 27.564C57.3436 27.3046 56.3872 27.175 55.1421 27.175ZM57.029 33.4003V31.9218C56.4714 31.9867 55.8424 32.0191 55.1421 32.0191C54.4026 32.0191 53.7608 31.9834 53.2161 31.912V33.4003H57.029ZM79.0599 37.758H76.5697V25.0349H79.0599V37.758ZM79.5268 42.4077H67.1928V36.474H69.7024V40.4233H79.5268V42.4077ZM69.3523 26.1633C70.2536 26.1633 71.0708 26.3546 71.8035 26.7372C72.5428 27.1197 73.1265 27.6516 73.5544 28.3324C73.9823 29.0068 74.1964 29.7689 74.1964 30.6183C74.1964 31.4808 73.9823 32.2558 73.5544 32.9431C73.1328 33.624 72.5525 34.1557 71.8133 34.5384C71.074 34.9211 70.2536 35.1123 69.3523 35.1123C68.4509 35.1123 67.6305 34.9211 66.8913 34.5384C66.152 34.1557 65.5683 33.624 65.1404 32.9431C64.7188 32.2558 64.5082 31.4808 64.5082 30.6183C64.5082 29.7689 64.722 29.0068 65.1502 28.3324C65.5781 27.6516 66.1585 27.1197 66.8913 26.7372C67.6305 26.3546 68.4509 26.1633 69.3523 26.1633ZM69.3523 28.3228C68.8917 28.3163 68.4768 28.407 68.1072 28.5952C67.7376 28.7766 67.4489 29.0425 67.2413 29.3927C67.034 29.7428 66.9335 30.1514 66.9398 30.6183C66.9335 31.0982 67.034 31.5165 67.2413 31.8731C67.4489 32.2234 67.7343 32.4925 68.0974 32.6805C68.4671 32.8621 68.8854 32.9528 69.3523 32.9528C69.8061 32.9528 70.2114 32.8621 70.5682 32.6805C70.9313 32.4925 71.2165 32.2234 71.4241 31.8731C71.6382 31.5165 71.7452 31.0982 71.7452 30.6183C71.7452 30.1514 71.6382 29.7428 71.4241 29.3927C71.2165 29.0425 70.9313 28.7766 70.5682 28.5952C70.2049 28.407 69.7996 28.3163 69.3523 28.3228ZM96.2273 42.7579H93.7176V25.0155H96.2273V42.7579ZM91.0913 28.5952H84.9631V36.4353C86.6881 36.4287 88.0824 36.3963 89.1459 36.3378C90.2093 36.273 91.2664 36.1433 92.317 35.9488L92.5504 37.9915C91.3895 38.2121 90.1932 38.3578 88.9611 38.4292C87.7289 38.5006 86.0785 38.5362 84.01 38.5362H82.473V26.5719H91.0913V28.5952ZM105.438 29.8402C105.438 30.8193 105.603 31.7824 105.934 32.7292C106.271 33.6695 106.774 34.5158 107.442 35.2679C108.109 36.0202 108.92 36.5973 109.873 36.9994L108.531 38.9448C107.513 38.5168 106.641 37.8877 105.914 37.0577C105.188 36.2277 104.617 35.2583 104.202 34.1492C103.794 35.3555 103.22 36.4157 102.481 37.3301C101.741 38.238 100.866 38.9254 99.8543 39.3923L98.4342 37.4273C99.3809 37.0059 100.188 36.3931 100.856 35.589C101.531 34.7849 102.037 33.8833 102.374 32.8847C102.717 31.8796 102.889 30.8647 102.889 29.8402V28.7507H99.1346V26.7274H109.134V28.7507H105.438V29.8402ZM113.395 42.719H110.885V25.0155H113.395V42.719ZM124.784 27.9336H119.045V29.0231H124.259V30.8713H119.045V32.0774C120.504 32.0774 121.697 32.0548 122.624 32.0093C123.552 31.9638 124.486 31.8698 125.426 31.7271L125.601 33.6727C124.518 33.8348 123.448 33.9386 122.391 33.9839C121.334 34.0228 119.855 34.0424 117.955 34.0424H116.574V25.9882H124.784V27.9336ZM130.659 34.3924H128.188V30.7351H125.309V28.7897H128.188V25.0155H130.659V34.3924ZM130.659 39.6841H121.379V40.6957H131.184V42.6022H118.889V37.8942H128.188V36.9411H118.87V35.0344H130.659V39.6841ZM147.788 42.719H145.278V25.0155H147.788V42.719ZM142.477 26.8636C142.477 28.7572 142.22 30.479 141.708 32.0287C141.202 33.5786 140.346 35.002 139.14 36.2991C137.934 37.5894 136.309 38.7179 134.267 39.6841L132.963 37.6997C134.474 36.9864 135.719 36.192 136.698 35.3166C137.684 34.4411 138.436 33.4717 138.955 32.4081C139.481 31.3381 139.811 30.1385 139.947 28.809H133.917V26.8636H142.477ZM166.258 36.4936H150.053V34.5092H156.92V33.2252H152.076V28.3615H161.803V27.2722H152.037V25.3462H164.293V30.1514H154.547V31.3188H164.624V33.2252H159.391V34.5092H166.258V36.4936ZM164.391 42.6411H161.881V39.4506H151.862V37.5052H164.391V42.6411ZM177.161 27.4084C177.161 28.3163 177.139 29.1689 177.093 29.9666C177.048 30.7577 176.934 31.6364 176.753 32.6026L174.321 32.3691C174.567 31.014 174.703 29.6651 174.729 28.3228H168.057V26.2995H177.161V27.4084ZM172.765 33.7796C174.775 33.6888 176.519 33.5365 177.998 33.3225L178.134 35.1123C176.506 35.4106 174.811 35.6083 173.047 35.7056C171.283 35.8028 169.341 35.8581 167.22 35.8709L167.006 33.8866C168.413 33.8866 169.509 33.877 170.294 33.8574V30.3848H172.765V33.7796ZM181.499 30.4044H183.64V32.486H181.499V38.2639H178.951V25.0155H181.499V30.4044ZM182.044 42.4077H169.613V37.0771H172.103V40.4233H182.044V42.4077Z" fill="white"/>
<path d="M24.6794 42.9213C22.7101 42.9213 20.803 42.3649 19.1456 41.3089C17.5013 42.3457 15.6093 42.8919 13.6556 42.8919C11.485 42.8919 9.39782 42.2135 7.61956 40.9299C4.95996 38.9988 3.37225 35.8871 3.37225 32.6053C3.37225 31.7525 3.48725 30.8868 3.71472 30.0286C1.38373 28.0854 0 25.1607 0 22.1481C0 21.0702 0.170396 20.0002 0.506572 18.9672C1.81182 14.9533 5.48164 12.1414 9.69202 11.8958C11.252 8.01856 15.0448 5.43307 19.2179 5.43307C23.4153 5.43307 27.2126 8.04247 28.7551 11.9553C32.9385 12.2211 36.5881 15.03 37.891 19.0192C38.2245 20.0513 38.3937 21.12 38.3937 22.1966C38.3937 25.2319 36.992 28.173 34.6298 30.1204C34.8531 30.9928 34.966 31.8373 34.966 32.6337C34.966 35.9122 33.3784 39.0239 30.7184 40.9576C28.9425 42.2425 26.8546 42.9216 24.6788 42.9216L24.6794 42.9213ZM20.7476 40.0709C21.969 40.7109 23.3169 41.0468 24.6794 41.0468C26.4659 41.0468 28.1754 40.4921 29.622 39.4428C31.7894 37.8634 33.0838 35.3179 33.0838 32.6337C33.0838 32.1893 33.0396 31.7291 32.949 31.2369C32.3619 31.5622 31.8213 31.8019 31.2795 31.9789C30.2412 32.3088 29.1709 32.4758 28.0957 32.4758C27.9718 32.4758 27.8514 32.4657 27.7309 32.4532C27.485 32.7395 27.2197 33.0157 26.9411 33.2774L26.5949 33.6026L25.4898 32.0895L25.7584 31.8363L25.8712 31.7328C25.9234 31.6859 25.975 31.6393 26.0224 31.5911C26.2872 31.3179 26.5335 30.9971 26.7628 30.6927C27.1945 30.1171 27.5643 29.4873 27.8644 28.8148L25.9578 28.1679C25.5742 28.986 25.0394 29.7394 24.3961 30.3649C24.1614 30.592 23.8945 30.8117 23.5797 31.037C23.552 31.0641 23.5223 31.0889 23.4895 31.1107C23.1885 31.3253 22.854 31.4997 22.5679 31.6409C21.8362 32.02 21.0522 32.2728 20.2373 32.392L20.2277 34.4265C20.8601 34.3484 21.4976 34.2001 22.1633 33.9766C22.6132 33.8328 22.9489 33.7059 23.2582 33.5615C23.3283 33.526 23.4086 33.4815 23.4892 33.4371L23.6699 33.339L23.9923 33.1684L25.1062 34.701L24.6919 34.9308C24.2739 35.1627 23.8881 35.3514 23.5185 35.504C23.2179 36.5269 22.7839 37.4697 22.2258 38.3137L22.2385 38.3229L21.9913 38.6596C21.9407 38.7284 21.8897 38.7963 21.8375 38.8633L21.747 38.9888L21.7422 38.9854C21.4347 39.3727 21.1022 39.7359 20.748 40.0716L20.7476 40.0709ZM5.39182 31.1572C5.29614 31.6587 5.24829 32.144 5.24829 32.6053C5.24829 35.2918 6.54598 37.837 8.71959 39.4135C10.1625 40.4586 11.8694 41.0112 13.656 41.0112C15.0049 41.0112 16.3391 40.6825 17.5474 40.0557C17.1076 39.6352 16.7051 39.1748 16.3463 38.6822C15.6613 37.7473 15.1405 36.6649 14.798 35.4629C14.4392 35.3106 14.0908 35.138 13.7391 34.9375L13.3333 34.7061L14.4413 33.1738L14.7603 33.3335C14.8228 33.365 14.8836 33.3993 14.9441 33.4342C14.989 33.4601 15.0335 33.4856 15.0784 33.5083C15.4015 33.6593 15.7579 33.8044 16.1583 33.9464C16.8608 34.1854 17.5714 34.3484 18.2736 34.4323L18.2864 32.3994C17.4052 32.2795 16.5595 32.0088 15.7675 31.5924C15.5006 31.4511 15.1699 31.2758 14.8723 31.054C14.8203 31.0134 14.7779 30.9803 14.7342 30.9404L14.72 30.9316C14.4711 30.743 14.2138 30.548 13.9813 30.3142C13.3623 29.7008 12.8628 28.9968 12.4943 28.2186L10.5755 28.8368C10.8693 29.4894 11.2226 30.0943 11.6302 30.6398C11.8782 30.979 12.1212 31.2746 12.3751 31.5471C12.4268 31.6011 12.4859 31.6556 12.5447 31.7107C12.5925 31.7547 12.6404 31.7994 12.6874 31.8452L12.9455 32.0984L11.8493 33.6043L11.5026 33.2806C11.2084 33.0064 10.9247 32.7105 10.6561 32.3987C10.6548 32.3987 10.6535 32.3987 10.6523 32.3987C10.5343 32.4108 10.4168 32.4229 10.2985 32.4229C9.35374 32.4229 8.42832 32.2945 7.51423 32.0419L7.51044 32.0535C7.51044 32.0535 7.04291 31.9014 7.00681 31.8889L6.72141 31.7983L6.7252 31.7869C6.29039 31.6208 5.84971 31.412 5.3935 31.1569L5.39182 31.1572ZM17.0157 36.1198C17.2507 36.6417 17.534 37.1311 17.8626 37.5809C18.229 38.0844 18.6604 38.5527 19.1485 38.9774C19.6661 38.5351 20.1025 38.0665 20.4769 37.5519C20.7855 37.1227 21.0557 36.6528 21.2835 36.1513C20.5453 36.3018 19.8751 36.3735 19.2188 36.3735C18.525 36.3735 17.8106 36.2922 17.0157 36.1198ZM16.3517 29.7796L16.3786 29.7904L16.4092 29.8093C17.3028 30.3317 18.2479 30.5967 19.2175 30.5967C20.1583 30.5967 21.0774 30.3464 21.9489 29.8538C21.9614 29.8446 21.9967 29.8261 22.0318 29.808C22.2921 29.6508 22.5297 29.4798 22.7848 29.2714C22.7986 29.2576 22.8343 29.2283 22.8696 29.2009C24.0884 28.1268 24.7791 26.6146 24.7822 25.0392C24.7791 24.6542 24.7393 24.2791 24.6647 23.9272C24.6584 23.8954 24.6504 23.8736 24.6433 23.851C24.6332 23.8195 24.623 23.7876 24.6138 23.7534C24.543 23.4452 24.4599 23.1777 24.3628 22.9433C24.342 22.8935 24.3155 22.8368 24.2911 22.7877C23.4828 20.988 21.7604 19.749 19.7891 19.5395C19.7693 19.5395 19.7266 19.5344 19.6804 19.5299C19.5788 19.5201 19.5129 19.5109 19.4466 19.5016C19.3711 19.4908 19.2955 19.4786 19.2166 19.4786C19.1293 19.4786 19.0471 19.4908 18.9647 19.5022C18.8964 19.5114 18.8288 19.5207 18.7595 19.5265C18.7142 19.5323 18.653 19.539 18.5916 19.542C16.6564 19.7557 14.9424 20.9947 14.1441 22.7734C14.1336 22.8017 14.111 22.8457 14.0879 22.8884L14.0686 22.9257C13.9645 23.1764 13.8873 23.4712 13.821 23.749L13.8088 23.7911L13.7891 23.8439C13.7828 23.8599 13.7756 23.8762 13.7715 23.8928C13.69 24.2748 13.6481 24.6631 13.6481 25.0405C13.6502 26.6114 14.3074 28.0691 15.4989 29.1435C15.5283 29.1687 15.564 29.2002 15.6026 29.2379C15.8221 29.4266 16.0563 29.6005 16.2997 29.7528C16.3165 29.7615 16.3337 29.7707 16.3505 29.7805L16.3517 29.7796ZM30.4225 26.5145C30.2394 27.9412 29.7988 29.3049 29.1256 30.5275C29.678 30.4654 30.2043 30.3531 30.6978 30.193C31.2594 30.0117 31.8217 29.7477 32.4088 29.388C32.1491 28.7545 31.843 28.2002 31.4779 27.7009C31.1728 27.28 30.8195 26.8834 30.4225 26.5145ZM7.97379 30.2291C8.39685 30.3459 8.8308 30.4294 9.28323 30.4793C8.60417 29.2379 8.16558 27.8561 7.99225 26.4147C7.56291 26.8021 7.18225 27.2229 6.85697 27.6712C6.50358 28.1529 6.20267 28.6933 5.94079 29.3154C6.53298 29.682 7.10879 29.9527 7.69301 30.1398L7.97379 30.2291ZM30.4804 24.1516C31.4575 24.8219 32.3023 25.6432 32.9934 26.5958C33.3406 27.0721 33.6503 27.6071 33.9331 28.2192C35.5801 26.6302 36.5168 24.4648 36.5215 22.1954C36.5155 21.3052 36.3762 20.4294 36.1073 19.596C35.1112 16.5519 32.484 14.366 29.3228 13.901C29.4429 14.5316 29.5012 15.1277 29.5012 15.7092C29.5012 16.85 29.2926 18.0067 28.8813 19.1516C29.0845 19.4834 29.2795 19.8497 29.4621 20.2434L29.6608 20.6714L27.8363 21.2688L27.6302 20.8253C27.5891 20.7351 27.548 20.6442 27.5 20.5553C27.3242 20.2291 27.1308 19.8829 26.9104 19.5641C26.5377 19.0406 26.0987 18.5489 25.6043 18.1006L24.4398 19.786C25.0238 20.3662 25.4994 21.0236 25.8562 21.7451C26.0119 22.0604 26.1457 22.3891 26.2553 22.7227L26.2834 22.8189C26.4054 23.192 26.4917 23.5453 26.5433 23.8905C26.5998 24.2492 26.6557 24.6372 26.6557 25.0399C26.6557 25.4608 26.6182 25.886 26.5445 26.3078L28.4764 26.9656C28.6093 26.3518 28.6806 25.7288 28.6882 25.1071L28.6844 25.0186C28.6844 24.7112 28.6408 24.4077 28.5946 24.0863L28.5586 23.8287C28.5459 23.7168 28.5271 23.6196 28.5079 23.5194L28.4171 23.0138L30.2234 22.4351L30.3125 22.9002C30.391 23.3097 30.4471 23.7298 30.4804 24.1516ZM9.11997 13.8419C5.92987 14.288 3.28328 16.4798 2.28692 19.5525C2.01286 20.378 1.87435 21.2504 1.87435 22.1481C1.87435 24.3959 2.79642 26.5489 4.42232 28.1379C4.70017 27.5442 5.0036 27.0265 5.34272 26.5652C6.06543 25.5746 6.94594 24.7322 7.96119 24.0602C7.99225 23.7063 8.04471 23.3278 8.12027 22.9098L8.20546 22.4377L10.0219 23.0243L9.9346 23.4522C9.91362 23.5529 9.89304 23.6527 9.87879 23.755L9.84688 23.9885C9.80198 24.3121 9.75959 24.6182 9.75539 24.9309C9.75539 24.9688 9.75035 25.0099 9.74407 25.0495C9.74573 25.6894 9.8175 26.3417 9.95768 26.9879L11.8992 26.3623C11.8144 25.9087 11.7733 25.4726 11.7733 25.0396C11.7733 24.6022 11.8316 24.2007 11.8946 23.8316C11.9529 23.4607 12.0562 23.1114 12.1481 22.8138C12.1602 22.7727 12.1762 22.7227 12.1921 22.6758C12.3189 22.3019 12.4431 22.0034 12.5824 21.7368C12.9942 20.9104 13.5595 20.1717 14.2629 19.539L13.0429 17.9212C12.4565 18.4176 11.9441 18.9701 11.5168 19.5692C11.32 19.8485 11.1538 20.1494 10.9775 20.468L10.9268 20.5598C10.8814 20.6437 10.8403 20.7342 10.7988 20.8257L10.5902 21.273L8.76155 20.6765L8.96384 20.2471C9.1481 19.8555 9.34367 19.4888 9.54638 19.1541C9.13256 18.0025 8.92271 16.8445 8.92271 15.7101C8.92271 15.1223 8.98735 14.5068 9.11914 13.8423L9.11997 13.8419ZM19.3061 17.6038C19.6313 17.6097 19.9388 17.6554 20.2373 17.6998L20.3242 17.7128C21.2122 17.8449 22.0709 18.1459 22.8814 18.6095L24.0276 16.9485C23.4073 16.5817 22.7457 16.2853 22.055 16.0647C21.6604 15.9356 21.3038 15.8186 20.9302 15.7516C20.8248 15.7319 20.7225 15.7205 20.6209 15.7084L20.1382 15.6484V13.7371L20.6205 13.8096C21.0099 13.8683 21.4132 13.948 21.848 14.052C22.8017 13.3191 23.8349 12.7716 24.9215 12.4232C25.4873 12.2337 26.0853 12.1033 26.7689 12.0228C25.3576 9.14299 22.452 7.30962 19.2175 7.30543C15.9996 7.30962 13.1004 9.12453 11.6814 11.9762C12.3445 12.058 12.9262 12.1863 13.4789 12.3703C14.5823 12.7238 15.6332 13.2885 16.6015 14.0494C16.9934 13.953 17.3976 13.8725 17.8056 13.81L18.2886 13.7358V15.648L17.8597 15.7021C17.7388 15.7172 17.6167 15.7323 17.4958 15.752C17.1575 15.814 16.8243 15.9201 16.4718 16.0329L16.3891 16.0589C15.7831 16.2509 15.1988 16.5016 14.6465 16.8047L15.8708 18.423C16.5779 18.0679 17.3246 17.831 18.0951 17.7166C18.444 17.6608 18.7919 17.6093 19.1615 17.603C19.1583 17.6 19.1905 17.5971 19.2182 17.5971H19.2876L19.3064 17.6034L19.3061 17.6038ZM24.0728 14.8259C25.3252 15.4275 26.4719 16.2723 27.4471 17.312C27.5723 16.7452 27.6335 16.2165 27.6335 15.7096C27.6335 15.1273 27.5538 14.5257 27.3843 13.8381C26.714 13.8922 26.0795 14.0121 25.494 14.1957C25.0151 14.3521 24.545 14.5605 24.0728 14.8263V14.8259ZM11.0619 13.7882C10.8852 14.4884 10.8021 15.1063 10.8021 15.7096C10.8021 16.2182 10.8617 16.7389 10.9868 17.3091C11.968 16.2618 13.123 15.4132 14.3855 14.8112C13.8995 14.5362 13.4013 14.3152 12.8972 14.1526C12.3382 13.9631 11.7494 13.8457 11.0619 13.7882Z" fill="white"/>
</svg>
