<svg width="130" height="41" viewBox="0 0 130 41" fill="none" xmlns="http://www.w3.org/2000/svg">
<path d="M122.83 0.0499878L111.373 9.90499L115.442 13.4L124.254 5.81999V32.725L86.2763 0.0499878H79.5729V40.22H84.2668L98.7156 27.79L94.6469 24.295L84.8473 32.725V5.81999L124.84 40.22H129.534V0.0499878H122.83Z" fill="#59BD7B"/>
<path d="M24.4619 23.2C24.2981 23.17 24.1146 23.14 23.9111 23.115C23.7077 23.09 23.4943 23.08 23.2661 23.08C22.6111 23.08 22.0504 23.25 21.584 23.58C21.1126 23.915 20.7157 24.29 20.3932 24.705C20.026 25.185 19.7084 25.72 19.4455 26.305V23.435H15.1584V23.675L16.9943 24.035V33.835L15.1584 34.195V34.435H21.2813V34.195L19.4455 33.835V26.905C19.6489 26.505 19.9119 26.15 20.2394 25.83C20.5023 25.56 20.8397 25.315 21.2516 25.09C21.6584 24.87 22.1298 24.755 22.6607 24.755C22.8443 24.755 23.023 24.775 23.1966 24.815C23.3703 24.855 23.5191 24.9 23.6382 24.945C23.7821 25.01 23.9161 25.065 24.0352 25.11L24.9531 23.32C24.8092 23.29 24.6455 23.25 24.4619 23.2Z" fill="white"/>
<path d="M33.9142 24.625C33.3733 24.12 32.7531 23.74 32.0485 23.475C31.3439 23.215 30.6146 23.08 29.8604 23.08C29.1062 23.08 28.352 23.21 27.6573 23.475C26.9626 23.74 26.3474 24.12 25.8065 24.625C25.2657 25.125 24.839 25.74 24.5214 26.465C24.2088 27.19 24.05 28.015 24.05 28.94C24.05 29.865 24.2088 30.69 24.5214 31.415C24.839 32.14 25.2657 32.755 25.8065 33.255C26.3474 33.755 26.9626 34.14 27.6573 34.4C28.352 34.665 29.0863 34.795 29.8604 34.795C30.6344 34.795 31.3439 34.665 32.0485 34.4C32.7531 34.135 33.3783 33.755 33.9142 33.255C34.455 32.755 34.8817 32.14 35.1993 31.415C35.5119 30.69 35.6707 29.865 35.6707 28.94C35.6707 28.015 35.5119 27.19 35.1993 26.465C34.8817 25.74 34.455 25.125 33.9142 24.625ZM32.6291 31.57C32.4306 32.27 32.1924 32.835 31.8947 33.255C31.597 33.675 31.2695 33.98 30.9172 34.165C30.56 34.35 30.2077 34.44 29.8604 34.44C29.513 34.44 29.1607 34.35 28.8035 34.165C28.4462 33.985 28.1188 33.68 27.826 33.255C27.5333 32.83 27.2852 32.27 27.0917 31.57C26.8981 30.87 26.8039 29.995 26.8039 28.94C26.8039 27.885 26.8981 27.015 27.0917 26.31C27.2852 25.61 27.5283 25.05 27.826 24.625C28.1237 24.2 28.4462 23.9 28.8035 23.715C29.1607 23.53 29.513 23.44 29.8604 23.44C30.2077 23.44 30.56 23.53 30.9172 23.715C31.2745 23.9 31.602 24.2 31.8947 24.625C32.1924 25.045 32.4355 25.61 32.6291 26.31C32.8226 27.01 32.9218 27.885 32.9218 28.94C32.9218 29.995 32.8226 30.87 32.6291 31.57Z" fill="white"/>
<path d="M43.6294 23.68L45.3115 24.04V32.165C45.0882 32.58 44.8252 32.94 44.5176 33.24C44.2497 33.51 43.9321 33.76 43.555 33.98C43.1779 34.205 42.7462 34.315 42.255 34.315C41.6447 34.315 41.1088 34.08 40.6474 33.61C40.1859 33.14 39.9577 32.34 39.9577 31.21V24.04L41.6397 23.68V23.44H35.6707V23.68L37.5065 24.04V31.21C37.5065 31.75 37.6157 32.24 37.8291 32.68C38.0424 33.12 38.3451 33.495 38.7321 33.805C39.1191 34.115 39.5707 34.36 40.0916 34.535C40.6126 34.71 41.1783 34.8 41.7936 34.8C42.4088 34.8 42.9298 34.71 43.3665 34.525C43.8081 34.34 44.1703 34.14 44.4531 33.915C44.8004 33.645 45.0832 33.34 45.3065 33.005V34.44H49.5936V34.2L47.7577 33.84V24.04L49.5936 23.68V23.44H43.6294V23.68Z" fill="white"/>
<path d="M62.5885 26.465C62.271 25.74 61.8641 25.125 61.363 24.625C60.8668 24.125 60.2962 23.74 59.6511 23.48C59.0061 23.22 58.361 23.085 57.7061 23.085C57.0958 23.085 56.5599 23.18 56.1133 23.37C55.6668 23.56 55.2946 23.77 55.0118 23.99C54.6645 24.26 54.3916 24.555 54.1881 24.875V23.44H49.9011V23.68L51.737 24.04V39.575L49.9011 39.935V40.175H56.024V39.935L54.1881 39.575V33.6C54.3717 33.825 54.6149 34.025 54.9225 34.2C55.1855 34.36 55.5179 34.5 55.9149 34.62C56.3118 34.74 56.808 34.8 57.3985 34.8C58.1328 34.8 58.8374 34.67 59.5122 34.405C60.187 34.14 60.7874 33.76 61.3183 33.26C61.8492 32.755 62.271 32.145 62.5885 31.42C62.9061 30.695 63.0649 29.87 63.0649 28.945C63.0649 28.02 62.9061 27.195 62.5885 26.47M60.0183 31.495C59.8248 32.18 59.5668 32.735 59.2542 33.155C58.9366 33.575 58.5794 33.875 58.1824 34.05C57.7855 34.225 57.3736 34.315 56.942 34.315C56.4706 34.315 56.0637 34.24 55.7164 34.085C55.3691 33.935 55.0862 33.77 54.858 33.595C54.5901 33.39 54.3668 33.15 54.1832 32.88V25.71C54.4065 25.31 54.6744 24.955 54.9771 24.635C55.245 24.365 55.5576 24.12 55.9248 23.895C56.292 23.67 56.7286 23.56 57.2397 23.56C57.587 23.56 57.9393 23.65 58.2965 23.835C58.6538 24.02 58.9813 24.315 59.279 24.73C59.5717 25.145 59.8198 25.695 60.0133 26.38C60.2068 27.065 60.3061 27.915 60.3061 28.94C60.3061 29.965 60.2068 30.81 60.0133 31.495" fill="white"/>
<path d="M11.7049 22.53C10.7572 22.69 10.0725 23.3 9.74996 23.64C9.45721 23.52 9.13965 23.415 8.79233 23.32C8.52935 23.25 8.23164 23.2 7.90416 23.155C7.57668 23.105 7.23927 23.085 6.89194 23.085C6.09805 23.085 5.35874 23.19 4.68889 23.395C4.01408 23.6 3.43355 23.89 2.94233 24.255C2.45607 24.62 2.06904 25.05 1.79614 25.545C1.52324 26.04 1.38431 26.57 1.38431 27.145C1.38431 27.72 1.49347 28.205 1.70683 28.605C1.92019 29.005 2.17324 29.34 2.45607 29.61C2.75874 29.91 3.11599 30.17 3.52782 30.375C3.1011 30.585 2.70912 30.805 2.36675 31.045C2.07897 31.27 1.82095 31.52 1.58775 31.8C1.35454 32.08 1.23546 32.4 1.23546 32.77C1.23546 33.31 1.50339 33.765 2.04423 34.135C2.58507 34.5 3.43851 34.685 4.59958 34.685H9.49691C11.432 34.685 12.4045 35.44 12.4045 36.955C12.4045 37.37 12.2904 37.765 12.0671 38.15C11.8439 38.53 11.5213 38.865 11.1045 39.155C10.6877 39.445 10.1717 39.67 9.55645 39.835C8.94614 40.005 8.26141 40.085 7.50721 40.085C6.20225 40.085 5.18507 39.815 4.46065 39.27C3.73622 38.73 3.374 38.035 3.374 37.19C3.374 36.95 3.42362 36.71 3.52782 36.475C3.56752 36.345 3.6221 36.23 3.68164 36.115L1.38431 35.4C1.26523 35.495 1.16103 35.605 1.07668 35.735C0.997287 35.845 0.92286 35.985 0.863318 36.155C0.803776 36.32 0.769043 36.51 0.769043 36.715C0.769043 37.255 0.907974 37.76 1.18088 38.22C1.45874 38.685 1.87057 39.085 2.42133 39.425C2.9721 39.77 3.67171 40.04 4.52019 40.24C5.36866 40.44 6.36103 40.54 7.50721 40.54C8.42515 40.54 9.25874 40.43 10.0179 40.205C10.7721 39.98 11.4171 39.675 11.9431 39.285C12.474 38.895 12.8858 38.44 13.1835 37.92C13.4813 37.4 13.6301 36.84 13.6301 36.235C13.6301 35.215 13.2481 34.4 12.4839 33.785C11.7198 33.17 10.7225 32.865 9.50187 32.865H4.60454C3.74614 32.865 3.17553 32.79 2.89271 32.64C2.60492 32.49 2.46599 32.295 2.46599 32.055C2.46599 31.88 2.54042 31.705 2.69423 31.53C2.84805 31.355 3.02668 31.205 3.23011 31.075C3.45339 30.915 3.70645 30.765 3.99423 30.62C4.23736 30.745 4.51523 30.85 4.8179 30.93C5.08584 31.01 5.38851 31.075 5.73584 31.13C6.08317 31.185 6.47019 31.215 6.89691 31.215C7.6908 31.215 8.42515 31.11 9.09996 30.905C9.77477 30.695 10.3553 30.41 10.8416 30.045C11.3328 29.68 11.7148 29.25 11.9877 28.755C12.2656 28.26 12.3996 27.725 12.3996 27.155C12.3996 26.435 12.221 25.785 11.8339 25.22C11.437 24.64 10.8713 24.195 10.137 23.84C10.6183 23.365 11.3179 23.075 12.1763 23.3C13.2381 23.58 13.64 24.795 13.64 24.795L14.9698 23.45C14.161 22.805 13.1389 22.3 11.7 22.545M9.42248 28.83C9.26866 29.3 9.06026 29.685 8.79729 29.99C8.52935 30.295 8.2366 30.515 7.90912 30.65C7.58164 30.785 7.24423 30.85 6.89691 30.85C6.54958 30.85 6.21217 30.785 5.88469 30.65C5.55721 30.515 5.26446 30.295 4.99652 29.99C4.72858 29.69 4.52019 29.3 4.37133 28.83C4.21752 28.36 4.13813 27.8 4.13813 27.145C4.13813 26.49 4.21752 25.93 4.37133 25.46C4.52515 24.99 4.73355 24.61 4.99652 24.315C5.26446 24.02 5.55721 23.8 5.88469 23.66C6.21217 23.515 6.54462 23.445 6.89691 23.445C7.2492 23.445 7.58164 23.515 7.90912 23.66C8.2366 23.805 8.53431 24.025 8.79729 24.315C9.06026 24.61 9.26866 24.995 9.42248 25.46C9.57629 25.93 9.65072 26.495 9.65072 27.145C9.65072 27.795 9.57629 28.36 9.42248 28.83Z" fill="white"/>
<path d="M12.3599 0.24L14.3496 0.835V12.765L4.26718 0H0V0.24L1.98969 0.72V15.895L0 16.495V16.73H4.58969V16.495L2.6 15.895V2.03L14.5034 16.97H14.9599V0.835L16.9496 0.24V0H12.3599V0.24Z" fill="white"/>
<path d="M39.8782 7.075L43.8576 0.835L45.8473 0.24V0H41.2576V0.24L43.2423 0.835L39.5705 6.575L36.0526 0.6L37.8885 0.24V0H31.3091V0.24L33.145 0.6L38.0721 8.94L33.6014 15.895L31.6167 16.49V16.73H36.2064V16.49L34.2167 15.895L38.3499 9.42L42.3244 16.135L40.4885 16.49V16.73H47.0679V16.49L45.232 16.135L39.8782 7.075Z" fill="white"/>
<path d="M51.9653 0H51.6825H46.2889V3.47H46.5966L47.966 0.48H51.6825V16.135L49.8466 16.49V16.73H56.1183V16.49L54.2825 16.135V0.48H57.9592L59.3336 3.47H59.6363V0H51.9653Z" fill="white"/>
<path d="M29.0467 16.25H27.4043L27.4093 16.255H22.4574V8.125H25.6677L27.0421 9.975H27.3497V5.8H27.0421L25.6677 7.65H22.4574V0.48H27.1016H28.739L30.1135 3.47H30.4211V0H30.4161H27.2158H18.0215V0.24L19.8574 0.6V16.135L18.0215 16.49V16.73H27.5184H30.7238V13.265H30.4161L29.0467 16.25Z" fill="white"/>
</svg>
